G04 #@! TF.GenerationSoftware,KiCad,Pcbnew,(5.1.6)-1*
G04 #@! TF.CreationDate,2020-09-16T14:53:01+08:00*
G04 #@! TF.ProjectId,Numpad_Case,4e756d70-6164-45f4-9361-73652e6b6963,rev?*
G04 #@! TF.SameCoordinates,Original*
G04 #@! TF.FileFunction,Soldermask,Top*
G04 #@! TF.FilePolarity,Negative*
%FSLAX46Y46*%
G04 Gerber Fmt 4.6, Leading zero omitted, Abs format (unit mm)*
G04 Created by KiCad (PCBNEW (5.1.6)-1) date 2020-09-16 14:53:01*
%MOMM*%
%LPD*%
G01*
G04 APERTURE LIST*
%ADD10C,0.100000*%
G04 APERTURE END LIST*
D10*
G36*
X165475256Y-128566298D02*
G01*
X165581579Y-128587447D01*
X165882042Y-128711903D01*
X166152451Y-128892585D01*
X166382415Y-129122549D01*
X166563097Y-129392958D01*
X166687553Y-129693421D01*
X166751000Y-130012391D01*
X166751000Y-130337609D01*
X166687553Y-130656579D01*
X166563097Y-130957042D01*
X166382415Y-131227451D01*
X166152451Y-131457415D01*
X165882042Y-131638097D01*
X165581579Y-131762553D01*
X165475256Y-131783702D01*
X165262611Y-131826000D01*
X164937389Y-131826000D01*
X164724744Y-131783702D01*
X164618421Y-131762553D01*
X164317958Y-131638097D01*
X164047549Y-131457415D01*
X163817585Y-131227451D01*
X163636903Y-130957042D01*
X163512447Y-130656579D01*
X163449000Y-130337609D01*
X163449000Y-130012391D01*
X163512447Y-129693421D01*
X163636903Y-129392958D01*
X163817585Y-129122549D01*
X164047549Y-128892585D01*
X164317958Y-128711903D01*
X164618421Y-128587447D01*
X164724744Y-128566298D01*
X164937389Y-128524000D01*
X165262611Y-128524000D01*
X165475256Y-128566298D01*
G37*
G36*
X127375256Y-128566298D02*
G01*
X127481579Y-128587447D01*
X127782042Y-128711903D01*
X128052451Y-128892585D01*
X128282415Y-129122549D01*
X128463097Y-129392958D01*
X128587553Y-129693421D01*
X128651000Y-130012391D01*
X128651000Y-130337609D01*
X128587553Y-130656579D01*
X128463097Y-130957042D01*
X128282415Y-131227451D01*
X128052451Y-131457415D01*
X127782042Y-131638097D01*
X127481579Y-131762553D01*
X127375256Y-131783702D01*
X127162611Y-131826000D01*
X126837389Y-131826000D01*
X126624744Y-131783702D01*
X126518421Y-131762553D01*
X126217958Y-131638097D01*
X125947549Y-131457415D01*
X125717585Y-131227451D01*
X125536903Y-130957042D01*
X125412447Y-130656579D01*
X125349000Y-130337609D01*
X125349000Y-130012391D01*
X125412447Y-129693421D01*
X125536903Y-129392958D01*
X125717585Y-129122549D01*
X125947549Y-128892585D01*
X126217958Y-128711903D01*
X126518421Y-128587447D01*
X126624744Y-128566298D01*
X126837389Y-128524000D01*
X127162611Y-128524000D01*
X127375256Y-128566298D01*
G37*
G36*
X165475256Y-71416298D02*
G01*
X165581579Y-71437447D01*
X165882042Y-71561903D01*
X166152451Y-71742585D01*
X166382415Y-71972549D01*
X166563097Y-72242958D01*
X166687553Y-72543421D01*
X166751000Y-72862391D01*
X166751000Y-73187609D01*
X166687553Y-73506579D01*
X166563097Y-73807042D01*
X166382415Y-74077451D01*
X166152451Y-74307415D01*
X165882042Y-74488097D01*
X165581579Y-74612553D01*
X165475256Y-74633702D01*
X165262611Y-74676000D01*
X164937389Y-74676000D01*
X164724744Y-74633702D01*
X164618421Y-74612553D01*
X164317958Y-74488097D01*
X164047549Y-74307415D01*
X163817585Y-74077451D01*
X163636903Y-73807042D01*
X163512447Y-73506579D01*
X163449000Y-73187609D01*
X163449000Y-72862391D01*
X163512447Y-72543421D01*
X163636903Y-72242958D01*
X163817585Y-71972549D01*
X164047549Y-71742585D01*
X164317958Y-71561903D01*
X164618421Y-71437447D01*
X164724744Y-71416298D01*
X164937389Y-71374000D01*
X165262611Y-71374000D01*
X165475256Y-71416298D01*
G37*
G36*
X127375256Y-71416298D02*
G01*
X127481579Y-71437447D01*
X127782042Y-71561903D01*
X128052451Y-71742585D01*
X128282415Y-71972549D01*
X128463097Y-72242958D01*
X128587553Y-72543421D01*
X128651000Y-72862391D01*
X128651000Y-73187609D01*
X128587553Y-73506579D01*
X128463097Y-73807042D01*
X128282415Y-74077451D01*
X128052451Y-74307415D01*
X127782042Y-74488097D01*
X127481579Y-74612553D01*
X127375256Y-74633702D01*
X127162611Y-74676000D01*
X126837389Y-74676000D01*
X126624744Y-74633702D01*
X126518421Y-74612553D01*
X126217958Y-74488097D01*
X125947549Y-74307415D01*
X125717585Y-74077451D01*
X125536903Y-73807042D01*
X125412447Y-73506579D01*
X125349000Y-73187609D01*
X125349000Y-72862391D01*
X125412447Y-72543421D01*
X125536903Y-72242958D01*
X125717585Y-71972549D01*
X125947549Y-71742585D01*
X126217958Y-71561903D01*
X126518421Y-71437447D01*
X126624744Y-71416298D01*
X126837389Y-71374000D01*
X127162611Y-71374000D01*
X127375256Y-71416298D01*
G37*
M02*
