G04 #@! TF.GenerationSoftware,KiCad,Pcbnew,(5.1.6)-1*
G04 #@! TF.CreationDate,2020-09-16T14:53:01+08:00*
G04 #@! TF.ProjectId,Numpad_Case,4e756d70-6164-45f4-9361-73652e6b6963,rev?*
G04 #@! TF.SameCoordinates,Original*
G04 #@! TF.FileFunction,Profile,NP*
%FSLAX46Y46*%
G04 Gerber Fmt 4.6, Leading zero omitted, Abs format (unit mm)*
G04 Created by KiCad (PCBNEW (5.1.6)-1) date 2020-09-16 14:53:01*
%MOMM*%
%LPD*%
G01*
G04 APERTURE LIST*
G04 #@! TA.AperFunction,Profile*
%ADD10C,0.010000*%
G04 #@! TD*
G04 APERTURE END LIST*
D10*
X103950000Y-33195000D02*
X103950000Y-153812500D01*
X104950000Y-154812500D02*
X188420000Y-154812500D01*
X188420000Y-32195000D02*
G75*
G02*
X189420000Y-33195000I0J-1000000D01*
G01*
X189420000Y-153812500D02*
X189420000Y-33195000D01*
X104950000Y-32195000D02*
X188420000Y-32195000D01*
X189420000Y-153812500D02*
G75*
G02*
X188420000Y-154812500I-1000000J0D01*
G01*
X103950000Y-33195000D02*
G75*
G02*
X104950000Y-32195000I1000000J0D01*
G01*
X104950000Y-154812500D02*
G75*
G02*
X103950000Y-153812500I0J1000000D01*
G01*
X181649000Y-138750000D02*
X169349000Y-138750000D01*
X169349000Y-138750000D02*
X169349000Y-145400000D01*
X172579000Y-145400000D02*
X169349000Y-145400000D01*
X172579000Y-145400000D02*
X172579000Y-146275000D01*
X175379000Y-146275000D02*
X172579000Y-146275000D01*
X175379000Y-145400000D02*
X175379000Y-146275000D01*
X181649000Y-145400000D02*
X175379000Y-145400000D01*
X181649000Y-143575000D02*
X181649000Y-145400000D01*
X182849000Y-143575000D02*
X181649000Y-143575000D01*
X182849000Y-140575000D02*
X182849000Y-143575000D01*
X182849000Y-140575000D02*
X181649000Y-140575000D01*
X181649000Y-138750000D02*
X181649000Y-140575000D01*
X181879000Y-137175000D02*
X167879000Y-137175000D01*
X181879000Y-123175000D02*
X181879000Y-137175000D01*
X167879000Y-123175000D02*
X167879000Y-137175000D01*
X181879000Y-123175000D02*
X167879000Y-123175000D01*
X181649000Y-121600000D02*
X169349000Y-121600000D01*
X169349000Y-114950000D02*
X169349000Y-121600000D01*
X172579000Y-114950000D02*
X169349000Y-114950000D01*
X181649000Y-114950000D02*
X175379000Y-114950000D01*
X182849000Y-116775000D02*
X182849000Y-119775000D01*
X181649000Y-119775000D02*
X181649000Y-121600000D01*
X181649000Y-114950000D02*
X181649000Y-116775000D01*
X182849000Y-119775000D02*
X181649000Y-119775000D01*
X182849000Y-116775000D02*
X181649000Y-116775000D01*
X172579000Y-114075000D02*
X172579000Y-114950000D01*
X175379000Y-114075000D02*
X172579000Y-114075000D01*
X175379000Y-114075000D02*
X175379000Y-114950000D01*
X181649000Y-100650000D02*
X169349000Y-100650000D01*
X169349000Y-100650000D02*
X169349000Y-107300000D01*
X172579000Y-107300000D02*
X169349000Y-107300000D01*
X172579000Y-107300000D02*
X172579000Y-108175000D01*
X175379000Y-108175000D02*
X172579000Y-108175000D01*
X175379000Y-107300000D02*
X175379000Y-108175000D01*
X181649000Y-107300000D02*
X175379000Y-107300000D01*
X181649000Y-105475000D02*
X181649000Y-107300000D01*
X182849000Y-105475000D02*
X181649000Y-105475000D01*
X182849000Y-102475000D02*
X182849000Y-105475000D01*
X182849000Y-102475000D02*
X181649000Y-102475000D01*
X181649000Y-100650000D02*
X181649000Y-102475000D01*
X181879000Y-99075000D02*
X167879000Y-99075000D01*
X181879000Y-85075000D02*
X181879000Y-99075000D01*
X167879000Y-85075000D02*
X167879000Y-99075000D01*
X181879000Y-85075000D02*
X167879000Y-85075000D01*
X181649000Y-83500000D02*
X169349000Y-83500000D01*
X169349000Y-76850000D02*
X169349000Y-83500000D01*
X172579000Y-76850000D02*
X169349000Y-76850000D01*
X181649000Y-76850000D02*
X175379000Y-76850000D01*
X182849000Y-78675000D02*
X182849000Y-81675000D01*
X181649000Y-81675000D02*
X181649000Y-83500000D01*
X181649000Y-76850000D02*
X181649000Y-78675000D01*
X182849000Y-81675000D02*
X181649000Y-81675000D01*
X182849000Y-78675000D02*
X181649000Y-78675000D01*
X172579000Y-75975000D02*
X172579000Y-76850000D01*
X175379000Y-75975000D02*
X172579000Y-75975000D01*
X175379000Y-75975000D02*
X175379000Y-76850000D01*
X130675000Y-145700000D02*
X142375000Y-145700000D01*
X142375000Y-133700000D02*
X130675000Y-133700000D01*
X142375000Y-133700000D02*
X142375000Y-145700000D01*
X130675000Y-133700000D02*
X130675000Y-145700000D01*
X111625000Y-145700000D02*
X123325000Y-145700000D01*
X123325000Y-133700000D02*
X111625000Y-133700000D01*
X123325000Y-133700000D02*
X123325000Y-145700000D01*
X111625000Y-133700000D02*
X111625000Y-145700000D01*
X149725000Y-145700000D02*
X161425000Y-145700000D01*
X161425000Y-133700000D02*
X149725000Y-133700000D01*
X161425000Y-133700000D02*
X161425000Y-145700000D01*
X149725000Y-133700000D02*
X149725000Y-145700000D01*
X149725000Y-126650000D02*
X161425000Y-126650000D01*
X161425000Y-114650000D02*
X149725000Y-114650000D01*
X161425000Y-114650000D02*
X161425000Y-126650000D01*
X149725000Y-114650000D02*
X149725000Y-126650000D01*
X111625000Y-88550000D02*
X123325000Y-88550000D01*
X123325000Y-76550000D02*
X111625000Y-76550000D01*
X123325000Y-76550000D02*
X123325000Y-88550000D01*
X111625000Y-76550000D02*
X111625000Y-88550000D01*
X130675000Y-126650000D02*
X142375000Y-126650000D01*
X142375000Y-114650000D02*
X130675000Y-114650000D01*
X142375000Y-114650000D02*
X142375000Y-126650000D01*
X130675000Y-114650000D02*
X130675000Y-126650000D01*
X130675000Y-88550000D02*
X142375000Y-88550000D01*
X142375000Y-76550000D02*
X130675000Y-76550000D01*
X142375000Y-76550000D02*
X142375000Y-88550000D01*
X130675000Y-76550000D02*
X130675000Y-88550000D01*
X111625000Y-107600000D02*
X123325000Y-107600000D01*
X123325000Y-95600000D02*
X111625000Y-95600000D01*
X123325000Y-95600000D02*
X123325000Y-107600000D01*
X111625000Y-95600000D02*
X111625000Y-107600000D01*
X130675000Y-69500000D02*
X142375000Y-69500000D01*
X142375000Y-57500000D02*
X130675000Y-57500000D01*
X142375000Y-57500000D02*
X142375000Y-69500000D01*
X130675000Y-57500000D02*
X130675000Y-69500000D01*
X149725000Y-69500000D02*
X161425000Y-69500000D01*
X161425000Y-57500000D02*
X149725000Y-57500000D01*
X161425000Y-57500000D02*
X161425000Y-69500000D01*
X149725000Y-57500000D02*
X149725000Y-69500000D01*
X111625000Y-126650000D02*
X123325000Y-126650000D01*
X123325000Y-114650000D02*
X111625000Y-114650000D01*
X123325000Y-114650000D02*
X123325000Y-126650000D01*
X111625000Y-114650000D02*
X111625000Y-126650000D01*
X168775000Y-69500000D02*
X180475000Y-69500000D01*
X180475000Y-57500000D02*
X168775000Y-57500000D01*
X180475000Y-57500000D02*
X180475000Y-69500000D01*
X168775000Y-57500000D02*
X168775000Y-69500000D01*
X149725000Y-88550000D02*
X161425000Y-88550000D01*
X161425000Y-76550000D02*
X149725000Y-76550000D01*
X161425000Y-76550000D02*
X161425000Y-88550000D01*
X149725000Y-76550000D02*
X149725000Y-88550000D01*
X149725000Y-107600000D02*
X161425000Y-107600000D01*
X161425000Y-95600000D02*
X149725000Y-95600000D01*
X161425000Y-95600000D02*
X161425000Y-107600000D01*
X149725000Y-95600000D02*
X149725000Y-107600000D01*
X111625000Y-69500000D02*
X123325000Y-69500000D01*
X123325000Y-57500000D02*
X111625000Y-57500000D01*
X123325000Y-57500000D02*
X123325000Y-69500000D01*
X111625000Y-57500000D02*
X111625000Y-69500000D01*
X130675000Y-107600000D02*
X142375000Y-107600000D01*
X142375000Y-95600000D02*
X130675000Y-95600000D01*
X142375000Y-95600000D02*
X142375000Y-107600000D01*
X130675000Y-95600000D02*
X130675000Y-107600000D01*
M02*
