0
SECTION
2
HEADER
9
$INSUNITS
70
4
9
$ACADVER
1
AC1014
9
$HANDSEED
5
FFFF
0
ENDSEC
0
SECTION
2
TABLES
0
TABLE
2
VPORT
5
8
100
AcDbSymbolTable
0
ENDTAB
0
TABLE
2
LTYPE
5
5
100
AcDbSymbolTable
0
LTYPE
5
14
100
AcDbSymbolTableRecord
100
AcDbLinetypeTableRecord
2
BYBLOCK
70
0
0
LTYPE
5
15
100
AcDbSymbolTableRecord
100
AcDbLinetypeTableRecord
2
BYLAYER
70
0
0
ENDTAB
0
TABLE
2
LAYER
5
2
100
AcDbSymbolTable
70
2
0
LAYER
5
50
100
AcDbSymbolTableRecord
100
AcDbLayerTableRecord
2
0
70
0
6
CONTINUOUS
0
ENDTAB
0
TABLE
2
STYLE
5
3
100
AcDbSymbolTable
70
1
0
STYLE
5
11
100
AcDbSymbolTableRecord
100
AcDbTextStyleTableRecord
2
STANDARD
70
0
0
ENDTAB
0
TABLE
2
VIEW
5
6
100
AcDbSymbolTable
70
0
0
ENDTAB
0
TABLE
2
UCS
5
7
100
AcDbSymbolTable
70
0
0
ENDTAB
0
TABLE
2
APPID
5
9
100
AcDbSymbolTable
70
2
0
APPID
5
12
100
AcDbSymbolTableRecord
100
AcDbRegAppTableRecord
2
ACAD
70
0
0
ENDTAB
0
TABLE
2
DIMSTYLE
5
A
100
AcDbSymbolTable
70
1
0
ENDTAB
0
TABLE
2
BLOCK_RECORD
5
1
100
AcDbSymbolTable
70
1
0
BLOCK_RECORD
5
1F
100
AcDbSymbolTableRecord
100
AcDbBlockTableRecord
2
*MODEL_SPACE
0
BLOCK_RECORD
5
1B
100
AcDbSymbolTableRecord
100
AcDbBlockTableRecord
2
*PAPER_SPACE
0
ENDTAB
0
ENDSEC
0
SECTION
2
BLOCKS
0
BLOCK
5
20
100
AcDbEntity
100
AcDbBlockBegin
2
*MODEL_SPACE
0
ENDBLK
5
21
100
AcDbEntity
100
AcDbBlockEnd
0
BLOCK
5
1C
100
AcDbEntity
100
AcDbBlockBegin
2
*PAPER_SPACE
0
ENDBLK
5
1D
100
AcDbEntity
100
AcDbBlockEnd
0
ENDSEC
0
SECTION
2
ENTITIES
0
LWPOLYLINE
5
100
100
AcDbEntity
8
0
100
AcDbPolyline
90
18
70
1
43
0.0
10
-147.59299999999999
20
31.694999999999993
10
-147.59299999999999
20
34.421800000000012
10
-145.74299999999999
20
34.421800000000012
42
0.84303899710076502
10
-145.143
20
37.91885627484772
10
-145.143
20
50.524743725152291
42
0.84303899710076546
10
-145.74299999999999
20
54.021800000000006
10
-147.59299999999999
20
54.021800000000006
10
-147.59299999999999
20
54.97180000000003
10
-182.09299999999999
20
54.971800000000037
10
-182.09299999999999
20
31.694999999999993
10
-185.41999999999996
20
31.694999999999951
42
-0.41421356237309764
10
-186.42000000000002
20
32.695000000000043
10
-186.41999999999999
20
149.81199999999995
42
-0.41421356237309503
10
-185.41999999999996
20
150.81200000000001
10
-107.95000000000002
20
150.81200000000004
42
-0.41421356237308982
10
-106.95
20
149.81200000000004
10
-106.95000000000002
20
32.694999999999993
42
-0.41421356237309503
10
-107.95000000000002
20
31.694999999999997
0
LWPOLYLINE
5
101
100
AcDbEntity
8
0
100
AcDbPolyline
90
4
70
1
43
0.0
10
-181.625
20
85.075000000000003
10
-167.625
20
85.075000000000003
10
-167.625
20
99.075000000000003
10
-181.625
20
99.075000000000003
0
LWPOLYLINE
5
102
100
AcDbEntity
8
0
100
AcDbPolyline
90
4
70
1
43
0.0
10
-148.57499999999999
20
113.65000000000002
10
-148.57499999999999
20
127.65000000000001
10
-162.57499999999999
20
127.65000000000001
10
-162.57499999999999
20
113.65000000000002
0
LWPOLYLINE
5
103
100
AcDbEntity
8
0
100
AcDbPolyline
90
4
70
1
43
0.0
10
-129.52500000000001
20
132.69999999999999
10
-129.52500000000001
20
146.69999999999999
10
-143.52500000000001
20
146.69999999999999
10
-143.52500000000001
20
132.69999999999999
0
LWPOLYLINE
5
104
100
AcDbEntity
8
0
100
AcDbPolyline
90
4
70
1
43
0.0
10
-110.47499999999999
20
146.69999999999999
10
-124.47499999999999
20
146.69999999999999
10
-124.47499999999999
20
132.69999999999999
10
-110.47499999999999
20
132.69999999999999
0
LWPOLYLINE
5
105
100
AcDbEntity
8
0
100
AcDbPolyline
90
12
70
1
43
0.0
10
-182.84900000000005
20
140.57499999999999
10
-181.649
20
140.57499999999999
10
-181.649
20
138.75
10
-169.34900000000002
20
138.75
10
-169.34900000000002
20
145.40000000000001
10
-172.57900000000004
20
145.40000000000001
10
-172.57900000000004
20
146.27500000000001
10
-175.37900000000005
20
146.27500000000001
10
-175.37900000000005
20
145.40000000000001
10
-181.649
20
145.40000000000001
10
-181.649
20
143.57499999999999
10
-182.84900000000005
20
143.57499999999999
0
LWPOLYLINE
5
106
100
AcDbEntity
8
0
100
AcDbPolyline
90
4
70
1
43
0.0
10
-181.625
20
123.17500000000001
10
-167.625
20
123.17500000000001
10
-167.625
20
137.17500000000001
10
-181.625
20
137.17500000000001
0
LWPOLYLINE
5
107
100
AcDbEntity
8
0
100
AcDbPolyline
90
12
70
1
43
0.0
10
-175.37900000000005
20
114.075
10
-172.57900000000004
20
114.075
10
-172.57900000000004
20
114.95000000000002
10
-169.34900000000002
20
114.95000000000002
10
-169.34900000000002
20
121.59999999999999
10
-181.649
20
121.59999999999999
10
-181.649
20
119.77500000000001
10
-182.84900000000005
20
119.77500000000001
10
-182.84900000000005
20
116.77500000000002
10
-181.649
20
116.77500000000002
10
-181.649
20
114.95000000000002
10
-175.37900000000005
20
114.95000000000002
0
LWPOLYLINE
5
108
100
AcDbEntity
8
0
100
AcDbPolyline
90
4
70
1
43
0.0
10
-129.52500000000001
20
127.65000000000001
10
-143.52500000000001
20
127.65000000000001
10
-143.52500000000001
20
113.65000000000002
10
-129.52500000000001
20
113.65000000000002
0
LWPOLYLINE
5
109
100
AcDbEntity
8
0
100
AcDbPolyline
90
12
70
1
43
0.0
10
-169.34900000000002
20
100.65000000000001
10
-169.34900000000002
20
107.30000000000001
10
-172.57900000000004
20
107.30000000000001
10
-172.57900000000004
20
108.17500000000001
10
-175.37900000000005
20
108.17500000000001
10
-175.37900000000005
20
107.30000000000001
10
-181.649
20
107.30000000000001
10
-181.649
20
105.47499999999999
10
-182.84900000000005
20
105.47499999999999
10
-182.84900000000005
20
102.47500000000001
10
-181.649
20
102.47500000000001
10
-181.649
20
100.65000000000001
0
LWPOLYLINE
5
110
100
AcDbEntity
8
0
100
AcDbPolyline
90
12
70
1
43
0.0
10
-182.84900000000005
20
78.674999999999997
10
-181.649
20
78.674999999999997
10
-181.649
20
76.849999999999994
10
-175.37900000000005
20
76.849999999999994
10
-175.37900000000005
20
75.974999999999994
10
-172.57900000000004
20
75.974999999999994
10
-172.57900000000004
20
76.849999999999994
10
-169.34900000000002
20
76.849999999999994
10
-169.34900000000002
20
83.5
10
-181.649
20
83.5
10
-181.649
20
81.675000000000011
10
-182.84900000000005
20
81.675000000000011
0
LWPOLYLINE
5
111
100
AcDbEntity
8
0
100
AcDbPolyline
90
4
70
1
43
0.0
10
-110.47499999999999
20
89.549999999999997
10
-124.47499999999999
20
89.549999999999997
10
-124.47499999999999
20
75.549999999999997
10
-110.47499999999999
20
75.549999999999997
0
LWPOLYLINE
5
112
100
AcDbEntity
8
0
100
AcDbPolyline
90
4
70
1
43
0.0
10
-162.57499999999999
20
132.69999999999999
10
-148.57499999999999
20
132.69999999999999
10
-148.57499999999999
20
146.69999999999999
10
-162.57499999999999
20
146.69999999999999
0
LWPOLYLINE
5
113
100
AcDbEntity
8
0
100
AcDbPolyline
90
4
70
1
43
0.0
10
-110.47499999999999
20
113.65000000000002
10
-110.47499999999999
20
127.65000000000001
10
-124.47499999999999
20
127.65000000000001
10
-124.47499999999999
20
113.65000000000002
0
LWPOLYLINE
5
114
100
AcDbEntity
8
0
100
AcDbPolyline
90
4
70
1
43
0.0
10
-110.47499999999999
20
70.5
10
-124.47499999999999
20
70.5
10
-124.47499999999999
20
56.5
10
-110.47499999999999
20
56.5
0
LWPOLYLINE
5
115
100
AcDbEntity
8
0
100
AcDbPolyline
90
4
70
1
43
0.0
10
-110.47499999999999
20
94.599999999999994
10
-110.47499999999999
20
108.59999999999999
10
-124.47499999999999
20
108.59999999999999
10
-124.47499999999999
20
94.599999999999994
0
LWPOLYLINE
5
116
100
AcDbEntity
8
0
100
AcDbPolyline
90
4
70
1
43
0.0
10
-129.52500000000001
20
75.549999999999997
10
-129.52500000000001
20
89.549999999999997
10
-143.52500000000001
20
89.549999999999997
10
-143.52500000000001
20
75.549999999999997
0
LWPOLYLINE
5
117
100
AcDbEntity
8
0
100
AcDbPolyline
90
4
70
1
43
0.0
10
-162.57499999999999
20
75.549999999999997
10
-148.57499999999999
20
75.549999999999997
10
-148.57499999999999
20
89.549999999999997
10
-162.57499999999999
20
89.549999999999997
0
LWPOLYLINE
5
118
100
AcDbEntity
8
0
100
AcDbPolyline
90
4
70
1
43
0.0
10
-143.52500000000001
20
94.599999999999994
10
-129.52500000000001
20
94.599999999999994
10
-129.52500000000001
20
108.59999999999999
10
-143.52500000000001
20
108.59999999999999
0
LWPOLYLINE
5
119
100
AcDbEntity
8
0
100
AcDbPolyline
90
4
70
1
43
0.0
10
-129.52500000000001
20
56.5
10
-129.52500000000001
20
70.5
10
-143.52500000000001
20
70.5
10
-143.52500000000001
20
56.5
0
LWPOLYLINE
5
120
100
AcDbEntity
8
0
100
AcDbPolyline
90
4
70
1
43
0.0
10
-148.57499999999999
20
94.599999999999994
10
-148.57499999999999
20
108.59999999999999
10
-162.57499999999999
20
108.59999999999999
10
-162.57499999999999
20
94.599999999999994
0
LWPOLYLINE
5
121
100
AcDbEntity
8
0
100
AcDbPolyline
90
4
70
1
43
0.0
10
-181.625
20
56.5
10
-167.625
20
56.5
10
-167.625
20
70.5
10
-181.625
20
70.5
0
LWPOLYLINE
5
122
100
AcDbEntity
8
0
100
AcDbPolyline
90
4
70
1
43
0.0
10
-148.57499999999999
20
56.5
10
-148.57499999999999
20
70.5
10
-162.57499999999999
20
70.5
10
-162.57499999999999
20
56.5
0
CIRCLE
5
123
100
AcDbEntity
8
0
100
AcDbCircle
10
-165.10000000000002
20
130.17500000000001
30
-7.4505801528346183e-09
40
1.05
210
0
220
0
230
1
0
CIRCLE
5
124
100
AcDbEntity
8
0
100
AcDbCircle
10
-127.00000000000001
20
130.17500000000001
30
-7.4505801528346183e-09
40
1.05
210
0
220
0
230
1
0
CIRCLE
5
125
100
AcDbEntity
8
0
100
AcDbCircle
10
-165.10000000000002
20
73.025000000000006
30
-7.4505801528346183e-09
40
1.05
210
0
220
0
230
1
0
CIRCLE
5
126
100
AcDbEntity
8
0
100
AcDbCircle
10
-127.00000000000001
20
73.025000000000006
30
-7.4505801528346183e-09
40
1.05
210
0
220
0
230
1
0
ENDSEC
0
SECTION
2
OBJECTS
0
DICTIONARY
5
C
100
AcDbDictionary
3
ACAD_GROUP
350
D
3
ACAD_MLINESTYLE
350
17
0
DICTIONARY
5
D
100
AcDbDictionary
0
DICTIONARY
5
1A
330
C
100
AcDbDictionary
0
DICTIONARY
5
17
100
AcDbDictionary
0
ENDSEC
0
EOF
