  0
SECTION
  2
HEADER
  9
$ANGBASE
  50
0.0
  9
$ANGDIR
  70
1
  9
$MEASUREMENT
  70
1
  0
ENDSEC
  0
SECTION
  2
TABLES
  0
TABLE
  2
LTYPE
  70
4
  0
LTYPE
  5
40F
  2
CONTINUOUS
  70
0
  3
Solid line
  72
65
  73
0
  40
0.0
  0
LTYPE
  5
410
  2
DASHDOT
 70
0
  3
Dash Dot ____ _ ____ _
 72
65
 73
4
 40
2.0
 49
1.25
 49
-0.25
 49
0.25
 49
-0.25
  0
LTYPE
  5
411
  2
DASHED
 70
0
  3
Dashed __ __ __ __ __
 72
65
 73
2
 40
0.75
 49
0.5
 49
-0.25
  0
LTYPE
  5
43B
  2
DOTTED
 70
0
  3
Dotted .  .  .  .
 72
65
 73
2
 40
0.2
 49
0.0
 49
-0.2
  0
ENDTAB
  0
TABLE
  2
STYLE
  70
4
  0
STYLE
  2
KICAD
  70
0
  40
0
  41
1
  42
1
  50
0
  71
0
  3
isocp.shx
  0
STYLE
  2
KICADB
  70
0
  40
0
  41
1
  42
1
  50
0
  71
0
  3
isocp.shx
  0
STYLE
  2
KICADI
  70
0
  40
0
  41
1
  42
1
  50
15
  71
0
  3
isocp.shx
  0
STYLE
  2
KICADBI
  70
0
  40
0
  41
1
  42
1
  50
15
  71
0
  3
isocp.shx
  0
ENDTAB
  0
TABLE
  2
LAYER
  70
1
  0
LAYER
  2
BLACK
  70
0
  62
7
  6
CONTINUOUS
  0
ENDTAB
  0
ENDSEC
  0
SECTION
  2
ENTITIES
0
LINE
8
BLACK
6
CONTINUOUS
10
147.513
20
-48.6668
11
146.878
21
-49.3018
0
LINE
8
BLACK
6
CONTINUOUS
10
147.513
20
-39.1418
11
147.513
21
-48.6668
0
LINE
8
BLACK
6
CONTINUOUS
10
144.973
20
-39.1418
11
147.513
21
-39.1418
0
LINE
8
BLACK
6
CONTINUOUS
10
144.973
20
-49.3018
11
144.973
21
-39.1418
0
LINE
8
BLACK
6
CONTINUOUS
10
146.878
20
-49.3018
11
144.973
21
-49.3018
0
LINE
8
BLACK
6
CONTINUOUS
10
182.305
20
-58.7204
11
182.448
21
-58.768
0
LINE
8
BLACK
6
CONTINUOUS
10
182.448
20
-58.768
11
182.495
21
-58.8156
0
LINE
8
BLACK
6
CONTINUOUS
10
182.495
20
-58.8156
11
182.543
21
-58.9108
0
LINE
8
BLACK
6
CONTINUOUS
10
182.543
20
-58.9108
11
182.543
21
-59.0537
0
LINE
8
BLACK
6
CONTINUOUS
10
182.543
20
-59.0537
11
182.495
21
-59.1489
0
LINE
8
BLACK
6
CONTINUOUS
10
182.495
20
-59.1489
11
182.448
21
-59.1966
0
LINE
8
BLACK
6
CONTINUOUS
10
182.448
20
-59.1966
11
182.352
21
-59.2442
0
LINE
8
BLACK
6
CONTINUOUS
10
182.352
20
-59.2442
11
181.971
21
-59.2442
0
LINE
8
BLACK
6
CONTINUOUS
10
181.971
20
-59.2442
11
181.971
21
-58.2442
0
LINE
8
BLACK
6
CONTINUOUS
10
181.971
20
-58.2442
11
182.305
21
-58.2442
0
LINE
8
BLACK
6
CONTINUOUS
10
182.305
20
-58.2442
11
182.4
21
-58.2918
0
LINE
8
BLACK
6
CONTINUOUS
10
182.4
20
-58.2918
11
182.448
21
-58.3394
0
LINE
8
BLACK
6
CONTINUOUS
10
182.448
20
-58.3394
11
182.495
21
-58.4347
0
LINE
8
BLACK
6
CONTINUOUS
10
182.495
20
-58.4347
11
182.495
21
-58.5299
0
LINE
8
BLACK
6
CONTINUOUS
10
182.495
20
-58.5299
11
182.448
21
-58.6251
0
LINE
8
BLACK
6
CONTINUOUS
10
182.448
20
-58.6251
11
182.4
21
-58.6727
0
LINE
8
BLACK
6
CONTINUOUS
10
182.4
20
-58.6727
11
182.305
21
-58.7204
0
LINE
8
BLACK
6
CONTINUOUS
10
182.305
20
-58.7204
11
181.971
21
-58.7204
0
LINE
8
BLACK
6
CONTINUOUS
10
182.924
20
-58.9585
11
183.4
21
-58.9585
0
LINE
8
BLACK
6
CONTINUOUS
10
182.829
20
-59.2442
11
183.162
21
-58.2442
0
LINE
8
BLACK
6
CONTINUOUS
10
183.162
20
-58.2442
11
183.495
21
-59.2442
0
LINE
8
BLACK
6
CONTINUOUS
10
183.686
20
-58.2442
11
184.257
21
-58.2442
0
LINE
8
BLACK
6
CONTINUOUS
10
183.971
20
-59.2442
11
183.971
21
-58.2442
0
LINE
8
BLACK
6
CONTINUOUS
10
182.495
20
-55.5251
11
183.21
21
-55.5251
0
LINE
8
BLACK
6
CONTINUOUS
10
183.21
20
-55.5251
11
183.352
21
-55.5727
0
LINE
8
BLACK
6
CONTINUOUS
10
183.352
20
-55.5727
11
183.448
21
-55.668
0
LINE
8
BLACK
6
CONTINUOUS
10
183.448
20
-55.668
11
183.495
21
-55.8108
0
LINE
8
BLACK
6
CONTINUOUS
10
183.495
20
-55.8108
11
183.495
21
-55.9061
0
LINE
8
BLACK
6
CONTINUOUS
10
182.591
20
-55.0966
11
182.543
21
-55.0489
0
LINE
8
BLACK
6
CONTINUOUS
10
182.543
20
-55.0489
11
182.495
21
-54.9537
0
LINE
8
BLACK
6
CONTINUOUS
10
182.495
20
-54.9537
11
182.495
21
-54.7156
0
LINE
8
BLACK
6
CONTINUOUS
10
182.495
20
-54.7156
11
182.543
21
-54.6204
0
LINE
8
BLACK
6
CONTINUOUS
10
182.543
20
-54.6204
11
182.591
21
-54.5727
0
LINE
8
BLACK
6
CONTINUOUS
10
182.591
20
-54.5727
11
182.686
21
-54.5251
0
LINE
8
BLACK
6
CONTINUOUS
10
182.686
20
-54.5251
11
182.781
21
-54.5251
0
LINE
8
BLACK
6
CONTINUOUS
10
182.781
20
-54.5251
11
182.924
21
-54.5727
0
LINE
8
BLACK
6
CONTINUOUS
10
182.924
20
-54.5727
11
183.495
21
-55.1442
0
LINE
8
BLACK
6
CONTINUOUS
10
183.495
20
-55.1442
11
183.495
21
-54.5251
0
LINE
8
BLACK
6
CONTINUOUS
10
142.995
20
-45.3408
11
141.995
21
-45.3408
0
LINE
8
BLACK
6
CONTINUOUS
10
141.995
20
-45.3408
11
142.71
21
-45.0075
0
LINE
8
BLACK
6
CONTINUOUS
10
142.71
20
-45.0075
11
141.995
21
-44.6742
0
LINE
8
BLACK
6
CONTINUOUS
10
141.995
20
-44.6742
11
142.995
21
-44.6742
0
LINE
8
BLACK
6
CONTINUOUS
10
142.995
20
-44.0551
11
142.948
21
-44.1504
0
LINE
8
BLACK
6
CONTINUOUS
10
142.948
20
-44.1504
11
142.9
21
-44.198
0
LINE
8
BLACK
6
CONTINUOUS
10
142.9
20
-44.198
11
142.805
21
-44.2456
0
LINE
8
BLACK
6
CONTINUOUS
10
142.805
20
-44.2456
11
142.519
21
-44.2456
0
LINE
8
BLACK
6
CONTINUOUS
10
142.519
20
-44.2456
11
142.424
21
-44.198
0
LINE
8
BLACK
6
CONTINUOUS
10
142.424
20
-44.198
11
142.376
21
-44.1504
0
LINE
8
BLACK
6
CONTINUOUS
10
142.376
20
-44.1504
11
142.329
21
-44.0551
0
LINE
8
BLACK
6
CONTINUOUS
10
142.329
20
-44.0551
11
142.329
21
-43.9123
0
LINE
8
BLACK
6
CONTINUOUS
10
142.329
20
-43.9123
11
142.376
21
-43.817
0
LINE
8
BLACK
6
CONTINUOUS
10
142.376
20
-43.817
11
142.424
21
-43.7694
0
LINE
8
BLACK
6
CONTINUOUS
10
142.424
20
-43.7694
11
142.519
21
-43.7218
0
LINE
8
BLACK
6
CONTINUOUS
10
142.519
20
-43.7218
11
142.805
21
-43.7218
0
LINE
8
BLACK
6
CONTINUOUS
10
142.805
20
-43.7218
11
142.9
21
-43.7694
0
LINE
8
BLACK
6
CONTINUOUS
10
142.9
20
-43.7694
11
142.948
21
-43.817
0
LINE
8
BLACK
6
CONTINUOUS
10
142.948
20
-43.817
11
142.995
21
-43.9123
0
LINE
8
BLACK
6
CONTINUOUS
10
142.995
20
-43.9123
11
142.995
21
-44.0551
0
LINE
8
BLACK
6
CONTINUOUS
10
142.329
20
-42.8647
11
142.995
21
-42.8647
0
LINE
8
BLACK
6
CONTINUOUS
10
142.329
20
-43.2932
11
142.852
21
-43.2932
0
LINE
8
BLACK
6
CONTINUOUS
10
142.852
20
-43.2932
11
142.948
21
-43.2456
0
LINE
8
BLACK
6
CONTINUOUS
10
142.948
20
-43.2456
11
142.995
21
-43.1504
0
LINE
8
BLACK
6
CONTINUOUS
10
142.995
20
-43.1504
11
142.995
21
-43.0075
0
LINE
8
BLACK
6
CONTINUOUS
10
142.995
20
-43.0075
11
142.948
21
-42.9123
0
LINE
8
BLACK
6
CONTINUOUS
10
142.948
20
-42.9123
11
142.9
21
-42.8647
0
LINE
8
BLACK
6
CONTINUOUS
10
142.329
20
-42.3885
11
142.995
21
-42.3885
0
LINE
8
BLACK
6
CONTINUOUS
10
142.424
20
-42.3885
11
142.376
21
-42.3408
0
LINE
8
BLACK
6
CONTINUOUS
10
142.376
20
-42.3408
11
142.329
21
-42.2456
0
LINE
8
BLACK
6
CONTINUOUS
10
142.329
20
-42.2456
11
142.329
21
-42.1027
0
LINE
8
BLACK
6
CONTINUOUS
10
142.329
20
-42.1027
11
142.376
21
-42.0075
0
LINE
8
BLACK
6
CONTINUOUS
10
142.376
20
-42.0075
11
142.471
21
-41.9599
0
LINE
8
BLACK
6
CONTINUOUS
10
142.471
20
-41.9599
11
142.995
21
-41.9599
0
LINE
8
BLACK
6
CONTINUOUS
10
142.329
20
-41.6266
11
142.329
21
-41.2456
0
LINE
8
BLACK
6
CONTINUOUS
10
141.995
20
-41.4837
11
142.852
21
-41.4837
0
LINE
8
BLACK
6
CONTINUOUS
10
142.852
20
-41.4837
11
142.948
21
-41.4361
0
LINE
8
BLACK
6
CONTINUOUS
10
142.948
20
-41.4361
11
142.995
21
-41.3408
0
LINE
8
BLACK
6
CONTINUOUS
10
142.995
20
-41.3408
11
142.995
21
-41.2456
0
LINE
8
BLACK
6
CONTINUOUS
10
142.995
20
-40.9123
11
142.329
21
-40.9123
0
LINE
8
BLACK
6
CONTINUOUS
10
141.995
20
-40.9123
11
142.043
21
-40.9599
0
LINE
8
BLACK
6
CONTINUOUS
10
142.043
20
-40.9599
11
142.091
21
-40.9123
0
LINE
8
BLACK
6
CONTINUOUS
10
142.091
20
-40.9123
11
142.043
21
-40.8647
0
LINE
8
BLACK
6
CONTINUOUS
10
142.043
20
-40.8647
11
141.995
21
-40.9123
0
LINE
8
BLACK
6
CONTINUOUS
10
141.995
20
-40.9123
11
142.091
21
-40.9123
0
LINE
8
BLACK
6
CONTINUOUS
10
142.329
20
-40.4361
11
142.995
21
-40.4361
0
LINE
8
BLACK
6
CONTINUOUS
10
142.424
20
-40.4361
11
142.376
21
-40.3885
0
LINE
8
BLACK
6
CONTINUOUS
10
142.376
20
-40.3885
11
142.329
21
-40.2932
0
LINE
8
BLACK
6
CONTINUOUS
10
142.329
20
-40.2932
11
142.329
21
-40.1504
0
LINE
8
BLACK
6
CONTINUOUS
10
142.329
20
-40.1504
11
142.376
21
-40.0551
0
LINE
8
BLACK
6
CONTINUOUS
10
142.376
20
-40.0551
11
142.471
21
-40.0075
0
LINE
8
BLACK
6
CONTINUOUS
10
142.471
20
-40.0075
11
142.995
21
-40.0075
0
LINE
8
BLACK
6
CONTINUOUS
10
142.329
20
-39.1027
11
143.138
21
-39.1027
0
LINE
8
BLACK
6
CONTINUOUS
10
143.138
20
-39.1027
11
143.233
21
-39.1504
0
LINE
8
BLACK
6
CONTINUOUS
10
143.233
20
-39.1504
11
143.281
21
-39.198
0
LINE
8
BLACK
6
CONTINUOUS
10
143.281
20
-39.198
11
143.329
21
-39.2932
0
LINE
8
BLACK
6
CONTINUOUS
10
143.329
20
-39.2932
11
143.329
21
-39.4361
0
LINE
8
BLACK
6
CONTINUOUS
10
143.329
20
-39.4361
11
143.281
21
-39.5313
0
LINE
8
BLACK
6
CONTINUOUS
10
142.948
20
-39.1027
11
142.995
21
-39.198
0
LINE
8
BLACK
6
CONTINUOUS
10
142.995
20
-39.198
11
142.995
21
-39.3885
0
LINE
8
BLACK
6
CONTINUOUS
10
142.995
20
-39.3885
11
142.948
21
-39.4837
0
LINE
8
BLACK
6
CONTINUOUS
10
142.948
20
-39.4837
11
142.9
21
-39.5313
0
LINE
8
BLACK
6
CONTINUOUS
10
142.9
20
-39.5313
11
142.805
21
-39.5789
0
LINE
8
BLACK
6
CONTINUOUS
10
142.805
20
-39.5789
11
142.519
21
-39.5789
0
LINE
8
BLACK
6
CONTINUOUS
10
142.519
20
-39.5789
11
142.424
21
-39.5313
0
LINE
8
BLACK
6
CONTINUOUS
10
142.424
20
-39.5313
11
142.376
21
-39.4837
0
LINE
8
BLACK
6
CONTINUOUS
10
142.376
20
-39.4837
11
142.329
21
-39.3885
0
LINE
8
BLACK
6
CONTINUOUS
10
142.329
20
-39.3885
11
142.329
21
-39.198
0
LINE
8
BLACK
6
CONTINUOUS
10
142.329
20
-39.198
11
142.376
21
-39.1027
0
LINE
8
BLACK
6
CONTINUOUS
10
142.995
20
-38.6266
11
141.995
21
-38.6266
0
LINE
8
BLACK
6
CONTINUOUS
10
142.471
20
-38.6266
11
142.471
21
-38.0551
0
LINE
8
BLACK
6
CONTINUOUS
10
142.995
20
-38.0551
11
141.995
21
-38.0551
0
LINE
8
BLACK
6
CONTINUOUS
10
142.995
20
-37.4361
11
142.948
21
-37.5313
0
LINE
8
BLACK
6
CONTINUOUS
10
142.948
20
-37.5313
11
142.9
21
-37.5789
0
LINE
8
BLACK
6
CONTINUOUS
10
142.9
20
-37.5789
11
142.805
21
-37.6266
0
LINE
8
BLACK
6
CONTINUOUS
10
142.805
20
-37.6266
11
142.519
21
-37.6266
0
LINE
8
BLACK
6
CONTINUOUS
10
142.519
20
-37.6266
11
142.424
21
-37.5789
0
LINE
8
BLACK
6
CONTINUOUS
10
142.424
20
-37.5789
11
142.376
21
-37.5313
0
LINE
8
BLACK
6
CONTINUOUS
10
142.376
20
-37.5313
11
142.329
21
-37.4361
0
LINE
8
BLACK
6
CONTINUOUS
10
142.329
20
-37.4361
11
142.329
21
-37.2932
0
LINE
8
BLACK
6
CONTINUOUS
10
142.329
20
-37.2932
11
142.376
21
-37.198
0
LINE
8
BLACK
6
CONTINUOUS
10
142.376
20
-37.198
11
142.424
21
-37.1504
0
LINE
8
BLACK
6
CONTINUOUS
10
142.424
20
-37.1504
11
142.519
21
-37.1027
0
LINE
8
BLACK
6
CONTINUOUS
10
142.519
20
-37.1027
11
142.805
21
-37.1027
0
LINE
8
BLACK
6
CONTINUOUS
10
142.805
20
-37.1027
11
142.9
21
-37.1504
0
LINE
8
BLACK
6
CONTINUOUS
10
142.9
20
-37.1504
11
142.948
21
-37.198
0
LINE
8
BLACK
6
CONTINUOUS
10
142.948
20
-37.198
11
142.995
21
-37.2932
0
LINE
8
BLACK
6
CONTINUOUS
10
142.995
20
-37.2932
11
142.995
21
-37.4361
0
LINE
8
BLACK
6
CONTINUOUS
10
142.995
20
-36.5313
11
142.948
21
-36.6266
0
LINE
8
BLACK
6
CONTINUOUS
10
142.948
20
-36.6266
11
142.852
21
-36.6742
0
LINE
8
BLACK
6
CONTINUOUS
10
142.852
20
-36.6742
11
141.995
21
-36.6742
0
LINE
8
BLACK
6
CONTINUOUS
10
142.948
20
-35.7694
11
142.995
21
-35.8647
0
LINE
8
BLACK
6
CONTINUOUS
10
142.995
20
-35.8647
11
142.995
21
-36.0551
0
LINE
8
BLACK
6
CONTINUOUS
10
142.995
20
-36.0551
11
142.948
21
-36.1504
0
LINE
8
BLACK
6
CONTINUOUS
10
142.948
20
-36.1504
11
142.852
21
-36.198
0
LINE
8
BLACK
6
CONTINUOUS
10
142.852
20
-36.198
11
142.471
21
-36.198
0
LINE
8
BLACK
6
CONTINUOUS
10
142.471
20
-36.198
11
142.376
21
-36.1504
0
LINE
8
BLACK
6
CONTINUOUS
10
142.376
20
-36.1504
11
142.329
21
-36.0551
0
LINE
8
BLACK
6
CONTINUOUS
10
142.329
20
-36.0551
11
142.329
21
-35.8647
0
LINE
8
BLACK
6
CONTINUOUS
10
142.329
20
-35.8647
11
142.376
21
-35.7694
0
LINE
8
BLACK
6
CONTINUOUS
10
142.376
20
-35.7694
11
142.471
21
-35.7218
0
LINE
8
BLACK
6
CONTINUOUS
10
142.471
20
-35.7218
11
142.567
21
-35.7218
0
LINE
8
BLACK
6
CONTINUOUS
10
142.567
20
-35.7218
11
142.662
21
-36.198
0
LINE
8
BLACK
6
CONTINUOUS
10
143.091
20
-35.5313
11
143.091
21
-34.7694
0
LINE
8
BLACK
6
CONTINUOUS
10
142.091
20
-34.5789
11
142.043
21
-34.5313
0
LINE
8
BLACK
6
CONTINUOUS
10
142.043
20
-34.5313
11
141.995
21
-34.4361
0
LINE
8
BLACK
6
CONTINUOUS
10
141.995
20
-34.4361
11
141.995
21
-34.198
0
LINE
8
BLACK
6
CONTINUOUS
10
141.995
20
-34.198
11
142.043
21
-34.1027
0
LINE
8
BLACK
6
CONTINUOUS
10
142.043
20
-34.1027
11
142.091
21
-34.0551
0
LINE
8
BLACK
6
CONTINUOUS
10
142.091
20
-34.0551
11
142.186
21
-34.0075
0
LINE
8
BLACK
6
CONTINUOUS
10
142.186
20
-34.0075
11
142.281
21
-34.0075
0
LINE
8
BLACK
6
CONTINUOUS
10
142.281
20
-34.0075
11
142.424
21
-34.0551
0
LINE
8
BLACK
6
CONTINUOUS
10
142.424
20
-34.0551
11
142.995
21
-34.6266
0
LINE
8
BLACK
6
CONTINUOUS
10
142.995
20
-34.6266
11
142.995
21
-34.0075
0
LINE
8
BLACK
6
CONTINUOUS
10
142.9
20
-33.5789
11
142.948
21
-33.5313
0
LINE
8
BLACK
6
CONTINUOUS
10
142.948
20
-33.5313
11
142.995
21
-33.5789
0
LINE
8
BLACK
6
CONTINUOUS
10
142.995
20
-33.5789
11
142.948
21
-33.6266
0
LINE
8
BLACK
6
CONTINUOUS
10
142.948
20
-33.6266
11
142.9
21
-33.5789
0
LINE
8
BLACK
6
CONTINUOUS
10
142.9
20
-33.5789
11
142.995
21
-33.5789
0
LINE
8
BLACK
6
CONTINUOUS
10
142.091
20
-33.1504
11
142.043
21
-33.1027
0
LINE
8
BLACK
6
CONTINUOUS
10
142.043
20
-33.1027
11
141.995
21
-33.0075
0
LINE
8
BLACK
6
CONTINUOUS
10
141.995
20
-33.0075
11
141.995
21
-32.7694
0
LINE
8
BLACK
6
CONTINUOUS
10
141.995
20
-32.7694
11
142.043
21
-32.6742
0
LINE
8
BLACK
6
CONTINUOUS
10
142.043
20
-32.6742
11
142.091
21
-32.6266
0
LINE
8
BLACK
6
CONTINUOUS
10
142.091
20
-32.6266
11
142.186
21
-32.5789
0
LINE
8
BLACK
6
CONTINUOUS
10
142.186
20
-32.5789
11
142.281
21
-32.5789
0
LINE
8
BLACK
6
CONTINUOUS
10
142.281
20
-32.5789
11
142.424
21
-32.6266
0
LINE
8
BLACK
6
CONTINUOUS
10
142.424
20
-32.6266
11
142.995
21
-33.198
0
LINE
8
BLACK
6
CONTINUOUS
10
142.995
20
-33.198
11
142.995
21
-32.5789
0
LINE
8
BLACK
6
CONTINUOUS
10
142.995
20
-32.1504
11
142.329
21
-32.1504
0
LINE
8
BLACK
6
CONTINUOUS
10
142.424
20
-32.1504
11
142.376
21
-32.1027
0
LINE
8
BLACK
6
CONTINUOUS
10
142.376
20
-32.1027
11
142.329
21
-32.0075
0
LINE
8
BLACK
6
CONTINUOUS
10
142.329
20
-32.0075
11
142.329
21
-31.8647
0
LINE
8
BLACK
6
CONTINUOUS
10
142.329
20
-31.8647
11
142.376
21
-31.7694
0
LINE
8
BLACK
6
CONTINUOUS
10
142.376
20
-31.7694
11
142.471
21
-31.7218
0
LINE
8
BLACK
6
CONTINUOUS
10
142.471
20
-31.7218
11
142.995
21
-31.7218
0
LINE
8
BLACK
6
CONTINUOUS
10
142.471
20
-31.7218
11
142.376
21
-31.6742
0
LINE
8
BLACK
6
CONTINUOUS
10
142.376
20
-31.6742
11
142.329
21
-31.5789
0
LINE
8
BLACK
6
CONTINUOUS
10
142.329
20
-31.5789
11
142.329
21
-31.4361
0
LINE
8
BLACK
6
CONTINUOUS
10
142.329
20
-31.4361
11
142.376
21
-31.3408
0
LINE
8
BLACK
6
CONTINUOUS
10
142.376
20
-31.3408
11
142.471
21
-31.2932
0
LINE
8
BLACK
6
CONTINUOUS
10
142.471
20
-31.2932
11
142.995
21
-31.2932
0
LINE
8
BLACK
6
CONTINUOUS
10
142.995
20
-30.817
11
142.329
21
-30.817
0
LINE
8
BLACK
6
CONTINUOUS
10
142.424
20
-30.817
11
142.376
21
-30.7694
0
LINE
8
BLACK
6
CONTINUOUS
10
142.376
20
-30.7694
11
142.329
21
-30.6742
0
LINE
8
BLACK
6
CONTINUOUS
10
142.329
20
-30.6742
11
142.329
21
-30.5313
0
LINE
8
BLACK
6
CONTINUOUS
10
142.329
20
-30.5313
11
142.376
21
-30.4361
0
LINE
8
BLACK
6
CONTINUOUS
10
142.376
20
-30.4361
11
142.471
21
-30.3885
0
LINE
8
BLACK
6
CONTINUOUS
10
142.471
20
-30.3885
11
142.995
21
-30.3885
0
LINE
8
BLACK
6
CONTINUOUS
10
142.471
20
-30.3885
11
142.376
21
-30.3408
0
LINE
8
BLACK
6
CONTINUOUS
10
142.376
20
-30.3408
11
142.329
21
-30.2456
0
LINE
8
BLACK
6
CONTINUOUS
10
142.329
20
-30.2456
11
142.329
21
-30.1027
0
LINE
8
BLACK
6
CONTINUOUS
10
142.329
20
-30.1027
11
142.376
21
-30.0075
0
LINE
8
BLACK
6
CONTINUOUS
10
142.376
20
-30.0075
11
142.471
21
-29.9599
0
LINE
8
BLACK
6
CONTINUOUS
10
142.471
20
-29.9599
11
142.995
21
-29.9599
0
LINE
8
BLACK
6
CONTINUOUS
10
143.091
20
-29.7218
11
143.091
21
-28.9599
0
LINE
8
BLACK
6
CONTINUOUS
10
142.995
20
-28.7218
11
141.995
21
-28.7218
0
LINE
8
BLACK
6
CONTINUOUS
10
141.995
20
-28.7218
11
142.71
21
-28.3885
0
LINE
8
BLACK
6
CONTINUOUS
10
142.71
20
-28.3885
11
141.995
21
-28.0551
0
LINE
8
BLACK
6
CONTINUOUS
10
141.995
20
-28.0551
11
142.995
21
-28.0551
0
LINE
8
BLACK
6
CONTINUOUS
10
142.091
20
-27.6266
11
142.043
21
-27.5789
0
LINE
8
BLACK
6
CONTINUOUS
10
142.043
20
-27.5789
11
141.995
21
-27.4837
0
LINE
8
BLACK
6
CONTINUOUS
10
141.995
20
-27.4837
11
141.995
21
-27.2456
0
LINE
8
BLACK
6
CONTINUOUS
10
141.995
20
-27.2456
11
142.043
21
-27.1504
0
LINE
8
BLACK
6
CONTINUOUS
10
142.043
20
-27.1504
11
142.091
21
-27.1027
0
LINE
8
BLACK
6
CONTINUOUS
10
142.091
20
-27.1027
11
142.186
21
-27.0551
0
LINE
8
BLACK
6
CONTINUOUS
10
142.186
20
-27.0551
11
142.281
21
-27.0551
0
LINE
8
BLACK
6
CONTINUOUS
10
142.281
20
-27.0551
11
142.424
21
-27.1027
0
LINE
8
BLACK
6
CONTINUOUS
10
142.424
20
-27.1027
11
142.995
21
-27.6742
0
LINE
8
BLACK
6
CONTINUOUS
10
142.995
20
-27.6742
11
142.995
21
-27.0551
0
LINE
8
BLACK
6
CONTINUOUS
10
146.195
20
-37.8551
11
145.719
21
-38.1885
0
LINE
8
BLACK
6
CONTINUOUS
10
146.195
20
-38.4266
11
145.195
21
-38.4266
0
LINE
8
BLACK
6
CONTINUOUS
10
145.195
20
-38.4266
11
145.195
21
-38.0456
0
LINE
8
BLACK
6
CONTINUOUS
10
145.195
20
-38.0456
11
145.243
21
-37.9504
0
LINE
8
BLACK
6
CONTINUOUS
10
145.243
20
-37.9504
11
145.291
21
-37.9027
0
LINE
8
BLACK
6
CONTINUOUS
10
145.291
20
-37.9027
11
145.386
21
-37.8551
0
LINE
8
BLACK
6
CONTINUOUS
10
145.386
20
-37.8551
11
145.529
21
-37.8551
0
LINE
8
BLACK
6
CONTINUOUS
10
145.529
20
-37.8551
11
145.624
21
-37.9027
0
LINE
8
BLACK
6
CONTINUOUS
10
145.624
20
-37.9027
11
145.671
21
-37.9504
0
LINE
8
BLACK
6
CONTINUOUS
10
145.671
20
-37.9504
11
145.719
21
-38.0456
0
LINE
8
BLACK
6
CONTINUOUS
10
145.719
20
-38.0456
11
145.719
21
-38.4266
0
LINE
8
BLACK
6
CONTINUOUS
10
145.671
20
-37.4266
11
145.671
21
-37.0932
0
LINE
8
BLACK
6
CONTINUOUS
10
146.195
20
-36.9504
11
146.195
21
-37.4266
0
LINE
8
BLACK
6
CONTINUOUS
10
146.195
20
-37.4266
11
145.195
21
-37.4266
0
LINE
8
BLACK
6
CONTINUOUS
10
145.195
20
-37.4266
11
145.195
21
-36.9504
0
LINE
8
BLACK
6
CONTINUOUS
10
145.671
20
-36.1885
11
145.671
21
-36.5218
0
LINE
8
BLACK
6
CONTINUOUS
10
146.195
20
-36.5218
11
145.195
21
-36.5218
0
LINE
8
BLACK
6
CONTINUOUS
10
145.195
20
-36.5218
11
145.195
21
-36.0456
0
LINE
8
BLACK
6
CONTINUOUS
10
145.195
20
-35.5218
11
145.433
21
-35.5218
0
LINE
8
BLACK
6
CONTINUOUS
10
145.338
20
-35.7599
11
145.433
21
-35.5218
0
LINE
8
BLACK
6
CONTINUOUS
10
145.433
20
-35.5218
11
145.338
21
-35.2837
0
LINE
8
BLACK
6
CONTINUOUS
10
145.624
20
-35.6647
11
145.433
21
-35.5218
0
LINE
8
BLACK
6
CONTINUOUS
10
145.433
20
-35.5218
11
145.624
21
-35.3789
0
LINE
8
BLACK
6
CONTINUOUS
10
145.195
20
-34.7599
11
145.433
21
-34.7599
0
LINE
8
BLACK
6
CONTINUOUS
10
145.338
20
-34.998
11
145.433
21
-34.7599
0
LINE
8
BLACK
6
CONTINUOUS
10
145.433
20
-34.7599
11
145.338
21
-34.5218
0
LINE
8
BLACK
6
CONTINUOUS
10
145.624
20
-34.9027
11
145.433
21
-34.7599
0
LINE
8
BLACK
6
CONTINUOUS
10
145.433
20
-34.7599
11
145.624
21
-34.617
0
LINE
8
BLACK
6
CONTINUOUS
10
166.395
20
-143.789
11
166.538
21
-143.836
0
LINE
8
BLACK
6
CONTINUOUS
10
166.538
20
-143.836
11
166.776
21
-143.836
0
LINE
8
BLACK
6
CONTINUOUS
10
166.776
20
-143.836
11
166.871
21
-143.789
0
LINE
8
BLACK
6
CONTINUOUS
10
166.871
20
-143.789
11
166.919
21
-143.741
0
LINE
8
BLACK
6
CONTINUOUS
10
166.919
20
-143.741
11
166.966
21
-143.646
0
LINE
8
BLACK
6
CONTINUOUS
10
166.966
20
-143.646
11
166.966
21
-143.551
0
LINE
8
BLACK
6
CONTINUOUS
10
166.966
20
-143.551
11
166.919
21
-143.455
0
LINE
8
BLACK
6
CONTINUOUS
10
166.919
20
-143.455
11
166.871
21
-143.408
0
LINE
8
BLACK
6
CONTINUOUS
10
166.871
20
-143.408
11
166.776
21
-143.36
0
LINE
8
BLACK
6
CONTINUOUS
10
166.776
20
-143.36
11
166.585
21
-143.313
0
LINE
8
BLACK
6
CONTINUOUS
10
166.585
20
-143.313
11
166.49
21
-143.265
0
LINE
8
BLACK
6
CONTINUOUS
10
166.49
20
-143.265
11
166.443
21
-143.217
0
LINE
8
BLACK
6
CONTINUOUS
10
166.443
20
-143.217
11
166.395
21
-143.122
0
LINE
8
BLACK
6
CONTINUOUS
10
166.395
20
-143.122
11
166.395
21
-143.027
0
LINE
8
BLACK
6
CONTINUOUS
10
166.395
20
-143.027
11
166.443
21
-142.932
0
LINE
8
BLACK
6
CONTINUOUS
10
166.443
20
-142.932
11
166.49
21
-142.884
0
LINE
8
BLACK
6
CONTINUOUS
10
166.49
20
-142.884
11
166.585
21
-142.836
0
LINE
8
BLACK
6
CONTINUOUS
10
166.585
20
-142.836
11
166.823
21
-142.836
0
LINE
8
BLACK
6
CONTINUOUS
10
166.823
20
-142.836
11
166.966
21
-142.884
0
LINE
8
BLACK
6
CONTINUOUS
10
167.3
20
-143.17
11
167.49
21
-143.836
0
LINE
8
BLACK
6
CONTINUOUS
10
167.49
20
-143.836
11
167.681
21
-143.36
0
LINE
8
BLACK
6
CONTINUOUS
10
167.681
20
-143.36
11
167.871
21
-143.836
0
LINE
8
BLACK
6
CONTINUOUS
10
167.871
20
-143.836
11
168.062
21
-143.17
0
LINE
8
BLACK
6
CONTINUOUS
10
168.443
20
-143.836
11
168.443
21
-143.17
0
LINE
8
BLACK
6
CONTINUOUS
10
168.443
20
-142.836
11
168.395
21
-142.884
0
LINE
8
BLACK
6
CONTINUOUS
10
168.395
20
-142.884
11
168.443
21
-142.932
0
LINE
8
BLACK
6
CONTINUOUS
10
168.443
20
-142.932
11
168.49
21
-142.884
0
LINE
8
BLACK
6
CONTINUOUS
10
168.49
20
-142.884
11
168.443
21
-142.836
0
LINE
8
BLACK
6
CONTINUOUS
10
168.443
20
-142.836
11
168.443
21
-142.932
0
LINE
8
BLACK
6
CONTINUOUS
10
168.776
20
-143.17
11
169.157
21
-143.17
0
LINE
8
BLACK
6
CONTINUOUS
10
168.919
20
-142.836
11
168.919
21
-143.694
0
LINE
8
BLACK
6
CONTINUOUS
10
168.919
20
-143.694
11
168.966
21
-143.789
0
LINE
8
BLACK
6
CONTINUOUS
10
168.966
20
-143.789
11
169.062
21
-143.836
0
LINE
8
BLACK
6
CONTINUOUS
10
169.062
20
-143.836
11
169.157
21
-143.836
0
LINE
8
BLACK
6
CONTINUOUS
10
169.919
20
-143.789
11
169.823
21
-143.836
0
LINE
8
BLACK
6
CONTINUOUS
10
169.823
20
-143.836
11
169.633
21
-143.836
0
LINE
8
BLACK
6
CONTINUOUS
10
169.633
20
-143.836
11
169.538
21
-143.789
0
LINE
8
BLACK
6
CONTINUOUS
10
169.538
20
-143.789
11
169.49
21
-143.741
0
LINE
8
BLACK
6
CONTINUOUS
10
169.49
20
-143.741
11
169.443
21
-143.646
0
LINE
8
BLACK
6
CONTINUOUS
10
169.443
20
-143.646
11
169.443
21
-143.36
0
LINE
8
BLACK
6
CONTINUOUS
10
169.443
20
-143.36
11
169.49
21
-143.265
0
LINE
8
BLACK
6
CONTINUOUS
10
169.49
20
-143.265
11
169.538
21
-143.217
0
LINE
8
BLACK
6
CONTINUOUS
10
169.538
20
-143.217
11
169.633
21
-143.17
0
LINE
8
BLACK
6
CONTINUOUS
10
169.633
20
-143.17
11
169.823
21
-143.17
0
LINE
8
BLACK
6
CONTINUOUS
10
169.823
20
-143.17
11
169.919
21
-143.217
0
LINE
8
BLACK
6
CONTINUOUS
10
170.347
20
-143.836
11
170.347
21
-142.836
0
LINE
8
BLACK
6
CONTINUOUS
10
170.776
20
-143.836
11
170.776
21
-143.313
0
LINE
8
BLACK
6
CONTINUOUS
10
170.776
20
-143.313
11
170.728
21
-143.217
0
LINE
8
BLACK
6
CONTINUOUS
10
170.728
20
-143.217
11
170.633
21
-143.17
0
LINE
8
BLACK
6
CONTINUOUS
10
170.633
20
-143.17
11
170.49
21
-143.17
0
LINE
8
BLACK
6
CONTINUOUS
10
170.49
20
-143.17
11
170.395
21
-143.217
0
LINE
8
BLACK
6
CONTINUOUS
10
170.395
20
-143.217
11
170.347
21
-143.265
0
LINE
8
BLACK
6
CONTINUOUS
10
171.157
20
-145.253
11
171.3
21
-145.3
0
LINE
8
BLACK
6
CONTINUOUS
10
171.3
20
-145.3
11
171.538
21
-145.3
0
LINE
8
BLACK
6
CONTINUOUS
10
171.538
20
-145.3
11
171.633
21
-145.253
0
LINE
8
BLACK
6
CONTINUOUS
10
171.633
20
-145.253
11
171.681
21
-145.205
0
LINE
8
BLACK
6
CONTINUOUS
10
171.681
20
-145.205
11
171.728
21
-145.11
0
LINE
8
BLACK
6
CONTINUOUS
10
171.728
20
-145.11
11
171.728
21
-145.015
0
LINE
8
BLACK
6
CONTINUOUS
10
171.728
20
-145.015
11
171.681
21
-144.919
0
LINE
8
BLACK
6
CONTINUOUS
10
171.681
20
-144.919
11
171.633
21
-144.872
0
LINE
8
BLACK
6
CONTINUOUS
10
171.633
20
-144.872
11
171.538
21
-144.824
0
LINE
8
BLACK
6
CONTINUOUS
10
171.538
20
-144.824
11
171.347
21
-144.777
0
LINE
8
BLACK
6
CONTINUOUS
10
171.347
20
-144.777
11
171.252
21
-144.729
0
LINE
8
BLACK
6
CONTINUOUS
10
171.252
20
-144.729
11
171.204
21
-144.681
0
LINE
8
BLACK
6
CONTINUOUS
10
171.204
20
-144.681
11
171.157
21
-144.586
0
LINE
8
BLACK
6
CONTINUOUS
10
171.157
20
-144.586
11
171.157
21
-144.491
0
LINE
8
BLACK
6
CONTINUOUS
10
171.157
20
-144.491
11
171.204
21
-144.396
0
LINE
8
BLACK
6
CONTINUOUS
10
171.204
20
-144.396
11
171.252
21
-144.348
0
LINE
8
BLACK
6
CONTINUOUS
10
171.252
20
-144.348
11
171.347
21
-144.3
0
LINE
8
BLACK
6
CONTINUOUS
10
171.347
20
-144.3
11
171.585
21
-144.3
0
LINE
8
BLACK
6
CONTINUOUS
10
171.585
20
-144.3
11
171.728
21
-144.348
0
LINE
8
BLACK
6
CONTINUOUS
10
172.062
20
-144.634
11
172.252
21
-145.3
0
LINE
8
BLACK
6
CONTINUOUS
10
172.252
20
-145.3
11
172.443
21
-144.824
0
LINE
8
BLACK
6
CONTINUOUS
10
172.443
20
-144.824
11
172.633
21
-145.3
0
LINE
8
BLACK
6
CONTINUOUS
10
172.633
20
-145.3
11
172.823
21
-144.634
0
LINE
8
BLACK
6
CONTINUOUS
10
173.204
20
-145.3
11
173.204
21
-144.634
0
LINE
8
BLACK
6
CONTINUOUS
10
173.204
20
-144.3
11
173.157
21
-144.348
0
LINE
8
BLACK
6
CONTINUOUS
10
173.157
20
-144.348
11
173.204
21
-144.396
0
LINE
8
BLACK
6
CONTINUOUS
10
173.204
20
-144.396
11
173.252
21
-144.348
0
LINE
8
BLACK
6
CONTINUOUS
10
173.252
20
-144.348
11
173.204
21
-144.3
0
LINE
8
BLACK
6
CONTINUOUS
10
173.204
20
-144.3
11
173.204
21
-144.396
0
LINE
8
BLACK
6
CONTINUOUS
10
173.538
20
-144.634
11
173.919
21
-144.634
0
LINE
8
BLACK
6
CONTINUOUS
10
173.681
20
-144.3
11
173.681
21
-145.158
0
LINE
8
BLACK
6
CONTINUOUS
10
173.681
20
-145.158
11
173.728
21
-145.253
0
LINE
8
BLACK
6
CONTINUOUS
10
173.728
20
-145.253
11
173.823
21
-145.3
0
LINE
8
BLACK
6
CONTINUOUS
10
173.823
20
-145.3
11
173.919
21
-145.3
0
LINE
8
BLACK
6
CONTINUOUS
10
174.681
20
-145.253
11
174.585
21
-145.3
0
LINE
8
BLACK
6
CONTINUOUS
10
174.585
20
-145.3
11
174.395
21
-145.3
0
LINE
8
BLACK
6
CONTINUOUS
10
174.395
20
-145.3
11
174.3
21
-145.253
0
LINE
8
BLACK
6
CONTINUOUS
10
174.3
20
-145.253
11
174.252
21
-145.205
0
LINE
8
BLACK
6
CONTINUOUS
10
174.252
20
-145.205
11
174.204
21
-145.11
0
LINE
8
BLACK
6
CONTINUOUS
10
174.204
20
-145.11
11
174.204
21
-144.824
0
LINE
8
BLACK
6
CONTINUOUS
10
174.204
20
-144.824
11
174.252
21
-144.729
0
LINE
8
BLACK
6
CONTINUOUS
10
174.252
20
-144.729
11
174.3
21
-144.681
0
LINE
8
BLACK
6
CONTINUOUS
10
174.3
20
-144.681
11
174.395
21
-144.634
0
LINE
8
BLACK
6
CONTINUOUS
10
174.395
20
-144.634
11
174.585
21
-144.634
0
LINE
8
BLACK
6
CONTINUOUS
10
174.585
20
-144.634
11
174.681
21
-144.681
0
LINE
8
BLACK
6
CONTINUOUS
10
175.109
20
-145.3
11
175.109
21
-144.3
0
LINE
8
BLACK
6
CONTINUOUS
10
175.538
20
-145.3
11
175.538
21
-144.777
0
LINE
8
BLACK
6
CONTINUOUS
10
175.538
20
-144.777
11
175.49
21
-144.681
0
LINE
8
BLACK
6
CONTINUOUS
10
175.49
20
-144.681
11
175.395
21
-144.634
0
LINE
8
BLACK
6
CONTINUOUS
10
175.395
20
-144.634
11
175.252
21
-144.634
0
LINE
8
BLACK
6
CONTINUOUS
10
175.252
20
-144.634
11
175.157
21
-144.681
0
LINE
8
BLACK
6
CONTINUOUS
10
175.157
20
-144.681
11
175.109
21
-144.729
0
LINE
8
BLACK
6
CONTINUOUS
10
175.776
20
-145.396
11
176.538
21
-145.396
0
LINE
8
BLACK
6
CONTINUOUS
10
177.347
20
-145.205
11
177.3
21
-145.253
0
LINE
8
BLACK
6
CONTINUOUS
10
177.3
20
-145.253
11
177.157
21
-145.3
0
LINE
8
BLACK
6
CONTINUOUS
10
177.157
20
-145.3
11
177.062
21
-145.3
0
LINE
8
BLACK
6
CONTINUOUS
10
177.062
20
-145.3
11
176.919
21
-145.253
0
LINE
8
BLACK
6
CONTINUOUS
10
176.919
20
-145.253
11
176.823
21
-145.158
0
LINE
8
BLACK
6
CONTINUOUS
10
176.823
20
-145.158
11
176.776
21
-145.062
0
LINE
8
BLACK
6
CONTINUOUS
10
176.776
20
-145.062
11
176.728
21
-144.872
0
LINE
8
BLACK
6
CONTINUOUS
10
176.728
20
-144.872
11
176.728
21
-144.729
0
LINE
8
BLACK
6
CONTINUOUS
10
176.728
20
-144.729
11
176.776
21
-144.538
0
LINE
8
BLACK
6
CONTINUOUS
10
176.776
20
-144.538
11
176.823
21
-144.443
0
LINE
8
BLACK
6
CONTINUOUS
10
176.823
20
-144.443
11
176.919
21
-144.348
0
LINE
8
BLACK
6
CONTINUOUS
10
176.919
20
-144.348
11
177.062
21
-144.3
0
LINE
8
BLACK
6
CONTINUOUS
10
177.062
20
-144.3
11
177.157
21
-144.3
0
LINE
8
BLACK
6
CONTINUOUS
10
177.157
20
-144.3
11
177.3
21
-144.348
0
LINE
8
BLACK
6
CONTINUOUS
10
177.3
20
-144.348
11
177.347
21
-144.396
0
LINE
8
BLACK
6
CONTINUOUS
10
177.919
20
-145.3
11
177.823
21
-145.253
0
LINE
8
BLACK
6
CONTINUOUS
10
177.823
20
-145.253
11
177.776
21
-145.205
0
LINE
8
BLACK
6
CONTINUOUS
10
177.776
20
-145.205
11
177.728
21
-145.11
0
LINE
8
BLACK
6
CONTINUOUS
10
177.728
20
-145.11
11
177.728
21
-144.824
0
LINE
8
BLACK
6
CONTINUOUS
10
177.728
20
-144.824
11
177.776
21
-144.729
0
LINE
8
BLACK
6
CONTINUOUS
10
177.776
20
-144.729
11
177.823
21
-144.681
0
LINE
8
BLACK
6
CONTINUOUS
10
177.823
20
-144.681
11
177.919
21
-144.634
0
LINE
8
BLACK
6
CONTINUOUS
10
177.919
20
-144.634
11
178.062
21
-144.634
0
LINE
8
BLACK
6
CONTINUOUS
10
178.062
20
-144.634
11
178.157
21
-144.681
0
LINE
8
BLACK
6
CONTINUOUS
10
178.157
20
-144.681
11
178.204
21
-144.729
0
LINE
8
BLACK
6
CONTINUOUS
10
178.204
20
-144.729
11
178.252
21
-144.824
0
LINE
8
BLACK
6
CONTINUOUS
10
178.252
20
-144.824
11
178.252
21
-145.11
0
LINE
8
BLACK
6
CONTINUOUS
10
178.252
20
-145.11
11
178.204
21
-145.205
0
LINE
8
BLACK
6
CONTINUOUS
10
178.204
20
-145.205
11
178.157
21
-145.253
0
LINE
8
BLACK
6
CONTINUOUS
10
178.157
20
-145.253
11
178.062
21
-145.3
0
LINE
8
BLACK
6
CONTINUOUS
10
178.062
20
-145.3
11
177.919
21
-145.3
0
LINE
8
BLACK
6
CONTINUOUS
10
178.681
20
-144.634
11
178.681
21
-145.3
0
LINE
8
BLACK
6
CONTINUOUS
10
178.681
20
-144.729
11
178.728
21
-144.681
0
LINE
8
BLACK
6
CONTINUOUS
10
178.728
20
-144.681
11
178.823
21
-144.634
0
LINE
8
BLACK
6
CONTINUOUS
10
178.823
20
-144.634
11
178.966
21
-144.634
0
LINE
8
BLACK
6
CONTINUOUS
10
178.966
20
-144.634
11
179.062
21
-144.681
0
LINE
8
BLACK
6
CONTINUOUS
10
179.062
20
-144.681
11
179.109
21
-144.777
0
LINE
8
BLACK
6
CONTINUOUS
10
179.109
20
-144.777
11
179.109
21
-145.3
0
LINE
8
BLACK
6
CONTINUOUS
10
179.585
20
-144.634
11
179.585
21
-145.3
0
LINE
8
BLACK
6
CONTINUOUS
10
179.585
20
-144.729
11
179.633
21
-144.681
0
LINE
8
BLACK
6
CONTINUOUS
10
179.633
20
-144.681
11
179.728
21
-144.634
0
LINE
8
BLACK
6
CONTINUOUS
10
179.728
20
-144.634
11
179.871
21
-144.634
0
LINE
8
BLACK
6
CONTINUOUS
10
179.871
20
-144.634
11
179.966
21
-144.681
0
LINE
8
BLACK
6
CONTINUOUS
10
179.966
20
-144.681
11
180.014
21
-144.777
0
LINE
8
BLACK
6
CONTINUOUS
10
180.014
20
-144.777
11
180.014
21
-145.3
0
LINE
8
BLACK
6
CONTINUOUS
10
175.062
20
-148.781
11
175.776
21
-148.781
0
LINE
8
BLACK
6
CONTINUOUS
10
175.776
20
-148.781
11
175.919
21
-148.829
0
LINE
8
BLACK
6
CONTINUOUS
10
175.919
20
-148.829
11
176.014
21
-148.924
0
LINE
8
BLACK
6
CONTINUOUS
10
176.014
20
-148.924
11
176.062
21
-149.067
0
LINE
8
BLACK
6
CONTINUOUS
10
176.062
20
-149.067
11
176.062
21
-149.162
0
LINE
8
BLACK
6
CONTINUOUS
10
175.062
20
-148.4
11
175.062
21
-147.781
0
LINE
8
BLACK
6
CONTINUOUS
10
175.062
20
-147.781
11
175.443
21
-148.115
0
LINE
8
BLACK
6
CONTINUOUS
10
175.443
20
-148.115
11
175.443
21
-147.972
0
LINE
8
BLACK
6
CONTINUOUS
10
175.443
20
-147.972
11
175.49
21
-147.877
0
LINE
8
BLACK
6
CONTINUOUS
10
175.49
20
-147.877
11
175.538
21
-147.829
0
LINE
8
BLACK
6
CONTINUOUS
10
175.538
20
-147.829
11
175.633
21
-147.781
0
LINE
8
BLACK
6
CONTINUOUS
10
175.633
20
-147.781
11
175.871
21
-147.781
0
LINE
8
BLACK
6
CONTINUOUS
10
175.871
20
-147.781
11
175.966
21
-147.829
0
LINE
8
BLACK
6
CONTINUOUS
10
175.966
20
-147.829
11
176.014
21
-147.877
0
LINE
8
BLACK
6
CONTINUOUS
10
176.014
20
-147.877
11
176.062
21
-147.972
0
LINE
8
BLACK
6
CONTINUOUS
10
176.062
20
-147.972
11
176.062
21
-148.258
0
LINE
8
BLACK
6
CONTINUOUS
10
176.062
20
-148.258
11
176.014
21
-148.353
0
LINE
8
BLACK
6
CONTINUOUS
10
176.014
20
-148.353
11
175.966
21
-148.4
0
LINE
8
BLACK
6
CONTINUOUS
10
142.995
20
-61.3408
11
141.995
21
-61.3408
0
LINE
8
BLACK
6
CONTINUOUS
10
141.995
20
-61.3408
11
142.71
21
-61.0075
0
LINE
8
BLACK
6
CONTINUOUS
10
142.71
20
-61.0075
11
141.995
21
-60.6742
0
LINE
8
BLACK
6
CONTINUOUS
10
141.995
20
-60.6742
11
142.995
21
-60.6742
0
LINE
8
BLACK
6
CONTINUOUS
10
142.995
20
-60.0551
11
142.948
21
-60.1504
0
LINE
8
BLACK
6
CONTINUOUS
10
142.948
20
-60.1504
11
142.9
21
-60.198
0
LINE
8
BLACK
6
CONTINUOUS
10
142.9
20
-60.198
11
142.805
21
-60.2456
0
LINE
8
BLACK
6
CONTINUOUS
10
142.805
20
-60.2456
11
142.519
21
-60.2456
0
LINE
8
BLACK
6
CONTINUOUS
10
142.519
20
-60.2456
11
142.424
21
-60.198
0
LINE
8
BLACK
6
CONTINUOUS
10
142.424
20
-60.198
11
142.376
21
-60.1504
0
LINE
8
BLACK
6
CONTINUOUS
10
142.376
20
-60.1504
11
142.329
21
-60.0551
0
LINE
8
BLACK
6
CONTINUOUS
10
142.329
20
-60.0551
11
142.329
21
-59.9123
0
LINE
8
BLACK
6
CONTINUOUS
10
142.329
20
-59.9123
11
142.376
21
-59.817
0
LINE
8
BLACK
6
CONTINUOUS
10
142.376
20
-59.817
11
142.424
21
-59.7694
0
LINE
8
BLACK
6
CONTINUOUS
10
142.424
20
-59.7694
11
142.519
21
-59.7218
0
LINE
8
BLACK
6
CONTINUOUS
10
142.519
20
-59.7218
11
142.805
21
-59.7218
0
LINE
8
BLACK
6
CONTINUOUS
10
142.805
20
-59.7218
11
142.9
21
-59.7694
0
LINE
8
BLACK
6
CONTINUOUS
10
142.9
20
-59.7694
11
142.948
21
-59.817
0
LINE
8
BLACK
6
CONTINUOUS
10
142.948
20
-59.817
11
142.995
21
-59.9123
0
LINE
8
BLACK
6
CONTINUOUS
10
142.995
20
-59.9123
11
142.995
21
-60.0551
0
LINE
8
BLACK
6
CONTINUOUS
10
142.329
20
-58.8647
11
142.995
21
-58.8647
0
LINE
8
BLACK
6
CONTINUOUS
10
142.329
20
-59.2932
11
142.852
21
-59.2932
0
LINE
8
BLACK
6
CONTINUOUS
10
142.852
20
-59.2932
11
142.948
21
-59.2456
0
LINE
8
BLACK
6
CONTINUOUS
10
142.948
20
-59.2456
11
142.995
21
-59.1504
0
LINE
8
BLACK
6
CONTINUOUS
10
142.995
20
-59.1504
11
142.995
21
-59.0075
0
LINE
8
BLACK
6
CONTINUOUS
10
142.995
20
-59.0075
11
142.948
21
-58.9123
0
LINE
8
BLACK
6
CONTINUOUS
10
142.948
20
-58.9123
11
142.9
21
-58.8647
0
LINE
8
BLACK
6
CONTINUOUS
10
142.329
20
-58.3885
11
142.995
21
-58.3885
0
LINE
8
BLACK
6
CONTINUOUS
10
142.424
20
-58.3885
11
142.376
21
-58.3408
0
LINE
8
BLACK
6
CONTINUOUS
10
142.376
20
-58.3408
11
142.329
21
-58.2456
0
LINE
8
BLACK
6
CONTINUOUS
10
142.329
20
-58.2456
11
142.329
21
-58.1027
0
LINE
8
BLACK
6
CONTINUOUS
10
142.329
20
-58.1027
11
142.376
21
-58.0075
0
LINE
8
BLACK
6
CONTINUOUS
10
142.376
20
-58.0075
11
142.471
21
-57.9599
0
LINE
8
BLACK
6
CONTINUOUS
10
142.471
20
-57.9599
11
142.995
21
-57.9599
0
LINE
8
BLACK
6
CONTINUOUS
10
142.329
20
-57.6266
11
142.329
21
-57.2456
0
LINE
8
BLACK
6
CONTINUOUS
10
141.995
20
-57.4837
11
142.852
21
-57.4837
0
LINE
8
BLACK
6
CONTINUOUS
10
142.852
20
-57.4837
11
142.948
21
-57.4361
0
LINE
8
BLACK
6
CONTINUOUS
10
142.948
20
-57.4361
11
142.995
21
-57.3408
0
LINE
8
BLACK
6
CONTINUOUS
10
142.995
20
-57.3408
11
142.995
21
-57.2456
0
LINE
8
BLACK
6
CONTINUOUS
10
142.995
20
-56.9123
11
142.329
21
-56.9123
0
LINE
8
BLACK
6
CONTINUOUS
10
141.995
20
-56.9123
11
142.043
21
-56.9599
0
LINE
8
BLACK
6
CONTINUOUS
10
142.043
20
-56.9599
11
142.091
21
-56.9123
0
LINE
8
BLACK
6
CONTINUOUS
10
142.091
20
-56.9123
11
142.043
21
-56.8647
0
LINE
8
BLACK
6
CONTINUOUS
10
142.043
20
-56.8647
11
141.995
21
-56.9123
0
LINE
8
BLACK
6
CONTINUOUS
10
141.995
20
-56.9123
11
142.091
21
-56.9123
0
LINE
8
BLACK
6
CONTINUOUS
10
142.329
20
-56.4361
11
142.995
21
-56.4361
0
LINE
8
BLACK
6
CONTINUOUS
10
142.424
20
-56.4361
11
142.376
21
-56.3885
0
LINE
8
BLACK
6
CONTINUOUS
10
142.376
20
-56.3885
11
142.329
21
-56.2932
0
LINE
8
BLACK
6
CONTINUOUS
10
142.329
20
-56.2932
11
142.329
21
-56.1504
0
LINE
8
BLACK
6
CONTINUOUS
10
142.329
20
-56.1504
11
142.376
21
-56.0551
0
LINE
8
BLACK
6
CONTINUOUS
10
142.376
20
-56.0551
11
142.471
21
-56.0075
0
LINE
8
BLACK
6
CONTINUOUS
10
142.471
20
-56.0075
11
142.995
21
-56.0075
0
LINE
8
BLACK
6
CONTINUOUS
10
142.329
20
-55.1027
11
143.138
21
-55.1027
0
LINE
8
BLACK
6
CONTINUOUS
10
143.138
20
-55.1027
11
143.233
21
-55.1504
0
LINE
8
BLACK
6
CONTINUOUS
10
143.233
20
-55.1504
11
143.281
21
-55.198
0
LINE
8
BLACK
6
CONTINUOUS
10
143.281
20
-55.198
11
143.329
21
-55.2932
0
LINE
8
BLACK
6
CONTINUOUS
10
143.329
20
-55.2932
11
143.329
21
-55.4361
0
LINE
8
BLACK
6
CONTINUOUS
10
143.329
20
-55.4361
11
143.281
21
-55.5313
0
LINE
8
BLACK
6
CONTINUOUS
10
142.948
20
-55.1027
11
142.995
21
-55.198
0
LINE
8
BLACK
6
CONTINUOUS
10
142.995
20
-55.198
11
142.995
21
-55.3885
0
LINE
8
BLACK
6
CONTINUOUS
10
142.995
20
-55.3885
11
142.948
21
-55.4837
0
LINE
8
BLACK
6
CONTINUOUS
10
142.948
20
-55.4837
11
142.9
21
-55.5313
0
LINE
8
BLACK
6
CONTINUOUS
10
142.9
20
-55.5313
11
142.805
21
-55.5789
0
LINE
8
BLACK
6
CONTINUOUS
10
142.805
20
-55.5789
11
142.519
21
-55.5789
0
LINE
8
BLACK
6
CONTINUOUS
10
142.519
20
-55.5789
11
142.424
21
-55.5313
0
LINE
8
BLACK
6
CONTINUOUS
10
142.424
20
-55.5313
11
142.376
21
-55.4837
0
LINE
8
BLACK
6
CONTINUOUS
10
142.376
20
-55.4837
11
142.329
21
-55.3885
0
LINE
8
BLACK
6
CONTINUOUS
10
142.329
20
-55.3885
11
142.329
21
-55.198
0
LINE
8
BLACK
6
CONTINUOUS
10
142.329
20
-55.198
11
142.376
21
-55.1027
0
LINE
8
BLACK
6
CONTINUOUS
10
142.995
20
-54.6266
11
141.995
21
-54.6266
0
LINE
8
BLACK
6
CONTINUOUS
10
142.471
20
-54.6266
11
142.471
21
-54.0551
0
LINE
8
BLACK
6
CONTINUOUS
10
142.995
20
-54.0551
11
141.995
21
-54.0551
0
LINE
8
BLACK
6
CONTINUOUS
10
142.995
20
-53.4361
11
142.948
21
-53.5313
0
LINE
8
BLACK
6
CONTINUOUS
10
142.948
20
-53.5313
11
142.9
21
-53.5789
0
LINE
8
BLACK
6
CONTINUOUS
10
142.9
20
-53.5789
11
142.805
21
-53.6266
0
LINE
8
BLACK
6
CONTINUOUS
10
142.805
20
-53.6266
11
142.519
21
-53.6266
0
LINE
8
BLACK
6
CONTINUOUS
10
142.519
20
-53.6266
11
142.424
21
-53.5789
0
LINE
8
BLACK
6
CONTINUOUS
10
142.424
20
-53.5789
11
142.376
21
-53.5313
0
LINE
8
BLACK
6
CONTINUOUS
10
142.376
20
-53.5313
11
142.329
21
-53.4361
0
LINE
8
BLACK
6
CONTINUOUS
10
142.329
20
-53.4361
11
142.329
21
-53.2932
0
LINE
8
BLACK
6
CONTINUOUS
10
142.329
20
-53.2932
11
142.376
21
-53.198
0
LINE
8
BLACK
6
CONTINUOUS
10
142.376
20
-53.198
11
142.424
21
-53.1504
0
LINE
8
BLACK
6
CONTINUOUS
10
142.424
20
-53.1504
11
142.519
21
-53.1027
0
LINE
8
BLACK
6
CONTINUOUS
10
142.519
20
-53.1027
11
142.805
21
-53.1027
0
LINE
8
BLACK
6
CONTINUOUS
10
142.805
20
-53.1027
11
142.9
21
-53.1504
0
LINE
8
BLACK
6
CONTINUOUS
10
142.9
20
-53.1504
11
142.948
21
-53.198
0
LINE
8
BLACK
6
CONTINUOUS
10
142.948
20
-53.198
11
142.995
21
-53.2932
0
LINE
8
BLACK
6
CONTINUOUS
10
142.995
20
-53.2932
11
142.995
21
-53.4361
0
LINE
8
BLACK
6
CONTINUOUS
10
142.995
20
-52.5313
11
142.948
21
-52.6266
0
LINE
8
BLACK
6
CONTINUOUS
10
142.948
20
-52.6266
11
142.852
21
-52.6742
0
LINE
8
BLACK
6
CONTINUOUS
10
142.852
20
-52.6742
11
141.995
21
-52.6742
0
LINE
8
BLACK
6
CONTINUOUS
10
142.948
20
-51.7694
11
142.995
21
-51.8647
0
LINE
8
BLACK
6
CONTINUOUS
10
142.995
20
-51.8647
11
142.995
21
-52.0551
0
LINE
8
BLACK
6
CONTINUOUS
10
142.995
20
-52.0551
11
142.948
21
-52.1504
0
LINE
8
BLACK
6
CONTINUOUS
10
142.948
20
-52.1504
11
142.852
21
-52.198
0
LINE
8
BLACK
6
CONTINUOUS
10
142.852
20
-52.198
11
142.471
21
-52.198
0
LINE
8
BLACK
6
CONTINUOUS
10
142.471
20
-52.198
11
142.376
21
-52.1504
0
LINE
8
BLACK
6
CONTINUOUS
10
142.376
20
-52.1504
11
142.329
21
-52.0551
0
LINE
8
BLACK
6
CONTINUOUS
10
142.329
20
-52.0551
11
142.329
21
-51.8647
0
LINE
8
BLACK
6
CONTINUOUS
10
142.329
20
-51.8647
11
142.376
21
-51.7694
0
LINE
8
BLACK
6
CONTINUOUS
10
142.376
20
-51.7694
11
142.471
21
-51.7218
0
LINE
8
BLACK
6
CONTINUOUS
10
142.471
20
-51.7218
11
142.567
21
-51.7218
0
LINE
8
BLACK
6
CONTINUOUS
10
142.567
20
-51.7218
11
142.662
21
-52.198
0
LINE
8
BLACK
6
CONTINUOUS
10
143.091
20
-51.5313
11
143.091
21
-50.7694
0
LINE
8
BLACK
6
CONTINUOUS
10
142.091
20
-50.5789
11
142.043
21
-50.5313
0
LINE
8
BLACK
6
CONTINUOUS
10
142.043
20
-50.5313
11
141.995
21
-50.4361
0
LINE
8
BLACK
6
CONTINUOUS
10
141.995
20
-50.4361
11
141.995
21
-50.198
0
LINE
8
BLACK
6
CONTINUOUS
10
141.995
20
-50.198
11
142.043
21
-50.1027
0
LINE
8
BLACK
6
CONTINUOUS
10
142.043
20
-50.1027
11
142.091
21
-50.0551
0
LINE
8
BLACK
6
CONTINUOUS
10
142.091
20
-50.0551
11
142.186
21
-50.0075
0
LINE
8
BLACK
6
CONTINUOUS
10
142.186
20
-50.0075
11
142.281
21
-50.0075
0
LINE
8
BLACK
6
CONTINUOUS
10
142.281
20
-50.0075
11
142.424
21
-50.0551
0
LINE
8
BLACK
6
CONTINUOUS
10
142.424
20
-50.0551
11
142.995
21
-50.6266
0
LINE
8
BLACK
6
CONTINUOUS
10
142.995
20
-50.6266
11
142.995
21
-50.0075
0
LINE
8
BLACK
6
CONTINUOUS
10
142.9
20
-49.5789
11
142.948
21
-49.5313
0
LINE
8
BLACK
6
CONTINUOUS
10
142.948
20
-49.5313
11
142.995
21
-49.5789
0
LINE
8
BLACK
6
CONTINUOUS
10
142.995
20
-49.5789
11
142.948
21
-49.6266
0
LINE
8
BLACK
6
CONTINUOUS
10
142.948
20
-49.6266
11
142.9
21
-49.5789
0
LINE
8
BLACK
6
CONTINUOUS
10
142.9
20
-49.5789
11
142.995
21
-49.5789
0
LINE
8
BLACK
6
CONTINUOUS
10
142.091
20
-49.1504
11
142.043
21
-49.1027
0
LINE
8
BLACK
6
CONTINUOUS
10
142.043
20
-49.1027
11
141.995
21
-49.0075
0
LINE
8
BLACK
6
CONTINUOUS
10
141.995
20
-49.0075
11
141.995
21
-48.7694
0
LINE
8
BLACK
6
CONTINUOUS
10
141.995
20
-48.7694
11
142.043
21
-48.6742
0
LINE
8
BLACK
6
CONTINUOUS
10
142.043
20
-48.6742
11
142.091
21
-48.6266
0
LINE
8
BLACK
6
CONTINUOUS
10
142.091
20
-48.6266
11
142.186
21
-48.5789
0
LINE
8
BLACK
6
CONTINUOUS
10
142.186
20
-48.5789
11
142.281
21
-48.5789
0
LINE
8
BLACK
6
CONTINUOUS
10
142.281
20
-48.5789
11
142.424
21
-48.6266
0
LINE
8
BLACK
6
CONTINUOUS
10
142.424
20
-48.6266
11
142.995
21
-49.198
0
LINE
8
BLACK
6
CONTINUOUS
10
142.995
20
-49.198
11
142.995
21
-48.5789
0
LINE
8
BLACK
6
CONTINUOUS
10
142.995
20
-48.1504
11
142.329
21
-48.1504
0
LINE
8
BLACK
6
CONTINUOUS
10
142.424
20
-48.1504
11
142.376
21
-48.1027
0
LINE
8
BLACK
6
CONTINUOUS
10
142.376
20
-48.1027
11
142.329
21
-48.0075
0
LINE
8
BLACK
6
CONTINUOUS
10
142.329
20
-48.0075
11
142.329
21
-47.8647
0
LINE
8
BLACK
6
CONTINUOUS
10
142.329
20
-47.8647
11
142.376
21
-47.7694
0
LINE
8
BLACK
6
CONTINUOUS
10
142.376
20
-47.7694
11
142.471
21
-47.7218
0
LINE
8
BLACK
6
CONTINUOUS
10
142.471
20
-47.7218
11
142.995
21
-47.7218
0
LINE
8
BLACK
6
CONTINUOUS
10
142.471
20
-47.7218
11
142.376
21
-47.6742
0
LINE
8
BLACK
6
CONTINUOUS
10
142.376
20
-47.6742
11
142.329
21
-47.5789
0
LINE
8
BLACK
6
CONTINUOUS
10
142.329
20
-47.5789
11
142.329
21
-47.4361
0
LINE
8
BLACK
6
CONTINUOUS
10
142.329
20
-47.4361
11
142.376
21
-47.3408
0
LINE
8
BLACK
6
CONTINUOUS
10
142.376
20
-47.3408
11
142.471
21
-47.2932
0
LINE
8
BLACK
6
CONTINUOUS
10
142.471
20
-47.2932
11
142.995
21
-47.2932
0
LINE
8
BLACK
6
CONTINUOUS
10
142.995
20
-46.817
11
142.329
21
-46.817
0
LINE
8
BLACK
6
CONTINUOUS
10
142.424
20
-46.817
11
142.376
21
-46.7694
0
LINE
8
BLACK
6
CONTINUOUS
10
142.376
20
-46.7694
11
142.329
21
-46.6742
0
LINE
8
BLACK
6
CONTINUOUS
10
142.329
20
-46.6742
11
142.329
21
-46.5313
0
LINE
8
BLACK
6
CONTINUOUS
10
142.329
20
-46.5313
11
142.376
21
-46.4361
0
LINE
8
BLACK
6
CONTINUOUS
10
142.376
20
-46.4361
11
142.471
21
-46.3885
0
LINE
8
BLACK
6
CONTINUOUS
10
142.471
20
-46.3885
11
142.995
21
-46.3885
0
LINE
8
BLACK
6
CONTINUOUS
10
142.471
20
-46.3885
11
142.376
21
-46.3408
0
LINE
8
BLACK
6
CONTINUOUS
10
142.376
20
-46.3408
11
142.329
21
-46.2456
0
LINE
8
BLACK
6
CONTINUOUS
10
142.329
20
-46.2456
11
142.329
21
-46.1027
0
LINE
8
BLACK
6
CONTINUOUS
10
142.329
20
-46.1027
11
142.376
21
-46.0075
0
LINE
8
BLACK
6
CONTINUOUS
10
142.376
20
-46.0075
11
142.471
21
-45.9599
0
LINE
8
BLACK
6
CONTINUOUS
10
142.471
20
-45.9599
11
142.995
21
-45.9599
0
LINE
8
BLACK
6
CONTINUOUS
10
143.091
20
-45.7218
11
143.091
21
-44.9599
0
LINE
8
BLACK
6
CONTINUOUS
10
142.995
20
-44.7218
11
141.995
21
-44.7218
0
LINE
8
BLACK
6
CONTINUOUS
10
141.995
20
-44.7218
11
142.71
21
-44.3885
0
LINE
8
BLACK
6
CONTINUOUS
10
142.71
20
-44.3885
11
141.995
21
-44.0551
0
LINE
8
BLACK
6
CONTINUOUS
10
141.995
20
-44.0551
11
142.995
21
-44.0551
0
LINE
8
BLACK
6
CONTINUOUS
10
142.091
20
-43.6266
11
142.043
21
-43.5789
0
LINE
8
BLACK
6
CONTINUOUS
10
142.043
20
-43.5789
11
141.995
21
-43.4837
0
LINE
8
BLACK
6
CONTINUOUS
10
141.995
20
-43.4837
11
141.995
21
-43.2456
0
LINE
8
BLACK
6
CONTINUOUS
10
141.995
20
-43.2456
11
142.043
21
-43.1504
0
LINE
8
BLACK
6
CONTINUOUS
10
142.043
20
-43.1504
11
142.091
21
-43.1027
0
LINE
8
BLACK
6
CONTINUOUS
10
142.091
20
-43.1027
11
142.186
21
-43.0551
0
LINE
8
BLACK
6
CONTINUOUS
10
142.186
20
-43.0551
11
142.281
21
-43.0551
0
LINE
8
BLACK
6
CONTINUOUS
10
142.281
20
-43.0551
11
142.424
21
-43.1027
0
LINE
8
BLACK
6
CONTINUOUS
10
142.424
20
-43.1027
11
142.995
21
-43.6742
0
LINE
8
BLACK
6
CONTINUOUS
10
142.995
20
-43.6742
11
142.995
21
-43.0551
0
LINE
8
BLACK
6
CONTINUOUS
10
146.195
20
-53.8551
11
145.719
21
-54.1885
0
LINE
8
BLACK
6
CONTINUOUS
10
146.195
20
-54.4266
11
145.195
21
-54.4266
0
LINE
8
BLACK
6
CONTINUOUS
10
145.195
20
-54.4266
11
145.195
21
-54.0456
0
LINE
8
BLACK
6
CONTINUOUS
10
145.195
20
-54.0456
11
145.243
21
-53.9504
0
LINE
8
BLACK
6
CONTINUOUS
10
145.243
20
-53.9504
11
145.291
21
-53.9027
0
LINE
8
BLACK
6
CONTINUOUS
10
145.291
20
-53.9027
11
145.386
21
-53.8551
0
LINE
8
BLACK
6
CONTINUOUS
10
145.386
20
-53.8551
11
145.529
21
-53.8551
0
LINE
8
BLACK
6
CONTINUOUS
10
145.529
20
-53.8551
11
145.624
21
-53.9027
0
LINE
8
BLACK
6
CONTINUOUS
10
145.624
20
-53.9027
11
145.671
21
-53.9504
0
LINE
8
BLACK
6
CONTINUOUS
10
145.671
20
-53.9504
11
145.719
21
-54.0456
0
LINE
8
BLACK
6
CONTINUOUS
10
145.719
20
-54.0456
11
145.719
21
-54.4266
0
LINE
8
BLACK
6
CONTINUOUS
10
145.671
20
-53.4266
11
145.671
21
-53.0932
0
LINE
8
BLACK
6
CONTINUOUS
10
146.195
20
-52.9504
11
146.195
21
-53.4266
0
LINE
8
BLACK
6
CONTINUOUS
10
146.195
20
-53.4266
11
145.195
21
-53.4266
0
LINE
8
BLACK
6
CONTINUOUS
10
145.195
20
-53.4266
11
145.195
21
-52.9504
0
LINE
8
BLACK
6
CONTINUOUS
10
145.671
20
-52.1885
11
145.671
21
-52.5218
0
LINE
8
BLACK
6
CONTINUOUS
10
146.195
20
-52.5218
11
145.195
21
-52.5218
0
LINE
8
BLACK
6
CONTINUOUS
10
145.195
20
-52.5218
11
145.195
21
-52.0456
0
LINE
8
BLACK
6
CONTINUOUS
10
145.195
20
-51.5218
11
145.433
21
-51.5218
0
LINE
8
BLACK
6
CONTINUOUS
10
145.338
20
-51.7599
11
145.433
21
-51.5218
0
LINE
8
BLACK
6
CONTINUOUS
10
145.433
20
-51.5218
11
145.338
21
-51.2837
0
LINE
8
BLACK
6
CONTINUOUS
10
145.624
20
-51.6647
11
145.433
21
-51.5218
0
LINE
8
BLACK
6
CONTINUOUS
10
145.433
20
-51.5218
11
145.624
21
-51.3789
0
LINE
8
BLACK
6
CONTINUOUS
10
145.195
20
-50.7599
11
145.433
21
-50.7599
0
LINE
8
BLACK
6
CONTINUOUS
10
145.338
20
-50.998
11
145.433
21
-50.7599
0
LINE
8
BLACK
6
CONTINUOUS
10
145.433
20
-50.7599
11
145.338
21
-50.5218
0
LINE
8
BLACK
6
CONTINUOUS
10
145.624
20
-50.9027
11
145.433
21
-50.7599
0
LINE
8
BLACK
6
CONTINUOUS
10
145.433
20
-50.7599
11
145.624
21
-50.617
0
LINE
8
BLACK
6
CONTINUOUS
10
144.791
20
-33.7242
11
144.981
21
-33.7242
0
LINE
8
BLACK
6
CONTINUOUS
10
144.981
20
-33.7242
11
145.076
21
-33.7718
0
LINE
8
BLACK
6
CONTINUOUS
10
145.076
20
-33.7718
11
145.171
21
-33.867
0
LINE
8
BLACK
6
CONTINUOUS
10
145.171
20
-33.867
11
145.219
21
-34.0575
0
LINE
8
BLACK
6
CONTINUOUS
10
145.219
20
-34.0575
11
145.219
21
-34.3908
0
LINE
8
BLACK
6
CONTINUOUS
10
145.219
20
-34.3908
11
145.171
21
-34.5813
0
LINE
8
BLACK
6
CONTINUOUS
10
145.171
20
-34.5813
11
145.076
21
-34.6766
0
LINE
8
BLACK
6
CONTINUOUS
10
145.076
20
-34.6766
11
144.981
21
-34.7242
0
LINE
8
BLACK
6
CONTINUOUS
10
144.981
20
-34.7242
11
144.791
21
-34.7242
0
LINE
8
BLACK
6
CONTINUOUS
10
144.791
20
-34.7242
11
144.695
21
-34.6766
0
LINE
8
BLACK
6
CONTINUOUS
10
144.695
20
-34.6766
11
144.6
21
-34.5813
0
LINE
8
BLACK
6
CONTINUOUS
10
144.6
20
-34.5813
11
144.552
21
-34.3908
0
LINE
8
BLACK
6
CONTINUOUS
10
144.552
20
-34.3908
11
144.552
21
-34.0575
0
LINE
8
BLACK
6
CONTINUOUS
10
144.552
20
-34.0575
11
144.6
21
-33.867
0
LINE
8
BLACK
6
CONTINUOUS
10
144.6
20
-33.867
11
144.695
21
-33.7718
0
LINE
8
BLACK
6
CONTINUOUS
10
144.695
20
-33.7718
11
144.791
21
-33.7242
0
LINE
8
BLACK
6
CONTINUOUS
10
146.124
20
-34.7242
11
145.648
21
-34.7242
0
LINE
8
BLACK
6
CONTINUOUS
10
145.648
20
-34.7242
11
145.648
21
-33.7242
0
LINE
8
BLACK
6
CONTINUOUS
10
146.457
20
-34.2004
11
146.791
21
-34.2004
0
LINE
8
BLACK
6
CONTINUOUS
10
146.933
20
-34.7242
11
146.457
21
-34.7242
0
LINE
8
BLACK
6
CONTINUOUS
10
146.457
20
-34.7242
11
146.457
21
-33.7242
0
LINE
8
BLACK
6
CONTINUOUS
10
146.457
20
-33.7242
11
146.933
21
-33.7242
0
LINE
8
BLACK
6
CONTINUOUS
10
147.362
20
-34.7242
11
147.362
21
-33.7242
0
LINE
8
BLACK
6
CONTINUOUS
10
147.362
20
-33.7242
11
147.6
21
-33.7242
0
LINE
8
BLACK
6
CONTINUOUS
10
147.6
20
-33.7242
11
147.743
21
-33.7718
0
LINE
8
BLACK
6
CONTINUOUS
10
147.743
20
-33.7718
11
147.838
21
-33.867
0
LINE
8
BLACK
6
CONTINUOUS
10
147.838
20
-33.867
11
147.886
21
-33.9623
0
LINE
8
BLACK
6
CONTINUOUS
10
147.886
20
-33.9623
11
147.933
21
-34.1527
0
LINE
8
BLACK
6
CONTINUOUS
10
147.933
20
-34.1527
11
147.933
21
-34.2956
0
LINE
8
BLACK
6
CONTINUOUS
10
147.933
20
-34.2956
11
147.886
21
-34.4861
0
LINE
8
BLACK
6
CONTINUOUS
10
147.886
20
-34.4861
11
147.838
21
-34.5813
0
LINE
8
BLACK
6
CONTINUOUS
10
147.838
20
-34.5813
11
147.743
21
-34.6766
0
LINE
8
BLACK
6
CONTINUOUS
10
147.743
20
-34.6766
11
147.6
21
-34.7242
0
LINE
8
BLACK
6
CONTINUOUS
10
147.6
20
-34.7242
11
147.362
21
-34.7242
0
LINE
8
BLACK
6
CONTINUOUS
10
145.695
20
-44.5551
11
146.41
21
-44.5551
0
LINE
8
BLACK
6
CONTINUOUS
10
146.41
20
-44.5551
11
146.552
21
-44.6027
0
LINE
8
BLACK
6
CONTINUOUS
10
146.552
20
-44.6027
11
146.648
21
-44.698
0
LINE
8
BLACK
6
CONTINUOUS
10
146.648
20
-44.698
11
146.695
21
-44.8408
0
LINE
8
BLACK
6
CONTINUOUS
10
146.695
20
-44.8408
11
146.695
21
-44.9361
0
LINE
8
BLACK
6
CONTINUOUS
10
146.695
20
-43.5551
11
146.695
21
-44.1266
0
LINE
8
BLACK
6
CONTINUOUS
10
146.695
20
-43.8408
11
145.695
21
-43.8408
0
LINE
8
BLACK
6
CONTINUOUS
10
145.695
20
-43.8408
11
145.838
21
-43.9361
0
LINE
8
BLACK
6
CONTINUOUS
10
145.838
20
-43.9361
11
145.933
21
-44.0313
0
LINE
8
BLACK
6
CONTINUOUS
10
145.933
20
-44.0313
11
145.981
21
-44.1266
0
LINE
8
BLACK
6
CONTINUOUS
10
122.214
20
-76.6774
11
122.214
21
-75.6774
0
LINE
8
BLACK
6
CONTINUOUS
10
122.214
20
-75.6774
11
122.548
21
-76.3917
0
LINE
8
BLACK
6
CONTINUOUS
10
122.548
20
-76.3917
11
122.881
21
-75.6774
0
LINE
8
BLACK
6
CONTINUOUS
10
122.881
20
-75.6774
11
122.881
21
-76.6774
0
LINE
8
BLACK
6
CONTINUOUS
10
123.5
20
-76.6774
11
123.405
21
-76.6298
0
LINE
8
BLACK
6
CONTINUOUS
10
123.405
20
-76.6298
11
123.357
21
-76.5821
0
LINE
8
BLACK
6
CONTINUOUS
10
123.357
20
-76.5821
11
123.31
21
-76.4869
0
LINE
8
BLACK
6
CONTINUOUS
10
123.31
20
-76.4869
11
123.31
21
-76.2012
0
LINE
8
BLACK
6
CONTINUOUS
10
123.31
20
-76.2012
11
123.357
21
-76.106
0
LINE
8
BLACK
6
CONTINUOUS
10
123.357
20
-76.106
11
123.405
21
-76.0583
0
LINE
8
BLACK
6
CONTINUOUS
10
123.405
20
-76.0583
11
123.5
21
-76.0107
0
LINE
8
BLACK
6
CONTINUOUS
10
123.5
20
-76.0107
11
123.643
21
-76.0107
0
LINE
8
BLACK
6
CONTINUOUS
10
123.643
20
-76.0107
11
123.738
21
-76.0583
0
LINE
8
BLACK
6
CONTINUOUS
10
123.738
20
-76.0583
11
123.786
21
-76.106
0
LINE
8
BLACK
6
CONTINUOUS
10
123.786
20
-76.106
11
123.833
21
-76.2012
0
LINE
8
BLACK
6
CONTINUOUS
10
123.833
20
-76.2012
11
123.833
21
-76.4869
0
LINE
8
BLACK
6
CONTINUOUS
10
123.833
20
-76.4869
11
123.786
21
-76.5821
0
LINE
8
BLACK
6
CONTINUOUS
10
123.786
20
-76.5821
11
123.738
21
-76.6298
0
LINE
8
BLACK
6
CONTINUOUS
10
123.738
20
-76.6298
11
123.643
21
-76.6774
0
LINE
8
BLACK
6
CONTINUOUS
10
123.643
20
-76.6774
11
123.5
21
-76.6774
0
LINE
8
BLACK
6
CONTINUOUS
10
124.69
20
-76.0107
11
124.69
21
-76.6774
0
LINE
8
BLACK
6
CONTINUOUS
10
124.262
20
-76.0107
11
124.262
21
-76.5345
0
LINE
8
BLACK
6
CONTINUOUS
10
124.262
20
-76.5345
11
124.31
21
-76.6298
0
LINE
8
BLACK
6
CONTINUOUS
10
124.31
20
-76.6298
11
124.405
21
-76.6774
0
LINE
8
BLACK
6
CONTINUOUS
10
124.405
20
-76.6774
11
124.548
21
-76.6774
0
LINE
8
BLACK
6
CONTINUOUS
10
124.548
20
-76.6774
11
124.643
21
-76.6298
0
LINE
8
BLACK
6
CONTINUOUS
10
124.643
20
-76.6298
11
124.69
21
-76.5821
0
LINE
8
BLACK
6
CONTINUOUS
10
125.167
20
-76.0107
11
125.167
21
-76.6774
0
LINE
8
BLACK
6
CONTINUOUS
10
125.167
20
-76.106
11
125.214
21
-76.0583
0
LINE
8
BLACK
6
CONTINUOUS
10
125.214
20
-76.0583
11
125.31
21
-76.0107
0
LINE
8
BLACK
6
CONTINUOUS
10
125.31
20
-76.0107
11
125.452
21
-76.0107
0
LINE
8
BLACK
6
CONTINUOUS
10
125.452
20
-76.0107
11
125.548
21
-76.0583
0
LINE
8
BLACK
6
CONTINUOUS
10
125.548
20
-76.0583
11
125.595
21
-76.1536
0
LINE
8
BLACK
6
CONTINUOUS
10
125.595
20
-76.1536
11
125.595
21
-76.6774
0
LINE
8
BLACK
6
CONTINUOUS
10
125.929
20
-76.0107
11
126.31
21
-76.0107
0
LINE
8
BLACK
6
CONTINUOUS
10
126.071
20
-75.6774
11
126.071
21
-76.5345
0
LINE
8
BLACK
6
CONTINUOUS
10
126.071
20
-76.5345
11
126.119
21
-76.6298
0
LINE
8
BLACK
6
CONTINUOUS
10
126.119
20
-76.6298
11
126.214
21
-76.6774
0
LINE
8
BLACK
6
CONTINUOUS
10
126.214
20
-76.6774
11
126.31
21
-76.6774
0
LINE
8
BLACK
6
CONTINUOUS
10
126.643
20
-76.6774
11
126.643
21
-76.0107
0
LINE
8
BLACK
6
CONTINUOUS
10
126.643
20
-75.6774
11
126.595
21
-75.725
0
LINE
8
BLACK
6
CONTINUOUS
10
126.595
20
-75.725
11
126.643
21
-75.7726
0
LINE
8
BLACK
6
CONTINUOUS
10
126.643
20
-75.7726
11
126.69
21
-75.725
0
LINE
8
BLACK
6
CONTINUOUS
10
126.69
20
-75.725
11
126.643
21
-75.6774
0
LINE
8
BLACK
6
CONTINUOUS
10
126.643
20
-75.6774
11
126.643
21
-75.7726
0
LINE
8
BLACK
6
CONTINUOUS
10
127.119
20
-76.0107
11
127.119
21
-76.6774
0
LINE
8
BLACK
6
CONTINUOUS
10
127.119
20
-76.106
11
127.167
21
-76.0583
0
LINE
8
BLACK
6
CONTINUOUS
10
127.167
20
-76.0583
11
127.262
21
-76.0107
0
LINE
8
BLACK
6
CONTINUOUS
10
127.262
20
-76.0107
11
127.405
21
-76.0107
0
LINE
8
BLACK
6
CONTINUOUS
10
127.405
20
-76.0107
11
127.5
21
-76.0583
0
LINE
8
BLACK
6
CONTINUOUS
10
127.5
20
-76.0583
11
127.548
21
-76.1536
0
LINE
8
BLACK
6
CONTINUOUS
10
127.548
20
-76.1536
11
127.548
21
-76.6774
0
LINE
8
BLACK
6
CONTINUOUS
10
128.452
20
-76.0107
11
128.452
21
-76.8202
0
LINE
8
BLACK
6
CONTINUOUS
10
128.452
20
-76.8202
11
128.405
21
-76.9155
0
LINE
8
BLACK
6
CONTINUOUS
10
128.405
20
-76.9155
11
128.357
21
-76.9631
0
LINE
8
BLACK
6
CONTINUOUS
10
128.357
20
-76.9631
11
128.262
21
-77.0107
0
LINE
8
BLACK
6
CONTINUOUS
10
128.262
20
-77.0107
11
128.119
21
-77.0107
0
LINE
8
BLACK
6
CONTINUOUS
10
128.119
20
-77.0107
11
128.024
21
-76.9631
0
LINE
8
BLACK
6
CONTINUOUS
10
128.452
20
-76.6298
11
128.357
21
-76.6774
0
LINE
8
BLACK
6
CONTINUOUS
10
128.357
20
-76.6774
11
128.167
21
-76.6774
0
LINE
8
BLACK
6
CONTINUOUS
10
128.167
20
-76.6774
11
128.071
21
-76.6298
0
LINE
8
BLACK
6
CONTINUOUS
10
128.071
20
-76.6298
11
128.024
21
-76.5821
0
LINE
8
BLACK
6
CONTINUOUS
10
128.024
20
-76.5821
11
127.976
21
-76.4869
0
LINE
8
BLACK
6
CONTINUOUS
10
127.976
20
-76.4869
11
127.976
21
-76.2012
0
LINE
8
BLACK
6
CONTINUOUS
10
127.976
20
-76.2012
11
128.024
21
-76.106
0
LINE
8
BLACK
6
CONTINUOUS
10
128.024
20
-76.106
11
128.071
21
-76.0583
0
LINE
8
BLACK
6
CONTINUOUS
10
128.071
20
-76.0583
11
128.167
21
-76.0107
0
LINE
8
BLACK
6
CONTINUOUS
10
128.167
20
-76.0107
11
128.357
21
-76.0107
0
LINE
8
BLACK
6
CONTINUOUS
10
128.357
20
-76.0107
11
128.452
21
-76.0583
0
LINE
8
BLACK
6
CONTINUOUS
10
128.929
20
-76.6774
11
128.929
21
-75.6774
0
LINE
8
BLACK
6
CONTINUOUS
10
128.929
20
-76.1536
11
129.5
21
-76.1536
0
LINE
8
BLACK
6
CONTINUOUS
10
129.5
20
-76.6774
11
129.5
21
-75.6774
0
LINE
8
BLACK
6
CONTINUOUS
10
130.119
20
-76.6774
11
130.024
21
-76.6298
0
LINE
8
BLACK
6
CONTINUOUS
10
130.024
20
-76.6298
11
129.976
21
-76.5821
0
LINE
8
BLACK
6
CONTINUOUS
10
129.976
20
-76.5821
11
129.929
21
-76.4869
0
LINE
8
BLACK
6
CONTINUOUS
10
129.929
20
-76.4869
11
129.929
21
-76.2012
0
LINE
8
BLACK
6
CONTINUOUS
10
129.929
20
-76.2012
11
129.976
21
-76.106
0
LINE
8
BLACK
6
CONTINUOUS
10
129.976
20
-76.106
11
130.024
21
-76.0583
0
LINE
8
BLACK
6
CONTINUOUS
10
130.024
20
-76.0583
11
130.119
21
-76.0107
0
LINE
8
BLACK
6
CONTINUOUS
10
130.119
20
-76.0107
11
130.262
21
-76.0107
0
LINE
8
BLACK
6
CONTINUOUS
10
130.262
20
-76.0107
11
130.357
21
-76.0583
0
LINE
8
BLACK
6
CONTINUOUS
10
130.357
20
-76.0583
11
130.405
21
-76.106
0
LINE
8
BLACK
6
CONTINUOUS
10
130.405
20
-76.106
11
130.452
21
-76.2012
0
LINE
8
BLACK
6
CONTINUOUS
10
130.452
20
-76.2012
11
130.452
21
-76.4869
0
LINE
8
BLACK
6
CONTINUOUS
10
130.452
20
-76.4869
11
130.405
21
-76.5821
0
LINE
8
BLACK
6
CONTINUOUS
10
130.405
20
-76.5821
11
130.357
21
-76.6298
0
LINE
8
BLACK
6
CONTINUOUS
10
130.357
20
-76.6298
11
130.262
21
-76.6774
0
LINE
8
BLACK
6
CONTINUOUS
10
130.262
20
-76.6774
11
130.119
21
-76.6774
0
LINE
8
BLACK
6
CONTINUOUS
10
131.024
20
-76.6774
11
130.929
21
-76.6298
0
LINE
8
BLACK
6
CONTINUOUS
10
130.929
20
-76.6298
11
130.881
21
-76.5345
0
LINE
8
BLACK
6
CONTINUOUS
10
130.881
20
-76.5345
11
130.881
21
-75.6774
0
LINE
8
BLACK
6
CONTINUOUS
10
131.786
20
-76.6298
11
131.69
21
-76.6774
0
LINE
8
BLACK
6
CONTINUOUS
10
131.69
20
-76.6774
11
131.5
21
-76.6774
0
LINE
8
BLACK
6
CONTINUOUS
10
131.5
20
-76.6774
11
131.405
21
-76.6298
0
LINE
8
BLACK
6
CONTINUOUS
10
131.405
20
-76.6298
11
131.357
21
-76.5345
0
LINE
8
BLACK
6
CONTINUOUS
10
131.357
20
-76.5345
11
131.357
21
-76.1536
0
LINE
8
BLACK
6
CONTINUOUS
10
131.357
20
-76.1536
11
131.405
21
-76.0583
0
LINE
8
BLACK
6
CONTINUOUS
10
131.405
20
-76.0583
11
131.5
21
-76.0107
0
LINE
8
BLACK
6
CONTINUOUS
10
131.5
20
-76.0107
11
131.69
21
-76.0107
0
LINE
8
BLACK
6
CONTINUOUS
10
131.69
20
-76.0107
11
131.786
21
-76.0583
0
LINE
8
BLACK
6
CONTINUOUS
10
131.786
20
-76.0583
11
131.833
21
-76.1536
0
LINE
8
BLACK
6
CONTINUOUS
10
131.833
20
-76.1536
11
131.833
21
-76.2488
0
LINE
8
BLACK
6
CONTINUOUS
10
131.833
20
-76.2488
11
131.357
21
-76.344
0
LINE
8
BLACK
6
CONTINUOUS
10
126.538
20
-73.4774
11
126.538
21
-72.4774
0
LINE
8
BLACK
6
CONTINUOUS
10
126.538
20
-72.9536
11
127.11
21
-72.9536
0
LINE
8
BLACK
6
CONTINUOUS
10
127.11
20
-73.4774
11
127.11
21
-72.4774
0
LINE
8
BLACK
6
CONTINUOUS
10
128.11
20
-73.4774
11
127.538
21
-73.4774
0
LINE
8
BLACK
6
CONTINUOUS
10
127.824
20
-73.4774
11
127.824
21
-72.4774
0
LINE
8
BLACK
6
CONTINUOUS
10
127.824
20
-72.4774
11
127.729
21
-72.6202
0
LINE
8
BLACK
6
CONTINUOUS
10
127.729
20
-72.6202
11
127.633
21
-72.7155
0
LINE
8
BLACK
6
CONTINUOUS
10
127.633
20
-72.7155
11
127.538
21
-72.7631
0
LINE
8
BLACK
6
CONTINUOUS
10
160.314
20
-76.6774
11
160.314
21
-75.6774
0
LINE
8
BLACK
6
CONTINUOUS
10
160.314
20
-75.6774
11
160.648
21
-76.3917
0
LINE
8
BLACK
6
CONTINUOUS
10
160.648
20
-76.3917
11
160.981
21
-75.6774
0
LINE
8
BLACK
6
CONTINUOUS
10
160.981
20
-75.6774
11
160.981
21
-76.6774
0
LINE
8
BLACK
6
CONTINUOUS
10
161.6
20
-76.6774
11
161.505
21
-76.6298
0
LINE
8
BLACK
6
CONTINUOUS
10
161.505
20
-76.6298
11
161.457
21
-76.5821
0
LINE
8
BLACK
6
CONTINUOUS
10
161.457
20
-76.5821
11
161.41
21
-76.4869
0
LINE
8
BLACK
6
CONTINUOUS
10
161.41
20
-76.4869
11
161.41
21
-76.2012
0
LINE
8
BLACK
6
CONTINUOUS
10
161.41
20
-76.2012
11
161.457
21
-76.106
0
LINE
8
BLACK
6
CONTINUOUS
10
161.457
20
-76.106
11
161.505
21
-76.0583
0
LINE
8
BLACK
6
CONTINUOUS
10
161.505
20
-76.0583
11
161.6
21
-76.0107
0
LINE
8
BLACK
6
CONTINUOUS
10
161.6
20
-76.0107
11
161.743
21
-76.0107
0
LINE
8
BLACK
6
CONTINUOUS
10
161.743
20
-76.0107
11
161.838
21
-76.0583
0
LINE
8
BLACK
6
CONTINUOUS
10
161.838
20
-76.0583
11
161.886
21
-76.106
0
LINE
8
BLACK
6
CONTINUOUS
10
161.886
20
-76.106
11
161.933
21
-76.2012
0
LINE
8
BLACK
6
CONTINUOUS
10
161.933
20
-76.2012
11
161.933
21
-76.4869
0
LINE
8
BLACK
6
CONTINUOUS
10
161.933
20
-76.4869
11
161.886
21
-76.5821
0
LINE
8
BLACK
6
CONTINUOUS
10
161.886
20
-76.5821
11
161.838
21
-76.6298
0
LINE
8
BLACK
6
CONTINUOUS
10
161.838
20
-76.6298
11
161.743
21
-76.6774
0
LINE
8
BLACK
6
CONTINUOUS
10
161.743
20
-76.6774
11
161.6
21
-76.6774
0
LINE
8
BLACK
6
CONTINUOUS
10
162.79
20
-76.0107
11
162.79
21
-76.6774
0
LINE
8
BLACK
6
CONTINUOUS
10
162.362
20
-76.0107
11
162.362
21
-76.5345
0
LINE
8
BLACK
6
CONTINUOUS
10
162.362
20
-76.5345
11
162.41
21
-76.6298
0
LINE
8
BLACK
6
CONTINUOUS
10
162.41
20
-76.6298
11
162.505
21
-76.6774
0
LINE
8
BLACK
6
CONTINUOUS
10
162.505
20
-76.6774
11
162.648
21
-76.6774
0
LINE
8
BLACK
6
CONTINUOUS
10
162.648
20
-76.6774
11
162.743
21
-76.6298
0
LINE
8
BLACK
6
CONTINUOUS
10
162.743
20
-76.6298
11
162.79
21
-76.5821
0
LINE
8
BLACK
6
CONTINUOUS
10
163.267
20
-76.0107
11
163.267
21
-76.6774
0
LINE
8
BLACK
6
CONTINUOUS
10
163.267
20
-76.106
11
163.314
21
-76.0583
0
LINE
8
BLACK
6
CONTINUOUS
10
163.314
20
-76.0583
11
163.41
21
-76.0107
0
LINE
8
BLACK
6
CONTINUOUS
10
163.41
20
-76.0107
11
163.552
21
-76.0107
0
LINE
8
BLACK
6
CONTINUOUS
10
163.552
20
-76.0107
11
163.648
21
-76.0583
0
LINE
8
BLACK
6
CONTINUOUS
10
163.648
20
-76.0583
11
163.695
21
-76.1536
0
LINE
8
BLACK
6
CONTINUOUS
10
163.695
20
-76.1536
11
163.695
21
-76.6774
0
LINE
8
BLACK
6
CONTINUOUS
10
164.029
20
-76.0107
11
164.41
21
-76.0107
0
LINE
8
BLACK
6
CONTINUOUS
10
164.171
20
-75.6774
11
164.171
21
-76.5345
0
LINE
8
BLACK
6
CONTINUOUS
10
164.171
20
-76.5345
11
164.219
21
-76.6298
0
LINE
8
BLACK
6
CONTINUOUS
10
164.219
20
-76.6298
11
164.314
21
-76.6774
0
LINE
8
BLACK
6
CONTINUOUS
10
164.314
20
-76.6774
11
164.41
21
-76.6774
0
LINE
8
BLACK
6
CONTINUOUS
10
164.743
20
-76.6774
11
164.743
21
-76.0107
0
LINE
8
BLACK
6
CONTINUOUS
10
164.743
20
-75.6774
11
164.695
21
-75.725
0
LINE
8
BLACK
6
CONTINUOUS
10
164.695
20
-75.725
11
164.743
21
-75.7726
0
LINE
8
BLACK
6
CONTINUOUS
10
164.743
20
-75.7726
11
164.79
21
-75.725
0
LINE
8
BLACK
6
CONTINUOUS
10
164.79
20
-75.725
11
164.743
21
-75.6774
0
LINE
8
BLACK
6
CONTINUOUS
10
164.743
20
-75.6774
11
164.743
21
-75.7726
0
LINE
8
BLACK
6
CONTINUOUS
10
165.219
20
-76.0107
11
165.219
21
-76.6774
0
LINE
8
BLACK
6
CONTINUOUS
10
165.219
20
-76.106
11
165.267
21
-76.0583
0
LINE
8
BLACK
6
CONTINUOUS
10
165.267
20
-76.0583
11
165.362
21
-76.0107
0
LINE
8
BLACK
6
CONTINUOUS
10
165.362
20
-76.0107
11
165.505
21
-76.0107
0
LINE
8
BLACK
6
CONTINUOUS
10
165.505
20
-76.0107
11
165.6
21
-76.0583
0
LINE
8
BLACK
6
CONTINUOUS
10
165.6
20
-76.0583
11
165.648
21
-76.1536
0
LINE
8
BLACK
6
CONTINUOUS
10
165.648
20
-76.1536
11
165.648
21
-76.6774
0
LINE
8
BLACK
6
CONTINUOUS
10
166.552
20
-76.0107
11
166.552
21
-76.8202
0
LINE
8
BLACK
6
CONTINUOUS
10
166.552
20
-76.8202
11
166.505
21
-76.9155
0
LINE
8
BLACK
6
CONTINUOUS
10
166.505
20
-76.9155
11
166.457
21
-76.9631
0
LINE
8
BLACK
6
CONTINUOUS
10
166.457
20
-76.9631
11
166.362
21
-77.0107
0
LINE
8
BLACK
6
CONTINUOUS
10
166.362
20
-77.0107
11
166.219
21
-77.0107
0
LINE
8
BLACK
6
CONTINUOUS
10
166.219
20
-77.0107
11
166.124
21
-76.9631
0
LINE
8
BLACK
6
CONTINUOUS
10
166.552
20
-76.6298
11
166.457
21
-76.6774
0
LINE
8
BLACK
6
CONTINUOUS
10
166.457
20
-76.6774
11
166.267
21
-76.6774
0
LINE
8
BLACK
6
CONTINUOUS
10
166.267
20
-76.6774
11
166.171
21
-76.6298
0
LINE
8
BLACK
6
CONTINUOUS
10
166.171
20
-76.6298
11
166.124
21
-76.5821
0
LINE
8
BLACK
6
CONTINUOUS
10
166.124
20
-76.5821
11
166.076
21
-76.4869
0
LINE
8
BLACK
6
CONTINUOUS
10
166.076
20
-76.4869
11
166.076
21
-76.2012
0
LINE
8
BLACK
6
CONTINUOUS
10
166.076
20
-76.2012
11
166.124
21
-76.106
0
LINE
8
BLACK
6
CONTINUOUS
10
166.124
20
-76.106
11
166.171
21
-76.0583
0
LINE
8
BLACK
6
CONTINUOUS
10
166.171
20
-76.0583
11
166.267
21
-76.0107
0
LINE
8
BLACK
6
CONTINUOUS
10
166.267
20
-76.0107
11
166.457
21
-76.0107
0
LINE
8
BLACK
6
CONTINUOUS
10
166.457
20
-76.0107
11
166.552
21
-76.0583
0
LINE
8
BLACK
6
CONTINUOUS
10
167.029
20
-76.6774
11
167.029
21
-75.6774
0
LINE
8
BLACK
6
CONTINUOUS
10
167.029
20
-76.1536
11
167.6
21
-76.1536
0
LINE
8
BLACK
6
CONTINUOUS
10
167.6
20
-76.6774
11
167.6
21
-75.6774
0
LINE
8
BLACK
6
CONTINUOUS
10
168.219
20
-76.6774
11
168.124
21
-76.6298
0
LINE
8
BLACK
6
CONTINUOUS
10
168.124
20
-76.6298
11
168.076
21
-76.5821
0
LINE
8
BLACK
6
CONTINUOUS
10
168.076
20
-76.5821
11
168.029
21
-76.4869
0
LINE
8
BLACK
6
CONTINUOUS
10
168.029
20
-76.4869
11
168.029
21
-76.2012
0
LINE
8
BLACK
6
CONTINUOUS
10
168.029
20
-76.2012
11
168.076
21
-76.106
0
LINE
8
BLACK
6
CONTINUOUS
10
168.076
20
-76.106
11
168.124
21
-76.0583
0
LINE
8
BLACK
6
CONTINUOUS
10
168.124
20
-76.0583
11
168.219
21
-76.0107
0
LINE
8
BLACK
6
CONTINUOUS
10
168.219
20
-76.0107
11
168.362
21
-76.0107
0
LINE
8
BLACK
6
CONTINUOUS
10
168.362
20
-76.0107
11
168.457
21
-76.0583
0
LINE
8
BLACK
6
CONTINUOUS
10
168.457
20
-76.0583
11
168.505
21
-76.106
0
LINE
8
BLACK
6
CONTINUOUS
10
168.505
20
-76.106
11
168.552
21
-76.2012
0
LINE
8
BLACK
6
CONTINUOUS
10
168.552
20
-76.2012
11
168.552
21
-76.4869
0
LINE
8
BLACK
6
CONTINUOUS
10
168.552
20
-76.4869
11
168.505
21
-76.5821
0
LINE
8
BLACK
6
CONTINUOUS
10
168.505
20
-76.5821
11
168.457
21
-76.6298
0
LINE
8
BLACK
6
CONTINUOUS
10
168.457
20
-76.6298
11
168.362
21
-76.6774
0
LINE
8
BLACK
6
CONTINUOUS
10
168.362
20
-76.6774
11
168.219
21
-76.6774
0
LINE
8
BLACK
6
CONTINUOUS
10
169.124
20
-76.6774
11
169.029
21
-76.6298
0
LINE
8
BLACK
6
CONTINUOUS
10
169.029
20
-76.6298
11
168.981
21
-76.5345
0
LINE
8
BLACK
6
CONTINUOUS
10
168.981
20
-76.5345
11
168.981
21
-75.6774
0
LINE
8
BLACK
6
CONTINUOUS
10
169.886
20
-76.6298
11
169.79
21
-76.6774
0
LINE
8
BLACK
6
CONTINUOUS
10
169.79
20
-76.6774
11
169.6
21
-76.6774
0
LINE
8
BLACK
6
CONTINUOUS
10
169.6
20
-76.6774
11
169.505
21
-76.6298
0
LINE
8
BLACK
6
CONTINUOUS
10
169.505
20
-76.6298
11
169.457
21
-76.5345
0
LINE
8
BLACK
6
CONTINUOUS
10
169.457
20
-76.5345
11
169.457
21
-76.1536
0
LINE
8
BLACK
6
CONTINUOUS
10
169.457
20
-76.1536
11
169.505
21
-76.0583
0
LINE
8
BLACK
6
CONTINUOUS
10
169.505
20
-76.0583
11
169.6
21
-76.0107
0
LINE
8
BLACK
6
CONTINUOUS
10
169.6
20
-76.0107
11
169.79
21
-76.0107
0
LINE
8
BLACK
6
CONTINUOUS
10
169.79
20
-76.0107
11
169.886
21
-76.0583
0
LINE
8
BLACK
6
CONTINUOUS
10
169.886
20
-76.0583
11
169.933
21
-76.1536
0
LINE
8
BLACK
6
CONTINUOUS
10
169.933
20
-76.1536
11
169.933
21
-76.2488
0
LINE
8
BLACK
6
CONTINUOUS
10
169.933
20
-76.2488
11
169.457
21
-76.344
0
LINE
8
BLACK
6
CONTINUOUS
10
164.638
20
-73.4774
11
164.638
21
-72.4774
0
LINE
8
BLACK
6
CONTINUOUS
10
164.638
20
-72.9536
11
165.21
21
-72.9536
0
LINE
8
BLACK
6
CONTINUOUS
10
165.21
20
-73.4774
11
165.21
21
-72.4774
0
LINE
8
BLACK
6
CONTINUOUS
10
165.638
20
-72.5726
11
165.686
21
-72.525
0
LINE
8
BLACK
6
CONTINUOUS
10
165.686
20
-72.525
11
165.781
21
-72.4774
0
LINE
8
BLACK
6
CONTINUOUS
10
165.781
20
-72.4774
11
166.019
21
-72.4774
0
LINE
8
BLACK
6
CONTINUOUS
10
166.019
20
-72.4774
11
166.114
21
-72.525
0
LINE
8
BLACK
6
CONTINUOUS
10
166.114
20
-72.525
11
166.162
21
-72.5726
0
LINE
8
BLACK
6
CONTINUOUS
10
166.162
20
-72.5726
11
166.21
21
-72.6679
0
LINE
8
BLACK
6
CONTINUOUS
10
166.21
20
-72.6679
11
166.21
21
-72.7631
0
LINE
8
BLACK
6
CONTINUOUS
10
166.21
20
-72.7631
11
166.162
21
-72.906
0
LINE
8
BLACK
6
CONTINUOUS
10
166.162
20
-72.906
11
165.59
21
-73.4774
0
LINE
8
BLACK
6
CONTINUOUS
10
165.59
20
-73.4774
11
166.21
21
-73.4774
0
LINE
8
BLACK
6
CONTINUOUS
10
122.214
20
-133.827
11
122.214
21
-132.827
0
LINE
8
BLACK
6
CONTINUOUS
10
122.214
20
-132.827
11
122.548
21
-133.542
0
LINE
8
BLACK
6
CONTINUOUS
10
122.548
20
-133.542
11
122.881
21
-132.827
0
LINE
8
BLACK
6
CONTINUOUS
10
122.881
20
-132.827
11
122.881
21
-133.827
0
LINE
8
BLACK
6
CONTINUOUS
10
123.5
20
-133.827
11
123.405
21
-133.78
0
LINE
8
BLACK
6
CONTINUOUS
10
123.405
20
-133.78
11
123.357
21
-133.732
0
LINE
8
BLACK
6
CONTINUOUS
10
123.357
20
-133.732
11
123.31
21
-133.637
0
LINE
8
BLACK
6
CONTINUOUS
10
123.31
20
-133.637
11
123.31
21
-133.351
0
LINE
8
BLACK
6
CONTINUOUS
10
123.31
20
-133.351
11
123.357
21
-133.256
0
LINE
8
BLACK
6
CONTINUOUS
10
123.357
20
-133.256
11
123.405
21
-133.208
0
LINE
8
BLACK
6
CONTINUOUS
10
123.405
20
-133.208
11
123.5
21
-133.161
0
LINE
8
BLACK
6
CONTINUOUS
10
123.5
20
-133.161
11
123.643
21
-133.161
0
LINE
8
BLACK
6
CONTINUOUS
10
123.643
20
-133.161
11
123.738
21
-133.208
0
LINE
8
BLACK
6
CONTINUOUS
10
123.738
20
-133.208
11
123.786
21
-133.256
0
LINE
8
BLACK
6
CONTINUOUS
10
123.786
20
-133.256
11
123.833
21
-133.351
0
LINE
8
BLACK
6
CONTINUOUS
10
123.833
20
-133.351
11
123.833
21
-133.637
0
LINE
8
BLACK
6
CONTINUOUS
10
123.833
20
-133.637
11
123.786
21
-133.732
0
LINE
8
BLACK
6
CONTINUOUS
10
123.786
20
-133.732
11
123.738
21
-133.78
0
LINE
8
BLACK
6
CONTINUOUS
10
123.738
20
-133.78
11
123.643
21
-133.827
0
LINE
8
BLACK
6
CONTINUOUS
10
123.643
20
-133.827
11
123.5
21
-133.827
0
LINE
8
BLACK
6
CONTINUOUS
10
124.69
20
-133.161
11
124.69
21
-133.827
0
LINE
8
BLACK
6
CONTINUOUS
10
124.262
20
-133.161
11
124.262
21
-133.685
0
LINE
8
BLACK
6
CONTINUOUS
10
124.262
20
-133.685
11
124.31
21
-133.78
0
LINE
8
BLACK
6
CONTINUOUS
10
124.31
20
-133.78
11
124.405
21
-133.827
0
LINE
8
BLACK
6
CONTINUOUS
10
124.405
20
-133.827
11
124.548
21
-133.827
0
LINE
8
BLACK
6
CONTINUOUS
10
124.548
20
-133.827
11
124.643
21
-133.78
0
LINE
8
BLACK
6
CONTINUOUS
10
124.643
20
-133.78
11
124.69
21
-133.732
0
LINE
8
BLACK
6
CONTINUOUS
10
125.167
20
-133.161
11
125.167
21
-133.827
0
LINE
8
BLACK
6
CONTINUOUS
10
125.167
20
-133.256
11
125.214
21
-133.208
0
LINE
8
BLACK
6
CONTINUOUS
10
125.214
20
-133.208
11
125.31
21
-133.161
0
LINE
8
BLACK
6
CONTINUOUS
10
125.31
20
-133.161
11
125.452
21
-133.161
0
LINE
8
BLACK
6
CONTINUOUS
10
125.452
20
-133.161
11
125.548
21
-133.208
0
LINE
8
BLACK
6
CONTINUOUS
10
125.548
20
-133.208
11
125.595
21
-133.304
0
LINE
8
BLACK
6
CONTINUOUS
10
125.595
20
-133.304
11
125.595
21
-133.827
0
LINE
8
BLACK
6
CONTINUOUS
10
125.929
20
-133.161
11
126.31
21
-133.161
0
LINE
8
BLACK
6
CONTINUOUS
10
126.071
20
-132.827
11
126.071
21
-133.685
0
LINE
8
BLACK
6
CONTINUOUS
10
126.071
20
-133.685
11
126.119
21
-133.78
0
LINE
8
BLACK
6
CONTINUOUS
10
126.119
20
-133.78
11
126.214
21
-133.827
0
LINE
8
BLACK
6
CONTINUOUS
10
126.214
20
-133.827
11
126.31
21
-133.827
0
LINE
8
BLACK
6
CONTINUOUS
10
126.643
20
-133.827
11
126.643
21
-133.161
0
LINE
8
BLACK
6
CONTINUOUS
10
126.643
20
-132.827
11
126.595
21
-132.875
0
LINE
8
BLACK
6
CONTINUOUS
10
126.595
20
-132.875
11
126.643
21
-132.923
0
LINE
8
BLACK
6
CONTINUOUS
10
126.643
20
-132.923
11
126.69
21
-132.875
0
LINE
8
BLACK
6
CONTINUOUS
10
126.69
20
-132.875
11
126.643
21
-132.827
0
LINE
8
BLACK
6
CONTINUOUS
10
126.643
20
-132.827
11
126.643
21
-132.923
0
LINE
8
BLACK
6
CONTINUOUS
10
127.119
20
-133.161
11
127.119
21
-133.827
0
LINE
8
BLACK
6
CONTINUOUS
10
127.119
20
-133.256
11
127.167
21
-133.208
0
LINE
8
BLACK
6
CONTINUOUS
10
127.167
20
-133.208
11
127.262
21
-133.161
0
LINE
8
BLACK
6
CONTINUOUS
10
127.262
20
-133.161
11
127.405
21
-133.161
0
LINE
8
BLACK
6
CONTINUOUS
10
127.405
20
-133.161
11
127.5
21
-133.208
0
LINE
8
BLACK
6
CONTINUOUS
10
127.5
20
-133.208
11
127.548
21
-133.304
0
LINE
8
BLACK
6
CONTINUOUS
10
127.548
20
-133.304
11
127.548
21
-133.827
0
LINE
8
BLACK
6
CONTINUOUS
10
128.452
20
-133.161
11
128.452
21
-133.97
0
LINE
8
BLACK
6
CONTINUOUS
10
128.452
20
-133.97
11
128.405
21
-134.065
0
LINE
8
BLACK
6
CONTINUOUS
10
128.405
20
-134.065
11
128.357
21
-134.113
0
LINE
8
BLACK
6
CONTINUOUS
10
128.357
20
-134.113
11
128.262
21
-134.161
0
LINE
8
BLACK
6
CONTINUOUS
10
128.262
20
-134.161
11
128.119
21
-134.161
0
LINE
8
BLACK
6
CONTINUOUS
10
128.119
20
-134.161
11
128.024
21
-134.113
0
LINE
8
BLACK
6
CONTINUOUS
10
128.452
20
-133.78
11
128.357
21
-133.827
0
LINE
8
BLACK
6
CONTINUOUS
10
128.357
20
-133.827
11
128.167
21
-133.827
0
LINE
8
BLACK
6
CONTINUOUS
10
128.167
20
-133.827
11
128.071
21
-133.78
0
LINE
8
BLACK
6
CONTINUOUS
10
128.071
20
-133.78
11
128.024
21
-133.732
0
LINE
8
BLACK
6
CONTINUOUS
10
128.024
20
-133.732
11
127.976
21
-133.637
0
LINE
8
BLACK
6
CONTINUOUS
10
127.976
20
-133.637
11
127.976
21
-133.351
0
LINE
8
BLACK
6
CONTINUOUS
10
127.976
20
-133.351
11
128.024
21
-133.256
0
LINE
8
BLACK
6
CONTINUOUS
10
128.024
20
-133.256
11
128.071
21
-133.208
0
LINE
8
BLACK
6
CONTINUOUS
10
128.071
20
-133.208
11
128.167
21
-133.161
0
LINE
8
BLACK
6
CONTINUOUS
10
128.167
20
-133.161
11
128.357
21
-133.161
0
LINE
8
BLACK
6
CONTINUOUS
10
128.357
20
-133.161
11
128.452
21
-133.208
0
LINE
8
BLACK
6
CONTINUOUS
10
128.929
20
-133.827
11
128.929
21
-132.827
0
LINE
8
BLACK
6
CONTINUOUS
10
128.929
20
-133.304
11
129.5
21
-133.304
0
LINE
8
BLACK
6
CONTINUOUS
10
129.5
20
-133.827
11
129.5
21
-132.827
0
LINE
8
BLACK
6
CONTINUOUS
10
130.119
20
-133.827
11
130.024
21
-133.78
0
LINE
8
BLACK
6
CONTINUOUS
10
130.024
20
-133.78
11
129.976
21
-133.732
0
LINE
8
BLACK
6
CONTINUOUS
10
129.976
20
-133.732
11
129.929
21
-133.637
0
LINE
8
BLACK
6
CONTINUOUS
10
129.929
20
-133.637
11
129.929
21
-133.351
0
LINE
8
BLACK
6
CONTINUOUS
10
129.929
20
-133.351
11
129.976
21
-133.256
0
LINE
8
BLACK
6
CONTINUOUS
10
129.976
20
-133.256
11
130.024
21
-133.208
0
LINE
8
BLACK
6
CONTINUOUS
10
130.024
20
-133.208
11
130.119
21
-133.161
0
LINE
8
BLACK
6
CONTINUOUS
10
130.119
20
-133.161
11
130.262
21
-133.161
0
LINE
8
BLACK
6
CONTINUOUS
10
130.262
20
-133.161
11
130.357
21
-133.208
0
LINE
8
BLACK
6
CONTINUOUS
10
130.357
20
-133.208
11
130.405
21
-133.256
0
LINE
8
BLACK
6
CONTINUOUS
10
130.405
20
-133.256
11
130.452
21
-133.351
0
LINE
8
BLACK
6
CONTINUOUS
10
130.452
20
-133.351
11
130.452
21
-133.637
0
LINE
8
BLACK
6
CONTINUOUS
10
130.452
20
-133.637
11
130.405
21
-133.732
0
LINE
8
BLACK
6
CONTINUOUS
10
130.405
20
-133.732
11
130.357
21
-133.78
0
LINE
8
BLACK
6
CONTINUOUS
10
130.357
20
-133.78
11
130.262
21
-133.827
0
LINE
8
BLACK
6
CONTINUOUS
10
130.262
20
-133.827
11
130.119
21
-133.827
0
LINE
8
BLACK
6
CONTINUOUS
10
131.024
20
-133.827
11
130.929
21
-133.78
0
LINE
8
BLACK
6
CONTINUOUS
10
130.929
20
-133.78
11
130.881
21
-133.685
0
LINE
8
BLACK
6
CONTINUOUS
10
130.881
20
-133.685
11
130.881
21
-132.827
0
LINE
8
BLACK
6
CONTINUOUS
10
131.786
20
-133.78
11
131.69
21
-133.827
0
LINE
8
BLACK
6
CONTINUOUS
10
131.69
20
-133.827
11
131.5
21
-133.827
0
LINE
8
BLACK
6
CONTINUOUS
10
131.5
20
-133.827
11
131.405
21
-133.78
0
LINE
8
BLACK
6
CONTINUOUS
10
131.405
20
-133.78
11
131.357
21
-133.685
0
LINE
8
BLACK
6
CONTINUOUS
10
131.357
20
-133.685
11
131.357
21
-133.304
0
LINE
8
BLACK
6
CONTINUOUS
10
131.357
20
-133.304
11
131.405
21
-133.208
0
LINE
8
BLACK
6
CONTINUOUS
10
131.405
20
-133.208
11
131.5
21
-133.161
0
LINE
8
BLACK
6
CONTINUOUS
10
131.5
20
-133.161
11
131.69
21
-133.161
0
LINE
8
BLACK
6
CONTINUOUS
10
131.69
20
-133.161
11
131.786
21
-133.208
0
LINE
8
BLACK
6
CONTINUOUS
10
131.786
20
-133.208
11
131.833
21
-133.304
0
LINE
8
BLACK
6
CONTINUOUS
10
131.833
20
-133.304
11
131.833
21
-133.399
0
LINE
8
BLACK
6
CONTINUOUS
10
131.833
20
-133.399
11
131.357
21
-133.494
0
LINE
8
BLACK
6
CONTINUOUS
10
126.538
20
-130.627
11
126.538
21
-129.627
0
LINE
8
BLACK
6
CONTINUOUS
10
126.538
20
-130.104
11
127.11
21
-130.104
0
LINE
8
BLACK
6
CONTINUOUS
10
127.11
20
-130.627
11
127.11
21
-129.627
0
LINE
8
BLACK
6
CONTINUOUS
10
128.014
20
-129.961
11
128.014
21
-130.627
0
LINE
8
BLACK
6
CONTINUOUS
10
127.776
20
-129.58
11
127.538
21
-130.294
0
LINE
8
BLACK
6
CONTINUOUS
10
127.538
20
-130.294
11
128.157
21
-130.294
0
LINE
8
BLACK
6
CONTINUOUS
10
160.314
20
-133.827
11
160.314
21
-132.827
0
LINE
8
BLACK
6
CONTINUOUS
10
160.314
20
-132.827
11
160.648
21
-133.542
0
LINE
8
BLACK
6
CONTINUOUS
10
160.648
20
-133.542
11
160.981
21
-132.827
0
LINE
8
BLACK
6
CONTINUOUS
10
160.981
20
-132.827
11
160.981
21
-133.827
0
LINE
8
BLACK
6
CONTINUOUS
10
161.6
20
-133.827
11
161.505
21
-133.78
0
LINE
8
BLACK
6
CONTINUOUS
10
161.505
20
-133.78
11
161.457
21
-133.732
0
LINE
8
BLACK
6
CONTINUOUS
10
161.457
20
-133.732
11
161.41
21
-133.637
0
LINE
8
BLACK
6
CONTINUOUS
10
161.41
20
-133.637
11
161.41
21
-133.351
0
LINE
8
BLACK
6
CONTINUOUS
10
161.41
20
-133.351
11
161.457
21
-133.256
0
LINE
8
BLACK
6
CONTINUOUS
10
161.457
20
-133.256
11
161.505
21
-133.208
0
LINE
8
BLACK
6
CONTINUOUS
10
161.505
20
-133.208
11
161.6
21
-133.161
0
LINE
8
BLACK
6
CONTINUOUS
10
161.6
20
-133.161
11
161.743
21
-133.161
0
LINE
8
BLACK
6
CONTINUOUS
10
161.743
20
-133.161
11
161.838
21
-133.208
0
LINE
8
BLACK
6
CONTINUOUS
10
161.838
20
-133.208
11
161.886
21
-133.256
0
LINE
8
BLACK
6
CONTINUOUS
10
161.886
20
-133.256
11
161.933
21
-133.351
0
LINE
8
BLACK
6
CONTINUOUS
10
161.933
20
-133.351
11
161.933
21
-133.637
0
LINE
8
BLACK
6
CONTINUOUS
10
161.933
20
-133.637
11
161.886
21
-133.732
0
LINE
8
BLACK
6
CONTINUOUS
10
161.886
20
-133.732
11
161.838
21
-133.78
0
LINE
8
BLACK
6
CONTINUOUS
10
161.838
20
-133.78
11
161.743
21
-133.827
0
LINE
8
BLACK
6
CONTINUOUS
10
161.743
20
-133.827
11
161.6
21
-133.827
0
LINE
8
BLACK
6
CONTINUOUS
10
162.79
20
-133.161
11
162.79
21
-133.827
0
LINE
8
BLACK
6
CONTINUOUS
10
162.362
20
-133.161
11
162.362
21
-133.685
0
LINE
8
BLACK
6
CONTINUOUS
10
162.362
20
-133.685
11
162.41
21
-133.78
0
LINE
8
BLACK
6
CONTINUOUS
10
162.41
20
-133.78
11
162.505
21
-133.827
0
LINE
8
BLACK
6
CONTINUOUS
10
162.505
20
-133.827
11
162.648
21
-133.827
0
LINE
8
BLACK
6
CONTINUOUS
10
162.648
20
-133.827
11
162.743
21
-133.78
0
LINE
8
BLACK
6
CONTINUOUS
10
162.743
20
-133.78
11
162.79
21
-133.732
0
LINE
8
BLACK
6
CONTINUOUS
10
163.267
20
-133.161
11
163.267
21
-133.827
0
LINE
8
BLACK
6
CONTINUOUS
10
163.267
20
-133.256
11
163.314
21
-133.208
0
LINE
8
BLACK
6
CONTINUOUS
10
163.314
20
-133.208
11
163.41
21
-133.161
0
LINE
8
BLACK
6
CONTINUOUS
10
163.41
20
-133.161
11
163.552
21
-133.161
0
LINE
8
BLACK
6
CONTINUOUS
10
163.552
20
-133.161
11
163.648
21
-133.208
0
LINE
8
BLACK
6
CONTINUOUS
10
163.648
20
-133.208
11
163.695
21
-133.304
0
LINE
8
BLACK
6
CONTINUOUS
10
163.695
20
-133.304
11
163.695
21
-133.827
0
LINE
8
BLACK
6
CONTINUOUS
10
164.029
20
-133.161
11
164.41
21
-133.161
0
LINE
8
BLACK
6
CONTINUOUS
10
164.171
20
-132.827
11
164.171
21
-133.685
0
LINE
8
BLACK
6
CONTINUOUS
10
164.171
20
-133.685
11
164.219
21
-133.78
0
LINE
8
BLACK
6
CONTINUOUS
10
164.219
20
-133.78
11
164.314
21
-133.827
0
LINE
8
BLACK
6
CONTINUOUS
10
164.314
20
-133.827
11
164.41
21
-133.827
0
LINE
8
BLACK
6
CONTINUOUS
10
164.743
20
-133.827
11
164.743
21
-133.161
0
LINE
8
BLACK
6
CONTINUOUS
10
164.743
20
-132.827
11
164.695
21
-132.875
0
LINE
8
BLACK
6
CONTINUOUS
10
164.695
20
-132.875
11
164.743
21
-132.923
0
LINE
8
BLACK
6
CONTINUOUS
10
164.743
20
-132.923
11
164.79
21
-132.875
0
LINE
8
BLACK
6
CONTINUOUS
10
164.79
20
-132.875
11
164.743
21
-132.827
0
LINE
8
BLACK
6
CONTINUOUS
10
164.743
20
-132.827
11
164.743
21
-132.923
0
LINE
8
BLACK
6
CONTINUOUS
10
165.219
20
-133.161
11
165.219
21
-133.827
0
LINE
8
BLACK
6
CONTINUOUS
10
165.219
20
-133.256
11
165.267
21
-133.208
0
LINE
8
BLACK
6
CONTINUOUS
10
165.267
20
-133.208
11
165.362
21
-133.161
0
LINE
8
BLACK
6
CONTINUOUS
10
165.362
20
-133.161
11
165.505
21
-133.161
0
LINE
8
BLACK
6
CONTINUOUS
10
165.505
20
-133.161
11
165.6
21
-133.208
0
LINE
8
BLACK
6
CONTINUOUS
10
165.6
20
-133.208
11
165.648
21
-133.304
0
LINE
8
BLACK
6
CONTINUOUS
10
165.648
20
-133.304
11
165.648
21
-133.827
0
LINE
8
BLACK
6
CONTINUOUS
10
166.552
20
-133.161
11
166.552
21
-133.97
0
LINE
8
BLACK
6
CONTINUOUS
10
166.552
20
-133.97
11
166.505
21
-134.065
0
LINE
8
BLACK
6
CONTINUOUS
10
166.505
20
-134.065
11
166.457
21
-134.113
0
LINE
8
BLACK
6
CONTINUOUS
10
166.457
20
-134.113
11
166.362
21
-134.161
0
LINE
8
BLACK
6
CONTINUOUS
10
166.362
20
-134.161
11
166.219
21
-134.161
0
LINE
8
BLACK
6
CONTINUOUS
10
166.219
20
-134.161
11
166.124
21
-134.113
0
LINE
8
BLACK
6
CONTINUOUS
10
166.552
20
-133.78
11
166.457
21
-133.827
0
LINE
8
BLACK
6
CONTINUOUS
10
166.457
20
-133.827
11
166.267
21
-133.827
0
LINE
8
BLACK
6
CONTINUOUS
10
166.267
20
-133.827
11
166.171
21
-133.78
0
LINE
8
BLACK
6
CONTINUOUS
10
166.171
20
-133.78
11
166.124
21
-133.732
0
LINE
8
BLACK
6
CONTINUOUS
10
166.124
20
-133.732
11
166.076
21
-133.637
0
LINE
8
BLACK
6
CONTINUOUS
10
166.076
20
-133.637
11
166.076
21
-133.351
0
LINE
8
BLACK
6
CONTINUOUS
10
166.076
20
-133.351
11
166.124
21
-133.256
0
LINE
8
BLACK
6
CONTINUOUS
10
166.124
20
-133.256
11
166.171
21
-133.208
0
LINE
8
BLACK
6
CONTINUOUS
10
166.171
20
-133.208
11
166.267
21
-133.161
0
LINE
8
BLACK
6
CONTINUOUS
10
166.267
20
-133.161
11
166.457
21
-133.161
0
LINE
8
BLACK
6
CONTINUOUS
10
166.457
20
-133.161
11
166.552
21
-133.208
0
LINE
8
BLACK
6
CONTINUOUS
10
167.029
20
-133.827
11
167.029
21
-132.827
0
LINE
8
BLACK
6
CONTINUOUS
10
167.029
20
-133.304
11
167.6
21
-133.304
0
LINE
8
BLACK
6
CONTINUOUS
10
167.6
20
-133.827
11
167.6
21
-132.827
0
LINE
8
BLACK
6
CONTINUOUS
10
168.219
20
-133.827
11
168.124
21
-133.78
0
LINE
8
BLACK
6
CONTINUOUS
10
168.124
20
-133.78
11
168.076
21
-133.732
0
LINE
8
BLACK
6
CONTINUOUS
10
168.076
20
-133.732
11
168.029
21
-133.637
0
LINE
8
BLACK
6
CONTINUOUS
10
168.029
20
-133.637
11
168.029
21
-133.351
0
LINE
8
BLACK
6
CONTINUOUS
10
168.029
20
-133.351
11
168.076
21
-133.256
0
LINE
8
BLACK
6
CONTINUOUS
10
168.076
20
-133.256
11
168.124
21
-133.208
0
LINE
8
BLACK
6
CONTINUOUS
10
168.124
20
-133.208
11
168.219
21
-133.161
0
LINE
8
BLACK
6
CONTINUOUS
10
168.219
20
-133.161
11
168.362
21
-133.161
0
LINE
8
BLACK
6
CONTINUOUS
10
168.362
20
-133.161
11
168.457
21
-133.208
0
LINE
8
BLACK
6
CONTINUOUS
10
168.457
20
-133.208
11
168.505
21
-133.256
0
LINE
8
BLACK
6
CONTINUOUS
10
168.505
20
-133.256
11
168.552
21
-133.351
0
LINE
8
BLACK
6
CONTINUOUS
10
168.552
20
-133.351
11
168.552
21
-133.637
0
LINE
8
BLACK
6
CONTINUOUS
10
168.552
20
-133.637
11
168.505
21
-133.732
0
LINE
8
BLACK
6
CONTINUOUS
10
168.505
20
-133.732
11
168.457
21
-133.78
0
LINE
8
BLACK
6
CONTINUOUS
10
168.457
20
-133.78
11
168.362
21
-133.827
0
LINE
8
BLACK
6
CONTINUOUS
10
168.362
20
-133.827
11
168.219
21
-133.827
0
LINE
8
BLACK
6
CONTINUOUS
10
169.124
20
-133.827
11
169.029
21
-133.78
0
LINE
8
BLACK
6
CONTINUOUS
10
169.029
20
-133.78
11
168.981
21
-133.685
0
LINE
8
BLACK
6
CONTINUOUS
10
168.981
20
-133.685
11
168.981
21
-132.827
0
LINE
8
BLACK
6
CONTINUOUS
10
169.886
20
-133.78
11
169.79
21
-133.827
0
LINE
8
BLACK
6
CONTINUOUS
10
169.79
20
-133.827
11
169.6
21
-133.827
0
LINE
8
BLACK
6
CONTINUOUS
10
169.6
20
-133.827
11
169.505
21
-133.78
0
LINE
8
BLACK
6
CONTINUOUS
10
169.505
20
-133.78
11
169.457
21
-133.685
0
LINE
8
BLACK
6
CONTINUOUS
10
169.457
20
-133.685
11
169.457
21
-133.304
0
LINE
8
BLACK
6
CONTINUOUS
10
169.457
20
-133.304
11
169.505
21
-133.208
0
LINE
8
BLACK
6
CONTINUOUS
10
169.505
20
-133.208
11
169.6
21
-133.161
0
LINE
8
BLACK
6
CONTINUOUS
10
169.6
20
-133.161
11
169.79
21
-133.161
0
LINE
8
BLACK
6
CONTINUOUS
10
169.79
20
-133.161
11
169.886
21
-133.208
0
LINE
8
BLACK
6
CONTINUOUS
10
169.886
20
-133.208
11
169.933
21
-133.304
0
LINE
8
BLACK
6
CONTINUOUS
10
169.933
20
-133.304
11
169.933
21
-133.399
0
LINE
8
BLACK
6
CONTINUOUS
10
169.933
20
-133.399
11
169.457
21
-133.494
0
LINE
8
BLACK
6
CONTINUOUS
10
164.638
20
-130.627
11
164.638
21
-129.627
0
LINE
8
BLACK
6
CONTINUOUS
10
164.638
20
-130.104
11
165.21
21
-130.104
0
LINE
8
BLACK
6
CONTINUOUS
10
165.21
20
-130.627
11
165.21
21
-129.627
0
LINE
8
BLACK
6
CONTINUOUS
10
165.59
20
-129.627
11
166.21
21
-129.627
0
LINE
8
BLACK
6
CONTINUOUS
10
166.21
20
-129.627
11
165.876
21
-130.008
0
LINE
8
BLACK
6
CONTINUOUS
10
165.876
20
-130.008
11
166.019
21
-130.008
0
LINE
8
BLACK
6
CONTINUOUS
10
166.019
20
-130.008
11
166.114
21
-130.056
0
LINE
8
BLACK
6
CONTINUOUS
10
166.114
20
-130.056
11
166.162
21
-130.104
0
LINE
8
BLACK
6
CONTINUOUS
10
166.162
20
-130.104
11
166.21
21
-130.199
0
LINE
8
BLACK
6
CONTINUOUS
10
166.21
20
-130.199
11
166.21
21
-130.437
0
LINE
8
BLACK
6
CONTINUOUS
10
166.21
20
-130.437
11
166.162
21
-130.532
0
LINE
8
BLACK
6
CONTINUOUS
10
166.162
20
-130.532
11
166.114
21
-130.58
0
LINE
8
BLACK
6
CONTINUOUS
10
166.114
20
-130.58
11
166.019
21
-130.627
0
LINE
8
BLACK
6
CONTINUOUS
10
166.019
20
-130.627
11
165.733
21
-130.627
0
LINE
8
BLACK
6
CONTINUOUS
10
165.733
20
-130.627
11
165.638
21
-130.58
0
LINE
8
BLACK
6
CONTINUOUS
10
165.638
20
-130.58
11
165.59
21
-130.532
  0
ENDSEC
  0
EOF
