  0
SECTION
  2
HEADER
  9
$ANGBASE
  50
0.0
  9
$ANGDIR
  70
1
  9
$MEASUREMENT
  70
1
  0
ENDSEC
  0
SECTION
  2
TABLES
  0
TABLE
  2
LTYPE
  70
4
  0
LTYPE
  5
40F
  2
CONTINUOUS
  70
0
  3
Solid line
  72
65
  73
0
  40
0.0
  0
LTYPE
  5
410
  2
DASHDOT
 70
0
  3
Dash Dot ____ _ ____ _
 72
65
 73
4
 40
2.0
 49
1.25
 49
-0.25
 49
0.25
 49
-0.25
  0
LTYPE
  5
411
  2
DASHED
 70
0
  3
Dashed __ __ __ __ __
 72
65
 73
2
 40
0.75
 49
0.5
 49
-0.25
  0
LTYPE
  5
43B
  2
DOTTED
 70
0
  3
Dotted .  .  .  .
 72
65
 73
2
 40
0.2
 49
0.0
 49
-0.2
  0
ENDTAB
  0
TABLE
  2
STYLE
  70
4
  0
STYLE
  2
KICAD
  70
0
  40
0
  41
1
  42
1
  50
0
  71
0
  3
isocp.shx
  0
STYLE
  2
KICADB
  70
0
  40
0
  41
1
  42
1
  50
0
  71
0
  3
isocp.shx
  0
STYLE
  2
KICADI
  70
0
  40
0
  41
1
  42
1
  50
15
  71
0
  3
isocp.shx
  0
STYLE
  2
KICADBI
  70
0
  40
0
  41
1
  42
1
  50
15
  71
0
  3
isocp.shx
  0
ENDTAB
  0
TABLE
  2
LAYER
  70
1
  0
LAYER
  2
BLACK
  70
0
  62
7
  6
CONTINUOUS
  0
ENDTAB
  0
ENDSEC
  0
SECTION
  2
ENTITIES
0
LINE
8
BLACK
6
CONTINUOUS
10
172.661
20
-74.882
11
181.161
21
-74.882
0
LINE
8
BLACK
6
CONTINUOUS
10
181.161
20
-74.882
11
181.161
21
-68.882
0
LINE
8
BLACK
6
CONTINUOUS
10
181.161
20
-68.882
11
172.661
21
-68.882
0
LINE
8
BLACK
6
CONTINUOUS
10
172.661
20
-68.882
11
172.661
21
-74.882
0
LINE
8
BLACK
6
CONTINUOUS
10
144.819
20
-142.05
11
142.519
21
-142.05
0
LINE
8
BLACK
6
CONTINUOUS
10
142.519
20
-137.35
11
142.519
21
-142.05
0
LINE
8
BLACK
6
CONTINUOUS
10
144.819
20
-137.35
11
142.519
21
-137.35
0
LINE
8
BLACK
6
CONTINUOUS
10
144.819
20
-142.05
11
144.819
21
-137.35
0
LINE
8
BLACK
6
CONTINUOUS
10
184.284
20
-72.6374
11
184.284
21
-71.1774
0
LINE
8
BLACK
6
CONTINUOUS
10
184.284
20
-71.1774
11
181.324
21
-71.1774
0
LINE
8
BLACK
6
CONTINUOUS
10
181.324
20
-71.1774
11
181.324
21
-72.6374
0
LINE
8
BLACK
6
CONTINUOUS
10
181.324
20
-72.6374
11
184.284
21
-72.6374
0
LINE
8
BLACK
6
CONTINUOUS
10
176.657
20
-121.532
11
171.957
21
-121.532
0
LINE
8
BLACK
6
CONTINUOUS
10
171.957
20
-121.532
11
171.957
21
-123.832
0
LINE
8
BLACK
6
CONTINUOUS
10
171.957
20
-123.832
11
176.657
21
-123.832
0
LINE
8
BLACK
6
CONTINUOUS
10
176.657
20
-121.532
11
176.657
21
-123.832
0
LINE
8
BLACK
6
CONTINUOUS
10
176.657
20
-83.432
11
171.957
21
-83.432
0
LINE
8
BLACK
6
CONTINUOUS
10
171.957
20
-83.432
11
171.957
21
-85.732
0
LINE
8
BLACK
6
CONTINUOUS
10
171.957
20
-85.732
11
176.657
21
-85.732
0
LINE
8
BLACK
6
CONTINUOUS
10
176.657
20
-83.432
11
176.657
21
-85.732
0
LINE
8
BLACK
6
CONTINUOUS
10
182.919
20
-65.85
11
182.919
21
-61.15
0
LINE
8
BLACK
6
CONTINUOUS
10
182.919
20
-61.15
11
180.619
21
-61.15
0
LINE
8
BLACK
6
CONTINUOUS
10
180.619
20
-61.15
11
180.619
21
-65.85
0
LINE
8
BLACK
6
CONTINUOUS
10
182.919
20
-65.85
11
180.619
21
-65.85
0
LINE
8
BLACK
6
CONTINUOUS
10
163.869
20
-142.05
11
163.869
21
-137.35
0
LINE
8
BLACK
6
CONTINUOUS
10
163.869
20
-137.35
11
161.569
21
-137.35
0
LINE
8
BLACK
6
CONTINUOUS
10
161.569
20
-137.35
11
161.569
21
-142.05
0
LINE
8
BLACK
6
CONTINUOUS
10
163.869
20
-142.05
11
161.569
21
-142.05
0
LINE
8
BLACK
6
CONTINUOUS
10
163.869
20
-123
11
163.869
21
-118.3
0
LINE
8
BLACK
6
CONTINUOUS
10
163.869
20
-118.3
11
161.569
21
-118.3
0
LINE
8
BLACK
6
CONTINUOUS
10
161.569
20
-118.3
11
161.569
21
-123
0
LINE
8
BLACK
6
CONTINUOUS
10
163.869
20
-123
11
161.569
21
-123
0
LINE
8
BLACK
6
CONTINUOUS
10
163.869
20
-103.95
11
163.869
21
-99.25
0
LINE
8
BLACK
6
CONTINUOUS
10
163.869
20
-99.25
11
161.569
21
-99.25
0
LINE
8
BLACK
6
CONTINUOUS
10
161.569
20
-99.25
11
161.569
21
-103.95
0
LINE
8
BLACK
6
CONTINUOUS
10
163.869
20
-103.95
11
161.569
21
-103.95
0
LINE
8
BLACK
6
CONTINUOUS
10
163.869
20
-84.9
11
163.869
21
-80.2
0
LINE
8
BLACK
6
CONTINUOUS
10
163.869
20
-80.2
11
161.569
21
-80.2
0
LINE
8
BLACK
6
CONTINUOUS
10
161.569
20
-80.2
11
161.569
21
-84.9
0
LINE
8
BLACK
6
CONTINUOUS
10
163.869
20
-84.9
11
161.569
21
-84.9
0
LINE
8
BLACK
6
CONTINUOUS
10
163.869
20
-65.85
11
163.869
21
-61.15
0
LINE
8
BLACK
6
CONTINUOUS
10
163.869
20
-61.15
11
161.569
21
-61.15
0
LINE
8
BLACK
6
CONTINUOUS
10
161.569
20
-61.15
11
161.569
21
-65.85
0
LINE
8
BLACK
6
CONTINUOUS
10
163.869
20
-65.85
11
161.569
21
-65.85
0
LINE
8
BLACK
6
CONTINUOUS
10
144.819
20
-123
11
144.819
21
-118.3
0
LINE
8
BLACK
6
CONTINUOUS
10
144.819
20
-118.3
11
142.519
21
-118.3
0
LINE
8
BLACK
6
CONTINUOUS
10
142.519
20
-118.3
11
142.519
21
-123
0
LINE
8
BLACK
6
CONTINUOUS
10
144.819
20
-123
11
142.519
21
-123
0
LINE
8
BLACK
6
CONTINUOUS
10
144.819
20
-103.95
11
144.819
21
-99.25
0
LINE
8
BLACK
6
CONTINUOUS
10
144.819
20
-99.25
11
142.519
21
-99.25
0
LINE
8
BLACK
6
CONTINUOUS
10
142.519
20
-99.25
11
142.519
21
-103.95
0
LINE
8
BLACK
6
CONTINUOUS
10
144.819
20
-103.95
11
142.519
21
-103.95
0
LINE
8
BLACK
6
CONTINUOUS
10
144.819
20
-84.9
11
144.819
21
-80.2
0
LINE
8
BLACK
6
CONTINUOUS
10
144.819
20
-80.2
11
142.519
21
-80.2
0
LINE
8
BLACK
6
CONTINUOUS
10
142.519
20
-80.2
11
142.519
21
-84.9
0
LINE
8
BLACK
6
CONTINUOUS
10
144.819
20
-84.9
11
142.519
21
-84.9
0
LINE
8
BLACK
6
CONTINUOUS
10
144.819
20
-65.85
11
144.819
21
-61.15
0
LINE
8
BLACK
6
CONTINUOUS
10
144.819
20
-61.15
11
142.519
21
-61.15
0
LINE
8
BLACK
6
CONTINUOUS
10
142.519
20
-61.15
11
142.519
21
-65.85
0
LINE
8
BLACK
6
CONTINUOUS
10
144.819
20
-65.85
11
142.519
21
-65.85
0
LINE
8
BLACK
6
CONTINUOUS
10
125.769
20
-142.05
11
125.769
21
-137.35
0
LINE
8
BLACK
6
CONTINUOUS
10
125.769
20
-137.35
11
123.469
21
-137.35
0
LINE
8
BLACK
6
CONTINUOUS
10
123.469
20
-137.35
11
123.469
21
-142.05
0
LINE
8
BLACK
6
CONTINUOUS
10
125.769
20
-142.05
11
123.469
21
-142.05
0
LINE
8
BLACK
6
CONTINUOUS
10
125.769
20
-123
11
125.769
21
-118.3
0
LINE
8
BLACK
6
CONTINUOUS
10
125.769
20
-118.3
11
123.469
21
-118.3
0
LINE
8
BLACK
6
CONTINUOUS
10
123.469
20
-118.3
11
123.469
21
-123
0
LINE
8
BLACK
6
CONTINUOUS
10
125.769
20
-123
11
123.469
21
-123
0
LINE
8
BLACK
6
CONTINUOUS
10
125.769
20
-103.95
11
125.769
21
-99.25
0
LINE
8
BLACK
6
CONTINUOUS
10
125.769
20
-99.25
11
123.469
21
-99.25
0
LINE
8
BLACK
6
CONTINUOUS
10
123.469
20
-99.25
11
123.469
21
-103.95
0
LINE
8
BLACK
6
CONTINUOUS
10
125.769
20
-103.95
11
123.469
21
-103.95
0
LINE
8
BLACK
6
CONTINUOUS
10
125.769
20
-84.9
11
125.769
21
-80.2
0
LINE
8
BLACK
6
CONTINUOUS
10
125.769
20
-80.2
11
123.469
21
-80.2
0
LINE
8
BLACK
6
CONTINUOUS
10
123.469
20
-80.2
11
123.469
21
-84.9
0
LINE
8
BLACK
6
CONTINUOUS
10
125.769
20
-84.9
11
123.469
21
-84.9
0
LINE
8
BLACK
6
CONTINUOUS
10
125.769
20
-65.85
11
125.769
21
-61.15
0
LINE
8
BLACK
6
CONTINUOUS
10
125.769
20
-61.15
11
123.469
21
-61.15
0
LINE
8
BLACK
6
CONTINUOUS
10
123.469
20
-61.15
11
123.469
21
-65.85
0
LINE
8
BLACK
6
CONTINUOUS
10
125.769
20
-65.85
11
123.469
21
-65.85
  0
ENDSEC
  0
EOF
