  0
SECTION
  2
HEADER
  9
$ANGBASE
  50
0.0
  9
$ANGDIR
  70
1
  9
$MEASUREMENT
  70
1
  0
ENDSEC
  0
SECTION
  2
TABLES
  0
TABLE
  2
LTYPE
  70
4
  0
LTYPE
  5
40F
  2
CONTINUOUS
  70
0
  3
Solid line
  72
65
  73
0
  40
0.0
  0
LTYPE
  5
410
  2
DASHDOT
 70
0
  3
Dash Dot ____ _ ____ _
 72
65
 73
4
 40
2.0
 49
1.25
 49
-0.25
 49
0.25
 49
-0.25
  0
LTYPE
  5
411
  2
DASHED
 70
0
  3
Dashed __ __ __ __ __
 72
65
 73
2
 40
0.75
 49
0.5
 49
-0.25
  0
LTYPE
  5
43B
  2
DOTTED
 70
0
  3
Dotted .  .  .  .
 72
65
 73
2
 40
0.2
 49
0.0
 49
-0.2
  0
ENDTAB
  0
TABLE
  2
STYLE
  70
4
  0
STYLE
  2
KICAD
  70
0
  40
0
  41
1
  42
1
  50
0
  71
0
  3
isocp.shx
  0
STYLE
  2
KICADB
  70
0
  40
0
  41
1
  42
1
  50
0
  71
0
  3
isocp.shx
  0
STYLE
  2
KICADI
  70
0
  40
0
  41
1
  42
1
  50
15
  71
0
  3
isocp.shx
  0
STYLE
  2
KICADBI
  70
0
  40
0
  41
1
  42
1
  50
15
  71
0
  3
isocp.shx
  0
ENDTAB
  0
TABLE
  2
LAYER
  70
1
  0
LAYER
  2
BLACK
  70
0
  62
7
  6
CONTINUOUS
  0
ENDTAB
  0
ENDSEC
  0
SECTION
  2
ENTITIES
0
LINE
8
BLACK
6
CONTINUOUS
10
180.111
20
-69.782
11
180.111
21
-70.282
0
LINE
8
BLACK
6
CONTINUOUS
10
180.111
20
-73.982
11
180.111
21
-73.482
0
LINE
8
BLACK
6
CONTINUOUS
10
173.711
20
-69.782
11
173.711
21
-70.282
0
LINE
8
BLACK
6
CONTINUOUS
10
173.711
20
-73.982
11
173.711
21
-73.482
0
LINE
8
BLACK
6
CONTINUOUS
10
179.611
20
-73.982
11
179.611
21
-73.482
0
LINE
8
BLACK
6
CONTINUOUS
10
178.611
20
-73.982
11
180.111
21
-73.982
0
LINE
8
BLACK
6
CONTINUOUS
10
180.111
20
-73.482
11
179.111
21
-73.482
0
LINE
8
BLACK
6
CONTINUOUS
10
174.211
20
-73.982
11
174.211
21
-73.482
0
LINE
8
BLACK
6
CONTINUOUS
10
175.211
20
-73.982
11
173.711
21
-73.982
0
LINE
8
BLACK
6
CONTINUOUS
10
173.711
20
-73.482
11
174.711
21
-73.482
0
LINE
8
BLACK
6
CONTINUOUS
10
174.211
20
-69.782
11
174.211
21
-70.282
0
LINE
8
BLACK
6
CONTINUOUS
10
173.711
20
-70.282
11
174.711
21
-70.282
0
LINE
8
BLACK
6
CONTINUOUS
10
175.211
20
-69.782
11
173.711
21
-69.782
0
LINE
8
BLACK
6
CONTINUOUS
10
178.611
20
-69.782
11
180.111
21
-69.782
0
LINE
8
BLACK
6
CONTINUOUS
10
179.611
20
-69.782
11
179.611
21
-70.282
0
LINE
8
BLACK
6
CONTINUOUS
10
180.111
20
-70.282
11
179.111
21
-70.282
0
LINE
8
BLACK
6
CONTINUOUS
10
174.911
20
-72.882
11
175.911
21
-73.882
0
LINE
8
BLACK
6
CONTINUOUS
10
175.911
20
-73.882
11
177.911
21
-73.882
0
LINE
8
BLACK
6
CONTINUOUS
10
177.911
20
-73.882
11
178.911
21
-72.882
0
LINE
8
BLACK
6
CONTINUOUS
10
178.911
20
-72.882
11
178.911
21
-70.882
0
LINE
8
BLACK
6
CONTINUOUS
10
178.911
20
-70.882
11
177.911
21
-69.882
0
LINE
8
BLACK
6
CONTINUOUS
10
177.911
20
-69.882
11
175.911
21
-69.882
0
LINE
8
BLACK
6
CONTINUOUS
10
175.911
20
-69.882
11
174.911
21
-70.882
0
LINE
8
BLACK
6
CONTINUOUS
10
174.911
20
-70.882
11
174.911
21
-72.882
0
LINE
8
BLACK
6
CONTINUOUS
10
174.311
20
-73.082
11
174.311
21
-70.682
0
LINE
8
BLACK
6
CONTINUOUS
10
174.311
20
-70.682
11
175.711
21
-69.282
0
LINE
8
BLACK
6
CONTINUOUS
10
175.711
20
-69.282
11
178.111
21
-69.282
0
LINE
8
BLACK
6
CONTINUOUS
10
178.111
20
-69.282
11
179.511
21
-70.682
0
LINE
8
BLACK
6
CONTINUOUS
10
179.511
20
-70.682
11
179.511
21
-73.082
0
LINE
8
BLACK
6
CONTINUOUS
10
179.511
20
-73.082
11
178.111
21
-74.482
0
LINE
8
BLACK
6
CONTINUOUS
10
178.111
20
-74.482
11
175.711
21
-74.482
0
LINE
8
BLACK
6
CONTINUOUS
10
175.711
20
-74.482
11
174.311
21
-73.082
0
CIRCLE
8
BLACK
10
176.911
20
-71.882
40
1
0
LINE
8
BLACK
6
CONTINUOUS
10
144.569
20
-141.1
11
144.569
21
-138.3
0
LINE
8
BLACK
6
CONTINUOUS
10
144.569
20
-138.3
11
142.769
21
-138.3
0
LINE
8
BLACK
6
CONTINUOUS
10
142.769
20
-138.3
11
142.769
21
-141.1
0
LINE
8
BLACK
6
CONTINUOUS
10
142.769
20
-141.1
11
144.569
21
-141.1
0
LINE
8
BLACK
6
CONTINUOUS
10
143.669
20
-140.45
11
143.669
21
-140.05
0
LINE
8
BLACK
6
CONTINUOUS
10
143.669
20
-140.05
11
144.219
21
-140.05
0
LINE
8
BLACK
6
CONTINUOUS
10
143.669
20
-140.05
11
143.119
21
-140.05
0
LINE
8
BLACK
6
CONTINUOUS
10
143.669
20
-140.05
11
144.069
21
-139.45
0
LINE
8
BLACK
6
CONTINUOUS
10
144.069
20
-139.45
11
143.269
21
-139.45
0
LINE
8
BLACK
6
CONTINUOUS
10
143.269
20
-139.45
11
143.669
21
-140.05
0
LINE
8
BLACK
6
CONTINUOUS
10
143.669
20
-139.45
11
143.669
21
-138.95
0
LINE
8
BLACK
6
CONTINUOUS
10
183.604
20
-72.3074
11
183.604
21
-71.5074
0
LINE
8
BLACK
6
CONTINUOUS
10
183.604
20
-71.5074
11
182.004
21
-71.5074
0
LINE
8
BLACK
6
CONTINUOUS
10
182.004
20
-71.5074
11
182.004
21
-72.3074
0
LINE
8
BLACK
6
CONTINUOUS
10
182.004
20
-72.3074
11
183.604
21
-72.3074
0
LINE
8
BLACK
6
CONTINUOUS
10
174.058
20
-122.682
11
173.558
21
-122.682
0
LINE
8
BLACK
6
CONTINUOUS
10
174.058
20
-123.082
11
174.657
21
-122.682
0
LINE
8
BLACK
6
CONTINUOUS
10
174.058
20
-122.282
11
174.058
21
-123.082
0
LINE
8
BLACK
6
CONTINUOUS
10
174.657
20
-122.682
11
174.058
21
-122.282
0
LINE
8
BLACK
6
CONTINUOUS
10
174.657
20
-122.682
11
174.657
21
-123.232
0
LINE
8
BLACK
6
CONTINUOUS
10
174.657
20
-122.682
11
174.657
21
-122.132
0
LINE
8
BLACK
6
CONTINUOUS
10
175.058
20
-122.682
11
174.657
21
-122.682
0
LINE
8
BLACK
6
CONTINUOUS
10
175.707
20
-123.582
11
175.707
21
-121.782
0
LINE
8
BLACK
6
CONTINUOUS
10
172.907
20
-123.582
11
175.707
21
-123.582
0
LINE
8
BLACK
6
CONTINUOUS
10
172.907
20
-121.782
11
172.907
21
-123.582
0
LINE
8
BLACK
6
CONTINUOUS
10
175.707
20
-121.782
11
172.907
21
-121.782
0
LINE
8
BLACK
6
CONTINUOUS
10
174.058
20
-84.582
11
173.558
21
-84.582
0
LINE
8
BLACK
6
CONTINUOUS
10
174.058
20
-84.982
11
174.657
21
-84.582
0
LINE
8
BLACK
6
CONTINUOUS
10
174.058
20
-84.182
11
174.058
21
-84.982
0
LINE
8
BLACK
6
CONTINUOUS
10
174.657
20
-84.582
11
174.058
21
-84.182
0
LINE
8
BLACK
6
CONTINUOUS
10
174.657
20
-84.582
11
174.657
21
-85.132
0
LINE
8
BLACK
6
CONTINUOUS
10
174.657
20
-84.582
11
174.657
21
-84.032
0
LINE
8
BLACK
6
CONTINUOUS
10
175.058
20
-84.582
11
174.657
21
-84.582
0
LINE
8
BLACK
6
CONTINUOUS
10
175.707
20
-85.482
11
175.707
21
-83.682
0
LINE
8
BLACK
6
CONTINUOUS
10
172.907
20
-85.482
11
175.707
21
-85.482
0
LINE
8
BLACK
6
CONTINUOUS
10
172.907
20
-83.682
11
172.907
21
-85.482
0
LINE
8
BLACK
6
CONTINUOUS
10
175.707
20
-83.682
11
172.907
21
-83.682
0
LINE
8
BLACK
6
CONTINUOUS
10
181.769
20
-63.25
11
181.769
21
-62.75
0
LINE
8
BLACK
6
CONTINUOUS
10
181.369
20
-63.25
11
181.769
21
-63.85
0
LINE
8
BLACK
6
CONTINUOUS
10
182.169
20
-63.25
11
181.369
21
-63.25
0
LINE
8
BLACK
6
CONTINUOUS
10
181.769
20
-63.85
11
182.169
21
-63.25
0
LINE
8
BLACK
6
CONTINUOUS
10
181.769
20
-63.85
11
181.219
21
-63.85
0
LINE
8
BLACK
6
CONTINUOUS
10
181.769
20
-63.85
11
182.319
21
-63.85
0
LINE
8
BLACK
6
CONTINUOUS
10
181.769
20
-64.25
11
181.769
21
-63.85
0
LINE
8
BLACK
6
CONTINUOUS
10
180.869
20
-64.9
11
182.669
21
-64.9
0
LINE
8
BLACK
6
CONTINUOUS
10
180.869
20
-62.1
11
180.869
21
-64.9
0
LINE
8
BLACK
6
CONTINUOUS
10
182.669
20
-62.1
11
180.869
21
-62.1
0
LINE
8
BLACK
6
CONTINUOUS
10
182.669
20
-64.9
11
182.669
21
-62.1
0
LINE
8
BLACK
6
CONTINUOUS
10
162.719
20
-139.45
11
162.719
21
-138.95
0
LINE
8
BLACK
6
CONTINUOUS
10
162.319
20
-139.45
11
162.719
21
-140.05
0
LINE
8
BLACK
6
CONTINUOUS
10
163.119
20
-139.45
11
162.319
21
-139.45
0
LINE
8
BLACK
6
CONTINUOUS
10
162.719
20
-140.05
11
163.119
21
-139.45
0
LINE
8
BLACK
6
CONTINUOUS
10
162.719
20
-140.05
11
162.169
21
-140.05
0
LINE
8
BLACK
6
CONTINUOUS
10
162.719
20
-140.05
11
163.269
21
-140.05
0
LINE
8
BLACK
6
CONTINUOUS
10
162.719
20
-140.45
11
162.719
21
-140.05
0
LINE
8
BLACK
6
CONTINUOUS
10
161.819
20
-141.1
11
163.619
21
-141.1
0
LINE
8
BLACK
6
CONTINUOUS
10
161.819
20
-138.3
11
161.819
21
-141.1
0
LINE
8
BLACK
6
CONTINUOUS
10
163.619
20
-138.3
11
161.819
21
-138.3
0
LINE
8
BLACK
6
CONTINUOUS
10
163.619
20
-141.1
11
163.619
21
-138.3
0
LINE
8
BLACK
6
CONTINUOUS
10
162.719
20
-120.4
11
162.719
21
-119.9
0
LINE
8
BLACK
6
CONTINUOUS
10
162.319
20
-120.4
11
162.719
21
-121
0
LINE
8
BLACK
6
CONTINUOUS
10
163.119
20
-120.4
11
162.319
21
-120.4
0
LINE
8
BLACK
6
CONTINUOUS
10
162.719
20
-121
11
163.119
21
-120.4
0
LINE
8
BLACK
6
CONTINUOUS
10
162.719
20
-121
11
162.169
21
-121
0
LINE
8
BLACK
6
CONTINUOUS
10
162.719
20
-121
11
163.269
21
-121
0
LINE
8
BLACK
6
CONTINUOUS
10
162.719
20
-121.4
11
162.719
21
-121
0
LINE
8
BLACK
6
CONTINUOUS
10
161.819
20
-122.05
11
163.619
21
-122.05
0
LINE
8
BLACK
6
CONTINUOUS
10
161.819
20
-119.25
11
161.819
21
-122.05
0
LINE
8
BLACK
6
CONTINUOUS
10
163.619
20
-119.25
11
161.819
21
-119.25
0
LINE
8
BLACK
6
CONTINUOUS
10
163.619
20
-122.05
11
163.619
21
-119.25
0
LINE
8
BLACK
6
CONTINUOUS
10
162.719
20
-101.35
11
162.719
21
-100.85
0
LINE
8
BLACK
6
CONTINUOUS
10
162.319
20
-101.35
11
162.719
21
-101.95
0
LINE
8
BLACK
6
CONTINUOUS
10
163.119
20
-101.35
11
162.319
21
-101.35
0
LINE
8
BLACK
6
CONTINUOUS
10
162.719
20
-101.95
11
163.119
21
-101.35
0
LINE
8
BLACK
6
CONTINUOUS
10
162.719
20
-101.95
11
162.169
21
-101.95
0
LINE
8
BLACK
6
CONTINUOUS
10
162.719
20
-101.95
11
163.269
21
-101.95
0
LINE
8
BLACK
6
CONTINUOUS
10
162.719
20
-102.35
11
162.719
21
-101.95
0
LINE
8
BLACK
6
CONTINUOUS
10
161.819
20
-103
11
163.619
21
-103
0
LINE
8
BLACK
6
CONTINUOUS
10
161.819
20
-100.2
11
161.819
21
-103
0
LINE
8
BLACK
6
CONTINUOUS
10
163.619
20
-100.2
11
161.819
21
-100.2
0
LINE
8
BLACK
6
CONTINUOUS
10
163.619
20
-103
11
163.619
21
-100.2
0
LINE
8
BLACK
6
CONTINUOUS
10
162.719
20
-82.3
11
162.719
21
-81.8
0
LINE
8
BLACK
6
CONTINUOUS
10
162.319
20
-82.3
11
162.719
21
-82.9
0
LINE
8
BLACK
6
CONTINUOUS
10
163.119
20
-82.3
11
162.319
21
-82.3
0
LINE
8
BLACK
6
CONTINUOUS
10
162.719
20
-82.9
11
163.119
21
-82.3
0
LINE
8
BLACK
6
CONTINUOUS
10
162.719
20
-82.9
11
162.169
21
-82.9
0
LINE
8
BLACK
6
CONTINUOUS
10
162.719
20
-82.9
11
163.269
21
-82.9
0
LINE
8
BLACK
6
CONTINUOUS
10
162.719
20
-83.3
11
162.719
21
-82.9
0
LINE
8
BLACK
6
CONTINUOUS
10
161.819
20
-83.95
11
163.619
21
-83.95
0
LINE
8
BLACK
6
CONTINUOUS
10
161.819
20
-81.15
11
161.819
21
-83.95
0
LINE
8
BLACK
6
CONTINUOUS
10
163.619
20
-81.15
11
161.819
21
-81.15
0
LINE
8
BLACK
6
CONTINUOUS
10
163.619
20
-83.95
11
163.619
21
-81.15
0
LINE
8
BLACK
6
CONTINUOUS
10
162.719
20
-63.25
11
162.719
21
-62.75
0
LINE
8
BLACK
6
CONTINUOUS
10
162.319
20
-63.25
11
162.719
21
-63.85
0
LINE
8
BLACK
6
CONTINUOUS
10
163.119
20
-63.25
11
162.319
21
-63.25
0
LINE
8
BLACK
6
CONTINUOUS
10
162.719
20
-63.85
11
163.119
21
-63.25
0
LINE
8
BLACK
6
CONTINUOUS
10
162.719
20
-63.85
11
162.169
21
-63.85
0
LINE
8
BLACK
6
CONTINUOUS
10
162.719
20
-63.85
11
163.269
21
-63.85
0
LINE
8
BLACK
6
CONTINUOUS
10
162.719
20
-64.25
11
162.719
21
-63.85
0
LINE
8
BLACK
6
CONTINUOUS
10
161.819
20
-64.9
11
163.619
21
-64.9
0
LINE
8
BLACK
6
CONTINUOUS
10
161.819
20
-62.1
11
161.819
21
-64.9
0
LINE
8
BLACK
6
CONTINUOUS
10
163.619
20
-62.1
11
161.819
21
-62.1
0
LINE
8
BLACK
6
CONTINUOUS
10
163.619
20
-64.9
11
163.619
21
-62.1
0
LINE
8
BLACK
6
CONTINUOUS
10
143.669
20
-120.4
11
143.669
21
-119.9
0
LINE
8
BLACK
6
CONTINUOUS
10
143.269
20
-120.4
11
143.669
21
-121
0
LINE
8
BLACK
6
CONTINUOUS
10
144.069
20
-120.4
11
143.269
21
-120.4
0
LINE
8
BLACK
6
CONTINUOUS
10
143.669
20
-121
11
144.069
21
-120.4
0
LINE
8
BLACK
6
CONTINUOUS
10
143.669
20
-121
11
143.119
21
-121
0
LINE
8
BLACK
6
CONTINUOUS
10
143.669
20
-121
11
144.219
21
-121
0
LINE
8
BLACK
6
CONTINUOUS
10
143.669
20
-121.4
11
143.669
21
-121
0
LINE
8
BLACK
6
CONTINUOUS
10
142.769
20
-122.05
11
144.569
21
-122.05
0
LINE
8
BLACK
6
CONTINUOUS
10
142.769
20
-119.25
11
142.769
21
-122.05
0
LINE
8
BLACK
6
CONTINUOUS
10
144.569
20
-119.25
11
142.769
21
-119.25
0
LINE
8
BLACK
6
CONTINUOUS
10
144.569
20
-122.05
11
144.569
21
-119.25
0
LINE
8
BLACK
6
CONTINUOUS
10
143.669
20
-101.35
11
143.669
21
-100.85
0
LINE
8
BLACK
6
CONTINUOUS
10
143.269
20
-101.35
11
143.669
21
-101.95
0
LINE
8
BLACK
6
CONTINUOUS
10
144.069
20
-101.35
11
143.269
21
-101.35
0
LINE
8
BLACK
6
CONTINUOUS
10
143.669
20
-101.95
11
144.069
21
-101.35
0
LINE
8
BLACK
6
CONTINUOUS
10
143.669
20
-101.95
11
143.119
21
-101.95
0
LINE
8
BLACK
6
CONTINUOUS
10
143.669
20
-101.95
11
144.219
21
-101.95
0
LINE
8
BLACK
6
CONTINUOUS
10
143.669
20
-102.35
11
143.669
21
-101.95
0
LINE
8
BLACK
6
CONTINUOUS
10
142.769
20
-103
11
144.569
21
-103
0
LINE
8
BLACK
6
CONTINUOUS
10
142.769
20
-100.2
11
142.769
21
-103
0
LINE
8
BLACK
6
CONTINUOUS
10
144.569
20
-100.2
11
142.769
21
-100.2
0
LINE
8
BLACK
6
CONTINUOUS
10
144.569
20
-103
11
144.569
21
-100.2
0
LINE
8
BLACK
6
CONTINUOUS
10
143.669
20
-82.3
11
143.669
21
-81.8
0
LINE
8
BLACK
6
CONTINUOUS
10
143.269
20
-82.3
11
143.669
21
-82.9
0
LINE
8
BLACK
6
CONTINUOUS
10
144.069
20
-82.3
11
143.269
21
-82.3
0
LINE
8
BLACK
6
CONTINUOUS
10
143.669
20
-82.9
11
144.069
21
-82.3
0
LINE
8
BLACK
6
CONTINUOUS
10
143.669
20
-82.9
11
143.119
21
-82.9
0
LINE
8
BLACK
6
CONTINUOUS
10
143.669
20
-82.9
11
144.219
21
-82.9
0
LINE
8
BLACK
6
CONTINUOUS
10
143.669
20
-83.3
11
143.669
21
-82.9
0
LINE
8
BLACK
6
CONTINUOUS
10
142.769
20
-83.95
11
144.569
21
-83.95
0
LINE
8
BLACK
6
CONTINUOUS
10
142.769
20
-81.15
11
142.769
21
-83.95
0
LINE
8
BLACK
6
CONTINUOUS
10
144.569
20
-81.15
11
142.769
21
-81.15
0
LINE
8
BLACK
6
CONTINUOUS
10
144.569
20
-83.95
11
144.569
21
-81.15
0
LINE
8
BLACK
6
CONTINUOUS
10
143.669
20
-63.25
11
143.669
21
-62.75
0
LINE
8
BLACK
6
CONTINUOUS
10
143.269
20
-63.25
11
143.669
21
-63.85
0
LINE
8
BLACK
6
CONTINUOUS
10
144.069
20
-63.25
11
143.269
21
-63.25
0
LINE
8
BLACK
6
CONTINUOUS
10
143.669
20
-63.85
11
144.069
21
-63.25
0
LINE
8
BLACK
6
CONTINUOUS
10
143.669
20
-63.85
11
143.119
21
-63.85
0
LINE
8
BLACK
6
CONTINUOUS
10
143.669
20
-63.85
11
144.219
21
-63.85
0
LINE
8
BLACK
6
CONTINUOUS
10
143.669
20
-64.25
11
143.669
21
-63.85
0
LINE
8
BLACK
6
CONTINUOUS
10
142.769
20
-64.9
11
144.569
21
-64.9
0
LINE
8
BLACK
6
CONTINUOUS
10
142.769
20
-62.1
11
142.769
21
-64.9
0
LINE
8
BLACK
6
CONTINUOUS
10
144.569
20
-62.1
11
142.769
21
-62.1
0
LINE
8
BLACK
6
CONTINUOUS
10
144.569
20
-64.9
11
144.569
21
-62.1
0
LINE
8
BLACK
6
CONTINUOUS
10
124.619
20
-139.45
11
124.619
21
-138.95
0
LINE
8
BLACK
6
CONTINUOUS
10
124.219
20
-139.45
11
124.619
21
-140.05
0
LINE
8
BLACK
6
CONTINUOUS
10
125.019
20
-139.45
11
124.219
21
-139.45
0
LINE
8
BLACK
6
CONTINUOUS
10
124.619
20
-140.05
11
125.019
21
-139.45
0
LINE
8
BLACK
6
CONTINUOUS
10
124.619
20
-140.05
11
124.069
21
-140.05
0
LINE
8
BLACK
6
CONTINUOUS
10
124.619
20
-140.05
11
125.169
21
-140.05
0
LINE
8
BLACK
6
CONTINUOUS
10
124.619
20
-140.45
11
124.619
21
-140.05
0
LINE
8
BLACK
6
CONTINUOUS
10
123.719
20
-141.1
11
125.519
21
-141.1
0
LINE
8
BLACK
6
CONTINUOUS
10
123.719
20
-138.3
11
123.719
21
-141.1
0
LINE
8
BLACK
6
CONTINUOUS
10
125.519
20
-138.3
11
123.719
21
-138.3
0
LINE
8
BLACK
6
CONTINUOUS
10
125.519
20
-141.1
11
125.519
21
-138.3
0
LINE
8
BLACK
6
CONTINUOUS
10
124.619
20
-120.4
11
124.619
21
-119.9
0
LINE
8
BLACK
6
CONTINUOUS
10
124.219
20
-120.4
11
124.619
21
-121
0
LINE
8
BLACK
6
CONTINUOUS
10
125.019
20
-120.4
11
124.219
21
-120.4
0
LINE
8
BLACK
6
CONTINUOUS
10
124.619
20
-121
11
125.019
21
-120.4
0
LINE
8
BLACK
6
CONTINUOUS
10
124.619
20
-121
11
124.069
21
-121
0
LINE
8
BLACK
6
CONTINUOUS
10
124.619
20
-121
11
125.169
21
-121
0
LINE
8
BLACK
6
CONTINUOUS
10
124.619
20
-121.4
11
124.619
21
-121
0
LINE
8
BLACK
6
CONTINUOUS
10
123.719
20
-122.05
11
125.519
21
-122.05
0
LINE
8
BLACK
6
CONTINUOUS
10
123.719
20
-119.25
11
123.719
21
-122.05
0
LINE
8
BLACK
6
CONTINUOUS
10
125.519
20
-119.25
11
123.719
21
-119.25
0
LINE
8
BLACK
6
CONTINUOUS
10
125.519
20
-122.05
11
125.519
21
-119.25
0
LINE
8
BLACK
6
CONTINUOUS
10
124.619
20
-101.35
11
124.619
21
-100.85
0
LINE
8
BLACK
6
CONTINUOUS
10
124.219
20
-101.35
11
124.619
21
-101.95
0
LINE
8
BLACK
6
CONTINUOUS
10
125.019
20
-101.35
11
124.219
21
-101.35
0
LINE
8
BLACK
6
CONTINUOUS
10
124.619
20
-101.95
11
125.019
21
-101.35
0
LINE
8
BLACK
6
CONTINUOUS
10
124.619
20
-101.95
11
124.069
21
-101.95
0
LINE
8
BLACK
6
CONTINUOUS
10
124.619
20
-101.95
11
125.169
21
-101.95
0
LINE
8
BLACK
6
CONTINUOUS
10
124.619
20
-102.35
11
124.619
21
-101.95
0
LINE
8
BLACK
6
CONTINUOUS
10
123.719
20
-103
11
125.519
21
-103
0
LINE
8
BLACK
6
CONTINUOUS
10
123.719
20
-100.2
11
123.719
21
-103
0
LINE
8
BLACK
6
CONTINUOUS
10
125.519
20
-100.2
11
123.719
21
-100.2
0
LINE
8
BLACK
6
CONTINUOUS
10
125.519
20
-103
11
125.519
21
-100.2
0
LINE
8
BLACK
6
CONTINUOUS
10
124.619
20
-82.3
11
124.619
21
-81.8
0
LINE
8
BLACK
6
CONTINUOUS
10
124.219
20
-82.3
11
124.619
21
-82.9
0
LINE
8
BLACK
6
CONTINUOUS
10
125.019
20
-82.3
11
124.219
21
-82.3
0
LINE
8
BLACK
6
CONTINUOUS
10
124.619
20
-82.9
11
125.019
21
-82.3
0
LINE
8
BLACK
6
CONTINUOUS
10
124.619
20
-82.9
11
124.069
21
-82.9
0
LINE
8
BLACK
6
CONTINUOUS
10
124.619
20
-82.9
11
125.169
21
-82.9
0
LINE
8
BLACK
6
CONTINUOUS
10
124.619
20
-83.3
11
124.619
21
-82.9
0
LINE
8
BLACK
6
CONTINUOUS
10
123.719
20
-83.95
11
125.519
21
-83.95
0
LINE
8
BLACK
6
CONTINUOUS
10
123.719
20
-81.15
11
123.719
21
-83.95
0
LINE
8
BLACK
6
CONTINUOUS
10
125.519
20
-81.15
11
123.719
21
-81.15
0
LINE
8
BLACK
6
CONTINUOUS
10
125.519
20
-83.95
11
125.519
21
-81.15
0
LINE
8
BLACK
6
CONTINUOUS
10
124.619
20
-63.25
11
124.619
21
-62.75
0
LINE
8
BLACK
6
CONTINUOUS
10
124.219
20
-63.25
11
124.619
21
-63.85
0
LINE
8
BLACK
6
CONTINUOUS
10
125.019
20
-63.25
11
124.219
21
-63.25
0
LINE
8
BLACK
6
CONTINUOUS
10
124.619
20
-63.85
11
125.019
21
-63.25
0
LINE
8
BLACK
6
CONTINUOUS
10
124.619
20
-63.85
11
124.069
21
-63.85
0
LINE
8
BLACK
6
CONTINUOUS
10
124.619
20
-63.85
11
125.169
21
-63.85
0
LINE
8
BLACK
6
CONTINUOUS
10
124.619
20
-64.25
11
124.619
21
-63.85
0
LINE
8
BLACK
6
CONTINUOUS
10
123.719
20
-64.9
11
125.519
21
-64.9
0
LINE
8
BLACK
6
CONTINUOUS
10
123.719
20
-62.1
11
123.719
21
-64.9
0
LINE
8
BLACK
6
CONTINUOUS
10
125.519
20
-62.1
11
123.719
21
-62.1
0
LINE
8
BLACK
6
CONTINUOUS
10
125.519
20
-64.9
11
125.519
21
-62.1
0
LINE
8
BLACK
6
CONTINUOUS
10
178.149
20
-68.5844
11
178.482
21
-68.1082
0
LINE
8
BLACK
6
CONTINUOUS
10
178.721
20
-68.5844
11
178.721
21
-67.5844
0
LINE
8
BLACK
6
CONTINUOUS
10
178.721
20
-67.5844
11
178.34
21
-67.5844
0
LINE
8
BLACK
6
CONTINUOUS
10
178.34
20
-67.5844
11
178.244
21
-67.632
0
LINE
8
BLACK
6
CONTINUOUS
10
178.244
20
-67.632
11
178.197
21
-67.6796
0
LINE
8
BLACK
6
CONTINUOUS
10
178.197
20
-67.6796
11
178.149
21
-67.7749
0
LINE
8
BLACK
6
CONTINUOUS
10
178.149
20
-67.7749
11
178.149
21
-67.9177
0
LINE
8
BLACK
6
CONTINUOUS
10
178.149
20
-67.9177
11
178.197
21
-68.013
0
LINE
8
BLACK
6
CONTINUOUS
10
178.197
20
-68.013
11
178.244
21
-68.0606
0
LINE
8
BLACK
6
CONTINUOUS
10
178.244
20
-68.0606
11
178.34
21
-68.1082
0
LINE
8
BLACK
6
CONTINUOUS
10
178.34
20
-68.1082
11
178.721
21
-68.1082
0
LINE
8
BLACK
6
CONTINUOUS
10
177.34
20
-68.5368
11
177.435
21
-68.5844
0
LINE
8
BLACK
6
CONTINUOUS
10
177.435
20
-68.5844
11
177.625
21
-68.5844
0
LINE
8
BLACK
6
CONTINUOUS
10
177.625
20
-68.5844
11
177.721
21
-68.5368
0
LINE
8
BLACK
6
CONTINUOUS
10
177.721
20
-68.5368
11
177.768
21
-68.4415
0
LINE
8
BLACK
6
CONTINUOUS
10
177.768
20
-68.4415
11
177.768
21
-68.0606
0
LINE
8
BLACK
6
CONTINUOUS
10
177.768
20
-68.0606
11
177.721
21
-67.9653
0
LINE
8
BLACK
6
CONTINUOUS
10
177.721
20
-67.9653
11
177.625
21
-67.9177
0
LINE
8
BLACK
6
CONTINUOUS
10
177.625
20
-67.9177
11
177.435
21
-67.9177
0
LINE
8
BLACK
6
CONTINUOUS
10
177.435
20
-67.9177
11
177.34
21
-67.9653
0
LINE
8
BLACK
6
CONTINUOUS
10
177.34
20
-67.9653
11
177.292
21
-68.0606
0
LINE
8
BLACK
6
CONTINUOUS
10
177.292
20
-68.0606
11
177.292
21
-68.1558
0
LINE
8
BLACK
6
CONTINUOUS
10
177.292
20
-68.1558
11
177.768
21
-68.251
0
LINE
8
BLACK
6
CONTINUOUS
10
176.911
20
-68.5368
11
176.816
21
-68.5844
0
LINE
8
BLACK
6
CONTINUOUS
10
176.816
20
-68.5844
11
176.625
21
-68.5844
0
LINE
8
BLACK
6
CONTINUOUS
10
176.625
20
-68.5844
11
176.53
21
-68.5368
0
LINE
8
BLACK
6
CONTINUOUS
10
176.53
20
-68.5368
11
176.482
21
-68.4415
0
LINE
8
BLACK
6
CONTINUOUS
10
176.482
20
-68.4415
11
176.482
21
-68.3939
0
LINE
8
BLACK
6
CONTINUOUS
10
176.482
20
-68.3939
11
176.53
21
-68.2987
0
LINE
8
BLACK
6
CONTINUOUS
10
176.53
20
-68.2987
11
176.625
21
-68.251
0
LINE
8
BLACK
6
CONTINUOUS
10
176.625
20
-68.251
11
176.768
21
-68.251
0
LINE
8
BLACK
6
CONTINUOUS
10
176.768
20
-68.251
11
176.863
21
-68.2034
0
LINE
8
BLACK
6
CONTINUOUS
10
176.863
20
-68.2034
11
176.911
21
-68.1082
0
LINE
8
BLACK
6
CONTINUOUS
10
176.911
20
-68.1082
11
176.911
21
-68.0606
0
LINE
8
BLACK
6
CONTINUOUS
10
176.911
20
-68.0606
11
176.863
21
-67.9653
0
LINE
8
BLACK
6
CONTINUOUS
10
176.863
20
-67.9653
11
176.768
21
-67.9177
0
LINE
8
BLACK
6
CONTINUOUS
10
176.768
20
-67.9177
11
176.625
21
-67.9177
0
LINE
8
BLACK
6
CONTINUOUS
10
176.625
20
-67.9177
11
176.53
21
-67.9653
0
LINE
8
BLACK
6
CONTINUOUS
10
175.673
20
-68.5368
11
175.768
21
-68.5844
0
LINE
8
BLACK
6
CONTINUOUS
10
175.768
20
-68.5844
11
175.959
21
-68.5844
0
LINE
8
BLACK
6
CONTINUOUS
10
175.959
20
-68.5844
11
176.054
21
-68.5368
0
LINE
8
BLACK
6
CONTINUOUS
10
176.054
20
-68.5368
11
176.101
21
-68.4415
0
LINE
8
BLACK
6
CONTINUOUS
10
176.101
20
-68.4415
11
176.101
21
-68.0606
0
LINE
8
BLACK
6
CONTINUOUS
10
176.101
20
-68.0606
11
176.054
21
-67.9653
0
LINE
8
BLACK
6
CONTINUOUS
10
176.054
20
-67.9653
11
175.959
21
-67.9177
0
LINE
8
BLACK
6
CONTINUOUS
10
175.959
20
-67.9177
11
175.768
21
-67.9177
0
LINE
8
BLACK
6
CONTINUOUS
10
175.768
20
-67.9177
11
175.673
21
-67.9653
0
LINE
8
BLACK
6
CONTINUOUS
10
175.673
20
-67.9653
11
175.625
21
-68.0606
0
LINE
8
BLACK
6
CONTINUOUS
10
175.625
20
-68.0606
11
175.625
21
-68.1558
0
LINE
8
BLACK
6
CONTINUOUS
10
175.625
20
-68.1558
11
176.101
21
-68.251
0
LINE
8
BLACK
6
CONTINUOUS
10
175.34
20
-67.9177
11
174.959
21
-67.9177
0
LINE
8
BLACK
6
CONTINUOUS
10
175.197
20
-67.5844
11
175.197
21
-68.4415
0
LINE
8
BLACK
6
CONTINUOUS
10
175.197
20
-68.4415
11
175.149
21
-68.5368
0
LINE
8
BLACK
6
CONTINUOUS
10
175.149
20
-68.5368
11
175.054
21
-68.5844
0
LINE
8
BLACK
6
CONTINUOUS
10
175.054
20
-68.5844
11
174.959
21
-68.5844
0
LINE
8
BLACK
6
CONTINUOUS
10
178.244
20
-76.0368
11
178.101
21
-76.0844
0
LINE
8
BLACK
6
CONTINUOUS
10
178.101
20
-76.0844
11
177.863
21
-76.0844
0
LINE
8
BLACK
6
CONTINUOUS
10
177.863
20
-76.0844
11
177.768
21
-76.0368
0
LINE
8
BLACK
6
CONTINUOUS
10
177.768
20
-76.0368
11
177.721
21
-75.9891
0
LINE
8
BLACK
6
CONTINUOUS
10
177.721
20
-75.9891
11
177.673
21
-75.8939
0
LINE
8
BLACK
6
CONTINUOUS
10
177.673
20
-75.8939
11
177.673
21
-75.7987
0
LINE
8
BLACK
6
CONTINUOUS
10
177.673
20
-75.7987
11
177.721
21
-75.7034
0
LINE
8
BLACK
6
CONTINUOUS
10
177.721
20
-75.7034
11
177.768
21
-75.6558
0
LINE
8
BLACK
6
CONTINUOUS
10
177.768
20
-75.6558
11
177.863
21
-75.6082
0
LINE
8
BLACK
6
CONTINUOUS
10
177.863
20
-75.6082
11
178.054
21
-75.5606
0
LINE
8
BLACK
6
CONTINUOUS
10
178.054
20
-75.5606
11
178.149
21
-75.513
0
LINE
8
BLACK
6
CONTINUOUS
10
178.149
20
-75.513
11
178.197
21
-75.4653
0
LINE
8
BLACK
6
CONTINUOUS
10
178.197
20
-75.4653
11
178.244
21
-75.3701
0
LINE
8
BLACK
6
CONTINUOUS
10
178.244
20
-75.3701
11
178.244
21
-75.2749
0
LINE
8
BLACK
6
CONTINUOUS
10
178.244
20
-75.2749
11
178.197
21
-75.1796
0
LINE
8
BLACK
6
CONTINUOUS
10
178.197
20
-75.1796
11
178.149
21
-75.132
0
LINE
8
BLACK
6
CONTINUOUS
10
178.149
20
-75.132
11
178.054
21
-75.0844
0
LINE
8
BLACK
6
CONTINUOUS
10
178.054
20
-75.0844
11
177.816
21
-75.0844
0
LINE
8
BLACK
6
CONTINUOUS
10
177.816
20
-75.0844
11
177.673
21
-75.132
0
LINE
8
BLACK
6
CONTINUOUS
10
177.34
20
-75.0844
11
177.101
21
-76.0844
0
LINE
8
BLACK
6
CONTINUOUS
10
177.101
20
-76.0844
11
176.911
21
-75.3701
0
LINE
8
BLACK
6
CONTINUOUS
10
176.911
20
-75.3701
11
176.721
21
-76.0844
0
LINE
8
BLACK
6
CONTINUOUS
10
176.721
20
-76.0844
11
176.482
21
-75.0844
0
LINE
8
BLACK
6
CONTINUOUS
10
175.578
20
-76.0844
11
176.149
21
-76.0844
0
LINE
8
BLACK
6
CONTINUOUS
10
175.863
20
-76.0844
11
175.863
21
-75.0844
0
LINE
8
BLACK
6
CONTINUOUS
10
175.863
20
-75.0844
11
175.959
21
-75.2272
0
LINE
8
BLACK
6
CONTINUOUS
10
175.959
20
-75.2272
11
176.054
21
-75.3225
0
LINE
8
BLACK
6
CONTINUOUS
10
176.054
20
-75.3225
11
176.149
21
-75.3701
0
LINE
8
BLACK
6
CONTINUOUS
10
142.021
20
-139.438
11
141.021
21
-139.438
0
LINE
8
BLACK
6
CONTINUOUS
10
141.021
20
-139.438
11
141.021
21
-139.676
0
LINE
8
BLACK
6
CONTINUOUS
10
141.021
20
-139.676
11
141.069
21
-139.819
0
LINE
8
BLACK
6
CONTINUOUS
10
141.069
20
-139.819
11
141.164
21
-139.914
0
LINE
8
BLACK
6
CONTINUOUS
10
141.164
20
-139.914
11
141.259
21
-139.962
0
LINE
8
BLACK
6
CONTINUOUS
10
141.259
20
-139.962
11
141.45
21
-140.01
0
LINE
8
BLACK
6
CONTINUOUS
10
141.45
20
-140.01
11
141.593
21
-140.01
0
LINE
8
BLACK
6
CONTINUOUS
10
141.593
20
-140.01
11
141.783
21
-139.962
0
LINE
8
BLACK
6
CONTINUOUS
10
141.783
20
-139.962
11
141.878
21
-139.914
0
LINE
8
BLACK
6
CONTINUOUS
10
141.878
20
-139.914
11
141.974
21
-139.819
0
LINE
8
BLACK
6
CONTINUOUS
10
141.974
20
-139.819
11
142.021
21
-139.676
0
LINE
8
BLACK
6
CONTINUOUS
10
142.021
20
-139.676
11
142.021
21
-139.438
0
LINE
8
BLACK
6
CONTINUOUS
10
146.121
20
-138.486
11
145.121
21
-138.486
0
LINE
8
BLACK
6
CONTINUOUS
10
145.121
20
-138.486
11
145.121
21
-138.724
0
LINE
8
BLACK
6
CONTINUOUS
10
145.121
20
-138.724
11
145.169
21
-138.867
0
LINE
8
BLACK
6
CONTINUOUS
10
145.169
20
-138.867
11
145.264
21
-138.962
0
LINE
8
BLACK
6
CONTINUOUS
10
145.264
20
-138.962
11
145.359
21
-139.01
0
LINE
8
BLACK
6
CONTINUOUS
10
145.359
20
-139.01
11
145.55
21
-139.057
0
LINE
8
BLACK
6
CONTINUOUS
10
145.55
20
-139.057
11
145.693
21
-139.057
0
LINE
8
BLACK
6
CONTINUOUS
10
145.693
20
-139.057
11
145.883
21
-139.01
0
LINE
8
BLACK
6
CONTINUOUS
10
145.883
20
-139.01
11
145.978
21
-138.962
0
LINE
8
BLACK
6
CONTINUOUS
10
145.978
20
-138.962
11
146.074
21
-138.867
0
LINE
8
BLACK
6
CONTINUOUS
10
146.074
20
-138.867
11
146.121
21
-138.724
0
LINE
8
BLACK
6
CONTINUOUS
10
146.121
20
-138.724
11
146.121
21
-138.486
0
LINE
8
BLACK
6
CONTINUOUS
10
146.121
20
-140.01
11
146.121
21
-139.438
0
LINE
8
BLACK
6
CONTINUOUS
10
146.121
20
-139.724
11
145.121
21
-139.724
0
LINE
8
BLACK
6
CONTINUOUS
10
145.121
20
-139.724
11
145.264
21
-139.629
0
LINE
8
BLACK
6
CONTINUOUS
10
145.264
20
-139.629
11
145.359
21
-139.533
0
LINE
8
BLACK
6
CONTINUOUS
10
145.359
20
-139.533
11
145.407
21
-139.438
0
LINE
8
BLACK
6
CONTINUOUS
10
145.121
20
-140.629
11
145.121
21
-140.724
0
LINE
8
BLACK
6
CONTINUOUS
10
145.121
20
-140.724
11
145.169
21
-140.819
0
LINE
8
BLACK
6
CONTINUOUS
10
145.169
20
-140.819
11
145.216
21
-140.867
0
LINE
8
BLACK
6
CONTINUOUS
10
145.216
20
-140.867
11
145.312
21
-140.914
0
LINE
8
BLACK
6
CONTINUOUS
10
145.312
20
-140.914
11
145.502
21
-140.962
0
LINE
8
BLACK
6
CONTINUOUS
10
145.502
20
-140.962
11
145.74
21
-140.962
0
LINE
8
BLACK
6
CONTINUOUS
10
145.74
20
-140.962
11
145.931
21
-140.914
0
LINE
8
BLACK
6
CONTINUOUS
10
145.931
20
-140.914
11
146.026
21
-140.867
0
LINE
8
BLACK
6
CONTINUOUS
10
146.026
20
-140.867
11
146.074
21
-140.819
0
LINE
8
BLACK
6
CONTINUOUS
10
146.074
20
-140.819
11
146.121
21
-140.724
0
LINE
8
BLACK
6
CONTINUOUS
10
146.121
20
-140.724
11
146.121
21
-140.629
0
LINE
8
BLACK
6
CONTINUOUS
10
146.121
20
-140.629
11
146.074
21
-140.533
0
LINE
8
BLACK
6
CONTINUOUS
10
146.074
20
-140.533
11
146.026
21
-140.486
0
LINE
8
BLACK
6
CONTINUOUS
10
146.026
20
-140.486
11
145.931
21
-140.438
0
LINE
8
BLACK
6
CONTINUOUS
10
145.931
20
-140.438
11
145.74
21
-140.39
0
LINE
8
BLACK
6
CONTINUOUS
10
145.74
20
-140.39
11
145.502
21
-140.39
0
LINE
8
BLACK
6
CONTINUOUS
10
145.502
20
-140.39
11
145.312
21
-140.438
0
LINE
8
BLACK
6
CONTINUOUS
10
145.312
20
-140.438
11
145.216
21
-140.486
0
LINE
8
BLACK
6
CONTINUOUS
10
145.216
20
-140.486
11
145.169
21
-140.533
0
LINE
8
BLACK
6
CONTINUOUS
10
145.169
20
-140.533
11
145.121
21
-140.629
0
LINE
8
BLACK
6
CONTINUOUS
10
184.994
20
-73.7898
11
185.328
21
-73.3136
0
LINE
8
BLACK
6
CONTINUOUS
10
185.566
20
-73.7898
11
185.566
21
-72.7898
0
LINE
8
BLACK
6
CONTINUOUS
10
185.566
20
-72.7898
11
185.185
21
-72.7898
0
LINE
8
BLACK
6
CONTINUOUS
10
185.185
20
-72.7898
11
185.09
21
-72.8374
0
LINE
8
BLACK
6
CONTINUOUS
10
185.09
20
-72.8374
11
185.042
21
-72.885
0
LINE
8
BLACK
6
CONTINUOUS
10
185.042
20
-72.885
11
184.994
21
-72.9803
0
LINE
8
BLACK
6
CONTINUOUS
10
184.994
20
-72.9803
11
184.994
21
-73.1231
0
LINE
8
BLACK
6
CONTINUOUS
10
184.994
20
-73.1231
11
185.042
21
-73.2184
0
LINE
8
BLACK
6
CONTINUOUS
10
185.042
20
-73.2184
11
185.09
21
-73.266
0
LINE
8
BLACK
6
CONTINUOUS
10
185.09
20
-73.266
11
185.185
21
-73.3136
0
LINE
8
BLACK
6
CONTINUOUS
10
185.185
20
-73.3136
11
185.566
21
-73.3136
0
LINE
8
BLACK
6
CONTINUOUS
10
184.804
20
-73.885
11
184.042
21
-73.885
0
LINE
8
BLACK
6
CONTINUOUS
10
183.852
20
-73.7422
11
183.709
21
-73.7898
0
LINE
8
BLACK
6
CONTINUOUS
10
183.709
20
-73.7898
11
183.471
21
-73.7898
0
LINE
8
BLACK
6
CONTINUOUS
10
183.471
20
-73.7898
11
183.375
21
-73.7422
0
LINE
8
BLACK
6
CONTINUOUS
10
183.375
20
-73.7422
11
183.328
21
-73.6945
0
LINE
8
BLACK
6
CONTINUOUS
10
183.328
20
-73.6945
11
183.28
21
-73.5993
0
LINE
8
BLACK
6
CONTINUOUS
10
183.28
20
-73.5993
11
183.28
21
-73.5041
0
LINE
8
BLACK
6
CONTINUOUS
10
183.28
20
-73.5041
11
183.328
21
-73.4088
0
LINE
8
BLACK
6
CONTINUOUS
10
183.328
20
-73.4088
11
183.375
21
-73.3612
0
LINE
8
BLACK
6
CONTINUOUS
10
183.375
20
-73.3612
11
183.471
21
-73.3136
0
LINE
8
BLACK
6
CONTINUOUS
10
183.471
20
-73.3136
11
183.661
21
-73.266
0
LINE
8
BLACK
6
CONTINUOUS
10
183.661
20
-73.266
11
183.756
21
-73.2184
0
LINE
8
BLACK
6
CONTINUOUS
10
183.756
20
-73.2184
11
183.804
21
-73.1707
0
LINE
8
BLACK
6
CONTINUOUS
10
183.804
20
-73.1707
11
183.852
21
-73.0755
0
LINE
8
BLACK
6
CONTINUOUS
10
183.852
20
-73.0755
11
183.852
21
-72.9803
0
LINE
8
BLACK
6
CONTINUOUS
10
183.852
20
-72.9803
11
183.804
21
-72.885
0
LINE
8
BLACK
6
CONTINUOUS
10
183.804
20
-72.885
11
183.756
21
-72.8374
0
LINE
8
BLACK
6
CONTINUOUS
10
183.756
20
-72.8374
11
183.661
21
-72.7898
0
LINE
8
BLACK
6
CONTINUOUS
10
183.661
20
-72.7898
11
183.423
21
-72.7898
0
LINE
8
BLACK
6
CONTINUOUS
10
183.423
20
-72.7898
11
183.28
21
-72.8374
0
LINE
8
BLACK
6
CONTINUOUS
10
182.852
20
-73.7898
11
182.852
21
-73.1231
0
LINE
8
BLACK
6
CONTINUOUS
10
182.852
20
-73.2184
11
182.804
21
-73.1707
0
LINE
8
BLACK
6
CONTINUOUS
10
182.804
20
-73.1707
11
182.709
21
-73.1231
0
LINE
8
BLACK
6
CONTINUOUS
10
182.709
20
-73.1231
11
182.566
21
-73.1231
0
LINE
8
BLACK
6
CONTINUOUS
10
182.566
20
-73.1231
11
182.471
21
-73.1707
0
LINE
8
BLACK
6
CONTINUOUS
10
182.471
20
-73.1707
11
182.423
21
-73.266
0
LINE
8
BLACK
6
CONTINUOUS
10
182.423
20
-73.266
11
182.423
21
-73.7898
0
LINE
8
BLACK
6
CONTINUOUS
10
182.423
20
-73.266
11
182.375
21
-73.1707
0
LINE
8
BLACK
6
CONTINUOUS
10
182.375
20
-73.1707
11
182.28
21
-73.1231
0
LINE
8
BLACK
6
CONTINUOUS
10
182.28
20
-73.1231
11
182.137
21
-73.1231
0
LINE
8
BLACK
6
CONTINUOUS
10
182.137
20
-73.1231
11
182.042
21
-73.1707
0
LINE
8
BLACK
6
CONTINUOUS
10
182.042
20
-73.1707
11
181.994
21
-73.266
0
LINE
8
BLACK
6
CONTINUOUS
10
181.994
20
-73.266
11
181.994
21
-73.7898
0
LINE
8
BLACK
6
CONTINUOUS
10
181.09
20
-73.7898
11
181.09
21
-73.266
0
LINE
8
BLACK
6
CONTINUOUS
10
181.09
20
-73.266
11
181.137
21
-73.1707
0
LINE
8
BLACK
6
CONTINUOUS
10
181.137
20
-73.1707
11
181.232
21
-73.1231
0
LINE
8
BLACK
6
CONTINUOUS
10
181.232
20
-73.1231
11
181.423
21
-73.1231
0
LINE
8
BLACK
6
CONTINUOUS
10
181.423
20
-73.1231
11
181.518
21
-73.1707
0
LINE
8
BLACK
6
CONTINUOUS
10
181.09
20
-73.7422
11
181.185
21
-73.7898
0
LINE
8
BLACK
6
CONTINUOUS
10
181.185
20
-73.7898
11
181.423
21
-73.7898
0
LINE
8
BLACK
6
CONTINUOUS
10
181.423
20
-73.7898
11
181.518
21
-73.7422
0
LINE
8
BLACK
6
CONTINUOUS
10
181.518
20
-73.7422
11
181.566
21
-73.6469
0
LINE
8
BLACK
6
CONTINUOUS
10
181.566
20
-73.6469
11
181.566
21
-73.5517
0
LINE
8
BLACK
6
CONTINUOUS
10
181.566
20
-73.5517
11
181.518
21
-73.4564
0
LINE
8
BLACK
6
CONTINUOUS
10
181.518
20
-73.4564
11
181.423
21
-73.4088
0
LINE
8
BLACK
6
CONTINUOUS
10
181.423
20
-73.4088
11
181.185
21
-73.4088
0
LINE
8
BLACK
6
CONTINUOUS
10
181.185
20
-73.4088
11
181.09
21
-73.3612
0
LINE
8
BLACK
6
CONTINUOUS
10
180.471
20
-73.7898
11
180.566
21
-73.7422
0
LINE
8
BLACK
6
CONTINUOUS
10
180.566
20
-73.7422
11
180.613
21
-73.6469
0
LINE
8
BLACK
6
CONTINUOUS
10
180.613
20
-73.6469
11
180.613
21
-72.7898
0
LINE
8
BLACK
6
CONTINUOUS
10
179.947
20
-73.7898
11
180.042
21
-73.7422
0
LINE
8
BLACK
6
CONTINUOUS
10
180.042
20
-73.7422
11
180.09
21
-73.6469
0
LINE
8
BLACK
6
CONTINUOUS
10
180.09
20
-73.6469
11
180.09
21
-72.7898
0
LINE
8
BLACK
6
CONTINUOUS
10
182.971
20
-72.3598
11
183.304
21
-71.8836
0
LINE
8
BLACK
6
CONTINUOUS
10
183.542
20
-72.3598
11
183.542
21
-71.3598
0
LINE
8
BLACK
6
CONTINUOUS
10
183.542
20
-71.3598
11
183.161
21
-71.3598
0
LINE
8
BLACK
6
CONTINUOUS
10
183.161
20
-71.3598
11
183.066
21
-71.4074
0
LINE
8
BLACK
6
CONTINUOUS
10
183.066
20
-71.4074
11
183.018
21
-71.455
0
LINE
8
BLACK
6
CONTINUOUS
10
183.018
20
-71.455
11
182.971
21
-71.5503
0
LINE
8
BLACK
6
CONTINUOUS
10
182.971
20
-71.5503
11
182.971
21
-71.6931
0
LINE
8
BLACK
6
CONTINUOUS
10
182.971
20
-71.6931
11
183.018
21
-71.7884
0
LINE
8
BLACK
6
CONTINUOUS
10
183.018
20
-71.7884
11
183.066
21
-71.836
0
LINE
8
BLACK
6
CONTINUOUS
10
183.066
20
-71.836
11
183.161
21
-71.8836
0
LINE
8
BLACK
6
CONTINUOUS
10
183.161
20
-71.8836
11
183.542
21
-71.8836
0
LINE
8
BLACK
6
CONTINUOUS
10
182.637
20
-71.3598
11
182.018
21
-71.3598
0
LINE
8
BLACK
6
CONTINUOUS
10
182.018
20
-71.3598
11
182.352
21
-71.7407
0
LINE
8
BLACK
6
CONTINUOUS
10
182.352
20
-71.7407
11
182.209
21
-71.7407
0
LINE
8
BLACK
6
CONTINUOUS
10
182.209
20
-71.7407
11
182.113
21
-71.7884
0
LINE
8
BLACK
6
CONTINUOUS
10
182.113
20
-71.7884
11
182.066
21
-71.836
0
LINE
8
BLACK
6
CONTINUOUS
10
182.066
20
-71.836
11
182.018
21
-71.9312
0
LINE
8
BLACK
6
CONTINUOUS
10
182.018
20
-71.9312
11
182.018
21
-72.1693
0
LINE
8
BLACK
6
CONTINUOUS
10
182.018
20
-72.1693
11
182.066
21
-72.2645
0
LINE
8
BLACK
6
CONTINUOUS
10
182.066
20
-72.2645
11
182.113
21
-72.3122
0
LINE
8
BLACK
6
CONTINUOUS
10
182.113
20
-72.3122
11
182.209
21
-72.3598
0
LINE
8
BLACK
6
CONTINUOUS
10
182.209
20
-72.3598
11
182.494
21
-72.3598
0
LINE
8
BLACK
6
CONTINUOUS
10
182.494
20
-72.3598
11
182.59
21
-72.3122
0
LINE
8
BLACK
6
CONTINUOUS
10
182.59
20
-72.3122
11
182.637
21
-72.2645
0
LINE
8
BLACK
6
CONTINUOUS
10
174.569
20
-125.234
11
174.569
21
-124.234
0
LINE
8
BLACK
6
CONTINUOUS
10
174.569
20
-124.234
11
174.331
21
-124.234
0
LINE
8
BLACK
6
CONTINUOUS
10
174.331
20
-124.234
11
174.188
21
-124.282
0
LINE
8
BLACK
6
CONTINUOUS
10
174.188
20
-124.282
11
174.093
21
-124.377
0
LINE
8
BLACK
6
CONTINUOUS
10
174.093
20
-124.377
11
174.046
21
-124.472
0
LINE
8
BLACK
6
CONTINUOUS
10
174.046
20
-124.472
11
173.998
21
-124.663
0
LINE
8
BLACK
6
CONTINUOUS
10
173.998
20
-124.663
11
173.998
21
-124.806
0
LINE
8
BLACK
6
CONTINUOUS
10
173.998
20
-124.806
11
174.046
21
-124.996
0
LINE
8
BLACK
6
CONTINUOUS
10
174.046
20
-124.996
11
174.093
21
-125.092
0
LINE
8
BLACK
6
CONTINUOUS
10
174.093
20
-125.092
11
174.188
21
-125.187
0
LINE
8
BLACK
6
CONTINUOUS
10
174.188
20
-125.187
11
174.331
21
-125.234
0
LINE
8
BLACK
6
CONTINUOUS
10
174.331
20
-125.234
11
174.569
21
-125.234
0
LINE
8
BLACK
6
CONTINUOUS
10
175.522
20
-121.134
11
175.522
21
-120.134
0
LINE
8
BLACK
6
CONTINUOUS
10
175.522
20
-120.134
11
175.284
21
-120.134
0
LINE
8
BLACK
6
CONTINUOUS
10
175.284
20
-120.134
11
175.141
21
-120.182
0
LINE
8
BLACK
6
CONTINUOUS
10
175.141
20
-120.182
11
175.046
21
-120.277
0
LINE
8
BLACK
6
CONTINUOUS
10
175.046
20
-120.277
11
174.998
21
-120.372
0
LINE
8
BLACK
6
CONTINUOUS
10
174.998
20
-120.372
11
174.95
21
-120.563
0
LINE
8
BLACK
6
CONTINUOUS
10
174.95
20
-120.563
11
174.95
21
-120.706
0
LINE
8
BLACK
6
CONTINUOUS
10
174.95
20
-120.706
11
174.998
21
-120.896
0
LINE
8
BLACK
6
CONTINUOUS
10
174.998
20
-120.896
11
175.046
21
-120.992
0
LINE
8
BLACK
6
CONTINUOUS
10
175.046
20
-120.992
11
175.141
21
-121.087
0
LINE
8
BLACK
6
CONTINUOUS
10
175.141
20
-121.087
11
175.284
21
-121.134
0
LINE
8
BLACK
6
CONTINUOUS
10
175.284
20
-121.134
11
175.522
21
-121.134
0
LINE
8
BLACK
6
CONTINUOUS
10
173.998
20
-121.134
11
174.569
21
-121.134
0
LINE
8
BLACK
6
CONTINUOUS
10
174.284
20
-121.134
11
174.284
21
-120.134
0
LINE
8
BLACK
6
CONTINUOUS
10
174.284
20
-120.134
11
174.379
21
-120.277
0
LINE
8
BLACK
6
CONTINUOUS
10
174.379
20
-120.277
11
174.474
21
-120.372
0
LINE
8
BLACK
6
CONTINUOUS
10
174.474
20
-120.372
11
174.569
21
-120.42
0
LINE
8
BLACK
6
CONTINUOUS
10
173.427
20
-120.563
11
173.522
21
-120.515
0
LINE
8
BLACK
6
CONTINUOUS
10
173.522
20
-120.515
11
173.569
21
-120.468
0
LINE
8
BLACK
6
CONTINUOUS
10
173.569
20
-120.468
11
173.617
21
-120.372
0
LINE
8
BLACK
6
CONTINUOUS
10
173.617
20
-120.372
11
173.617
21
-120.325
0
LINE
8
BLACK
6
CONTINUOUS
10
173.617
20
-120.325
11
173.569
21
-120.23
0
LINE
8
BLACK
6
CONTINUOUS
10
173.569
20
-120.23
11
173.522
21
-120.182
0
LINE
8
BLACK
6
CONTINUOUS
10
173.522
20
-120.182
11
173.427
21
-120.134
0
LINE
8
BLACK
6
CONTINUOUS
10
173.427
20
-120.134
11
173.236
21
-120.134
0
LINE
8
BLACK
6
CONTINUOUS
10
173.236
20
-120.134
11
173.141
21
-120.182
0
LINE
8
BLACK
6
CONTINUOUS
10
173.141
20
-120.182
11
173.093
21
-120.23
0
LINE
8
BLACK
6
CONTINUOUS
10
173.093
20
-120.23
11
173.046
21
-120.325
0
LINE
8
BLACK
6
CONTINUOUS
10
173.046
20
-120.325
11
173.046
21
-120.372
0
LINE
8
BLACK
6
CONTINUOUS
10
173.046
20
-120.372
11
173.093
21
-120.468
0
LINE
8
BLACK
6
CONTINUOUS
10
173.093
20
-120.468
11
173.141
21
-120.515
0
LINE
8
BLACK
6
CONTINUOUS
10
173.141
20
-120.515
11
173.236
21
-120.563
0
LINE
8
BLACK
6
CONTINUOUS
10
173.236
20
-120.563
11
173.427
21
-120.563
0
LINE
8
BLACK
6
CONTINUOUS
10
173.427
20
-120.563
11
173.522
21
-120.611
0
LINE
8
BLACK
6
CONTINUOUS
10
173.522
20
-120.611
11
173.569
21
-120.658
0
LINE
8
BLACK
6
CONTINUOUS
10
173.569
20
-120.658
11
173.617
21
-120.753
0
LINE
8
BLACK
6
CONTINUOUS
10
173.617
20
-120.753
11
173.617
21
-120.944
0
LINE
8
BLACK
6
CONTINUOUS
10
173.617
20
-120.944
11
173.569
21
-121.039
0
LINE
8
BLACK
6
CONTINUOUS
10
173.569
20
-121.039
11
173.522
21
-121.087
0
LINE
8
BLACK
6
CONTINUOUS
10
173.522
20
-121.087
11
173.427
21
-121.134
0
LINE
8
BLACK
6
CONTINUOUS
10
173.427
20
-121.134
11
173.236
21
-121.134
0
LINE
8
BLACK
6
CONTINUOUS
10
173.236
20
-121.134
11
173.141
21
-121.087
0
LINE
8
BLACK
6
CONTINUOUS
10
173.141
20
-121.087
11
173.093
21
-121.039
0
LINE
8
BLACK
6
CONTINUOUS
10
173.093
20
-121.039
11
173.046
21
-120.944
0
LINE
8
BLACK
6
CONTINUOUS
10
173.046
20
-120.944
11
173.046
21
-120.753
0
LINE
8
BLACK
6
CONTINUOUS
10
173.046
20
-120.753
11
173.093
21
-120.658
0
LINE
8
BLACK
6
CONTINUOUS
10
173.093
20
-120.658
11
173.141
21
-120.611
0
LINE
8
BLACK
6
CONTINUOUS
10
173.141
20
-120.611
11
173.236
21
-120.563
0
LINE
8
BLACK
6
CONTINUOUS
10
174.569
20
-87.1344
11
174.569
21
-86.1344
0
LINE
8
BLACK
6
CONTINUOUS
10
174.569
20
-86.1344
11
174.331
21
-86.1344
0
LINE
8
BLACK
6
CONTINUOUS
10
174.331
20
-86.1344
11
174.188
21
-86.182
0
LINE
8
BLACK
6
CONTINUOUS
10
174.188
20
-86.182
11
174.093
21
-86.2772
0
LINE
8
BLACK
6
CONTINUOUS
10
174.093
20
-86.2772
11
174.046
21
-86.3725
0
LINE
8
BLACK
6
CONTINUOUS
10
174.046
20
-86.3725
11
173.998
21
-86.563
0
LINE
8
BLACK
6
CONTINUOUS
10
173.998
20
-86.563
11
173.998
21
-86.7058
0
LINE
8
BLACK
6
CONTINUOUS
10
173.998
20
-86.7058
11
174.046
21
-86.8963
0
LINE
8
BLACK
6
CONTINUOUS
10
174.046
20
-86.8963
11
174.093
21
-86.9915
0
LINE
8
BLACK
6
CONTINUOUS
10
174.093
20
-86.9915
11
174.188
21
-87.0868
0
LINE
8
BLACK
6
CONTINUOUS
10
174.188
20
-87.0868
11
174.331
21
-87.1344
0
LINE
8
BLACK
6
CONTINUOUS
10
174.331
20
-87.1344
11
174.569
21
-87.1344
0
LINE
8
BLACK
6
CONTINUOUS
10
175.522
20
-83.0344
11
175.522
21
-82.0344
0
LINE
8
BLACK
6
CONTINUOUS
10
175.522
20
-82.0344
11
175.284
21
-82.0344
0
LINE
8
BLACK
6
CONTINUOUS
10
175.284
20
-82.0344
11
175.141
21
-82.082
0
LINE
8
BLACK
6
CONTINUOUS
10
175.141
20
-82.082
11
175.046
21
-82.1772
0
LINE
8
BLACK
6
CONTINUOUS
10
175.046
20
-82.1772
11
174.998
21
-82.2725
0
LINE
8
BLACK
6
CONTINUOUS
10
174.998
20
-82.2725
11
174.95
21
-82.463
0
LINE
8
BLACK
6
CONTINUOUS
10
174.95
20
-82.463
11
174.95
21
-82.6058
0
LINE
8
BLACK
6
CONTINUOUS
10
174.95
20
-82.6058
11
174.998
21
-82.7963
0
LINE
8
BLACK
6
CONTINUOUS
10
174.998
20
-82.7963
11
175.046
21
-82.8915
0
LINE
8
BLACK
6
CONTINUOUS
10
175.046
20
-82.8915
11
175.141
21
-82.9868
0
LINE
8
BLACK
6
CONTINUOUS
10
175.141
20
-82.9868
11
175.284
21
-83.0344
0
LINE
8
BLACK
6
CONTINUOUS
10
175.284
20
-83.0344
11
175.522
21
-83.0344
0
LINE
8
BLACK
6
CONTINUOUS
10
173.998
20
-83.0344
11
174.569
21
-83.0344
0
LINE
8
BLACK
6
CONTINUOUS
10
174.284
20
-83.0344
11
174.284
21
-82.0344
0
LINE
8
BLACK
6
CONTINUOUS
10
174.284
20
-82.0344
11
174.379
21
-82.1772
0
LINE
8
BLACK
6
CONTINUOUS
10
174.379
20
-82.1772
11
174.474
21
-82.2725
0
LINE
8
BLACK
6
CONTINUOUS
10
174.474
20
-82.2725
11
174.569
21
-82.3201
0
LINE
8
BLACK
6
CONTINUOUS
10
173.665
20
-82.0344
11
172.998
21
-82.0344
0
LINE
8
BLACK
6
CONTINUOUS
10
172.998
20
-82.0344
11
173.427
21
-83.0344
0
LINE
8
BLACK
6
CONTINUOUS
10
180.121
20
-63.2381
11
179.121
21
-63.2381
0
LINE
8
BLACK
6
CONTINUOUS
10
179.121
20
-63.2381
11
179.121
21
-63.4762
0
LINE
8
BLACK
6
CONTINUOUS
10
179.121
20
-63.4762
11
179.169
21
-63.619
0
LINE
8
BLACK
6
CONTINUOUS
10
179.169
20
-63.619
11
179.264
21
-63.7143
0
LINE
8
BLACK
6
CONTINUOUS
10
179.264
20
-63.7143
11
179.359
21
-63.7619
0
LINE
8
BLACK
6
CONTINUOUS
10
179.359
20
-63.7619
11
179.55
21
-63.8095
0
LINE
8
BLACK
6
CONTINUOUS
10
179.55
20
-63.8095
11
179.693
21
-63.8095
0
LINE
8
BLACK
6
CONTINUOUS
10
179.693
20
-63.8095
11
179.883
21
-63.7619
0
LINE
8
BLACK
6
CONTINUOUS
10
179.883
20
-63.7619
11
179.978
21
-63.7143
0
LINE
8
BLACK
6
CONTINUOUS
10
179.978
20
-63.7143
11
180.074
21
-63.619
0
LINE
8
BLACK
6
CONTINUOUS
10
180.074
20
-63.619
11
180.121
21
-63.4762
0
LINE
8
BLACK
6
CONTINUOUS
10
180.121
20
-63.4762
11
180.121
21
-63.2381
0
LINE
8
BLACK
6
CONTINUOUS
10
184.221
20
-62.2857
11
183.221
21
-62.2857
0
LINE
8
BLACK
6
CONTINUOUS
10
183.221
20
-62.2857
11
183.221
21
-62.5238
0
LINE
8
BLACK
6
CONTINUOUS
10
183.221
20
-62.5238
11
183.269
21
-62.6667
0
LINE
8
BLACK
6
CONTINUOUS
10
183.269
20
-62.6667
11
183.364
21
-62.7619
0
LINE
8
BLACK
6
CONTINUOUS
10
183.364
20
-62.7619
11
183.459
21
-62.8095
0
LINE
8
BLACK
6
CONTINUOUS
10
183.459
20
-62.8095
11
183.65
21
-62.8571
0
LINE
8
BLACK
6
CONTINUOUS
10
183.65
20
-62.8571
11
183.793
21
-62.8571
0
LINE
8
BLACK
6
CONTINUOUS
10
183.793
20
-62.8571
11
183.983
21
-62.8095
0
LINE
8
BLACK
6
CONTINUOUS
10
183.983
20
-62.8095
11
184.078
21
-62.7619
0
LINE
8
BLACK
6
CONTINUOUS
10
184.078
20
-62.7619
11
184.174
21
-62.6667
0
LINE
8
BLACK
6
CONTINUOUS
10
184.174
20
-62.6667
11
184.221
21
-62.5238
0
LINE
8
BLACK
6
CONTINUOUS
10
184.221
20
-62.5238
11
184.221
21
-62.2857
0
LINE
8
BLACK
6
CONTINUOUS
10
184.221
20
-63.8095
11
184.221
21
-63.2381
0
LINE
8
BLACK
6
CONTINUOUS
10
184.221
20
-63.5238
11
183.221
21
-63.5238
0
LINE
8
BLACK
6
CONTINUOUS
10
183.221
20
-63.5238
11
183.364
21
-63.4286
0
LINE
8
BLACK
6
CONTINUOUS
10
183.364
20
-63.4286
11
183.459
21
-63.3333
0
LINE
8
BLACK
6
CONTINUOUS
10
183.459
20
-63.3333
11
183.507
21
-63.2381
0
LINE
8
BLACK
6
CONTINUOUS
10
183.221
20
-64.6667
11
183.221
21
-64.4762
0
LINE
8
BLACK
6
CONTINUOUS
10
183.221
20
-64.4762
11
183.269
21
-64.381
0
LINE
8
BLACK
6
CONTINUOUS
10
183.269
20
-64.381
11
183.316
21
-64.3333
0
LINE
8
BLACK
6
CONTINUOUS
10
183.316
20
-64.3333
11
183.459
21
-64.2381
0
LINE
8
BLACK
6
CONTINUOUS
10
183.459
20
-64.2381
11
183.65
21
-64.1905
0
LINE
8
BLACK
6
CONTINUOUS
10
183.65
20
-64.1905
11
184.031
21
-64.1905
0
LINE
8
BLACK
6
CONTINUOUS
10
184.031
20
-64.1905
11
184.126
21
-64.2381
0
LINE
8
BLACK
6
CONTINUOUS
10
184.126
20
-64.2381
11
184.174
21
-64.2857
0
LINE
8
BLACK
6
CONTINUOUS
10
184.174
20
-64.2857
11
184.221
21
-64.381
0
LINE
8
BLACK
6
CONTINUOUS
10
184.221
20
-64.381
11
184.221
21
-64.5714
0
LINE
8
BLACK
6
CONTINUOUS
10
184.221
20
-64.5714
11
184.174
21
-64.6667
0
LINE
8
BLACK
6
CONTINUOUS
10
184.174
20
-64.6667
11
184.126
21
-64.7143
0
LINE
8
BLACK
6
CONTINUOUS
10
184.126
20
-64.7143
11
184.031
21
-64.7619
0
LINE
8
BLACK
6
CONTINUOUS
10
184.031
20
-64.7619
11
183.793
21
-64.7619
0
LINE
8
BLACK
6
CONTINUOUS
10
183.793
20
-64.7619
11
183.697
21
-64.7143
0
LINE
8
BLACK
6
CONTINUOUS
10
183.697
20
-64.7143
11
183.65
21
-64.6667
0
LINE
8
BLACK
6
CONTINUOUS
10
183.65
20
-64.6667
11
183.602
21
-64.5714
0
LINE
8
BLACK
6
CONTINUOUS
10
183.602
20
-64.5714
11
183.602
21
-64.381
0
LINE
8
BLACK
6
CONTINUOUS
10
183.602
20
-64.381
11
183.65
21
-64.2857
0
LINE
8
BLACK
6
CONTINUOUS
10
183.65
20
-64.2857
11
183.697
21
-64.2381
0
LINE
8
BLACK
6
CONTINUOUS
10
183.697
20
-64.2381
11
183.793
21
-64.1905
0
LINE
8
BLACK
6
CONTINUOUS
10
161.071
20
-139.438
11
160.071
21
-139.438
0
LINE
8
BLACK
6
CONTINUOUS
10
160.071
20
-139.438
11
160.071
21
-139.676
0
LINE
8
BLACK
6
CONTINUOUS
10
160.071
20
-139.676
11
160.119
21
-139.819
0
LINE
8
BLACK
6
CONTINUOUS
10
160.119
20
-139.819
11
160.214
21
-139.914
0
LINE
8
BLACK
6
CONTINUOUS
10
160.214
20
-139.914
11
160.309
21
-139.962
0
LINE
8
BLACK
6
CONTINUOUS
10
160.309
20
-139.962
11
160.5
21
-140.01
0
LINE
8
BLACK
6
CONTINUOUS
10
160.5
20
-140.01
11
160.643
21
-140.01
0
LINE
8
BLACK
6
CONTINUOUS
10
160.643
20
-140.01
11
160.833
21
-139.962
0
LINE
8
BLACK
6
CONTINUOUS
10
160.833
20
-139.962
11
160.928
21
-139.914
0
LINE
8
BLACK
6
CONTINUOUS
10
160.928
20
-139.914
11
161.024
21
-139.819
0
LINE
8
BLACK
6
CONTINUOUS
10
161.024
20
-139.819
11
161.071
21
-139.676
0
LINE
8
BLACK
6
CONTINUOUS
10
161.071
20
-139.676
11
161.071
21
-139.438
0
LINE
8
BLACK
6
CONTINUOUS
10
165.171
20
-138.486
11
164.171
21
-138.486
0
LINE
8
BLACK
6
CONTINUOUS
10
164.171
20
-138.486
11
164.171
21
-138.724
0
LINE
8
BLACK
6
CONTINUOUS
10
164.171
20
-138.724
11
164.219
21
-138.867
0
LINE
8
BLACK
6
CONTINUOUS
10
164.219
20
-138.867
11
164.314
21
-138.962
0
LINE
8
BLACK
6
CONTINUOUS
10
164.314
20
-138.962
11
164.409
21
-139.01
0
LINE
8
BLACK
6
CONTINUOUS
10
164.409
20
-139.01
11
164.6
21
-139.057
0
LINE
8
BLACK
6
CONTINUOUS
10
164.6
20
-139.057
11
164.743
21
-139.057
0
LINE
8
BLACK
6
CONTINUOUS
10
164.743
20
-139.057
11
164.933
21
-139.01
0
LINE
8
BLACK
6
CONTINUOUS
10
164.933
20
-139.01
11
165.028
21
-138.962
0
LINE
8
BLACK
6
CONTINUOUS
10
165.028
20
-138.962
11
165.124
21
-138.867
0
LINE
8
BLACK
6
CONTINUOUS
10
165.124
20
-138.867
11
165.171
21
-138.724
0
LINE
8
BLACK
6
CONTINUOUS
10
165.171
20
-138.724
11
165.171
21
-138.486
0
LINE
8
BLACK
6
CONTINUOUS
10
165.171
20
-140.01
11
165.171
21
-139.438
0
LINE
8
BLACK
6
CONTINUOUS
10
165.171
20
-139.724
11
164.171
21
-139.724
0
LINE
8
BLACK
6
CONTINUOUS
10
164.171
20
-139.724
11
164.314
21
-139.629
0
LINE
8
BLACK
6
CONTINUOUS
10
164.314
20
-139.629
11
164.409
21
-139.533
0
LINE
8
BLACK
6
CONTINUOUS
10
164.409
20
-139.533
11
164.457
21
-139.438
0
LINE
8
BLACK
6
CONTINUOUS
10
164.171
20
-140.914
11
164.171
21
-140.438
0
LINE
8
BLACK
6
CONTINUOUS
10
164.171
20
-140.438
11
164.647
21
-140.39
0
LINE
8
BLACK
6
CONTINUOUS
10
164.647
20
-140.39
11
164.6
21
-140.438
0
LINE
8
BLACK
6
CONTINUOUS
10
164.6
20
-140.438
11
164.552
21
-140.533
0
LINE
8
BLACK
6
CONTINUOUS
10
164.552
20
-140.533
11
164.552
21
-140.771
0
LINE
8
BLACK
6
CONTINUOUS
10
164.552
20
-140.771
11
164.6
21
-140.867
0
LINE
8
BLACK
6
CONTINUOUS
10
164.6
20
-140.867
11
164.647
21
-140.914
0
LINE
8
BLACK
6
CONTINUOUS
10
164.647
20
-140.914
11
164.743
21
-140.962
0
LINE
8
BLACK
6
CONTINUOUS
10
164.743
20
-140.962
11
164.981
21
-140.962
0
LINE
8
BLACK
6
CONTINUOUS
10
164.981
20
-140.962
11
165.076
21
-140.914
0
LINE
8
BLACK
6
CONTINUOUS
10
165.076
20
-140.914
11
165.124
21
-140.867
0
LINE
8
BLACK
6
CONTINUOUS
10
165.124
20
-140.867
11
165.171
21
-140.771
0
LINE
8
BLACK
6
CONTINUOUS
10
165.171
20
-140.771
11
165.171
21
-140.533
0
LINE
8
BLACK
6
CONTINUOUS
10
165.171
20
-140.533
11
165.124
21
-140.438
0
LINE
8
BLACK
6
CONTINUOUS
10
165.124
20
-140.438
11
165.076
21
-140.39
0
LINE
8
BLACK
6
CONTINUOUS
10
161.071
20
-120.388
11
160.071
21
-120.388
0
LINE
8
BLACK
6
CONTINUOUS
10
160.071
20
-120.388
11
160.071
21
-120.626
0
LINE
8
BLACK
6
CONTINUOUS
10
160.071
20
-120.626
11
160.119
21
-120.769
0
LINE
8
BLACK
6
CONTINUOUS
10
160.119
20
-120.769
11
160.214
21
-120.864
0
LINE
8
BLACK
6
CONTINUOUS
10
160.214
20
-120.864
11
160.309
21
-120.912
0
LINE
8
BLACK
6
CONTINUOUS
10
160.309
20
-120.912
11
160.5
21
-120.96
0
LINE
8
BLACK
6
CONTINUOUS
10
160.5
20
-120.96
11
160.643
21
-120.96
0
LINE
8
BLACK
6
CONTINUOUS
10
160.643
20
-120.96
11
160.833
21
-120.912
0
LINE
8
BLACK
6
CONTINUOUS
10
160.833
20
-120.912
11
160.928
21
-120.864
0
LINE
8
BLACK
6
CONTINUOUS
10
160.928
20
-120.864
11
161.024
21
-120.769
0
LINE
8
BLACK
6
CONTINUOUS
10
161.024
20
-120.769
11
161.071
21
-120.626
0
LINE
8
BLACK
6
CONTINUOUS
10
161.071
20
-120.626
11
161.071
21
-120.388
0
LINE
8
BLACK
6
CONTINUOUS
10
165.171
20
-119.436
11
164.171
21
-119.436
0
LINE
8
BLACK
6
CONTINUOUS
10
164.171
20
-119.436
11
164.171
21
-119.674
0
LINE
8
BLACK
6
CONTINUOUS
10
164.171
20
-119.674
11
164.219
21
-119.817
0
LINE
8
BLACK
6
CONTINUOUS
10
164.219
20
-119.817
11
164.314
21
-119.912
0
LINE
8
BLACK
6
CONTINUOUS
10
164.314
20
-119.912
11
164.409
21
-119.96
0
LINE
8
BLACK
6
CONTINUOUS
10
164.409
20
-119.96
11
164.6
21
-120.007
0
LINE
8
BLACK
6
CONTINUOUS
10
164.6
20
-120.007
11
164.743
21
-120.007
0
LINE
8
BLACK
6
CONTINUOUS
10
164.743
20
-120.007
11
164.933
21
-119.96
0
LINE
8
BLACK
6
CONTINUOUS
10
164.933
20
-119.96
11
165.028
21
-119.912
0
LINE
8
BLACK
6
CONTINUOUS
10
165.028
20
-119.912
11
165.124
21
-119.817
0
LINE
8
BLACK
6
CONTINUOUS
10
165.124
20
-119.817
11
165.171
21
-119.674
0
LINE
8
BLACK
6
CONTINUOUS
10
165.171
20
-119.674
11
165.171
21
-119.436
0
LINE
8
BLACK
6
CONTINUOUS
10
165.171
20
-120.96
11
165.171
21
-120.388
0
LINE
8
BLACK
6
CONTINUOUS
10
165.171
20
-120.674
11
164.171
21
-120.674
0
LINE
8
BLACK
6
CONTINUOUS
10
164.171
20
-120.674
11
164.314
21
-120.579
0
LINE
8
BLACK
6
CONTINUOUS
10
164.314
20
-120.579
11
164.409
21
-120.483
0
LINE
8
BLACK
6
CONTINUOUS
10
164.409
20
-120.483
11
164.457
21
-120.388
0
LINE
8
BLACK
6
CONTINUOUS
10
164.504
20
-121.817
11
165.171
21
-121.817
0
LINE
8
BLACK
6
CONTINUOUS
10
164.124
20
-121.579
11
164.838
21
-121.34
0
LINE
8
BLACK
6
CONTINUOUS
10
164.838
20
-121.34
11
164.838
21
-121.96
0
LINE
8
BLACK
6
CONTINUOUS
10
161.071
20
-101.338
11
160.071
21
-101.338
0
LINE
8
BLACK
6
CONTINUOUS
10
160.071
20
-101.338
11
160.071
21
-101.576
0
LINE
8
BLACK
6
CONTINUOUS
10
160.071
20
-101.576
11
160.119
21
-101.719
0
LINE
8
BLACK
6
CONTINUOUS
10
160.119
20
-101.719
11
160.214
21
-101.814
0
LINE
8
BLACK
6
CONTINUOUS
10
160.214
20
-101.814
11
160.309
21
-101.862
0
LINE
8
BLACK
6
CONTINUOUS
10
160.309
20
-101.862
11
160.5
21
-101.91
0
LINE
8
BLACK
6
CONTINUOUS
10
160.5
20
-101.91
11
160.643
21
-101.91
0
LINE
8
BLACK
6
CONTINUOUS
10
160.643
20
-101.91
11
160.833
21
-101.862
0
LINE
8
BLACK
6
CONTINUOUS
10
160.833
20
-101.862
11
160.928
21
-101.814
0
LINE
8
BLACK
6
CONTINUOUS
10
160.928
20
-101.814
11
161.024
21
-101.719
0
LINE
8
BLACK
6
CONTINUOUS
10
161.024
20
-101.719
11
161.071
21
-101.576
0
LINE
8
BLACK
6
CONTINUOUS
10
161.071
20
-101.576
11
161.071
21
-101.338
0
LINE
8
BLACK
6
CONTINUOUS
10
165.171
20
-100.386
11
164.171
21
-100.386
0
LINE
8
BLACK
6
CONTINUOUS
10
164.171
20
-100.386
11
164.171
21
-100.624
0
LINE
8
BLACK
6
CONTINUOUS
10
164.171
20
-100.624
11
164.219
21
-100.767
0
LINE
8
BLACK
6
CONTINUOUS
10
164.219
20
-100.767
11
164.314
21
-100.862
0
LINE
8
BLACK
6
CONTINUOUS
10
164.314
20
-100.862
11
164.409
21
-100.91
0
LINE
8
BLACK
6
CONTINUOUS
10
164.409
20
-100.91
11
164.6
21
-100.957
0
LINE
8
BLACK
6
CONTINUOUS
10
164.6
20
-100.957
11
164.743
21
-100.957
0
LINE
8
BLACK
6
CONTINUOUS
10
164.743
20
-100.957
11
164.933
21
-100.91
0
LINE
8
BLACK
6
CONTINUOUS
10
164.933
20
-100.91
11
165.028
21
-100.862
0
LINE
8
BLACK
6
CONTINUOUS
10
165.028
20
-100.862
11
165.124
21
-100.767
0
LINE
8
BLACK
6
CONTINUOUS
10
165.124
20
-100.767
11
165.171
21
-100.624
0
LINE
8
BLACK
6
CONTINUOUS
10
165.171
20
-100.624
11
165.171
21
-100.386
0
LINE
8
BLACK
6
CONTINUOUS
10
165.171
20
-101.91
11
165.171
21
-101.338
0
LINE
8
BLACK
6
CONTINUOUS
10
165.171
20
-101.624
11
164.171
21
-101.624
0
LINE
8
BLACK
6
CONTINUOUS
10
164.171
20
-101.624
11
164.314
21
-101.529
0
LINE
8
BLACK
6
CONTINUOUS
10
164.314
20
-101.529
11
164.409
21
-101.433
0
LINE
8
BLACK
6
CONTINUOUS
10
164.409
20
-101.433
11
164.457
21
-101.338
0
LINE
8
BLACK
6
CONTINUOUS
10
164.171
20
-102.243
11
164.171
21
-102.862
0
LINE
8
BLACK
6
CONTINUOUS
10
164.171
20
-102.862
11
164.552
21
-102.529
0
LINE
8
BLACK
6
CONTINUOUS
10
164.552
20
-102.529
11
164.552
21
-102.671
0
LINE
8
BLACK
6
CONTINUOUS
10
164.552
20
-102.671
11
164.6
21
-102.767
0
LINE
8
BLACK
6
CONTINUOUS
10
164.6
20
-102.767
11
164.647
21
-102.814
0
LINE
8
BLACK
6
CONTINUOUS
10
164.647
20
-102.814
11
164.743
21
-102.862
0
LINE
8
BLACK
6
CONTINUOUS
10
164.743
20
-102.862
11
164.981
21
-102.862
0
LINE
8
BLACK
6
CONTINUOUS
10
164.981
20
-102.862
11
165.076
21
-102.814
0
LINE
8
BLACK
6
CONTINUOUS
10
165.076
20
-102.814
11
165.124
21
-102.767
0
LINE
8
BLACK
6
CONTINUOUS
10
165.124
20
-102.767
11
165.171
21
-102.671
0
LINE
8
BLACK
6
CONTINUOUS
10
165.171
20
-102.671
11
165.171
21
-102.386
0
LINE
8
BLACK
6
CONTINUOUS
10
165.171
20
-102.386
11
165.124
21
-102.29
0
LINE
8
BLACK
6
CONTINUOUS
10
165.124
20
-102.29
11
165.076
21
-102.243
0
LINE
8
BLACK
6
CONTINUOUS
10
161.071
20
-82.2881
11
160.071
21
-82.2881
0
LINE
8
BLACK
6
CONTINUOUS
10
160.071
20
-82.2881
11
160.071
21
-82.5262
0
LINE
8
BLACK
6
CONTINUOUS
10
160.071
20
-82.5262
11
160.119
21
-82.669
0
LINE
8
BLACK
6
CONTINUOUS
10
160.119
20
-82.669
11
160.214
21
-82.7643
0
LINE
8
BLACK
6
CONTINUOUS
10
160.214
20
-82.7643
11
160.309
21
-82.8119
0
LINE
8
BLACK
6
CONTINUOUS
10
160.309
20
-82.8119
11
160.5
21
-82.8595
0
LINE
8
BLACK
6
CONTINUOUS
10
160.5
20
-82.8595
11
160.643
21
-82.8595
0
LINE
8
BLACK
6
CONTINUOUS
10
160.643
20
-82.8595
11
160.833
21
-82.8119
0
LINE
8
BLACK
6
CONTINUOUS
10
160.833
20
-82.8119
11
160.928
21
-82.7643
0
LINE
8
BLACK
6
CONTINUOUS
10
160.928
20
-82.7643
11
161.024
21
-82.669
0
LINE
8
BLACK
6
CONTINUOUS
10
161.024
20
-82.669
11
161.071
21
-82.5262
0
LINE
8
BLACK
6
CONTINUOUS
10
161.071
20
-82.5262
11
161.071
21
-82.2881
0
LINE
8
BLACK
6
CONTINUOUS
10
165.171
20
-81.3357
11
164.171
21
-81.3357
0
LINE
8
BLACK
6
CONTINUOUS
10
164.171
20
-81.3357
11
164.171
21
-81.5738
0
LINE
8
BLACK
6
CONTINUOUS
10
164.171
20
-81.5738
11
164.219
21
-81.7167
0
LINE
8
BLACK
6
CONTINUOUS
10
164.219
20
-81.7167
11
164.314
21
-81.8119
0
LINE
8
BLACK
6
CONTINUOUS
10
164.314
20
-81.8119
11
164.409
21
-81.8595
0
LINE
8
BLACK
6
CONTINUOUS
10
164.409
20
-81.8595
11
164.6
21
-81.9071
0
LINE
8
BLACK
6
CONTINUOUS
10
164.6
20
-81.9071
11
164.743
21
-81.9071
0
LINE
8
BLACK
6
CONTINUOUS
10
164.743
20
-81.9071
11
164.933
21
-81.8595
0
LINE
8
BLACK
6
CONTINUOUS
10
164.933
20
-81.8595
11
165.028
21
-81.8119
0
LINE
8
BLACK
6
CONTINUOUS
10
165.028
20
-81.8119
11
165.124
21
-81.7167
0
LINE
8
BLACK
6
CONTINUOUS
10
165.124
20
-81.7167
11
165.171
21
-81.5738
0
LINE
8
BLACK
6
CONTINUOUS
10
165.171
20
-81.5738
11
165.171
21
-81.3357
0
LINE
8
BLACK
6
CONTINUOUS
10
165.171
20
-82.8595
11
165.171
21
-82.2881
0
LINE
8
BLACK
6
CONTINUOUS
10
165.171
20
-82.5738
11
164.171
21
-82.5738
0
LINE
8
BLACK
6
CONTINUOUS
10
164.171
20
-82.5738
11
164.314
21
-82.4786
0
LINE
8
BLACK
6
CONTINUOUS
10
164.314
20
-82.4786
11
164.409
21
-82.3833
0
LINE
8
BLACK
6
CONTINUOUS
10
164.409
20
-82.3833
11
164.457
21
-82.2881
0
LINE
8
BLACK
6
CONTINUOUS
10
164.266
20
-83.2405
11
164.219
21
-83.2881
0
LINE
8
BLACK
6
CONTINUOUS
10
164.219
20
-83.2881
11
164.171
21
-83.3833
0
LINE
8
BLACK
6
CONTINUOUS
10
164.171
20
-83.3833
11
164.171
21
-83.6214
0
LINE
8
BLACK
6
CONTINUOUS
10
164.171
20
-83.6214
11
164.219
21
-83.7167
0
LINE
8
BLACK
6
CONTINUOUS
10
164.219
20
-83.7167
11
164.266
21
-83.7643
0
LINE
8
BLACK
6
CONTINUOUS
10
164.266
20
-83.7643
11
164.362
21
-83.8119
0
LINE
8
BLACK
6
CONTINUOUS
10
164.362
20
-83.8119
11
164.457
21
-83.8119
0
LINE
8
BLACK
6
CONTINUOUS
10
164.457
20
-83.8119
11
164.6
21
-83.7643
0
LINE
8
BLACK
6
CONTINUOUS
10
164.6
20
-83.7643
11
165.171
21
-83.1929
0
LINE
8
BLACK
6
CONTINUOUS
10
165.171
20
-83.1929
11
165.171
21
-83.8119
0
LINE
8
BLACK
6
CONTINUOUS
10
161.071
20
-63.2381
11
160.071
21
-63.2381
0
LINE
8
BLACK
6
CONTINUOUS
10
160.071
20
-63.2381
11
160.071
21
-63.4762
0
LINE
8
BLACK
6
CONTINUOUS
10
160.071
20
-63.4762
11
160.119
21
-63.619
0
LINE
8
BLACK
6
CONTINUOUS
10
160.119
20
-63.619
11
160.214
21
-63.7143
0
LINE
8
BLACK
6
CONTINUOUS
10
160.214
20
-63.7143
11
160.309
21
-63.7619
0
LINE
8
BLACK
6
CONTINUOUS
10
160.309
20
-63.7619
11
160.5
21
-63.8095
0
LINE
8
BLACK
6
CONTINUOUS
10
160.5
20
-63.8095
11
160.643
21
-63.8095
0
LINE
8
BLACK
6
CONTINUOUS
10
160.643
20
-63.8095
11
160.833
21
-63.7619
0
LINE
8
BLACK
6
CONTINUOUS
10
160.833
20
-63.7619
11
160.928
21
-63.7143
0
LINE
8
BLACK
6
CONTINUOUS
10
160.928
20
-63.7143
11
161.024
21
-63.619
0
LINE
8
BLACK
6
CONTINUOUS
10
161.024
20
-63.619
11
161.071
21
-63.4762
0
LINE
8
BLACK
6
CONTINUOUS
10
161.071
20
-63.4762
11
161.071
21
-63.2381
0
LINE
8
BLACK
6
CONTINUOUS
10
165.171
20
-62.2857
11
164.171
21
-62.2857
0
LINE
8
BLACK
6
CONTINUOUS
10
164.171
20
-62.2857
11
164.171
21
-62.5238
0
LINE
8
BLACK
6
CONTINUOUS
10
164.171
20
-62.5238
11
164.219
21
-62.6667
0
LINE
8
BLACK
6
CONTINUOUS
10
164.219
20
-62.6667
11
164.314
21
-62.7619
0
LINE
8
BLACK
6
CONTINUOUS
10
164.314
20
-62.7619
11
164.409
21
-62.8095
0
LINE
8
BLACK
6
CONTINUOUS
10
164.409
20
-62.8095
11
164.6
21
-62.8571
0
LINE
8
BLACK
6
CONTINUOUS
10
164.6
20
-62.8571
11
164.743
21
-62.8571
0
LINE
8
BLACK
6
CONTINUOUS
10
164.743
20
-62.8571
11
164.933
21
-62.8095
0
LINE
8
BLACK
6
CONTINUOUS
10
164.933
20
-62.8095
11
165.028
21
-62.7619
0
LINE
8
BLACK
6
CONTINUOUS
10
165.028
20
-62.7619
11
165.124
21
-62.6667
0
LINE
8
BLACK
6
CONTINUOUS
10
165.124
20
-62.6667
11
165.171
21
-62.5238
0
LINE
8
BLACK
6
CONTINUOUS
10
165.171
20
-62.5238
11
165.171
21
-62.2857
0
LINE
8
BLACK
6
CONTINUOUS
10
165.171
20
-63.8095
11
165.171
21
-63.2381
0
LINE
8
BLACK
6
CONTINUOUS
10
165.171
20
-63.5238
11
164.171
21
-63.5238
0
LINE
8
BLACK
6
CONTINUOUS
10
164.171
20
-63.5238
11
164.314
21
-63.4286
0
LINE
8
BLACK
6
CONTINUOUS
10
164.314
20
-63.4286
11
164.409
21
-63.3333
0
LINE
8
BLACK
6
CONTINUOUS
10
164.409
20
-63.3333
11
164.457
21
-63.2381
0
LINE
8
BLACK
6
CONTINUOUS
10
165.171
20
-64.7619
11
165.171
21
-64.1905
0
LINE
8
BLACK
6
CONTINUOUS
10
165.171
20
-64.4762
11
164.171
21
-64.4762
0
LINE
8
BLACK
6
CONTINUOUS
10
164.171
20
-64.4762
11
164.314
21
-64.381
0
LINE
8
BLACK
6
CONTINUOUS
10
164.314
20
-64.381
11
164.409
21
-64.2857
0
LINE
8
BLACK
6
CONTINUOUS
10
164.409
20
-64.2857
11
164.457
21
-64.1905
0
LINE
8
BLACK
6
CONTINUOUS
10
142.021
20
-120.388
11
141.021
21
-120.388
0
LINE
8
BLACK
6
CONTINUOUS
10
141.021
20
-120.388
11
141.021
21
-120.626
0
LINE
8
BLACK
6
CONTINUOUS
10
141.021
20
-120.626
11
141.069
21
-120.769
0
LINE
8
BLACK
6
CONTINUOUS
10
141.069
20
-120.769
11
141.164
21
-120.864
0
LINE
8
BLACK
6
CONTINUOUS
10
141.164
20
-120.864
11
141.259
21
-120.912
0
LINE
8
BLACK
6
CONTINUOUS
10
141.259
20
-120.912
11
141.45
21
-120.96
0
LINE
8
BLACK
6
CONTINUOUS
10
141.45
20
-120.96
11
141.593
21
-120.96
0
LINE
8
BLACK
6
CONTINUOUS
10
141.593
20
-120.96
11
141.783
21
-120.912
0
LINE
8
BLACK
6
CONTINUOUS
10
141.783
20
-120.912
11
141.878
21
-120.864
0
LINE
8
BLACK
6
CONTINUOUS
10
141.878
20
-120.864
11
141.974
21
-120.769
0
LINE
8
BLACK
6
CONTINUOUS
10
141.974
20
-120.769
11
142.021
21
-120.626
0
LINE
8
BLACK
6
CONTINUOUS
10
142.021
20
-120.626
11
142.021
21
-120.388
0
LINE
8
BLACK
6
CONTINUOUS
10
146.121
20
-119.912
11
145.121
21
-119.912
0
LINE
8
BLACK
6
CONTINUOUS
10
145.121
20
-119.912
11
145.121
21
-120.15
0
LINE
8
BLACK
6
CONTINUOUS
10
145.121
20
-120.15
11
145.169
21
-120.293
0
LINE
8
BLACK
6
CONTINUOUS
10
145.169
20
-120.293
11
145.264
21
-120.388
0
LINE
8
BLACK
6
CONTINUOUS
10
145.264
20
-120.388
11
145.359
21
-120.436
0
LINE
8
BLACK
6
CONTINUOUS
10
145.359
20
-120.436
11
145.55
21
-120.483
0
LINE
8
BLACK
6
CONTINUOUS
10
145.55
20
-120.483
11
145.693
21
-120.483
0
LINE
8
BLACK
6
CONTINUOUS
10
145.693
20
-120.483
11
145.883
21
-120.436
0
LINE
8
BLACK
6
CONTINUOUS
10
145.883
20
-120.436
11
145.978
21
-120.388
0
LINE
8
BLACK
6
CONTINUOUS
10
145.978
20
-120.388
11
146.074
21
-120.293
0
LINE
8
BLACK
6
CONTINUOUS
10
146.074
20
-120.293
11
146.121
21
-120.15
0
LINE
8
BLACK
6
CONTINUOUS
10
146.121
20
-120.15
11
146.121
21
-119.912
0
LINE
8
BLACK
6
CONTINUOUS
10
146.121
20
-120.96
11
146.121
21
-121.15
0
LINE
8
BLACK
6
CONTINUOUS
10
146.121
20
-121.15
11
146.074
21
-121.245
0
LINE
8
BLACK
6
CONTINUOUS
10
146.074
20
-121.245
11
146.026
21
-121.293
0
LINE
8
BLACK
6
CONTINUOUS
10
146.026
20
-121.293
11
145.883
21
-121.388
0
LINE
8
BLACK
6
CONTINUOUS
10
145.883
20
-121.388
11
145.693
21
-121.436
0
LINE
8
BLACK
6
CONTINUOUS
10
145.693
20
-121.436
11
145.312
21
-121.436
0
LINE
8
BLACK
6
CONTINUOUS
10
145.312
20
-121.436
11
145.216
21
-121.388
0
LINE
8
BLACK
6
CONTINUOUS
10
145.216
20
-121.388
11
145.169
21
-121.34
0
LINE
8
BLACK
6
CONTINUOUS
10
145.169
20
-121.34
11
145.121
21
-121.245
0
LINE
8
BLACK
6
CONTINUOUS
10
145.121
20
-121.245
11
145.121
21
-121.055
0
LINE
8
BLACK
6
CONTINUOUS
10
145.121
20
-121.055
11
145.169
21
-120.96
0
LINE
8
BLACK
6
CONTINUOUS
10
145.169
20
-120.96
11
145.216
21
-120.912
0
LINE
8
BLACK
6
CONTINUOUS
10
145.216
20
-120.912
11
145.312
21
-120.864
0
LINE
8
BLACK
6
CONTINUOUS
10
145.312
20
-120.864
11
145.55
21
-120.864
0
LINE
8
BLACK
6
CONTINUOUS
10
145.55
20
-120.864
11
145.645
21
-120.912
0
LINE
8
BLACK
6
CONTINUOUS
10
145.645
20
-120.912
11
145.693
21
-120.96
0
LINE
8
BLACK
6
CONTINUOUS
10
145.693
20
-120.96
11
145.74
21
-121.055
0
LINE
8
BLACK
6
CONTINUOUS
10
145.74
20
-121.055
11
145.74
21
-121.245
0
LINE
8
BLACK
6
CONTINUOUS
10
145.74
20
-121.245
11
145.693
21
-121.34
0
LINE
8
BLACK
6
CONTINUOUS
10
145.693
20
-121.34
11
145.645
21
-121.388
0
LINE
8
BLACK
6
CONTINUOUS
10
145.645
20
-121.388
11
145.55
21
-121.436
0
LINE
8
BLACK
6
CONTINUOUS
10
142.021
20
-101.338
11
141.021
21
-101.338
0
LINE
8
BLACK
6
CONTINUOUS
10
141.021
20
-101.338
11
141.021
21
-101.576
0
LINE
8
BLACK
6
CONTINUOUS
10
141.021
20
-101.576
11
141.069
21
-101.719
0
LINE
8
BLACK
6
CONTINUOUS
10
141.069
20
-101.719
11
141.164
21
-101.814
0
LINE
8
BLACK
6
CONTINUOUS
10
141.164
20
-101.814
11
141.259
21
-101.862
0
LINE
8
BLACK
6
CONTINUOUS
10
141.259
20
-101.862
11
141.45
21
-101.91
0
LINE
8
BLACK
6
CONTINUOUS
10
141.45
20
-101.91
11
141.593
21
-101.91
0
LINE
8
BLACK
6
CONTINUOUS
10
141.593
20
-101.91
11
141.783
21
-101.862
0
LINE
8
BLACK
6
CONTINUOUS
10
141.783
20
-101.862
11
141.878
21
-101.814
0
LINE
8
BLACK
6
CONTINUOUS
10
141.878
20
-101.814
11
141.974
21
-101.719
0
LINE
8
BLACK
6
CONTINUOUS
10
141.974
20
-101.719
11
142.021
21
-101.576
0
LINE
8
BLACK
6
CONTINUOUS
10
142.021
20
-101.576
11
142.021
21
-101.338
0
LINE
8
BLACK
6
CONTINUOUS
10
146.121
20
-100.862
11
145.121
21
-100.862
0
LINE
8
BLACK
6
CONTINUOUS
10
145.121
20
-100.862
11
145.121
21
-101.1
0
LINE
8
BLACK
6
CONTINUOUS
10
145.121
20
-101.1
11
145.169
21
-101.243
0
LINE
8
BLACK
6
CONTINUOUS
10
145.169
20
-101.243
11
145.264
21
-101.338
0
LINE
8
BLACK
6
CONTINUOUS
10
145.264
20
-101.338
11
145.359
21
-101.386
0
LINE
8
BLACK
6
CONTINUOUS
10
145.359
20
-101.386
11
145.55
21
-101.433
0
LINE
8
BLACK
6
CONTINUOUS
10
145.55
20
-101.433
11
145.693
21
-101.433
0
LINE
8
BLACK
6
CONTINUOUS
10
145.693
20
-101.433
11
145.883
21
-101.386
0
LINE
8
BLACK
6
CONTINUOUS
10
145.883
20
-101.386
11
145.978
21
-101.338
0
LINE
8
BLACK
6
CONTINUOUS
10
145.978
20
-101.338
11
146.074
21
-101.243
0
LINE
8
BLACK
6
CONTINUOUS
10
146.074
20
-101.243
11
146.121
21
-101.1
0
LINE
8
BLACK
6
CONTINUOUS
10
146.121
20
-101.1
11
146.121
21
-100.862
0
LINE
8
BLACK
6
CONTINUOUS
10
145.55
20
-102.005
11
145.502
21
-101.91
0
LINE
8
BLACK
6
CONTINUOUS
10
145.502
20
-101.91
11
145.454
21
-101.862
0
LINE
8
BLACK
6
CONTINUOUS
10
145.454
20
-101.862
11
145.359
21
-101.814
0
LINE
8
BLACK
6
CONTINUOUS
10
145.359
20
-101.814
11
145.312
21
-101.814
0
LINE
8
BLACK
6
CONTINUOUS
10
145.312
20
-101.814
11
145.216
21
-101.862
0
LINE
8
BLACK
6
CONTINUOUS
10
145.216
20
-101.862
11
145.169
21
-101.91
0
LINE
8
BLACK
6
CONTINUOUS
10
145.169
20
-101.91
11
145.121
21
-102.005
0
LINE
8
BLACK
6
CONTINUOUS
10
145.121
20
-102.005
11
145.121
21
-102.195
0
LINE
8
BLACK
6
CONTINUOUS
10
145.121
20
-102.195
11
145.169
21
-102.29
0
LINE
8
BLACK
6
CONTINUOUS
10
145.169
20
-102.29
11
145.216
21
-102.338
0
LINE
8
BLACK
6
CONTINUOUS
10
145.216
20
-102.338
11
145.312
21
-102.386
0
LINE
8
BLACK
6
CONTINUOUS
10
145.312
20
-102.386
11
145.359
21
-102.386
0
LINE
8
BLACK
6
CONTINUOUS
10
145.359
20
-102.386
11
145.454
21
-102.338
0
LINE
8
BLACK
6
CONTINUOUS
10
145.454
20
-102.338
11
145.502
21
-102.29
0
LINE
8
BLACK
6
CONTINUOUS
10
145.502
20
-102.29
11
145.55
21
-102.195
0
LINE
8
BLACK
6
CONTINUOUS
10
145.55
20
-102.195
11
145.55
21
-102.005
0
LINE
8
BLACK
6
CONTINUOUS
10
145.55
20
-102.005
11
145.597
21
-101.91
0
LINE
8
BLACK
6
CONTINUOUS
10
145.597
20
-101.91
11
145.645
21
-101.862
0
LINE
8
BLACK
6
CONTINUOUS
10
145.645
20
-101.862
11
145.74
21
-101.814
0
LINE
8
BLACK
6
CONTINUOUS
10
145.74
20
-101.814
11
145.931
21
-101.814
0
LINE
8
BLACK
6
CONTINUOUS
10
145.931
20
-101.814
11
146.026
21
-101.862
0
LINE
8
BLACK
6
CONTINUOUS
10
146.026
20
-101.862
11
146.074
21
-101.91
0
LINE
8
BLACK
6
CONTINUOUS
10
146.074
20
-101.91
11
146.121
21
-102.005
0
LINE
8
BLACK
6
CONTINUOUS
10
146.121
20
-102.005
11
146.121
21
-102.195
0
LINE
8
BLACK
6
CONTINUOUS
10
146.121
20
-102.195
11
146.074
21
-102.29
0
LINE
8
BLACK
6
CONTINUOUS
10
146.074
20
-102.29
11
146.026
21
-102.338
0
LINE
8
BLACK
6
CONTINUOUS
10
146.026
20
-102.338
11
145.931
21
-102.386
0
LINE
8
BLACK
6
CONTINUOUS
10
145.931
20
-102.386
11
145.74
21
-102.386
0
LINE
8
BLACK
6
CONTINUOUS
10
145.74
20
-102.386
11
145.645
21
-102.338
0
LINE
8
BLACK
6
CONTINUOUS
10
145.645
20
-102.338
11
145.597
21
-102.29
0
LINE
8
BLACK
6
CONTINUOUS
10
145.597
20
-102.29
11
145.55
21
-102.195
0
LINE
8
BLACK
6
CONTINUOUS
10
142.021
20
-82.2881
11
141.021
21
-82.2881
0
LINE
8
BLACK
6
CONTINUOUS
10
141.021
20
-82.2881
11
141.021
21
-82.5262
0
LINE
8
BLACK
6
CONTINUOUS
10
141.021
20
-82.5262
11
141.069
21
-82.669
0
LINE
8
BLACK
6
CONTINUOUS
10
141.069
20
-82.669
11
141.164
21
-82.7643
0
LINE
8
BLACK
6
CONTINUOUS
10
141.164
20
-82.7643
11
141.259
21
-82.8119
0
LINE
8
BLACK
6
CONTINUOUS
10
141.259
20
-82.8119
11
141.45
21
-82.8595
0
LINE
8
BLACK
6
CONTINUOUS
10
141.45
20
-82.8595
11
141.593
21
-82.8595
0
LINE
8
BLACK
6
CONTINUOUS
10
141.593
20
-82.8595
11
141.783
21
-82.8119
0
LINE
8
BLACK
6
CONTINUOUS
10
141.783
20
-82.8119
11
141.878
21
-82.7643
0
LINE
8
BLACK
6
CONTINUOUS
10
141.878
20
-82.7643
11
141.974
21
-82.669
0
LINE
8
BLACK
6
CONTINUOUS
10
141.974
20
-82.669
11
142.021
21
-82.5262
0
LINE
8
BLACK
6
CONTINUOUS
10
142.021
20
-82.5262
11
142.021
21
-82.2881
0
LINE
8
BLACK
6
CONTINUOUS
10
146.121
20
-81.8119
11
145.121
21
-81.8119
0
LINE
8
BLACK
6
CONTINUOUS
10
145.121
20
-81.8119
11
145.121
21
-82.05
0
LINE
8
BLACK
6
CONTINUOUS
10
145.121
20
-82.05
11
145.169
21
-82.1929
0
LINE
8
BLACK
6
CONTINUOUS
10
145.169
20
-82.1929
11
145.264
21
-82.2881
0
LINE
8
BLACK
6
CONTINUOUS
10
145.264
20
-82.2881
11
145.359
21
-82.3357
0
LINE
8
BLACK
6
CONTINUOUS
10
145.359
20
-82.3357
11
145.55
21
-82.3833
0
LINE
8
BLACK
6
CONTINUOUS
10
145.55
20
-82.3833
11
145.693
21
-82.3833
0
LINE
8
BLACK
6
CONTINUOUS
10
145.693
20
-82.3833
11
145.883
21
-82.3357
0
LINE
8
BLACK
6
CONTINUOUS
10
145.883
20
-82.3357
11
145.978
21
-82.2881
0
LINE
8
BLACK
6
CONTINUOUS
10
145.978
20
-82.2881
11
146.074
21
-82.1929
0
LINE
8
BLACK
6
CONTINUOUS
10
146.074
20
-82.1929
11
146.121
21
-82.05
0
LINE
8
BLACK
6
CONTINUOUS
10
146.121
20
-82.05
11
146.121
21
-81.8119
0
LINE
8
BLACK
6
CONTINUOUS
10
145.121
20
-82.7167
11
145.121
21
-83.3833
0
LINE
8
BLACK
6
CONTINUOUS
10
145.121
20
-83.3833
11
146.121
21
-82.9548
0
LINE
8
BLACK
6
CONTINUOUS
10
142.021
20
-63.2381
11
141.021
21
-63.2381
0
LINE
8
BLACK
6
CONTINUOUS
10
141.021
20
-63.2381
11
141.021
21
-63.4762
0
LINE
8
BLACK
6
CONTINUOUS
10
141.021
20
-63.4762
11
141.069
21
-63.619
0
LINE
8
BLACK
6
CONTINUOUS
10
141.069
20
-63.619
11
141.164
21
-63.7143
0
LINE
8
BLACK
6
CONTINUOUS
10
141.164
20
-63.7143
11
141.259
21
-63.7619
0
LINE
8
BLACK
6
CONTINUOUS
10
141.259
20
-63.7619
11
141.45
21
-63.8095
0
LINE
8
BLACK
6
CONTINUOUS
10
141.45
20
-63.8095
11
141.593
21
-63.8095
0
LINE
8
BLACK
6
CONTINUOUS
10
141.593
20
-63.8095
11
141.783
21
-63.7619
0
LINE
8
BLACK
6
CONTINUOUS
10
141.783
20
-63.7619
11
141.878
21
-63.7143
0
LINE
8
BLACK
6
CONTINUOUS
10
141.878
20
-63.7143
11
141.974
21
-63.619
0
LINE
8
BLACK
6
CONTINUOUS
10
141.974
20
-63.619
11
142.021
21
-63.4762
0
LINE
8
BLACK
6
CONTINUOUS
10
142.021
20
-63.4762
11
142.021
21
-63.2381
0
LINE
8
BLACK
6
CONTINUOUS
10
146.121
20
-62.7619
11
145.121
21
-62.7619
0
LINE
8
BLACK
6
CONTINUOUS
10
145.121
20
-62.7619
11
145.121
21
-63
0
LINE
8
BLACK
6
CONTINUOUS
10
145.121
20
-63
11
145.169
21
-63.1429
0
LINE
8
BLACK
6
CONTINUOUS
10
145.169
20
-63.1429
11
145.264
21
-63.2381
0
LINE
8
BLACK
6
CONTINUOUS
10
145.264
20
-63.2381
11
145.359
21
-63.2857
0
LINE
8
BLACK
6
CONTINUOUS
10
145.359
20
-63.2857
11
145.55
21
-63.3333
0
LINE
8
BLACK
6
CONTINUOUS
10
145.55
20
-63.3333
11
145.693
21
-63.3333
0
LINE
8
BLACK
6
CONTINUOUS
10
145.693
20
-63.3333
11
145.883
21
-63.2857
0
LINE
8
BLACK
6
CONTINUOUS
10
145.883
20
-63.2857
11
145.978
21
-63.2381
0
LINE
8
BLACK
6
CONTINUOUS
10
145.978
20
-63.2381
11
146.074
21
-63.1429
0
LINE
8
BLACK
6
CONTINUOUS
10
146.074
20
-63.1429
11
146.121
21
-63
0
LINE
8
BLACK
6
CONTINUOUS
10
146.121
20
-63
11
146.121
21
-62.7619
0
LINE
8
BLACK
6
CONTINUOUS
10
145.121
20
-64.1905
11
145.121
21
-64
0
LINE
8
BLACK
6
CONTINUOUS
10
145.121
20
-64
11
145.169
21
-63.9048
0
LINE
8
BLACK
6
CONTINUOUS
10
145.169
20
-63.9048
11
145.216
21
-63.8571
0
LINE
8
BLACK
6
CONTINUOUS
10
145.216
20
-63.8571
11
145.359
21
-63.7619
0
LINE
8
BLACK
6
CONTINUOUS
10
145.359
20
-63.7619
11
145.55
21
-63.7143
0
LINE
8
BLACK
6
CONTINUOUS
10
145.55
20
-63.7143
11
145.931
21
-63.7143
0
LINE
8
BLACK
6
CONTINUOUS
10
145.931
20
-63.7143
11
146.026
21
-63.7619
0
LINE
8
BLACK
6
CONTINUOUS
10
146.026
20
-63.7619
11
146.074
21
-63.8095
0
LINE
8
BLACK
6
CONTINUOUS
10
146.074
20
-63.8095
11
146.121
21
-63.9048
0
LINE
8
BLACK
6
CONTINUOUS
10
146.121
20
-63.9048
11
146.121
21
-64.0952
0
LINE
8
BLACK
6
CONTINUOUS
10
146.121
20
-64.0952
11
146.074
21
-64.1905
0
LINE
8
BLACK
6
CONTINUOUS
10
146.074
20
-64.1905
11
146.026
21
-64.2381
0
LINE
8
BLACK
6
CONTINUOUS
10
146.026
20
-64.2381
11
145.931
21
-64.2857
0
LINE
8
BLACK
6
CONTINUOUS
10
145.931
20
-64.2857
11
145.693
21
-64.2857
0
LINE
8
BLACK
6
CONTINUOUS
10
145.693
20
-64.2857
11
145.597
21
-64.2381
0
LINE
8
BLACK
6
CONTINUOUS
10
145.597
20
-64.2381
11
145.55
21
-64.1905
0
LINE
8
BLACK
6
CONTINUOUS
10
145.55
20
-64.1905
11
145.502
21
-64.0952
0
LINE
8
BLACK
6
CONTINUOUS
10
145.502
20
-64.0952
11
145.502
21
-63.9048
0
LINE
8
BLACK
6
CONTINUOUS
10
145.502
20
-63.9048
11
145.55
21
-63.8095
0
LINE
8
BLACK
6
CONTINUOUS
10
145.55
20
-63.8095
11
145.597
21
-63.7619
0
LINE
8
BLACK
6
CONTINUOUS
10
145.597
20
-63.7619
11
145.693
21
-63.7143
0
LINE
8
BLACK
6
CONTINUOUS
10
122.971
20
-139.438
11
121.971
21
-139.438
0
LINE
8
BLACK
6
CONTINUOUS
10
121.971
20
-139.438
11
121.971
21
-139.676
0
LINE
8
BLACK
6
CONTINUOUS
10
121.971
20
-139.676
11
122.019
21
-139.819
0
LINE
8
BLACK
6
CONTINUOUS
10
122.019
20
-139.819
11
122.114
21
-139.914
0
LINE
8
BLACK
6
CONTINUOUS
10
122.114
20
-139.914
11
122.209
21
-139.962
0
LINE
8
BLACK
6
CONTINUOUS
10
122.209
20
-139.962
11
122.4
21
-140.01
0
LINE
8
BLACK
6
CONTINUOUS
10
122.4
20
-140.01
11
122.543
21
-140.01
0
LINE
8
BLACK
6
CONTINUOUS
10
122.543
20
-140.01
11
122.733
21
-139.962
0
LINE
8
BLACK
6
CONTINUOUS
10
122.733
20
-139.962
11
122.828
21
-139.914
0
LINE
8
BLACK
6
CONTINUOUS
10
122.828
20
-139.914
11
122.924
21
-139.819
0
LINE
8
BLACK
6
CONTINUOUS
10
122.924
20
-139.819
11
122.971
21
-139.676
0
LINE
8
BLACK
6
CONTINUOUS
10
122.971
20
-139.676
11
122.971
21
-139.438
0
LINE
8
BLACK
6
CONTINUOUS
10
127.071
20
-138.962
11
126.071
21
-138.962
0
LINE
8
BLACK
6
CONTINUOUS
10
126.071
20
-138.962
11
126.071
21
-139.2
0
LINE
8
BLACK
6
CONTINUOUS
10
126.071
20
-139.2
11
126.119
21
-139.343
0
LINE
8
BLACK
6
CONTINUOUS
10
126.119
20
-139.343
11
126.214
21
-139.438
0
LINE
8
BLACK
6
CONTINUOUS
10
126.214
20
-139.438
11
126.309
21
-139.486
0
LINE
8
BLACK
6
CONTINUOUS
10
126.309
20
-139.486
11
126.5
21
-139.533
0
LINE
8
BLACK
6
CONTINUOUS
10
126.5
20
-139.533
11
126.643
21
-139.533
0
LINE
8
BLACK
6
CONTINUOUS
10
126.643
20
-139.533
11
126.833
21
-139.486
0
LINE
8
BLACK
6
CONTINUOUS
10
126.833
20
-139.486
11
126.928
21
-139.438
0
LINE
8
BLACK
6
CONTINUOUS
10
126.928
20
-139.438
11
127.024
21
-139.343
0
LINE
8
BLACK
6
CONTINUOUS
10
127.024
20
-139.343
11
127.071
21
-139.2
0
LINE
8
BLACK
6
CONTINUOUS
10
127.071
20
-139.2
11
127.071
21
-138.962
0
LINE
8
BLACK
6
CONTINUOUS
10
126.071
20
-140.438
11
126.071
21
-139.962
0
LINE
8
BLACK
6
CONTINUOUS
10
126.071
20
-139.962
11
126.547
21
-139.914
0
LINE
8
BLACK
6
CONTINUOUS
10
126.547
20
-139.914
11
126.5
21
-139.962
0
LINE
8
BLACK
6
CONTINUOUS
10
126.5
20
-139.962
11
126.452
21
-140.057
0
LINE
8
BLACK
6
CONTINUOUS
10
126.452
20
-140.057
11
126.452
21
-140.295
0
LINE
8
BLACK
6
CONTINUOUS
10
126.452
20
-140.295
11
126.5
21
-140.39
0
LINE
8
BLACK
6
CONTINUOUS
10
126.5
20
-140.39
11
126.547
21
-140.438
0
LINE
8
BLACK
6
CONTINUOUS
10
126.547
20
-140.438
11
126.643
21
-140.486
0
LINE
8
BLACK
6
CONTINUOUS
10
126.643
20
-140.486
11
126.881
21
-140.486
0
LINE
8
BLACK
6
CONTINUOUS
10
126.881
20
-140.486
11
126.976
21
-140.438
0
LINE
8
BLACK
6
CONTINUOUS
10
126.976
20
-140.438
11
127.024
21
-140.39
0
LINE
8
BLACK
6
CONTINUOUS
10
127.024
20
-140.39
11
127.071
21
-140.295
0
LINE
8
BLACK
6
CONTINUOUS
10
127.071
20
-140.295
11
127.071
21
-140.057
0
LINE
8
BLACK
6
CONTINUOUS
10
127.071
20
-140.057
11
127.024
21
-139.962
0
LINE
8
BLACK
6
CONTINUOUS
10
127.024
20
-139.962
11
126.976
21
-139.914
0
LINE
8
BLACK
6
CONTINUOUS
10
122.971
20
-120.388
11
121.971
21
-120.388
0
LINE
8
BLACK
6
CONTINUOUS
10
121.971
20
-120.388
11
121.971
21
-120.626
0
LINE
8
BLACK
6
CONTINUOUS
10
121.971
20
-120.626
11
122.019
21
-120.769
0
LINE
8
BLACK
6
CONTINUOUS
10
122.019
20
-120.769
11
122.114
21
-120.864
0
LINE
8
BLACK
6
CONTINUOUS
10
122.114
20
-120.864
11
122.209
21
-120.912
0
LINE
8
BLACK
6
CONTINUOUS
10
122.209
20
-120.912
11
122.4
21
-120.96
0
LINE
8
BLACK
6
CONTINUOUS
10
122.4
20
-120.96
11
122.543
21
-120.96
0
LINE
8
BLACK
6
CONTINUOUS
10
122.543
20
-120.96
11
122.733
21
-120.912
0
LINE
8
BLACK
6
CONTINUOUS
10
122.733
20
-120.912
11
122.828
21
-120.864
0
LINE
8
BLACK
6
CONTINUOUS
10
122.828
20
-120.864
11
122.924
21
-120.769
0
LINE
8
BLACK
6
CONTINUOUS
10
122.924
20
-120.769
11
122.971
21
-120.626
0
LINE
8
BLACK
6
CONTINUOUS
10
122.971
20
-120.626
11
122.971
21
-120.388
0
LINE
8
BLACK
6
CONTINUOUS
10
127.071
20
-119.912
11
126.071
21
-119.912
0
LINE
8
BLACK
6
CONTINUOUS
10
126.071
20
-119.912
11
126.071
21
-120.15
0
LINE
8
BLACK
6
CONTINUOUS
10
126.071
20
-120.15
11
126.119
21
-120.293
0
LINE
8
BLACK
6
CONTINUOUS
10
126.119
20
-120.293
11
126.214
21
-120.388
0
LINE
8
BLACK
6
CONTINUOUS
10
126.214
20
-120.388
11
126.309
21
-120.436
0
LINE
8
BLACK
6
CONTINUOUS
10
126.309
20
-120.436
11
126.5
21
-120.483
0
LINE
8
BLACK
6
CONTINUOUS
10
126.5
20
-120.483
11
126.643
21
-120.483
0
LINE
8
BLACK
6
CONTINUOUS
10
126.643
20
-120.483
11
126.833
21
-120.436
0
LINE
8
BLACK
6
CONTINUOUS
10
126.833
20
-120.436
11
126.928
21
-120.388
0
LINE
8
BLACK
6
CONTINUOUS
10
126.928
20
-120.388
11
127.024
21
-120.293
0
LINE
8
BLACK
6
CONTINUOUS
10
127.024
20
-120.293
11
127.071
21
-120.15
0
LINE
8
BLACK
6
CONTINUOUS
10
127.071
20
-120.15
11
127.071
21
-119.912
0
LINE
8
BLACK
6
CONTINUOUS
10
126.404
20
-121.34
11
127.071
21
-121.34
0
LINE
8
BLACK
6
CONTINUOUS
10
126.024
20
-121.102
11
126.738
21
-120.864
0
LINE
8
BLACK
6
CONTINUOUS
10
126.738
20
-120.864
11
126.738
21
-121.483
0
LINE
8
BLACK
6
CONTINUOUS
10
122.971
20
-101.338
11
121.971
21
-101.338
0
LINE
8
BLACK
6
CONTINUOUS
10
121.971
20
-101.338
11
121.971
21
-101.576
0
LINE
8
BLACK
6
CONTINUOUS
10
121.971
20
-101.576
11
122.019
21
-101.719
0
LINE
8
BLACK
6
CONTINUOUS
10
122.019
20
-101.719
11
122.114
21
-101.814
0
LINE
8
BLACK
6
CONTINUOUS
10
122.114
20
-101.814
11
122.209
21
-101.862
0
LINE
8
BLACK
6
CONTINUOUS
10
122.209
20
-101.862
11
122.4
21
-101.91
0
LINE
8
BLACK
6
CONTINUOUS
10
122.4
20
-101.91
11
122.543
21
-101.91
0
LINE
8
BLACK
6
CONTINUOUS
10
122.543
20
-101.91
11
122.733
21
-101.862
0
LINE
8
BLACK
6
CONTINUOUS
10
122.733
20
-101.862
11
122.828
21
-101.814
0
LINE
8
BLACK
6
CONTINUOUS
10
122.828
20
-101.814
11
122.924
21
-101.719
0
LINE
8
BLACK
6
CONTINUOUS
10
122.924
20
-101.719
11
122.971
21
-101.576
0
LINE
8
BLACK
6
CONTINUOUS
10
122.971
20
-101.576
11
122.971
21
-101.338
0
LINE
8
BLACK
6
CONTINUOUS
10
127.071
20
-100.862
11
126.071
21
-100.862
0
LINE
8
BLACK
6
CONTINUOUS
10
126.071
20
-100.862
11
126.071
21
-101.1
0
LINE
8
BLACK
6
CONTINUOUS
10
126.071
20
-101.1
11
126.119
21
-101.243
0
LINE
8
BLACK
6
CONTINUOUS
10
126.119
20
-101.243
11
126.214
21
-101.338
0
LINE
8
BLACK
6
CONTINUOUS
10
126.214
20
-101.338
11
126.309
21
-101.386
0
LINE
8
BLACK
6
CONTINUOUS
10
126.309
20
-101.386
11
126.5
21
-101.433
0
LINE
8
BLACK
6
CONTINUOUS
10
126.5
20
-101.433
11
126.643
21
-101.433
0
LINE
8
BLACK
6
CONTINUOUS
10
126.643
20
-101.433
11
126.833
21
-101.386
0
LINE
8
BLACK
6
CONTINUOUS
10
126.833
20
-101.386
11
126.928
21
-101.338
0
LINE
8
BLACK
6
CONTINUOUS
10
126.928
20
-101.338
11
127.024
21
-101.243
0
LINE
8
BLACK
6
CONTINUOUS
10
127.024
20
-101.243
11
127.071
21
-101.1
0
LINE
8
BLACK
6
CONTINUOUS
10
127.071
20
-101.1
11
127.071
21
-100.862
0
LINE
8
BLACK
6
CONTINUOUS
10
126.071
20
-101.767
11
126.071
21
-102.386
0
LINE
8
BLACK
6
CONTINUOUS
10
126.071
20
-102.386
11
126.452
21
-102.052
0
LINE
8
BLACK
6
CONTINUOUS
10
126.452
20
-102.052
11
126.452
21
-102.195
0
LINE
8
BLACK
6
CONTINUOUS
10
126.452
20
-102.195
11
126.5
21
-102.29
0
LINE
8
BLACK
6
CONTINUOUS
10
126.5
20
-102.29
11
126.547
21
-102.338
0
LINE
8
BLACK
6
CONTINUOUS
10
126.547
20
-102.338
11
126.643
21
-102.386
0
LINE
8
BLACK
6
CONTINUOUS
10
126.643
20
-102.386
11
126.881
21
-102.386
0
LINE
8
BLACK
6
CONTINUOUS
10
126.881
20
-102.386
11
126.976
21
-102.338
0
LINE
8
BLACK
6
CONTINUOUS
10
126.976
20
-102.338
11
127.024
21
-102.29
0
LINE
8
BLACK
6
CONTINUOUS
10
127.024
20
-102.29
11
127.071
21
-102.195
0
LINE
8
BLACK
6
CONTINUOUS
10
127.071
20
-102.195
11
127.071
21
-101.91
0
LINE
8
BLACK
6
CONTINUOUS
10
127.071
20
-101.91
11
127.024
21
-101.814
0
LINE
8
BLACK
6
CONTINUOUS
10
127.024
20
-101.814
11
126.976
21
-101.767
0
LINE
8
BLACK
6
CONTINUOUS
10
122.971
20
-82.2881
11
121.971
21
-82.2881
0
LINE
8
BLACK
6
CONTINUOUS
10
121.971
20
-82.2881
11
121.971
21
-82.5262
0
LINE
8
BLACK
6
CONTINUOUS
10
121.971
20
-82.5262
11
122.019
21
-82.669
0
LINE
8
BLACK
6
CONTINUOUS
10
122.019
20
-82.669
11
122.114
21
-82.7643
0
LINE
8
BLACK
6
CONTINUOUS
10
122.114
20
-82.7643
11
122.209
21
-82.8119
0
LINE
8
BLACK
6
CONTINUOUS
10
122.209
20
-82.8119
11
122.4
21
-82.8595
0
LINE
8
BLACK
6
CONTINUOUS
10
122.4
20
-82.8595
11
122.543
21
-82.8595
0
LINE
8
BLACK
6
CONTINUOUS
10
122.543
20
-82.8595
11
122.733
21
-82.8119
0
LINE
8
BLACK
6
CONTINUOUS
10
122.733
20
-82.8119
11
122.828
21
-82.7643
0
LINE
8
BLACK
6
CONTINUOUS
10
122.828
20
-82.7643
11
122.924
21
-82.669
0
LINE
8
BLACK
6
CONTINUOUS
10
122.924
20
-82.669
11
122.971
21
-82.5262
0
LINE
8
BLACK
6
CONTINUOUS
10
122.971
20
-82.5262
11
122.971
21
-82.2881
0
LINE
8
BLACK
6
CONTINUOUS
10
127.071
20
-81.8119
11
126.071
21
-81.8119
0
LINE
8
BLACK
6
CONTINUOUS
10
126.071
20
-81.8119
11
126.071
21
-82.05
0
LINE
8
BLACK
6
CONTINUOUS
10
126.071
20
-82.05
11
126.119
21
-82.1929
0
LINE
8
BLACK
6
CONTINUOUS
10
126.119
20
-82.1929
11
126.214
21
-82.2881
0
LINE
8
BLACK
6
CONTINUOUS
10
126.214
20
-82.2881
11
126.309
21
-82.3357
0
LINE
8
BLACK
6
CONTINUOUS
10
126.309
20
-82.3357
11
126.5
21
-82.3833
0
LINE
8
BLACK
6
CONTINUOUS
10
126.5
20
-82.3833
11
126.643
21
-82.3833
0
LINE
8
BLACK
6
CONTINUOUS
10
126.643
20
-82.3833
11
126.833
21
-82.3357
0
LINE
8
BLACK
6
CONTINUOUS
10
126.833
20
-82.3357
11
126.928
21
-82.2881
0
LINE
8
BLACK
6
CONTINUOUS
10
126.928
20
-82.2881
11
127.024
21
-82.1929
0
LINE
8
BLACK
6
CONTINUOUS
10
127.024
20
-82.1929
11
127.071
21
-82.05
0
LINE
8
BLACK
6
CONTINUOUS
10
127.071
20
-82.05
11
127.071
21
-81.8119
0
LINE
8
BLACK
6
CONTINUOUS
10
126.166
20
-82.7643
11
126.119
21
-82.8119
0
LINE
8
BLACK
6
CONTINUOUS
10
126.119
20
-82.8119
11
126.071
21
-82.9071
0
LINE
8
BLACK
6
CONTINUOUS
10
126.071
20
-82.9071
11
126.071
21
-83.1452
0
LINE
8
BLACK
6
CONTINUOUS
10
126.071
20
-83.1452
11
126.119
21
-83.2405
0
LINE
8
BLACK
6
CONTINUOUS
10
126.119
20
-83.2405
11
126.166
21
-83.2881
0
LINE
8
BLACK
6
CONTINUOUS
10
126.166
20
-83.2881
11
126.262
21
-83.3357
0
LINE
8
BLACK
6
CONTINUOUS
10
126.262
20
-83.3357
11
126.357
21
-83.3357
0
LINE
8
BLACK
6
CONTINUOUS
10
126.357
20
-83.3357
11
126.5
21
-83.2881
0
LINE
8
BLACK
6
CONTINUOUS
10
126.5
20
-83.2881
11
127.071
21
-82.7167
0
LINE
8
BLACK
6
CONTINUOUS
10
127.071
20
-82.7167
11
127.071
21
-83.3357
0
LINE
8
BLACK
6
CONTINUOUS
10
122.971
20
-63.2381
11
121.971
21
-63.2381
0
LINE
8
BLACK
6
CONTINUOUS
10
121.971
20
-63.2381
11
121.971
21
-63.4762
0
LINE
8
BLACK
6
CONTINUOUS
10
121.971
20
-63.4762
11
122.019
21
-63.619
0
LINE
8
BLACK
6
CONTINUOUS
10
122.019
20
-63.619
11
122.114
21
-63.7143
0
LINE
8
BLACK
6
CONTINUOUS
10
122.114
20
-63.7143
11
122.209
21
-63.7619
0
LINE
8
BLACK
6
CONTINUOUS
10
122.209
20
-63.7619
11
122.4
21
-63.8095
0
LINE
8
BLACK
6
CONTINUOUS
10
122.4
20
-63.8095
11
122.543
21
-63.8095
0
LINE
8
BLACK
6
CONTINUOUS
10
122.543
20
-63.8095
11
122.733
21
-63.7619
0
LINE
8
BLACK
6
CONTINUOUS
10
122.733
20
-63.7619
11
122.828
21
-63.7143
0
LINE
8
BLACK
6
CONTINUOUS
10
122.828
20
-63.7143
11
122.924
21
-63.619
0
LINE
8
BLACK
6
CONTINUOUS
10
122.924
20
-63.619
11
122.971
21
-63.4762
0
LINE
8
BLACK
6
CONTINUOUS
10
122.971
20
-63.4762
11
122.971
21
-63.2381
0
LINE
8
BLACK
6
CONTINUOUS
10
127.071
20
-62.7619
11
126.071
21
-62.7619
0
LINE
8
BLACK
6
CONTINUOUS
10
126.071
20
-62.7619
11
126.071
21
-63
0
LINE
8
BLACK
6
CONTINUOUS
10
126.071
20
-63
11
126.119
21
-63.1429
0
LINE
8
BLACK
6
CONTINUOUS
10
126.119
20
-63.1429
11
126.214
21
-63.2381
0
LINE
8
BLACK
6
CONTINUOUS
10
126.214
20
-63.2381
11
126.309
21
-63.2857
0
LINE
8
BLACK
6
CONTINUOUS
10
126.309
20
-63.2857
11
126.5
21
-63.3333
0
LINE
8
BLACK
6
CONTINUOUS
10
126.5
20
-63.3333
11
126.643
21
-63.3333
0
LINE
8
BLACK
6
CONTINUOUS
10
126.643
20
-63.3333
11
126.833
21
-63.2857
0
LINE
8
BLACK
6
CONTINUOUS
10
126.833
20
-63.2857
11
126.928
21
-63.2381
0
LINE
8
BLACK
6
CONTINUOUS
10
126.928
20
-63.2381
11
127.024
21
-63.1429
0
LINE
8
BLACK
6
CONTINUOUS
10
127.024
20
-63.1429
11
127.071
21
-63
0
LINE
8
BLACK
6
CONTINUOUS
10
127.071
20
-63
11
127.071
21
-62.7619
0
LINE
8
BLACK
6
CONTINUOUS
10
127.071
20
-64.2857
11
127.071
21
-63.7143
0
LINE
8
BLACK
6
CONTINUOUS
10
127.071
20
-64
11
126.071
21
-64
0
LINE
8
BLACK
6
CONTINUOUS
10
126.071
20
-64
11
126.214
21
-63.9048
0
LINE
8
BLACK
6
CONTINUOUS
10
126.214
20
-63.9048
11
126.309
21
-63.8095
0
LINE
8
BLACK
6
CONTINUOUS
10
126.309
20
-63.8095
11
126.357
21
-63.7143
  0
ENDSEC
  0
EOF
