  0
SECTION
  2
HEADER
  9
$ANGBASE
  50
0.0
  9
$ANGDIR
  70
1
  9
$MEASUREMENT
  70
1
  0
ENDSEC
  0
SECTION
  2
TABLES
  0
TABLE
  2
LTYPE
  70
4
  0
LTYPE
  5
40F
  2
CONTINUOUS
  70
0
  3
Solid line
  72
65
  73
0
  40
0.0
  0
LTYPE
  5
410
  2
DASHDOT
 70
0
  3
Dash Dot ____ _ ____ _
 72
65
 73
4
 40
2.0
 49
1.25
 49
-0.25
 49
0.25
 49
-0.25
  0
LTYPE
  5
411
  2
DASHED
 70
0
  3
Dashed __ __ __ __ __
 72
65
 73
2
 40
0.75
 49
0.5
 49
-0.25
  0
LTYPE
  5
43B
  2
DOTTED
 70
0
  3
Dotted .  .  .  .
 72
65
 73
2
 40
0.2
 49
0.0
 49
-0.2
  0
ENDTAB
  0
TABLE
  2
STYLE
  70
4
  0
STYLE
  2
KICAD
  70
0
  40
0
  41
1
  42
1
  50
0
  71
0
  3
isocp.shx
  0
STYLE
  2
KICADB
  70
0
  40
0
  41
1
  42
1
  50
0
  71
0
  3
isocp.shx
  0
STYLE
  2
KICADI
  70
0
  40
0
  41
1
  42
1
  50
15
  71
0
  3
isocp.shx
  0
STYLE
  2
KICADBI
  70
0
  40
0
  41
1
  42
1
  50
15
  71
0
  3
isocp.shx
  0
ENDTAB
  0
TABLE
  2
LAYER
  70
1
  0
LAYER
  2
BLACK
  70
0
  62
7
  6
CONTINUOUS
  0
ENDTAB
  0
ENDSEC
  0
SECTION
  2
ENTITIES
0
LINE
8
BLACK
6
CONTINUOUS
10
144.269
20
-141.8
11
143.069
21
-141.8
0
LINE
8
BLACK
6
CONTINUOUS
10
143.069
20
-141.8
11
143.069
21
-140.9
0
LINE
8
BLACK
6
CONTINUOUS
10
143.069
20
-140.9
11
144.269
21
-140.9
0
LINE
8
BLACK
6
CONTINUOUS
10
144.269
20
-140.9
11
144.269
21
-141.8
0
LINE
8
BLACK
6
CONTINUOUS
10
125.219
20
-141.8
11
124.019
21
-141.8
0
LINE
8
BLACK
6
CONTINUOUS
10
124.019
20
-141.8
11
124.019
21
-140.9
0
LINE
8
BLACK
6
CONTINUOUS
10
124.019
20
-140.9
11
125.219
21
-140.9
0
LINE
8
BLACK
6
CONTINUOUS
10
125.219
20
-140.9
11
125.219
21
-141.8
0
LINE
8
BLACK
6
CONTINUOUS
10
163.319
20
-141.8
11
162.119
21
-141.8
0
LINE
8
BLACK
6
CONTINUOUS
10
162.119
20
-141.8
11
162.119
21
-140.9
0
LINE
8
BLACK
6
CONTINUOUS
10
162.119
20
-140.9
11
163.319
21
-140.9
0
LINE
8
BLACK
6
CONTINUOUS
10
163.319
20
-140.9
11
163.319
21
-141.8
0
LINE
8
BLACK
6
CONTINUOUS
10
173.335
20
-138.535
11
170.835
21
-138.535
0
LINE
8
BLACK
6
CONTINUOUS
10
170.835
20
-138.535
11
170.835
21
-135.985
0
LINE
8
BLACK
6
CONTINUOUS
10
170.835
20
-135.985
11
173.335
21
-135.985
0
LINE
8
BLACK
6
CONTINUOUS
10
173.335
20
-135.985
11
173.335
21
-138.535
0
LINE
8
BLACK
6
CONTINUOUS
10
144.269
20
-138.5
11
143.069
21
-138.5
0
LINE
8
BLACK
6
CONTINUOUS
10
143.069
20
-138.5
11
143.069
21
-137.6
0
LINE
8
BLACK
6
CONTINUOUS
10
143.069
20
-137.6
11
144.269
21
-137.6
0
LINE
8
BLACK
6
CONTINUOUS
10
144.269
20
-137.6
11
144.269
21
-138.5
0
LINE
8
BLACK
6
CONTINUOUS
10
163.319
20
-138.5
11
162.119
21
-138.5
0
LINE
8
BLACK
6
CONTINUOUS
10
162.119
20
-138.5
11
162.119
21
-137.6
0
LINE
8
BLACK
6
CONTINUOUS
10
162.119
20
-137.6
11
163.319
21
-137.6
0
LINE
8
BLACK
6
CONTINUOUS
10
163.319
20
-137.6
11
163.319
21
-138.5
0
LINE
8
BLACK
6
CONTINUOUS
10
125.219
20
-138.5
11
124.019
21
-138.5
0
LINE
8
BLACK
6
CONTINUOUS
10
124.019
20
-138.5
11
124.019
21
-137.6
0
LINE
8
BLACK
6
CONTINUOUS
10
124.019
20
-137.6
11
125.219
21
-137.6
0
LINE
8
BLACK
6
CONTINUOUS
10
125.219
20
-137.6
11
125.219
21
-138.5
0
LINE
8
BLACK
6
CONTINUOUS
10
149.765
20
-138.41
11
147.215
21
-138.41
0
LINE
8
BLACK
6
CONTINUOUS
10
147.215
20
-138.41
11
147.215
21
-135.91
0
LINE
8
BLACK
6
CONTINUOUS
10
147.215
20
-135.91
11
149.765
21
-135.91
0
LINE
8
BLACK
6
CONTINUOUS
10
149.765
20
-135.91
11
149.765
21
-138.41
0
LINE
8
BLACK
6
CONTINUOUS
10
111.665
20
-138.41
11
109.115
21
-138.41
0
LINE
8
BLACK
6
CONTINUOUS
10
109.115
20
-138.41
11
109.115
21
-135.91
0
LINE
8
BLACK
6
CONTINUOUS
10
109.115
20
-135.91
11
111.665
21
-135.91
0
LINE
8
BLACK
6
CONTINUOUS
10
111.665
20
-135.91
11
111.665
21
-138.41
0
LINE
8
BLACK
6
CONTINUOUS
10
130.715
20
-138.41
11
128.165
21
-138.41
0
LINE
8
BLACK
6
CONTINUOUS
10
128.165
20
-138.41
11
128.165
21
-135.91
0
LINE
8
BLACK
6
CONTINUOUS
10
128.165
20
-135.91
11
130.715
21
-135.91
0
LINE
8
BLACK
6
CONTINUOUS
10
130.715
20
-135.91
11
130.715
21
-138.41
0
LINE
8
BLACK
6
CONTINUOUS
10
162.692
20
-135.87
11
160.142
21
-135.87
0
LINE
8
BLACK
6
CONTINUOUS
10
160.142
20
-135.87
11
160.142
21
-133.37
0
LINE
8
BLACK
6
CONTINUOUS
10
160.142
20
-133.37
11
162.692
21
-133.37
0
LINE
8
BLACK
6
CONTINUOUS
10
162.692
20
-133.37
11
162.692
21
-135.87
0
LINE
8
BLACK
6
CONTINUOUS
10
143.642
20
-135.87
11
141.092
21
-135.87
0
LINE
8
BLACK
6
CONTINUOUS
10
141.092
20
-135.87
11
141.092
21
-133.37
0
LINE
8
BLACK
6
CONTINUOUS
10
141.092
20
-133.37
11
143.642
21
-133.37
0
LINE
8
BLACK
6
CONTINUOUS
10
143.642
20
-133.37
11
143.642
21
-135.87
0
LINE
8
BLACK
6
CONTINUOUS
10
124.592
20
-135.87
11
122.042
21
-135.87
0
LINE
8
BLACK
6
CONTINUOUS
10
122.042
20
-135.87
11
122.042
21
-133.37
0
LINE
8
BLACK
6
CONTINUOUS
10
122.042
20
-133.37
11
124.592
21
-133.37
0
LINE
8
BLACK
6
CONTINUOUS
10
124.592
20
-133.37
11
124.592
21
-135.87
0
LINE
8
BLACK
6
CONTINUOUS
10
170.795
20
-125.608
11
168.295
21
-125.608
0
LINE
8
BLACK
6
CONTINUOUS
10
168.295
20
-125.608
11
168.295
21
-123.058
0
LINE
8
BLACK
6
CONTINUOUS
10
168.295
20
-123.058
11
170.795
21
-123.058
0
LINE
8
BLACK
6
CONTINUOUS
10
170.795
20
-123.058
11
170.795
21
-125.608
0
LINE
8
BLACK
6
CONTINUOUS
10
176.407
20
-123.282
11
175.507
21
-123.282
0
LINE
8
BLACK
6
CONTINUOUS
10
175.507
20
-123.282
11
175.507
21
-122.082
0
LINE
8
BLACK
6
CONTINUOUS
10
175.507
20
-122.082
11
176.407
21
-122.082
0
LINE
8
BLACK
6
CONTINUOUS
10
176.407
20
-122.082
11
176.407
21
-123.282
0
LINE
8
BLACK
6
CONTINUOUS
10
173.107
20
-123.282
11
172.207
21
-123.282
0
LINE
8
BLACK
6
CONTINUOUS
10
172.207
20
-123.282
11
172.207
21
-122.082
0
LINE
8
BLACK
6
CONTINUOUS
10
172.207
20
-122.082
11
173.107
21
-122.082
0
LINE
8
BLACK
6
CONTINUOUS
10
173.107
20
-122.082
11
173.107
21
-123.282
0
LINE
8
BLACK
6
CONTINUOUS
10
125.219
20
-122.75
11
124.019
21
-122.75
0
LINE
8
BLACK
6
CONTINUOUS
10
124.019
20
-122.75
11
124.019
21
-121.85
0
LINE
8
BLACK
6
CONTINUOUS
10
124.019
20
-121.85
11
125.219
21
-121.85
0
LINE
8
BLACK
6
CONTINUOUS
10
125.219
20
-121.85
11
125.219
21
-122.75
0
LINE
8
BLACK
6
CONTINUOUS
10
163.319
20
-122.75
11
162.119
21
-122.75
0
LINE
8
BLACK
6
CONTINUOUS
10
162.119
20
-122.75
11
162.119
21
-121.85
0
LINE
8
BLACK
6
CONTINUOUS
10
162.119
20
-121.85
11
163.319
21
-121.85
0
LINE
8
BLACK
6
CONTINUOUS
10
163.319
20
-121.85
11
163.319
21
-122.75
0
LINE
8
BLACK
6
CONTINUOUS
10
144.269
20
-122.75
11
143.069
21
-122.75
0
LINE
8
BLACK
6
CONTINUOUS
10
143.069
20
-122.75
11
143.069
21
-121.85
0
LINE
8
BLACK
6
CONTINUOUS
10
143.069
20
-121.85
11
144.269
21
-121.85
0
LINE
8
BLACK
6
CONTINUOUS
10
144.269
20
-121.85
11
144.269
21
-122.75
0
LINE
8
BLACK
6
CONTINUOUS
10
163.319
20
-119.45
11
162.119
21
-119.45
0
LINE
8
BLACK
6
CONTINUOUS
10
162.119
20
-119.45
11
162.119
21
-118.55
0
LINE
8
BLACK
6
CONTINUOUS
10
162.119
20
-118.55
11
163.319
21
-118.55
0
LINE
8
BLACK
6
CONTINUOUS
10
163.319
20
-118.55
11
163.319
21
-119.45
0
LINE
8
BLACK
6
CONTINUOUS
10
144.269
20
-119.45
11
143.069
21
-119.45
0
LINE
8
BLACK
6
CONTINUOUS
10
143.069
20
-119.45
11
143.069
21
-118.55
0
LINE
8
BLACK
6
CONTINUOUS
10
143.069
20
-118.55
11
144.269
21
-118.55
0
LINE
8
BLACK
6
CONTINUOUS
10
144.269
20
-118.55
11
144.269
21
-119.45
0
LINE
8
BLACK
6
CONTINUOUS
10
125.219
20
-119.45
11
124.019
21
-119.45
0
LINE
8
BLACK
6
CONTINUOUS
10
124.019
20
-119.45
11
124.019
21
-118.55
0
LINE
8
BLACK
6
CONTINUOUS
10
124.019
20
-118.55
11
125.219
21
-118.55
0
LINE
8
BLACK
6
CONTINUOUS
10
125.219
20
-118.55
11
125.219
21
-119.45
0
LINE
8
BLACK
6
CONTINUOUS
10
111.665
20
-119.36
11
109.115
21
-119.36
0
LINE
8
BLACK
6
CONTINUOUS
10
109.115
20
-119.36
11
109.115
21
-116.86
0
LINE
8
BLACK
6
CONTINUOUS
10
109.115
20
-116.86
11
111.665
21
-116.86
0
LINE
8
BLACK
6
CONTINUOUS
10
111.665
20
-116.86
11
111.665
21
-119.36
0
LINE
8
BLACK
6
CONTINUOUS
10
149.765
20
-119.36
11
147.215
21
-119.36
0
LINE
8
BLACK
6
CONTINUOUS
10
147.215
20
-119.36
11
147.215
21
-116.86
0
LINE
8
BLACK
6
CONTINUOUS
10
147.215
20
-116.86
11
149.765
21
-116.86
0
LINE
8
BLACK
6
CONTINUOUS
10
149.765
20
-116.86
11
149.765
21
-119.36
0
LINE
8
BLACK
6
CONTINUOUS
10
130.715
20
-119.36
11
128.165
21
-119.36
0
LINE
8
BLACK
6
CONTINUOUS
10
128.165
20
-119.36
11
128.165
21
-116.86
0
LINE
8
BLACK
6
CONTINUOUS
10
128.165
20
-116.86
11
130.715
21
-116.86
0
LINE
8
BLACK
6
CONTINUOUS
10
130.715
20
-116.86
11
130.715
21
-119.36
0
LINE
8
BLACK
6
CONTINUOUS
10
124.592
20
-116.82
11
122.042
21
-116.82
0
LINE
8
BLACK
6
CONTINUOUS
10
122.042
20
-116.82
11
122.042
21
-114.32
0
LINE
8
BLACK
6
CONTINUOUS
10
122.042
20
-114.32
11
124.592
21
-114.32
0
LINE
8
BLACK
6
CONTINUOUS
10
124.592
20
-114.32
11
124.592
21
-116.82
0
LINE
8
BLACK
6
CONTINUOUS
10
162.692
20
-116.82
11
160.142
21
-116.82
0
LINE
8
BLACK
6
CONTINUOUS
10
160.142
20
-116.82
11
160.142
21
-114.32
0
LINE
8
BLACK
6
CONTINUOUS
10
160.142
20
-114.32
11
162.692
21
-114.32
0
LINE
8
BLACK
6
CONTINUOUS
10
162.692
20
-114.32
11
162.692
21
-116.82
0
LINE
8
BLACK
6
CONTINUOUS
10
143.642
20
-116.82
11
141.092
21
-116.82
0
LINE
8
BLACK
6
CONTINUOUS
10
141.092
20
-116.82
11
141.092
21
-114.32
0
LINE
8
BLACK
6
CONTINUOUS
10
141.092
20
-114.32
11
143.642
21
-114.32
0
LINE
8
BLACK
6
CONTINUOUS
10
143.642
20
-114.32
11
143.642
21
-116.82
0
LINE
8
BLACK
6
CONTINUOUS
10
163.319
20
-103.7
11
162.119
21
-103.7
0
LINE
8
BLACK
6
CONTINUOUS
10
162.119
20
-103.7
11
162.119
21
-102.8
0
LINE
8
BLACK
6
CONTINUOUS
10
162.119
20
-102.8
11
163.319
21
-102.8
0
LINE
8
BLACK
6
CONTINUOUS
10
163.319
20
-102.8
11
163.319
21
-103.7
0
LINE
8
BLACK
6
CONTINUOUS
10
144.269
20
-103.7
11
143.069
21
-103.7
0
LINE
8
BLACK
6
CONTINUOUS
10
143.069
20
-103.7
11
143.069
21
-102.8
0
LINE
8
BLACK
6
CONTINUOUS
10
143.069
20
-102.8
11
144.269
21
-102.8
0
LINE
8
BLACK
6
CONTINUOUS
10
144.269
20
-102.8
11
144.269
21
-103.7
0
LINE
8
BLACK
6
CONTINUOUS
10
125.219
20
-103.7
11
124.019
21
-103.7
0
LINE
8
BLACK
6
CONTINUOUS
10
124.019
20
-103.7
11
124.019
21
-102.8
0
LINE
8
BLACK
6
CONTINUOUS
10
124.019
20
-102.8
11
125.219
21
-102.8
0
LINE
8
BLACK
6
CONTINUOUS
10
125.219
20
-102.8
11
125.219
21
-103.7
0
LINE
8
BLACK
6
CONTINUOUS
10
173.335
20
-100.435
11
170.835
21
-100.435
0
LINE
8
BLACK
6
CONTINUOUS
10
170.835
20
-100.435
11
170.835
21
-97.885
0
LINE
8
BLACK
6
CONTINUOUS
10
170.835
20
-97.885
11
173.335
21
-97.885
0
LINE
8
BLACK
6
CONTINUOUS
10
173.335
20
-97.885
11
173.335
21
-100.435
0
LINE
8
BLACK
6
CONTINUOUS
10
125.219
20
-100.4
11
124.019
21
-100.4
0
LINE
8
BLACK
6
CONTINUOUS
10
124.019
20
-100.4
11
124.019
21
-99.5
0
LINE
8
BLACK
6
CONTINUOUS
10
124.019
20
-99.5
11
125.219
21
-99.5
0
LINE
8
BLACK
6
CONTINUOUS
10
125.219
20
-99.5
11
125.219
21
-100.4
0
LINE
8
BLACK
6
CONTINUOUS
10
163.319
20
-100.4
11
162.119
21
-100.4
0
LINE
8
BLACK
6
CONTINUOUS
10
162.119
20
-100.4
11
162.119
21
-99.5
0
LINE
8
BLACK
6
CONTINUOUS
10
162.119
20
-99.5
11
163.319
21
-99.5
0
LINE
8
BLACK
6
CONTINUOUS
10
163.319
20
-99.5
11
163.319
21
-100.4
0
LINE
8
BLACK
6
CONTINUOUS
10
144.269
20
-100.4
11
143.069
21
-100.4
0
LINE
8
BLACK
6
CONTINUOUS
10
143.069
20
-100.4
11
143.069
21
-99.5
0
LINE
8
BLACK
6
CONTINUOUS
10
143.069
20
-99.5
11
144.269
21
-99.5
0
LINE
8
BLACK
6
CONTINUOUS
10
144.269
20
-99.5
11
144.269
21
-100.4
0
LINE
8
BLACK
6
CONTINUOUS
10
130.715
20
-100.31
11
128.165
21
-100.31
0
LINE
8
BLACK
6
CONTINUOUS
10
128.165
20
-100.31
11
128.165
21
-97.81
0
LINE
8
BLACK
6
CONTINUOUS
10
128.165
20
-97.81
11
130.715
21
-97.81
0
LINE
8
BLACK
6
CONTINUOUS
10
130.715
20
-97.81
11
130.715
21
-100.31
0
LINE
8
BLACK
6
CONTINUOUS
10
149.765
20
-100.31
11
147.215
21
-100.31
0
LINE
8
BLACK
6
CONTINUOUS
10
147.215
20
-100.31
11
147.215
21
-97.81
0
LINE
8
BLACK
6
CONTINUOUS
10
147.215
20
-97.81
11
149.765
21
-97.81
0
LINE
8
BLACK
6
CONTINUOUS
10
149.765
20
-97.81
11
149.765
21
-100.31
0
LINE
8
BLACK
6
CONTINUOUS
10
111.665
20
-100.31
11
109.115
21
-100.31
0
LINE
8
BLACK
6
CONTINUOUS
10
109.115
20
-100.31
11
109.115
21
-97.81
0
LINE
8
BLACK
6
CONTINUOUS
10
109.115
20
-97.81
11
111.665
21
-97.81
0
LINE
8
BLACK
6
CONTINUOUS
10
111.665
20
-97.81
11
111.665
21
-100.31
0
LINE
8
BLACK
6
CONTINUOUS
10
143.642
20
-97.77
11
141.092
21
-97.77
0
LINE
8
BLACK
6
CONTINUOUS
10
141.092
20
-97.77
11
141.092
21
-95.27
0
LINE
8
BLACK
6
CONTINUOUS
10
141.092
20
-95.27
11
143.642
21
-95.27
0
LINE
8
BLACK
6
CONTINUOUS
10
143.642
20
-95.27
11
143.642
21
-97.77
0
LINE
8
BLACK
6
CONTINUOUS
10
162.692
20
-97.77
11
160.142
21
-97.77
0
LINE
8
BLACK
6
CONTINUOUS
10
160.142
20
-97.77
11
160.142
21
-95.27
0
LINE
8
BLACK
6
CONTINUOUS
10
160.142
20
-95.27
11
162.692
21
-95.27
0
LINE
8
BLACK
6
CONTINUOUS
10
162.692
20
-95.27
11
162.692
21
-97.77
0
LINE
8
BLACK
6
CONTINUOUS
10
124.592
20
-97.77
11
122.042
21
-97.77
0
LINE
8
BLACK
6
CONTINUOUS
10
122.042
20
-97.77
11
122.042
21
-95.27
0
LINE
8
BLACK
6
CONTINUOUS
10
122.042
20
-95.27
11
124.592
21
-95.27
0
LINE
8
BLACK
6
CONTINUOUS
10
124.592
20
-95.27
11
124.592
21
-97.77
0
LINE
8
BLACK
6
CONTINUOUS
10
170.795
20
-87.508
11
168.295
21
-87.508
0
LINE
8
BLACK
6
CONTINUOUS
10
168.295
20
-87.508
11
168.295
21
-84.958
0
LINE
8
BLACK
6
CONTINUOUS
10
168.295
20
-84.958
11
170.795
21
-84.958
0
LINE
8
BLACK
6
CONTINUOUS
10
170.795
20
-84.958
11
170.795
21
-87.508
0
LINE
8
BLACK
6
CONTINUOUS
10
173.107
20
-85.182
11
172.207
21
-85.182
0
LINE
8
BLACK
6
CONTINUOUS
10
172.207
20
-85.182
11
172.207
21
-83.982
0
LINE
8
BLACK
6
CONTINUOUS
10
172.207
20
-83.982
11
173.107
21
-83.982
0
LINE
8
BLACK
6
CONTINUOUS
10
173.107
20
-83.982
11
173.107
21
-85.182
0
LINE
8
BLACK
6
CONTINUOUS
10
176.407
20
-85.182
11
175.507
21
-85.182
0
LINE
8
BLACK
6
CONTINUOUS
10
175.507
20
-85.182
11
175.507
21
-83.982
0
LINE
8
BLACK
6
CONTINUOUS
10
175.507
20
-83.982
11
176.407
21
-83.982
0
LINE
8
BLACK
6
CONTINUOUS
10
176.407
20
-83.982
11
176.407
21
-85.182
0
LINE
8
BLACK
6
CONTINUOUS
10
144.269
20
-84.65
11
143.069
21
-84.65
0
LINE
8
BLACK
6
CONTINUOUS
10
143.069
20
-84.65
11
143.069
21
-83.75
0
LINE
8
BLACK
6
CONTINUOUS
10
143.069
20
-83.75
11
144.269
21
-83.75
0
LINE
8
BLACK
6
CONTINUOUS
10
144.269
20
-83.75
11
144.269
21
-84.65
0
LINE
8
BLACK
6
CONTINUOUS
10
163.319
20
-84.65
11
162.119
21
-84.65
0
LINE
8
BLACK
6
CONTINUOUS
10
162.119
20
-84.65
11
162.119
21
-83.75
0
LINE
8
BLACK
6
CONTINUOUS
10
162.119
20
-83.75
11
163.319
21
-83.75
0
LINE
8
BLACK
6
CONTINUOUS
10
163.319
20
-83.75
11
163.319
21
-84.65
0
LINE
8
BLACK
6
CONTINUOUS
10
125.219
20
-84.65
11
124.019
21
-84.65
0
LINE
8
BLACK
6
CONTINUOUS
10
124.019
20
-84.65
11
124.019
21
-83.75
0
LINE
8
BLACK
6
CONTINUOUS
10
124.019
20
-83.75
11
125.219
21
-83.75
0
LINE
8
BLACK
6
CONTINUOUS
10
125.219
20
-83.75
11
125.219
21
-84.65
0
LINE
8
BLACK
6
CONTINUOUS
10
125.219
20
-81.35
11
124.019
21
-81.35
0
LINE
8
BLACK
6
CONTINUOUS
10
124.019
20
-81.35
11
124.019
21
-80.45
0
LINE
8
BLACK
6
CONTINUOUS
10
124.019
20
-80.45
11
125.219
21
-80.45
0
LINE
8
BLACK
6
CONTINUOUS
10
125.219
20
-80.45
11
125.219
21
-81.35
0
LINE
8
BLACK
6
CONTINUOUS
10
163.319
20
-81.35
11
162.119
21
-81.35
0
LINE
8
BLACK
6
CONTINUOUS
10
162.119
20
-81.35
11
162.119
21
-80.45
0
LINE
8
BLACK
6
CONTINUOUS
10
162.119
20
-80.45
11
163.319
21
-80.45
0
LINE
8
BLACK
6
CONTINUOUS
10
163.319
20
-80.45
11
163.319
21
-81.35
0
LINE
8
BLACK
6
CONTINUOUS
10
144.269
20
-81.35
11
143.069
21
-81.35
0
LINE
8
BLACK
6
CONTINUOUS
10
143.069
20
-81.35
11
143.069
21
-80.45
0
LINE
8
BLACK
6
CONTINUOUS
10
143.069
20
-80.45
11
144.269
21
-80.45
0
LINE
8
BLACK
6
CONTINUOUS
10
144.269
20
-80.45
11
144.269
21
-81.35
0
LINE
8
BLACK
6
CONTINUOUS
10
130.715
20
-81.26
11
128.165
21
-81.26
0
LINE
8
BLACK
6
CONTINUOUS
10
128.165
20
-81.26
11
128.165
21
-78.76
0
LINE
8
BLACK
6
CONTINUOUS
10
128.165
20
-78.76
11
130.715
21
-78.76
0
LINE
8
BLACK
6
CONTINUOUS
10
130.715
20
-78.76
11
130.715
21
-81.26
0
LINE
8
BLACK
6
CONTINUOUS
10
111.665
20
-81.26
11
109.115
21
-81.26
0
LINE
8
BLACK
6
CONTINUOUS
10
109.115
20
-81.26
11
109.115
21
-78.76
0
LINE
8
BLACK
6
CONTINUOUS
10
109.115
20
-78.76
11
111.665
21
-78.76
0
LINE
8
BLACK
6
CONTINUOUS
10
111.665
20
-78.76
11
111.665
21
-81.26
0
LINE
8
BLACK
6
CONTINUOUS
10
149.765
20
-81.26
11
147.215
21
-81.26
0
LINE
8
BLACK
6
CONTINUOUS
10
147.215
20
-81.26
11
147.215
21
-78.76
0
LINE
8
BLACK
6
CONTINUOUS
10
147.215
20
-78.76
11
149.765
21
-78.76
0
LINE
8
BLACK
6
CONTINUOUS
10
149.765
20
-78.76
11
149.765
21
-81.26
0
LINE
8
BLACK
6
CONTINUOUS
10
162.692
20
-78.72
11
160.142
21
-78.72
0
LINE
8
BLACK
6
CONTINUOUS
10
160.142
20
-78.72
11
160.142
21
-76.22
0
LINE
8
BLACK
6
CONTINUOUS
10
160.142
20
-76.22
11
162.692
21
-76.22
0
LINE
8
BLACK
6
CONTINUOUS
10
162.692
20
-76.22
11
162.692
21
-78.72
0
LINE
8
BLACK
6
CONTINUOUS
10
124.592
20
-78.72
11
122.042
21
-78.72
0
LINE
8
BLACK
6
CONTINUOUS
10
122.042
20
-78.72
11
122.042
21
-76.22
0
LINE
8
BLACK
6
CONTINUOUS
10
122.042
20
-76.22
11
124.592
21
-76.22
0
LINE
8
BLACK
6
CONTINUOUS
10
124.592
20
-76.22
11
124.592
21
-78.72
0
LINE
8
BLACK
6
CONTINUOUS
10
143.642
20
-78.72
11
141.092
21
-78.72
0
LINE
8
BLACK
6
CONTINUOUS
10
141.092
20
-78.72
11
141.092
21
-76.22
0
LINE
8
BLACK
6
CONTINUOUS
10
141.092
20
-76.22
11
143.642
21
-76.22
0
LINE
8
BLACK
6
CONTINUOUS
10
143.642
20
-76.22
11
143.642
21
-78.72
0
LINE
8
BLACK
6
CONTINUOUS
10
180.911
20
-74.282
11
179.211
21
-74.282
0
LINE
8
BLACK
6
CONTINUOUS
10
179.211
20
-74.282
11
179.211
21
-73.282
0
LINE
8
BLACK
6
CONTINUOUS
10
179.211
20
-73.282
11
180.911
21
-73.282
0
LINE
8
BLACK
6
CONTINUOUS
10
180.911
20
-73.282
11
180.911
21
-74.282
0
LINE
8
BLACK
6
CONTINUOUS
10
174.611
20
-74.282
11
172.911
21
-74.282
0
LINE
8
BLACK
6
CONTINUOUS
10
172.911
20
-74.282
11
172.911
21
-73.282
0
LINE
8
BLACK
6
CONTINUOUS
10
172.911
20
-73.282
11
174.611
21
-73.282
0
LINE
8
BLACK
6
CONTINUOUS
10
174.611
20
-73.282
11
174.611
21
-74.282
0
LINE
8
BLACK
6
CONTINUOUS
10
183.853
20
-71.4366
11
183.894
21
-71.4491
0
LINE
8
BLACK
6
CONTINUOUS
10
183.894
20
-71.4491
11
183.932
21
-71.4693
0
LINE
8
BLACK
6
CONTINUOUS
10
183.932
20
-71.4693
11
183.965
21
-71.4965
0
LINE
8
BLACK
6
CONTINUOUS
10
183.965
20
-71.4965
11
183.992
21
-71.5296
0
LINE
8
BLACK
6
CONTINUOUS
10
183.992
20
-71.5296
11
184.012
21
-71.5674
0
LINE
8
BLACK
6
CONTINUOUS
10
184.012
20
-71.5674
11
184.025
21
-71.6085
0
LINE
8
BLACK
6
CONTINUOUS
10
184.025
20
-71.6085
11
184.029
21
-71.6512
0
LINE
8
BLACK
6
CONTINUOUS
10
184.029
20
-71.6512
11
184.029
21
-72.1636
0
LINE
8
BLACK
6
CONTINUOUS
10
184.029
20
-72.1636
11
184.025
21
-72.2063
0
LINE
8
BLACK
6
CONTINUOUS
10
184.025
20
-72.2063
11
184.012
21
-72.2474
0
LINE
8
BLACK
6
CONTINUOUS
10
184.012
20
-72.2474
11
183.992
21
-72.2852
0
LINE
8
BLACK
6
CONTINUOUS
10
183.992
20
-72.2852
11
183.965
21
-72.3183
0
LINE
8
BLACK
6
CONTINUOUS
10
183.965
20
-72.3183
11
183.932
21
-72.3455
0
LINE
8
BLACK
6
CONTINUOUS
10
183.932
20
-72.3455
11
183.894
21
-72.3657
0
LINE
8
BLACK
6
CONTINUOUS
10
183.894
20
-72.3657
11
183.853
21
-72.3782
0
LINE
8
BLACK
6
CONTINUOUS
10
183.853
20
-72.3782
11
183.81
21
-72.3824
0
LINE
8
BLACK
6
CONTINUOUS
10
183.81
20
-72.3824
11
183.373
21
-72.3824
0
LINE
8
BLACK
6
CONTINUOUS
10
183.373
20
-72.3824
11
183.33
21
-72.3782
0
LINE
8
BLACK
6
CONTINUOUS
10
183.33
20
-72.3782
11
183.289
21
-72.3657
0
LINE
8
BLACK
6
CONTINUOUS
10
183.289
20
-72.3657
11
183.251
21
-72.3455
0
LINE
8
BLACK
6
CONTINUOUS
10
183.251
20
-72.3455
11
183.218
21
-72.3183
0
LINE
8
BLACK
6
CONTINUOUS
10
183.218
20
-72.3183
11
183.191
21
-72.2852
0
LINE
8
BLACK
6
CONTINUOUS
10
183.191
20
-72.2852
11
183.171
21
-72.2474
0
LINE
8
BLACK
6
CONTINUOUS
10
183.171
20
-72.2474
11
183.158
21
-72.2063
0
LINE
8
BLACK
6
CONTINUOUS
10
183.158
20
-72.2063
11
183.154
21
-72.1636
0
LINE
8
BLACK
6
CONTINUOUS
10
183.154
20
-72.1636
11
183.154
21
-71.6512
0
LINE
8
BLACK
6
CONTINUOUS
10
183.154
20
-71.6512
11
183.158
21
-71.6085
0
LINE
8
BLACK
6
CONTINUOUS
10
183.158
20
-71.6085
11
183.171
21
-71.5674
0
LINE
8
BLACK
6
CONTINUOUS
10
183.171
20
-71.5674
11
183.191
21
-71.5296
0
LINE
8
BLACK
6
CONTINUOUS
10
183.191
20
-71.5296
11
183.218
21
-71.4965
0
LINE
8
BLACK
6
CONTINUOUS
10
183.218
20
-71.4965
11
183.251
21
-71.4693
0
LINE
8
BLACK
6
CONTINUOUS
10
183.251
20
-71.4693
11
183.289
21
-71.4491
0
LINE
8
BLACK
6
CONTINUOUS
10
183.289
20
-71.4491
11
183.33
21
-71.4366
0
LINE
8
BLACK
6
CONTINUOUS
10
183.33
20
-71.4366
11
183.373
21
-71.4324
0
LINE
8
BLACK
6
CONTINUOUS
10
183.373
20
-71.4324
11
183.81
21
-71.4324
0
LINE
8
BLACK
6
CONTINUOUS
10
183.81
20
-71.4324
11
183.853
21
-71.4366
0
LINE
8
BLACK
6
CONTINUOUS
10
182.278
20
-71.4366
11
182.319
21
-71.4491
0
LINE
8
BLACK
6
CONTINUOUS
10
182.319
20
-71.4491
11
182.357
21
-71.4693
0
LINE
8
BLACK
6
CONTINUOUS
10
182.357
20
-71.4693
11
182.39
21
-71.4965
0
LINE
8
BLACK
6
CONTINUOUS
10
182.39
20
-71.4965
11
182.417
21
-71.5296
0
LINE
8
BLACK
6
CONTINUOUS
10
182.417
20
-71.5296
11
182.437
21
-71.5674
0
LINE
8
BLACK
6
CONTINUOUS
10
182.437
20
-71.5674
11
182.45
21
-71.6085
0
LINE
8
BLACK
6
CONTINUOUS
10
182.45
20
-71.6085
11
182.454
21
-71.6512
0
LINE
8
BLACK
6
CONTINUOUS
10
182.454
20
-71.6512
11
182.454
21
-72.1636
0
LINE
8
BLACK
6
CONTINUOUS
10
182.454
20
-72.1636
11
182.45
21
-72.2063
0
LINE
8
BLACK
6
CONTINUOUS
10
182.45
20
-72.2063
11
182.437
21
-72.2474
0
LINE
8
BLACK
6
CONTINUOUS
10
182.437
20
-72.2474
11
182.417
21
-72.2852
0
LINE
8
BLACK
6
CONTINUOUS
10
182.417
20
-72.2852
11
182.39
21
-72.3183
0
LINE
8
BLACK
6
CONTINUOUS
10
182.39
20
-72.3183
11
182.357
21
-72.3455
0
LINE
8
BLACK
6
CONTINUOUS
10
182.357
20
-72.3455
11
182.319
21
-72.3657
0
LINE
8
BLACK
6
CONTINUOUS
10
182.319
20
-72.3657
11
182.278
21
-72.3782
0
LINE
8
BLACK
6
CONTINUOUS
10
182.278
20
-72.3782
11
182.235
21
-72.3824
0
LINE
8
BLACK
6
CONTINUOUS
10
182.235
20
-72.3824
11
181.798
21
-72.3824
0
LINE
8
BLACK
6
CONTINUOUS
10
181.798
20
-72.3824
11
181.755
21
-72.3782
0
LINE
8
BLACK
6
CONTINUOUS
10
181.755
20
-72.3782
11
181.714
21
-72.3657
0
LINE
8
BLACK
6
CONTINUOUS
10
181.714
20
-72.3657
11
181.676
21
-72.3455
0
LINE
8
BLACK
6
CONTINUOUS
10
181.676
20
-72.3455
11
181.643
21
-72.3183
0
LINE
8
BLACK
6
CONTINUOUS
10
181.643
20
-72.3183
11
181.616
21
-72.2852
0
LINE
8
BLACK
6
CONTINUOUS
10
181.616
20
-72.2852
11
181.596
21
-72.2474
0
LINE
8
BLACK
6
CONTINUOUS
10
181.596
20
-72.2474
11
181.583
21
-72.2063
0
LINE
8
BLACK
6
CONTINUOUS
10
181.583
20
-72.2063
11
181.579
21
-72.1636
0
LINE
8
BLACK
6
CONTINUOUS
10
181.579
20
-72.1636
11
181.579
21
-71.6512
0
LINE
8
BLACK
6
CONTINUOUS
10
181.579
20
-71.6512
11
181.583
21
-71.6085
0
LINE
8
BLACK
6
CONTINUOUS
10
181.583
20
-71.6085
11
181.596
21
-71.5674
0
LINE
8
BLACK
6
CONTINUOUS
10
181.596
20
-71.5674
11
181.616
21
-71.5296
0
LINE
8
BLACK
6
CONTINUOUS
10
181.616
20
-71.5296
11
181.643
21
-71.4965
0
LINE
8
BLACK
6
CONTINUOUS
10
181.643
20
-71.4965
11
181.676
21
-71.4693
0
LINE
8
BLACK
6
CONTINUOUS
10
181.676
20
-71.4693
11
181.714
21
-71.4491
0
LINE
8
BLACK
6
CONTINUOUS
10
181.714
20
-71.4491
11
181.755
21
-71.4366
0
LINE
8
BLACK
6
CONTINUOUS
10
181.755
20
-71.4366
11
181.798
21
-71.4324
0
LINE
8
BLACK
6
CONTINUOUS
10
181.798
20
-71.4324
11
182.235
21
-71.4324
0
LINE
8
BLACK
6
CONTINUOUS
10
182.235
20
-71.4324
11
182.278
21
-71.4366
0
LINE
8
BLACK
6
CONTINUOUS
10
174.611
20
-70.482
11
172.911
21
-70.482
0
LINE
8
BLACK
6
CONTINUOUS
10
172.911
20
-70.482
11
172.911
21
-69.482
0
LINE
8
BLACK
6
CONTINUOUS
10
172.911
20
-69.482
11
174.611
21
-69.482
0
LINE
8
BLACK
6
CONTINUOUS
10
174.611
20
-69.482
11
174.611
21
-70.482
0
LINE
8
BLACK
6
CONTINUOUS
10
180.911
20
-70.482
11
179.211
21
-70.482
0
LINE
8
BLACK
6
CONTINUOUS
10
179.211
20
-70.482
11
179.211
21
-69.482
0
LINE
8
BLACK
6
CONTINUOUS
10
179.211
20
-69.482
11
180.911
21
-69.482
0
LINE
8
BLACK
6
CONTINUOUS
10
180.911
20
-69.482
11
180.911
21
-70.482
0
LINE
8
BLACK
6
CONTINUOUS
10
144.269
20
-65.6
11
143.069
21
-65.6
0
LINE
8
BLACK
6
CONTINUOUS
10
143.069
20
-65.6
11
143.069
21
-64.7
0
LINE
8
BLACK
6
CONTINUOUS
10
143.069
20
-64.7
11
144.269
21
-64.7
0
LINE
8
BLACK
6
CONTINUOUS
10
144.269
20
-64.7
11
144.269
21
-65.6
0
LINE
8
BLACK
6
CONTINUOUS
10
125.219
20
-65.6
11
124.019
21
-65.6
0
LINE
8
BLACK
6
CONTINUOUS
10
124.019
20
-65.6
11
124.019
21
-64.7
0
LINE
8
BLACK
6
CONTINUOUS
10
124.019
20
-64.7
11
125.219
21
-64.7
0
LINE
8
BLACK
6
CONTINUOUS
10
125.219
20
-64.7
11
125.219
21
-65.6
0
LINE
8
BLACK
6
CONTINUOUS
10
163.319
20
-65.6
11
162.119
21
-65.6
0
LINE
8
BLACK
6
CONTINUOUS
10
162.119
20
-65.6
11
162.119
21
-64.7
0
LINE
8
BLACK
6
CONTINUOUS
10
162.119
20
-64.7
11
163.319
21
-64.7
0
LINE
8
BLACK
6
CONTINUOUS
10
163.319
20
-64.7
11
163.319
21
-65.6
0
LINE
8
BLACK
6
CONTINUOUS
10
182.369
20
-65.6
11
181.169
21
-65.6
0
LINE
8
BLACK
6
CONTINUOUS
10
181.169
20
-65.6
11
181.169
21
-64.7
0
LINE
8
BLACK
6
CONTINUOUS
10
181.169
20
-64.7
11
182.369
21
-64.7
0
LINE
8
BLACK
6
CONTINUOUS
10
182.369
20
-64.7
11
182.369
21
-65.6
0
LINE
8
BLACK
6
CONTINUOUS
10
163.319
20
-62.3
11
162.119
21
-62.3
0
LINE
8
BLACK
6
CONTINUOUS
10
162.119
20
-62.3
11
162.119
21
-61.4
0
LINE
8
BLACK
6
CONTINUOUS
10
162.119
20
-61.4
11
163.319
21
-61.4
0
LINE
8
BLACK
6
CONTINUOUS
10
163.319
20
-61.4
11
163.319
21
-62.3
0
LINE
8
BLACK
6
CONTINUOUS
10
144.269
20
-62.3
11
143.069
21
-62.3
0
LINE
8
BLACK
6
CONTINUOUS
10
143.069
20
-62.3
11
143.069
21
-61.4
0
LINE
8
BLACK
6
CONTINUOUS
10
143.069
20
-61.4
11
144.269
21
-61.4
0
LINE
8
BLACK
6
CONTINUOUS
10
144.269
20
-61.4
11
144.269
21
-62.3
0
LINE
8
BLACK
6
CONTINUOUS
10
182.369
20
-62.3
11
181.169
21
-62.3
0
LINE
8
BLACK
6
CONTINUOUS
10
181.169
20
-62.3
11
181.169
21
-61.4
0
LINE
8
BLACK
6
CONTINUOUS
10
181.169
20
-61.4
11
182.369
21
-61.4
0
LINE
8
BLACK
6
CONTINUOUS
10
182.369
20
-61.4
11
182.369
21
-62.3
0
LINE
8
BLACK
6
CONTINUOUS
10
125.219
20
-62.3
11
124.019
21
-62.3
0
LINE
8
BLACK
6
CONTINUOUS
10
124.019
20
-62.3
11
124.019
21
-61.4
0
LINE
8
BLACK
6
CONTINUOUS
10
124.019
20
-61.4
11
125.219
21
-61.4
0
LINE
8
BLACK
6
CONTINUOUS
10
125.219
20
-61.4
11
125.219
21
-62.3
0
LINE
8
BLACK
6
CONTINUOUS
10
130.715
20
-62.21
11
128.165
21
-62.21
0
LINE
8
BLACK
6
CONTINUOUS
10
128.165
20
-62.21
11
128.165
21
-59.71
0
LINE
8
BLACK
6
CONTINUOUS
10
128.165
20
-59.71
11
130.715
21
-59.71
0
LINE
8
BLACK
6
CONTINUOUS
10
130.715
20
-59.71
11
130.715
21
-62.21
0
LINE
8
BLACK
6
CONTINUOUS
10
149.765
20
-62.21
11
147.215
21
-62.21
0
LINE
8
BLACK
6
CONTINUOUS
10
147.215
20
-62.21
11
147.215
21
-59.71
0
LINE
8
BLACK
6
CONTINUOUS
10
147.215
20
-59.71
11
149.765
21
-59.71
0
LINE
8
BLACK
6
CONTINUOUS
10
149.765
20
-59.71
11
149.765
21
-62.21
0
LINE
8
BLACK
6
CONTINUOUS
10
168.815
20
-62.21
11
166.265
21
-62.21
0
LINE
8
BLACK
6
CONTINUOUS
10
166.265
20
-62.21
11
166.265
21
-59.71
0
LINE
8
BLACK
6
CONTINUOUS
10
166.265
20
-59.71
11
168.815
21
-59.71
0
LINE
8
BLACK
6
CONTINUOUS
10
168.815
20
-59.71
11
168.815
21
-62.21
0
LINE
8
BLACK
6
CONTINUOUS
10
111.665
20
-62.21
11
109.115
21
-62.21
0
LINE
8
BLACK
6
CONTINUOUS
10
109.115
20
-62.21
11
109.115
21
-59.71
0
LINE
8
BLACK
6
CONTINUOUS
10
109.115
20
-59.71
11
111.665
21
-59.71
0
LINE
8
BLACK
6
CONTINUOUS
10
111.665
20
-59.71
11
111.665
21
-62.21
0
LINE
8
BLACK
6
CONTINUOUS
10
143.642
20
-59.67
11
141.092
21
-59.67
0
LINE
8
BLACK
6
CONTINUOUS
10
141.092
20
-59.67
11
141.092
21
-57.17
0
LINE
8
BLACK
6
CONTINUOUS
10
141.092
20
-57.17
11
143.642
21
-57.17
0
LINE
8
BLACK
6
CONTINUOUS
10
143.642
20
-57.17
11
143.642
21
-59.67
0
LINE
8
BLACK
6
CONTINUOUS
10
162.692
20
-59.67
11
160.142
21
-59.67
0
LINE
8
BLACK
6
CONTINUOUS
10
160.142
20
-59.67
11
160.142
21
-57.17
0
LINE
8
BLACK
6
CONTINUOUS
10
160.142
20
-57.17
11
162.692
21
-57.17
0
LINE
8
BLACK
6
CONTINUOUS
10
162.692
20
-57.17
11
162.692
21
-59.67
0
LINE
8
BLACK
6
CONTINUOUS
10
181.742
20
-59.67
11
179.192
21
-59.67
0
LINE
8
BLACK
6
CONTINUOUS
10
179.192
20
-59.67
11
179.192
21
-57.17
0
LINE
8
BLACK
6
CONTINUOUS
10
179.192
20
-57.17
11
181.742
21
-57.17
0
LINE
8
BLACK
6
CONTINUOUS
10
181.742
20
-57.17
11
181.742
21
-59.67
0
LINE
8
BLACK
6
CONTINUOUS
10
124.592
20
-59.67
11
122.042
21
-59.67
0
LINE
8
BLACK
6
CONTINUOUS
10
122.042
20
-59.67
11
122.042
21
-57.17
0
LINE
8
BLACK
6
CONTINUOUS
10
122.042
20
-57.17
11
124.592
21
-57.17
0
LINE
8
BLACK
6
CONTINUOUS
10
124.592
20
-57.17
11
124.592
21
-59.67
  0
ENDSEC
  0
EOF
