  0
SECTION
  2
HEADER
  9
$ANGBASE
  50
0.0
  9
$ANGDIR
  70
1
  9
$MEASUREMENT
  70
1
  0
ENDSEC
  0
SECTION
  2
TABLES
  0
TABLE
  2
LTYPE
  70
4
  0
LTYPE
  5
40F
  2
CONTINUOUS
  70
0
  3
Solid line
  72
65
  73
0
  40
0.0
  0
LTYPE
  5
410
  2
DASHDOT
 70
0
  3
Dash Dot ____ _ ____ _
 72
65
 73
4
 40
2.0
 49
1.25
 49
-0.25
 49
0.25
 49
-0.25
  0
LTYPE
  5
411
  2
DASHED
 70
0
  3
Dashed __ __ __ __ __
 72
65
 73
2
 40
0.75
 49
0.5
 49
-0.25
  0
LTYPE
  5
43B
  2
DOTTED
 70
0
  3
Dotted .  .  .  .
 72
65
 73
2
 40
0.2
 49
0.0
 49
-0.2
  0
ENDTAB
  0
TABLE
  2
STYLE
  70
4
  0
STYLE
  2
KICAD
  70
0
  40
0
  41
1
  42
1
  50
0
  71
0
  3
isocp.shx
  0
STYLE
  2
KICADB
  70
0
  40
0
  41
1
  42
1
  50
0
  71
0
  3
isocp.shx
  0
STYLE
  2
KICADI
  70
0
  40
0
  41
1
  42
1
  50
15
  71
0
  3
isocp.shx
  0
STYLE
  2
KICADBI
  70
0
  40
0
  41
1
  42
1
  50
15
  71
0
  3
isocp.shx
  0
ENDTAB
  0
TABLE
  2
LAYER
  70
1
  0
LAYER
  2
BLACK
  70
0
  62
7
  6
CONTINUOUS
  0
ENDTAB
  0
ENDSEC
  0
SECTION
  2
ENTITIES
0
CIRCLE
8
BLACK
10
176.911
20
-71.882
40
1.00125
0
LINE
8
BLACK
6
CONTINUOUS
10
173.109
20
-146.968
11
164.109
21
-146.968
0
LINE
8
BLACK
6
CONTINUOUS
10
164.109
20
-150.468
11
173.109
21
-150.468
0
LINE
8
BLACK
6
CONTINUOUS
10
164.109
20
-150.468
11
164.109
21
-146.968
0
LINE
8
BLACK
6
CONTINUOUS
10
173.109
20
-150.468
11
173.109
21
-146.968
0
LINE
8
BLACK
6
CONTINUOUS
10
170.359
20
-150.468
11
166.859
21
-150.468
0
LINE
8
BLACK
6
CONTINUOUS
10
166.859
20
-152.468
11
170.359
21
-152.468
0
LINE
8
BLACK
6
CONTINUOUS
10
166.859
20
-152.468
11
166.859
21
-150.468
0
LINE
8
BLACK
6
CONTINUOUS
10
168.859
20
-152.468
11
168.859
21
-150.468
0
LINE
8
BLACK
6
CONTINUOUS
10
170.359
20
-152.468
11
170.359
21
-150.468
0
LINE
8
BLACK
6
CONTINUOUS
10
170.259
20
-152.468
11
170.259
21
-150.468
0
LINE
8
BLACK
6
CONTINUOUS
10
170.159
20
-152.468
11
170.159
21
-150.468
0
LINE
8
BLACK
6
CONTINUOUS
10
170.059
20
-152.468
11
170.059
21
-150.468
0
LINE
8
BLACK
6
CONTINUOUS
10
169.959
20
-152.468
11
169.959
21
-150.468
0
LINE
8
BLACK
6
CONTINUOUS
10
169.859
20
-152.468
11
169.859
21
-150.468
0
LINE
8
BLACK
6
CONTINUOUS
10
169.759
20
-152.468
11
169.759
21
-150.468
0
LINE
8
BLACK
6
CONTINUOUS
10
169.659
20
-152.468
11
169.659
21
-150.468
0
LINE
8
BLACK
6
CONTINUOUS
10
169.559
20
-152.468
11
169.559
21
-150.468
0
LINE
8
BLACK
6
CONTINUOUS
10
169.459
20
-152.468
11
169.459
21
-150.468
0
LINE
8
BLACK
6
CONTINUOUS
10
169.359
20
-152.468
11
169.359
21
-150.468
0
LINE
8
BLACK
6
CONTINUOUS
10
169.259
20
-152.468
11
169.259
21
-150.468
0
LINE
8
BLACK
6
CONTINUOUS
10
169.159
20
-152.468
11
169.159
21
-150.468
0
LINE
8
BLACK
6
CONTINUOUS
10
169.059
20
-152.468
11
169.059
21
-150.468
0
LINE
8
BLACK
6
CONTINUOUS
10
168.959
20
-152.468
11
168.959
21
-150.468
0
LINE
8
BLACK
6
CONTINUOUS
10
170.359
20
-152.468
11
170.359
21
-153.468
0
LINE
8
BLACK
6
CONTINUOUS
10
170.359
20
-153.468
11
168.859
21
-153.468
0
LINE
8
BLACK
6
CONTINUOUS
10
168.859
20
-152.468
11
168.859
21
-153.468
0
LINE
8
BLACK
6
CONTINUOUS
10
168.859
20
-153.468
11
168.859
21
-154.468
0
LINE
8
BLACK
6
CONTINUOUS
10
170.359
20
-153.468
11
170.359
21
-154.468
0
LINE
8
BLACK
6
CONTINUOUS
10
170.359
20
-154.468
11
168.859
21
-154.468
0
LINE
8
BLACK
6
CONTINUOUS
10
165.1
20
-101.6
11
165.1
21
-82.55
0
LINE
8
BLACK
6
CONTINUOUS
10
184.15
20
-82.55
11
184.15
21
-101.6
0
LINE
8
BLACK
6
CONTINUOUS
10
168.625
20
-99.075
11
167.625
21
-99.075
0
LINE
8
BLACK
6
CONTINUOUS
10
167.625
20
-85.075
11
167.625
21
-86.075
0
LINE
8
BLACK
6
CONTINUOUS
10
180.625
20
-99.075
11
181.625
21
-99.075
0
LINE
8
BLACK
6
CONTINUOUS
10
181.625
20
-86.075
11
181.625
21
-85.075
0
LINE
8
BLACK
6
CONTINUOUS
10
181.625
20
-85.075
11
180.625
21
-85.075
0
LINE
8
BLACK
6
CONTINUOUS
10
167.625
20
-99.075
11
167.625
21
-98.075
0
LINE
8
BLACK
6
CONTINUOUS
10
167.625
20
-85.075
11
168.625
21
-85.075
0
LINE
8
BLACK
6
CONTINUOUS
10
181.625
20
-99.075
11
181.625
21
-98.075
0
LINE
8
BLACK
6
CONTINUOUS
10
165.1
20
-110.998
11
165.1
21
-73.152
0
LINE
8
BLACK
6
CONTINUOUS
10
184.15
20
-73.152
11
184.15
21
-110.998
0
LINE
8
BLACK
6
CONTINUOUS
10
165.1
20
-73.152
11
184.15
21
-73.152
0
LINE
8
BLACK
6
CONTINUOUS
10
184.15
20
-110.998
11
165.1
21
-110.998
0
LINE
8
BLACK
6
CONTINUOUS
10
110.475
20
-70.5
11
111.475
21
-70.5
0
LINE
8
BLACK
6
CONTINUOUS
10
124.475
20
-56.5
11
124.475
21
-57.5
0
LINE
8
BLACK
6
CONTINUOUS
10
110.475
20
-56.5
11
111.475
21
-56.5
0
LINE
8
BLACK
6
CONTINUOUS
10
124.475
20
-70.5
11
124.475
21
-69.5
0
LINE
8
BLACK
6
CONTINUOUS
10
123.475
20
-70.5
11
124.475
21
-70.5
0
LINE
8
BLACK
6
CONTINUOUS
10
110.475
20
-69.5
11
110.475
21
-70.5
0
LINE
8
BLACK
6
CONTINUOUS
10
124.475
20
-56.5
11
123.475
21
-56.5
0
LINE
8
BLACK
6
CONTINUOUS
10
110.475
20
-57.5
11
110.475
21
-56.5
0
LINE
8
BLACK
6
CONTINUOUS
10
107.95
20
-73.025
11
107.95
21
-53.975
0
LINE
8
BLACK
6
CONTINUOUS
10
127
20
-73.025
11
107.95
21
-73.025
0
LINE
8
BLACK
6
CONTINUOUS
10
127
20
-53.975
11
127
21
-73.025
0
LINE
8
BLACK
6
CONTINUOUS
10
107.95
20
-53.975
11
127
21
-53.975
0
LINE
8
BLACK
6
CONTINUOUS
10
110.475
20
-108.6
11
111.475
21
-108.6
0
LINE
8
BLACK
6
CONTINUOUS
10
124.475
20
-94.6
11
124.475
21
-95.6
0
LINE
8
BLACK
6
CONTINUOUS
10
110.475
20
-94.6
11
111.475
21
-94.6
0
LINE
8
BLACK
6
CONTINUOUS
10
124.475
20
-108.6
11
124.475
21
-107.6
0
LINE
8
BLACK
6
CONTINUOUS
10
123.475
20
-108.6
11
124.475
21
-108.6
0
LINE
8
BLACK
6
CONTINUOUS
10
110.475
20
-107.6
11
110.475
21
-108.6
0
LINE
8
BLACK
6
CONTINUOUS
10
124.475
20
-94.6
11
123.475
21
-94.6
0
LINE
8
BLACK
6
CONTINUOUS
10
110.475
20
-95.6
11
110.475
21
-94.6
0
LINE
8
BLACK
6
CONTINUOUS
10
107.95
20
-111.125
11
107.95
21
-92.075
0
LINE
8
BLACK
6
CONTINUOUS
10
127
20
-111.125
11
107.95
21
-111.125
0
LINE
8
BLACK
6
CONTINUOUS
10
127
20
-92.075
11
127
21
-111.125
0
LINE
8
BLACK
6
CONTINUOUS
10
107.95
20
-92.075
11
127
21
-92.075
0
LINE
8
BLACK
6
CONTINUOUS
10
110.475
20
-146.7
11
111.475
21
-146.7
0
LINE
8
BLACK
6
CONTINUOUS
10
124.475
20
-132.7
11
124.475
21
-133.7
0
LINE
8
BLACK
6
CONTINUOUS
10
110.475
20
-132.7
11
111.475
21
-132.7
0
LINE
8
BLACK
6
CONTINUOUS
10
124.475
20
-146.7
11
124.475
21
-145.7
0
LINE
8
BLACK
6
CONTINUOUS
10
123.475
20
-146.7
11
124.475
21
-146.7
0
LINE
8
BLACK
6
CONTINUOUS
10
110.475
20
-145.7
11
110.475
21
-146.7
0
LINE
8
BLACK
6
CONTINUOUS
10
124.475
20
-132.7
11
123.475
21
-132.7
0
LINE
8
BLACK
6
CONTINUOUS
10
110.475
20
-133.7
11
110.475
21
-132.7
0
LINE
8
BLACK
6
CONTINUOUS
10
107.95
20
-149.225
11
107.95
21
-130.175
0
LINE
8
BLACK
6
CONTINUOUS
10
127
20
-149.225
11
107.95
21
-149.225
0
LINE
8
BLACK
6
CONTINUOUS
10
127
20
-130.175
11
127
21
-149.225
0
LINE
8
BLACK
6
CONTINUOUS
10
107.95
20
-130.175
11
127
21
-130.175
0
LINE
8
BLACK
6
CONTINUOUS
10
129.525
20
-146.7
11
130.525
21
-146.7
0
LINE
8
BLACK
6
CONTINUOUS
10
143.525
20
-132.7
11
143.525
21
-133.7
0
LINE
8
BLACK
6
CONTINUOUS
10
129.525
20
-132.7
11
130.525
21
-132.7
0
LINE
8
BLACK
6
CONTINUOUS
10
143.525
20
-146.7
11
143.525
21
-145.7
0
LINE
8
BLACK
6
CONTINUOUS
10
142.525
20
-146.7
11
143.525
21
-146.7
0
LINE
8
BLACK
6
CONTINUOUS
10
129.525
20
-145.7
11
129.525
21
-146.7
0
LINE
8
BLACK
6
CONTINUOUS
10
143.525
20
-132.7
11
142.525
21
-132.7
0
LINE
8
BLACK
6
CONTINUOUS
10
129.525
20
-133.7
11
129.525
21
-132.7
0
LINE
8
BLACK
6
CONTINUOUS
10
127
20
-149.225
11
127
21
-130.175
0
LINE
8
BLACK
6
CONTINUOUS
10
146.05
20
-149.225
11
127
21
-149.225
0
LINE
8
BLACK
6
CONTINUOUS
10
146.05
20
-130.175
11
146.05
21
-149.225
0
LINE
8
BLACK
6
CONTINUOUS
10
127
20
-130.175
11
146.05
21
-130.175
0
LINE
8
BLACK
6
CONTINUOUS
10
110.475
20
-89.55
11
111.475
21
-89.55
0
LINE
8
BLACK
6
CONTINUOUS
10
124.475
20
-75.55
11
124.475
21
-76.55
0
LINE
8
BLACK
6
CONTINUOUS
10
110.475
20
-75.55
11
111.475
21
-75.55
0
LINE
8
BLACK
6
CONTINUOUS
10
124.475
20
-89.55
11
124.475
21
-88.55
0
LINE
8
BLACK
6
CONTINUOUS
10
123.475
20
-89.55
11
124.475
21
-89.55
0
LINE
8
BLACK
6
CONTINUOUS
10
110.475
20
-88.55
11
110.475
21
-89.55
0
LINE
8
BLACK
6
CONTINUOUS
10
124.475
20
-75.55
11
123.475
21
-75.55
0
LINE
8
BLACK
6
CONTINUOUS
10
110.475
20
-76.55
11
110.475
21
-75.55
0
LINE
8
BLACK
6
CONTINUOUS
10
107.95
20
-92.075
11
107.95
21
-73.025
0
LINE
8
BLACK
6
CONTINUOUS
10
127
20
-92.075
11
107.95
21
-92.075
0
LINE
8
BLACK
6
CONTINUOUS
10
127
20
-73.025
11
127
21
-92.075
0
LINE
8
BLACK
6
CONTINUOUS
10
107.95
20
-73.025
11
127
21
-73.025
0
LINE
8
BLACK
6
CONTINUOUS
10
165.1
20
-139.7
11
165.1
21
-120.65
0
LINE
8
BLACK
6
CONTINUOUS
10
184.15
20
-120.65
11
184.15
21
-139.7
0
LINE
8
BLACK
6
CONTINUOUS
10
168.625
20
-137.175
11
167.625
21
-137.175
0
LINE
8
BLACK
6
CONTINUOUS
10
167.625
20
-123.175
11
167.625
21
-124.175
0
LINE
8
BLACK
6
CONTINUOUS
10
180.625
20
-137.175
11
181.625
21
-137.175
0
LINE
8
BLACK
6
CONTINUOUS
10
181.625
20
-124.175
11
181.625
21
-123.175
0
LINE
8
BLACK
6
CONTINUOUS
10
181.625
20
-123.175
11
180.625
21
-123.175
0
LINE
8
BLACK
6
CONTINUOUS
10
167.625
20
-137.175
11
167.625
21
-136.175
0
LINE
8
BLACK
6
CONTINUOUS
10
167.625
20
-123.175
11
168.625
21
-123.175
0
LINE
8
BLACK
6
CONTINUOUS
10
181.625
20
-137.175
11
181.625
21
-136.175
0
LINE
8
BLACK
6
CONTINUOUS
10
165.1
20
-149.098
11
165.1
21
-111.252
0
LINE
8
BLACK
6
CONTINUOUS
10
184.15
20
-111.252
11
184.15
21
-149.098
0
LINE
8
BLACK
6
CONTINUOUS
10
165.1
20
-111.252
11
184.15
21
-111.252
0
LINE
8
BLACK
6
CONTINUOUS
10
184.15
20
-149.098
11
165.1
21
-149.098
0
LINE
8
BLACK
6
CONTINUOUS
10
167.625
20
-70.5
11
168.625
21
-70.5
0
LINE
8
BLACK
6
CONTINUOUS
10
181.625
20
-56.5
11
181.625
21
-57.5
0
LINE
8
BLACK
6
CONTINUOUS
10
167.625
20
-56.5
11
168.625
21
-56.5
0
LINE
8
BLACK
6
CONTINUOUS
10
181.625
20
-70.5
11
181.625
21
-69.5
0
LINE
8
BLACK
6
CONTINUOUS
10
180.625
20
-70.5
11
181.625
21
-70.5
0
LINE
8
BLACK
6
CONTINUOUS
10
167.625
20
-69.5
11
167.625
21
-70.5
0
LINE
8
BLACK
6
CONTINUOUS
10
181.625
20
-56.5
11
180.625
21
-56.5
0
LINE
8
BLACK
6
CONTINUOUS
10
167.625
20
-57.5
11
167.625
21
-56.5
0
LINE
8
BLACK
6
CONTINUOUS
10
165.1
20
-73.025
11
165.1
21
-53.975
0
LINE
8
BLACK
6
CONTINUOUS
10
184.15
20
-73.025
11
165.1
21
-73.025
0
LINE
8
BLACK
6
CONTINUOUS
10
184.15
20
-53.975
11
184.15
21
-73.025
0
LINE
8
BLACK
6
CONTINUOUS
10
165.1
20
-53.975
11
184.15
21
-53.975
0
LINE
8
BLACK
6
CONTINUOUS
10
148.575
20
-146.7
11
149.575
21
-146.7
0
LINE
8
BLACK
6
CONTINUOUS
10
162.575
20
-132.7
11
162.575
21
-133.7
0
LINE
8
BLACK
6
CONTINUOUS
10
148.575
20
-132.7
11
149.575
21
-132.7
0
LINE
8
BLACK
6
CONTINUOUS
10
162.575
20
-146.7
11
162.575
21
-145.7
0
LINE
8
BLACK
6
CONTINUOUS
10
161.575
20
-146.7
11
162.575
21
-146.7
0
LINE
8
BLACK
6
CONTINUOUS
10
148.575
20
-145.7
11
148.575
21
-146.7
0
LINE
8
BLACK
6
CONTINUOUS
10
162.575
20
-132.7
11
161.575
21
-132.7
0
LINE
8
BLACK
6
CONTINUOUS
10
148.575
20
-133.7
11
148.575
21
-132.7
0
LINE
8
BLACK
6
CONTINUOUS
10
146.05
20
-149.225
11
146.05
21
-130.175
0
LINE
8
BLACK
6
CONTINUOUS
10
165.1
20
-149.225
11
146.05
21
-149.225
0
LINE
8
BLACK
6
CONTINUOUS
10
165.1
20
-130.175
11
165.1
21
-149.225
0
LINE
8
BLACK
6
CONTINUOUS
10
146.05
20
-130.175
11
165.1
21
-130.175
0
LINE
8
BLACK
6
CONTINUOUS
10
148.575
20
-127.65
11
149.575
21
-127.65
0
LINE
8
BLACK
6
CONTINUOUS
10
162.575
20
-113.65
11
162.575
21
-114.65
0
LINE
8
BLACK
6
CONTINUOUS
10
148.575
20
-113.65
11
149.575
21
-113.65
0
LINE
8
BLACK
6
CONTINUOUS
10
162.575
20
-127.65
11
162.575
21
-126.65
0
LINE
8
BLACK
6
CONTINUOUS
10
161.575
20
-127.65
11
162.575
21
-127.65
0
LINE
8
BLACK
6
CONTINUOUS
10
148.575
20
-126.65
11
148.575
21
-127.65
0
LINE
8
BLACK
6
CONTINUOUS
10
162.575
20
-113.65
11
161.575
21
-113.65
0
LINE
8
BLACK
6
CONTINUOUS
10
148.575
20
-114.65
11
148.575
21
-113.65
0
LINE
8
BLACK
6
CONTINUOUS
10
146.05
20
-130.175
11
146.05
21
-111.125
0
LINE
8
BLACK
6
CONTINUOUS
10
165.1
20
-130.175
11
146.05
21
-130.175
0
LINE
8
BLACK
6
CONTINUOUS
10
165.1
20
-111.125
11
165.1
21
-130.175
0
LINE
8
BLACK
6
CONTINUOUS
10
146.05
20
-111.125
11
165.1
21
-111.125
0
LINE
8
BLACK
6
CONTINUOUS
10
148.575
20
-108.6
11
149.575
21
-108.6
0
LINE
8
BLACK
6
CONTINUOUS
10
162.575
20
-94.6
11
162.575
21
-95.6
0
LINE
8
BLACK
6
CONTINUOUS
10
148.575
20
-94.6
11
149.575
21
-94.6
0
LINE
8
BLACK
6
CONTINUOUS
10
162.575
20
-108.6
11
162.575
21
-107.6
0
LINE
8
BLACK
6
CONTINUOUS
10
161.575
20
-108.6
11
162.575
21
-108.6
0
LINE
8
BLACK
6
CONTINUOUS
10
148.575
20
-107.6
11
148.575
21
-108.6
0
LINE
8
BLACK
6
CONTINUOUS
10
162.575
20
-94.6
11
161.575
21
-94.6
0
LINE
8
BLACK
6
CONTINUOUS
10
148.575
20
-95.6
11
148.575
21
-94.6
0
LINE
8
BLACK
6
CONTINUOUS
10
146.05
20
-111.125
11
146.05
21
-92.075
0
LINE
8
BLACK
6
CONTINUOUS
10
165.1
20
-111.125
11
146.05
21
-111.125
0
LINE
8
BLACK
6
CONTINUOUS
10
165.1
20
-92.075
11
165.1
21
-111.125
0
LINE
8
BLACK
6
CONTINUOUS
10
146.05
20
-92.075
11
165.1
21
-92.075
0
LINE
8
BLACK
6
CONTINUOUS
10
148.575
20
-89.55
11
149.575
21
-89.55
0
LINE
8
BLACK
6
CONTINUOUS
10
162.575
20
-75.55
11
162.575
21
-76.55
0
LINE
8
BLACK
6
CONTINUOUS
10
148.575
20
-75.55
11
149.575
21
-75.55
0
LINE
8
BLACK
6
CONTINUOUS
10
162.575
20
-89.55
11
162.575
21
-88.55
0
LINE
8
BLACK
6
CONTINUOUS
10
161.575
20
-89.55
11
162.575
21
-89.55
0
LINE
8
BLACK
6
CONTINUOUS
10
148.575
20
-88.55
11
148.575
21
-89.55
0
LINE
8
BLACK
6
CONTINUOUS
10
162.575
20
-75.55
11
161.575
21
-75.55
0
LINE
8
BLACK
6
CONTINUOUS
10
148.575
20
-76.55
11
148.575
21
-75.55
0
LINE
8
BLACK
6
CONTINUOUS
10
146.05
20
-92.075
11
146.05
21
-73.025
0
LINE
8
BLACK
6
CONTINUOUS
10
165.1
20
-92.075
11
146.05
21
-92.075
0
LINE
8
BLACK
6
CONTINUOUS
10
165.1
20
-73.025
11
165.1
21
-92.075
0
LINE
8
BLACK
6
CONTINUOUS
10
146.05
20
-73.025
11
165.1
21
-73.025
0
LINE
8
BLACK
6
CONTINUOUS
10
148.575
20
-70.5
11
149.575
21
-70.5
0
LINE
8
BLACK
6
CONTINUOUS
10
162.575
20
-56.5
11
162.575
21
-57.5
0
LINE
8
BLACK
6
CONTINUOUS
10
148.575
20
-56.5
11
149.575
21
-56.5
0
LINE
8
BLACK
6
CONTINUOUS
10
162.575
20
-70.5
11
162.575
21
-69.5
0
LINE
8
BLACK
6
CONTINUOUS
10
161.575
20
-70.5
11
162.575
21
-70.5
0
LINE
8
BLACK
6
CONTINUOUS
10
148.575
20
-69.5
11
148.575
21
-70.5
0
LINE
8
BLACK
6
CONTINUOUS
10
162.575
20
-56.5
11
161.575
21
-56.5
0
LINE
8
BLACK
6
CONTINUOUS
10
148.575
20
-57.5
11
148.575
21
-56.5
0
LINE
8
BLACK
6
CONTINUOUS
10
146.05
20
-73.025
11
146.05
21
-53.975
0
LINE
8
BLACK
6
CONTINUOUS
10
165.1
20
-73.025
11
146.05
21
-73.025
0
LINE
8
BLACK
6
CONTINUOUS
10
165.1
20
-53.975
11
165.1
21
-73.025
0
LINE
8
BLACK
6
CONTINUOUS
10
146.05
20
-53.975
11
165.1
21
-53.975
0
LINE
8
BLACK
6
CONTINUOUS
10
129.525
20
-127.65
11
130.525
21
-127.65
0
LINE
8
BLACK
6
CONTINUOUS
10
143.525
20
-113.65
11
143.525
21
-114.65
0
LINE
8
BLACK
6
CONTINUOUS
10
129.525
20
-113.65
11
130.525
21
-113.65
0
LINE
8
BLACK
6
CONTINUOUS
10
143.525
20
-127.65
11
143.525
21
-126.65
0
LINE
8
BLACK
6
CONTINUOUS
10
142.525
20
-127.65
11
143.525
21
-127.65
0
LINE
8
BLACK
6
CONTINUOUS
10
129.525
20
-126.65
11
129.525
21
-127.65
0
LINE
8
BLACK
6
CONTINUOUS
10
143.525
20
-113.65
11
142.525
21
-113.65
0
LINE
8
BLACK
6
CONTINUOUS
10
129.525
20
-114.65
11
129.525
21
-113.65
0
LINE
8
BLACK
6
CONTINUOUS
10
127
20
-130.175
11
127
21
-111.125
0
LINE
8
BLACK
6
CONTINUOUS
10
146.05
20
-130.175
11
127
21
-130.175
0
LINE
8
BLACK
6
CONTINUOUS
10
146.05
20
-111.125
11
146.05
21
-130.175
0
LINE
8
BLACK
6
CONTINUOUS
10
127
20
-111.125
11
146.05
21
-111.125
0
LINE
8
BLACK
6
CONTINUOUS
10
129.525
20
-108.6
11
130.525
21
-108.6
0
LINE
8
BLACK
6
CONTINUOUS
10
143.525
20
-94.6
11
143.525
21
-95.6
0
LINE
8
BLACK
6
CONTINUOUS
10
129.525
20
-94.6
11
130.525
21
-94.6
0
LINE
8
BLACK
6
CONTINUOUS
10
143.525
20
-108.6
11
143.525
21
-107.6
0
LINE
8
BLACK
6
CONTINUOUS
10
142.525
20
-108.6
11
143.525
21
-108.6
0
LINE
8
BLACK
6
CONTINUOUS
10
129.525
20
-107.6
11
129.525
21
-108.6
0
LINE
8
BLACK
6
CONTINUOUS
10
143.525
20
-94.6
11
142.525
21
-94.6
0
LINE
8
BLACK
6
CONTINUOUS
10
129.525
20
-95.6
11
129.525
21
-94.6
0
LINE
8
BLACK
6
CONTINUOUS
10
127
20
-111.125
11
127
21
-92.075
0
LINE
8
BLACK
6
CONTINUOUS
10
146.05
20
-111.125
11
127
21
-111.125
0
LINE
8
BLACK
6
CONTINUOUS
10
146.05
20
-92.075
11
146.05
21
-111.125
0
LINE
8
BLACK
6
CONTINUOUS
10
127
20
-92.075
11
146.05
21
-92.075
0
LINE
8
BLACK
6
CONTINUOUS
10
129.525
20
-89.55
11
130.525
21
-89.55
0
LINE
8
BLACK
6
CONTINUOUS
10
143.525
20
-75.55
11
143.525
21
-76.55
0
LINE
8
BLACK
6
CONTINUOUS
10
129.525
20
-75.55
11
130.525
21
-75.55
0
LINE
8
BLACK
6
CONTINUOUS
10
143.525
20
-89.55
11
143.525
21
-88.55
0
LINE
8
BLACK
6
CONTINUOUS
10
142.525
20
-89.55
11
143.525
21
-89.55
0
LINE
8
BLACK
6
CONTINUOUS
10
129.525
20
-88.55
11
129.525
21
-89.55
0
LINE
8
BLACK
6
CONTINUOUS
10
143.525
20
-75.55
11
142.525
21
-75.55
0
LINE
8
BLACK
6
CONTINUOUS
10
129.525
20
-76.55
11
129.525
21
-75.55
0
LINE
8
BLACK
6
CONTINUOUS
10
127
20
-92.075
11
127
21
-73.025
0
LINE
8
BLACK
6
CONTINUOUS
10
146.05
20
-92.075
11
127
21
-92.075
0
LINE
8
BLACK
6
CONTINUOUS
10
146.05
20
-73.025
11
146.05
21
-92.075
0
LINE
8
BLACK
6
CONTINUOUS
10
127
20
-73.025
11
146.05
21
-73.025
0
LINE
8
BLACK
6
CONTINUOUS
10
129.525
20
-70.5
11
130.525
21
-70.5
0
LINE
8
BLACK
6
CONTINUOUS
10
143.525
20
-56.5
11
143.525
21
-57.5
0
LINE
8
BLACK
6
CONTINUOUS
10
129.525
20
-56.5
11
130.525
21
-56.5
0
LINE
8
BLACK
6
CONTINUOUS
10
143.525
20
-70.5
11
143.525
21
-69.5
0
LINE
8
BLACK
6
CONTINUOUS
10
142.525
20
-70.5
11
143.525
21
-70.5
0
LINE
8
BLACK
6
CONTINUOUS
10
129.525
20
-69.5
11
129.525
21
-70.5
0
LINE
8
BLACK
6
CONTINUOUS
10
143.525
20
-56.5
11
142.525
21
-56.5
0
LINE
8
BLACK
6
CONTINUOUS
10
129.525
20
-57.5
11
129.525
21
-56.5
0
LINE
8
BLACK
6
CONTINUOUS
10
127
20
-73.025
11
127
21
-53.975
0
LINE
8
BLACK
6
CONTINUOUS
10
146.05
20
-73.025
11
127
21
-73.025
0
LINE
8
BLACK
6
CONTINUOUS
10
146.05
20
-53.975
11
146.05
21
-73.025
0
LINE
8
BLACK
6
CONTINUOUS
10
127
20
-53.975
11
146.05
21
-53.975
0
LINE
8
BLACK
6
CONTINUOUS
10
110.475
20
-127.65
11
111.475
21
-127.65
0
LINE
8
BLACK
6
CONTINUOUS
10
124.475
20
-113.65
11
124.475
21
-114.65
0
LINE
8
BLACK
6
CONTINUOUS
10
110.475
20
-113.65
11
111.475
21
-113.65
0
LINE
8
BLACK
6
CONTINUOUS
10
124.475
20
-127.65
11
124.475
21
-126.65
0
LINE
8
BLACK
6
CONTINUOUS
10
123.475
20
-127.65
11
124.475
21
-127.65
0
LINE
8
BLACK
6
CONTINUOUS
10
110.475
20
-126.65
11
110.475
21
-127.65
0
LINE
8
BLACK
6
CONTINUOUS
10
124.475
20
-113.65
11
123.475
21
-113.65
0
LINE
8
BLACK
6
CONTINUOUS
10
110.475
20
-114.65
11
110.475
21
-113.65
0
LINE
8
BLACK
6
CONTINUOUS
10
107.95
20
-130.175
11
107.95
21
-111.125
0
LINE
8
BLACK
6
CONTINUOUS
10
127
20
-130.175
11
107.95
21
-130.175
0
LINE
8
BLACK
6
CONTINUOUS
10
127
20
-111.125
11
127
21
-130.175
0
LINE
8
BLACK
6
CONTINUOUS
10
107.95
20
-111.125
11
127
21
-111.125
0
LINE
8
BLACK
6
CONTINUOUS
10
188.163
20
-46.784
11
183.083
21
-46.784
0
LINE
8
BLACK
6
CONTINUOUS
10
188.163
20
-39.418
11
188.163
21
-46.784
0
LINE
8
BLACK
6
CONTINUOUS
10
183.083
20
-39.418
11
188.163
21
-39.418
0
LINE
8
BLACK
6
CONTINUOUS
10
183.083
20
-46.784
11
183.083
21
-39.418
  0
ENDSEC
  0
EOF
