  0
SECTION
  2
HEADER
  9
$ANGBASE
  50
0.0
  9
$ANGDIR
  70
1
  9
$MEASUREMENT
  70
1
  0
ENDSEC
  0
SECTION
  2
TABLES
  0
TABLE
  2
LTYPE
  70
4
  0
LTYPE
  5
40F
  2
CONTINUOUS
  70
0
  3
Solid line
  72
65
  73
0
  40
0.0
  0
LTYPE
  5
410
  2
DASHDOT
 70
0
  3
Dash Dot ____ _ ____ _
 72
65
 73
4
 40
2.0
 49
1.25
 49
-0.25
 49
0.25
 49
-0.25
  0
LTYPE
  5
411
  2
DASHED
 70
0
  3
Dashed __ __ __ __ __
 72
65
 73
2
 40
0.75
 49
0.5
 49
-0.25
  0
LTYPE
  5
43B
  2
DOTTED
 70
0
  3
Dotted .  .  .  .
 72
65
 73
2
 40
0.2
 49
0.0
 49
-0.2
  0
ENDTAB
  0
TABLE
  2
STYLE
  70
4
  0
STYLE
  2
KICAD
  70
0
  40
0
  41
1
  42
1
  50
0
  71
0
  3
isocp.shx
  0
STYLE
  2
KICADB
  70
0
  40
0
  41
1
  42
1
  50
0
  71
0
  3
isocp.shx
  0
STYLE
  2
KICADI
  70
0
  40
0
  41
1
  42
1
  50
15
  71
0
  3
isocp.shx
  0
STYLE
  2
KICADBI
  70
0
  40
0
  41
1
  42
1
  50
15
  71
0
  3
isocp.shx
  0
ENDTAB
  0
TABLE
  2
LAYER
  70
1
  0
LAYER
  2
BLACK
  70
0
  62
7
  6
CONTINUOUS
  0
ENDTAB
  0
ENDSEC
  0
SECTION
  2
ENTITIES
0
LINE
8
BLACK
6
CONTINUOUS
10
173.176
20
-79.848
11
173.176
21
-80.2051
0
LINE
8
BLACK
6
CONTINUOUS
10
173.176
20
-80.2051
11
173.152
21
-80.2766
0
LINE
8
BLACK
6
CONTINUOUS
10
173.152
20
-80.2766
11
173.105
21
-80.3242
0
LINE
8
BLACK
6
CONTINUOUS
10
173.105
20
-80.3242
11
173.033
21
-80.348
0
LINE
8
BLACK
6
CONTINUOUS
10
173.033
20
-80.348
11
172.986
21
-80.348
0
LINE
8
BLACK
6
CONTINUOUS
10
173.652
20
-80.348
11
173.414
21
-80.348
0
LINE
8
BLACK
6
CONTINUOUS
10
173.414
20
-80.348
11
173.414
21
-79.848
0
LINE
8
BLACK
6
CONTINUOUS
10
174.105
20
-80.3004
11
174.081
21
-80.3242
0
LINE
8
BLACK
6
CONTINUOUS
10
174.081
20
-80.3242
11
174.01
21
-80.348
0
LINE
8
BLACK
6
CONTINUOUS
10
174.01
20
-80.348
11
173.962
21
-80.348
0
LINE
8
BLACK
6
CONTINUOUS
10
173.962
20
-80.348
11
173.891
21
-80.3242
0
LINE
8
BLACK
6
CONTINUOUS
10
173.891
20
-80.3242
11
173.843
21
-80.2766
0
LINE
8
BLACK
6
CONTINUOUS
10
173.843
20
-80.2766
11
173.819
21
-80.2289
0
LINE
8
BLACK
6
CONTINUOUS
10
173.819
20
-80.2289
11
173.795
21
-80.1337
0
LINE
8
BLACK
6
CONTINUOUS
10
173.795
20
-80.1337
11
173.795
21
-80.0623
0
LINE
8
BLACK
6
CONTINUOUS
10
173.795
20
-80.0623
11
173.819
21
-79.967
0
LINE
8
BLACK
6
CONTINUOUS
10
173.819
20
-79.967
11
173.843
21
-79.9194
0
LINE
8
BLACK
6
CONTINUOUS
10
173.843
20
-79.9194
11
173.891
21
-79.8718
0
LINE
8
BLACK
6
CONTINUOUS
10
173.891
20
-79.8718
11
173.962
21
-79.848
0
LINE
8
BLACK
6
CONTINUOUS
10
173.962
20
-79.848
11
174.01
21
-79.848
0
LINE
8
BLACK
6
CONTINUOUS
10
174.01
20
-79.848
11
174.081
21
-79.8718
0
LINE
8
BLACK
6
CONTINUOUS
10
174.081
20
-79.8718
11
174.105
21
-79.8956
0
LINE
8
BLACK
6
CONTINUOUS
10
174.462
20
-79.848
11
174.462
21
-80.2051
0
LINE
8
BLACK
6
CONTINUOUS
10
174.462
20
-80.2051
11
174.438
21
-80.2766
0
LINE
8
BLACK
6
CONTINUOUS
10
174.438
20
-80.2766
11
174.391
21
-80.3242
0
LINE
8
BLACK
6
CONTINUOUS
10
174.391
20
-80.3242
11
174.319
21
-80.348
0
LINE
8
BLACK
6
CONTINUOUS
10
174.319
20
-80.348
11
174.271
21
-80.348
0
LINE
8
BLACK
6
CONTINUOUS
10
174.938
20
-80.348
11
174.7
21
-80.348
0
LINE
8
BLACK
6
CONTINUOUS
10
174.7
20
-80.348
11
174.7
21
-79.848
0
LINE
8
BLACK
6
CONTINUOUS
10
175.391
20
-80.3004
11
175.367
21
-80.3242
0
LINE
8
BLACK
6
CONTINUOUS
10
175.367
20
-80.3242
11
175.295
21
-80.348
0
LINE
8
BLACK
6
CONTINUOUS
10
175.295
20
-80.348
11
175.248
21
-80.348
0
LINE
8
BLACK
6
CONTINUOUS
10
175.248
20
-80.348
11
175.176
21
-80.3242
0
LINE
8
BLACK
6
CONTINUOUS
10
175.176
20
-80.3242
11
175.129
21
-80.2766
0
LINE
8
BLACK
6
CONTINUOUS
10
175.129
20
-80.2766
11
175.105
21
-80.2289
0
LINE
8
BLACK
6
CONTINUOUS
10
175.105
20
-80.2289
11
175.081
21
-80.1337
0
LINE
8
BLACK
6
CONTINUOUS
10
175.081
20
-80.1337
11
175.081
21
-80.0623
0
LINE
8
BLACK
6
CONTINUOUS
10
175.081
20
-80.0623
11
175.105
21
-79.967
0
LINE
8
BLACK
6
CONTINUOUS
10
175.105
20
-79.967
11
175.129
21
-79.9194
0
LINE
8
BLACK
6
CONTINUOUS
10
175.129
20
-79.9194
11
175.176
21
-79.8718
0
LINE
8
BLACK
6
CONTINUOUS
10
175.176
20
-79.8718
11
175.248
21
-79.848
0
LINE
8
BLACK
6
CONTINUOUS
10
175.248
20
-79.848
11
175.295
21
-79.848
0
LINE
8
BLACK
6
CONTINUOUS
10
175.295
20
-79.848
11
175.367
21
-79.8718
0
LINE
8
BLACK
6
CONTINUOUS
10
175.367
20
-79.8718
11
175.391
21
-79.8956
0
LINE
8
BLACK
6
CONTINUOUS
10
175.748
20
-79.848
11
175.748
21
-80.2051
0
LINE
8
BLACK
6
CONTINUOUS
10
175.748
20
-80.2051
11
175.724
21
-80.2766
0
LINE
8
BLACK
6
CONTINUOUS
10
175.724
20
-80.2766
11
175.676
21
-80.3242
0
LINE
8
BLACK
6
CONTINUOUS
10
175.676
20
-80.3242
11
175.605
21
-80.348
0
LINE
8
BLACK
6
CONTINUOUS
10
175.605
20
-80.348
11
175.557
21
-80.348
0
LINE
8
BLACK
6
CONTINUOUS
10
176.224
20
-80.348
11
175.986
21
-80.348
0
LINE
8
BLACK
6
CONTINUOUS
10
175.986
20
-80.348
11
175.986
21
-79.848
0
LINE
8
BLACK
6
CONTINUOUS
10
176.676
20
-80.3004
11
176.652
21
-80.3242
0
LINE
8
BLACK
6
CONTINUOUS
10
176.652
20
-80.3242
11
176.581
21
-80.348
0
LINE
8
BLACK
6
CONTINUOUS
10
176.581
20
-80.348
11
176.533
21
-80.348
0
LINE
8
BLACK
6
CONTINUOUS
10
176.533
20
-80.348
11
176.462
21
-80.3242
0
LINE
8
BLACK
6
CONTINUOUS
10
176.462
20
-80.3242
11
176.414
21
-80.2766
0
LINE
8
BLACK
6
CONTINUOUS
10
176.414
20
-80.2766
11
176.391
21
-80.2289
0
LINE
8
BLACK
6
CONTINUOUS
10
176.391
20
-80.2289
11
176.367
21
-80.1337
0
LINE
8
BLACK
6
CONTINUOUS
10
176.367
20
-80.1337
11
176.367
21
-80.0623
0
LINE
8
BLACK
6
CONTINUOUS
10
176.367
20
-80.0623
11
176.391
21
-79.967
0
LINE
8
BLACK
6
CONTINUOUS
10
176.391
20
-79.967
11
176.414
21
-79.9194
0
LINE
8
BLACK
6
CONTINUOUS
10
176.414
20
-79.9194
11
176.462
21
-79.8718
0
LINE
8
BLACK
6
CONTINUOUS
10
176.462
20
-79.8718
11
176.533
21
-79.848
0
LINE
8
BLACK
6
CONTINUOUS
10
176.533
20
-79.848
11
176.581
21
-79.848
0
LINE
8
BLACK
6
CONTINUOUS
10
176.581
20
-79.848
11
176.652
21
-79.8718
0
LINE
8
BLACK
6
CONTINUOUS
10
176.652
20
-79.8718
11
176.676
21
-79.8956
  0
ENDSEC
  0
EOF
