G04 #@! TF.GenerationSoftware,KiCad,Pcbnew,(5.1.6)-1*
G04 #@! TF.CreationDate,2020-09-28T23:31:42+08:00*
G04 #@! TF.ProjectId,Hami-Plate,48616d69-2d50-46c6-9174-652e6b696361,rev?*
G04 #@! TF.SameCoordinates,Original*
G04 #@! TF.FileFunction,Profile,NP*
%FSLAX46Y46*%
G04 Gerber Fmt 4.6, Leading zero omitted, Abs format (unit mm)*
G04 Created by KiCad (PCBNEW (5.1.6)-1) date 2020-09-28 23:31:42*
%MOMM*%
%LPD*%
G01*
G04 APERTURE LIST*
G04 #@! TA.AperFunction,Profile*
%ADD10C,0.010000*%
G04 #@! TD*
G04 APERTURE END LIST*
D10*
X185419998Y-31694999D02*
G75*
G02*
X186420000Y-32695001I0J-1000002D01*
G01*
X147593000Y-54971801D02*
X182093000Y-54971801D01*
X107950000Y-31695000D02*
X147592999Y-31695000D01*
X186420000Y-32695001D02*
X186420000Y-149812000D01*
X145143001Y-37918858D02*
G75*
G02*
X145742999Y-34421801I599999J1697057D01*
G01*
X185419999Y-150812001D02*
X107950000Y-150812001D01*
X106950000Y-32695000D02*
G75*
G02*
X107950000Y-31695000I1000000J0D01*
G01*
X106950000Y-149812001D02*
X106950000Y-32695000D01*
X182093000Y-54971801D02*
X182092999Y-31695000D01*
X147593000Y-34421801D02*
X145742999Y-34421801D01*
X147593000Y-54021801D02*
X147593000Y-54971801D01*
X145743000Y-54021802D02*
G75*
G02*
X145143000Y-50524744I0J1800001D01*
G01*
X147592999Y-31695000D02*
X147593000Y-34421801D01*
X107950000Y-150812001D02*
G75*
G02*
X106950000Y-149812001I0J1000000D01*
G01*
X182092999Y-31695000D02*
X185419999Y-31695000D01*
X186420000Y-149812000D02*
G75*
G02*
X185419999Y-150812001I-1000001J0D01*
G01*
X145143000Y-37918857D02*
X145143000Y-50524744D01*
X145743000Y-54021800D02*
X147593000Y-54021801D01*
X166149998Y-130175001D02*
G75*
G03*
X166149998Y-130175001I-1049999J0D01*
G01*
X128050001Y-73025000D02*
G75*
G03*
X128050001Y-73025000I-1050001J0D01*
G01*
X166150000Y-73025001D02*
G75*
G03*
X166150000Y-73025001I-1050000J0D01*
G01*
X128050000Y-130175001D02*
G75*
G03*
X128050000Y-130175001I-1050000J0D01*
G01*
X129525000Y-146700000D02*
X143525000Y-146700000D01*
X143525000Y-132700000D02*
X143525000Y-146700000D01*
X129525000Y-132700000D02*
X143525000Y-132700000D01*
X129525000Y-146700000D02*
X129525000Y-132700000D01*
X110475000Y-146700000D02*
X124475000Y-146700000D01*
X124475000Y-132700000D02*
X124475000Y-146700000D01*
X110475000Y-132700000D02*
X124475000Y-132700000D01*
X110475000Y-146700000D02*
X110475000Y-132700000D01*
X148575000Y-146700000D02*
X162575000Y-146700000D01*
X162575000Y-132700000D02*
X162575000Y-146700000D01*
X148575000Y-132700000D02*
X162575000Y-132700000D01*
X148575000Y-146700000D02*
X148575000Y-132700000D01*
X148575000Y-127650000D02*
X162575000Y-127650000D01*
X162575000Y-113650000D02*
X162575000Y-127650000D01*
X148575000Y-113650000D02*
X162575000Y-113650000D01*
X148575000Y-127650000D02*
X148575000Y-113650000D01*
X110475000Y-89550000D02*
X124475000Y-89550000D01*
X124475000Y-75550000D02*
X124475000Y-89550000D01*
X110475000Y-75550000D02*
X124475000Y-75550000D01*
X110475000Y-89550000D02*
X110475000Y-75550000D01*
X129525000Y-127650000D02*
X143525000Y-127650000D01*
X143525000Y-113650000D02*
X143525000Y-127650000D01*
X129525000Y-113650000D02*
X143525000Y-113650000D01*
X129525000Y-127650000D02*
X129525000Y-113650000D01*
X129525000Y-89550000D02*
X143525000Y-89550000D01*
X143525000Y-75550000D02*
X143525000Y-89550000D01*
X129525000Y-75550000D02*
X143525000Y-75550000D01*
X129525000Y-89550000D02*
X129525000Y-75550000D01*
X110475000Y-108600000D02*
X124475000Y-108600000D01*
X124475000Y-94600000D02*
X124475000Y-108600000D01*
X110475000Y-94600000D02*
X124475000Y-94600000D01*
X110475000Y-108600000D02*
X110475000Y-94600000D01*
X129525000Y-70500000D02*
X143525000Y-70500000D01*
X143525000Y-56500000D02*
X143525000Y-70500000D01*
X129525000Y-56500000D02*
X143525000Y-56500000D01*
X129525000Y-70500000D02*
X129525000Y-56500000D01*
X148575000Y-70500000D02*
X162575000Y-70500000D01*
X162575000Y-56500000D02*
X162575000Y-70500000D01*
X148575000Y-56500000D02*
X162575000Y-56500000D01*
X148575000Y-70500000D02*
X148575000Y-56500000D01*
X110475000Y-127650000D02*
X124475000Y-127650000D01*
X124475000Y-113650000D02*
X124475000Y-127650000D01*
X110475000Y-113650000D02*
X124475000Y-113650000D01*
X110475000Y-127650000D02*
X110475000Y-113650000D01*
X167625000Y-70500000D02*
X181625000Y-70500000D01*
X181625000Y-56500000D02*
X181625000Y-70500000D01*
X167625000Y-56500000D02*
X181625000Y-56500000D01*
X167625000Y-70500000D02*
X167625000Y-56500000D01*
X148575000Y-89550000D02*
X162575000Y-89550000D01*
X162575000Y-75550000D02*
X162575000Y-89550000D01*
X148575000Y-75550000D02*
X162575000Y-75550000D01*
X148575000Y-89550000D02*
X148575000Y-75550000D01*
X148575000Y-108600000D02*
X162575000Y-108600000D01*
X162575000Y-94600000D02*
X162575000Y-108600000D01*
X148575000Y-94600000D02*
X162575000Y-94600000D01*
X148575000Y-108600000D02*
X148575000Y-94600000D01*
X110475000Y-70500000D02*
X124475000Y-70500000D01*
X124475000Y-56500000D02*
X124475000Y-70500000D01*
X110475000Y-56500000D02*
X124475000Y-56500000D01*
X110475000Y-70500000D02*
X110475000Y-56500000D01*
X129525000Y-108600000D02*
X143525000Y-108600000D01*
X143525000Y-94600000D02*
X143525000Y-108600000D01*
X129525000Y-94600000D02*
X143525000Y-94600000D01*
X129525000Y-108600000D02*
X129525000Y-94600000D01*
X175379000Y-114075000D02*
X175379000Y-114950000D01*
X175379000Y-114075000D02*
X172579000Y-114075000D01*
X172579000Y-114075000D02*
X172579000Y-114950000D01*
X182849000Y-116775000D02*
X181649000Y-116775000D01*
X182849000Y-119775000D02*
X181649000Y-119775000D01*
X181649000Y-114950000D02*
X181649000Y-116775000D01*
X181649000Y-119775000D02*
X181649000Y-121600000D01*
X182849000Y-116775000D02*
X182849000Y-119775000D01*
X181649000Y-114950000D02*
X175379000Y-114950000D01*
X172579000Y-114950000D02*
X169349000Y-114950000D01*
X169349000Y-114950000D02*
X169349000Y-121600000D01*
X181649000Y-121600000D02*
X169349000Y-121600000D01*
X181625000Y-123175000D02*
X167625000Y-123175000D01*
X167625000Y-123175000D02*
X167625000Y-137175000D01*
X181625000Y-123175000D02*
X181625000Y-137175000D01*
X181625000Y-137175000D02*
X167625000Y-137175000D01*
X181649000Y-138750000D02*
X181649000Y-140575000D01*
X182849000Y-140575000D02*
X181649000Y-140575000D01*
X182849000Y-140575000D02*
X182849000Y-143575000D01*
X182849000Y-143575000D02*
X181649000Y-143575000D01*
X181649000Y-143575000D02*
X181649000Y-145400000D01*
X181649000Y-145400000D02*
X175379000Y-145400000D01*
X175379000Y-145400000D02*
X175379000Y-146275000D01*
X175379000Y-146275000D02*
X172579000Y-146275000D01*
X172579000Y-145400000D02*
X172579000Y-146275000D01*
X172579000Y-145400000D02*
X169349000Y-145400000D01*
X169349000Y-138750000D02*
X169349000Y-145400000D01*
X181649000Y-138750000D02*
X169349000Y-138750000D01*
X175379000Y-75975000D02*
X175379000Y-76850000D01*
X175379000Y-75975000D02*
X172579000Y-75975000D01*
X172579000Y-75975000D02*
X172579000Y-76850000D01*
X182849000Y-78675000D02*
X181649000Y-78675000D01*
X182849000Y-81675000D02*
X181649000Y-81675000D01*
X181649000Y-76850000D02*
X181649000Y-78675000D01*
X181649000Y-81675000D02*
X181649000Y-83500000D01*
X182849000Y-78675000D02*
X182849000Y-81675000D01*
X181649000Y-76850000D02*
X175379000Y-76850000D01*
X172579000Y-76850000D02*
X169349000Y-76850000D01*
X169349000Y-76850000D02*
X169349000Y-83500000D01*
X181649000Y-83500000D02*
X169349000Y-83500000D01*
X181625000Y-85075000D02*
X167625000Y-85075000D01*
X167625000Y-85075000D02*
X167625000Y-99075000D01*
X181625000Y-85075000D02*
X181625000Y-99075000D01*
X181625000Y-99075000D02*
X167625000Y-99075000D01*
X181649000Y-100650000D02*
X181649000Y-102475000D01*
X182849000Y-102475000D02*
X181649000Y-102475000D01*
X182849000Y-102475000D02*
X182849000Y-105475000D01*
X182849000Y-105475000D02*
X181649000Y-105475000D01*
X181649000Y-105475000D02*
X181649000Y-107300000D01*
X181649000Y-107300000D02*
X175379000Y-107300000D01*
X175379000Y-107300000D02*
X175379000Y-108175000D01*
X175379000Y-108175000D02*
X172579000Y-108175000D01*
X172579000Y-107300000D02*
X172579000Y-108175000D01*
X172579000Y-107300000D02*
X169349000Y-107300000D01*
X169349000Y-100650000D02*
X169349000Y-107300000D01*
X181649000Y-100650000D02*
X169349000Y-100650000D01*
M02*
