G04 #@! TF.GenerationSoftware,KiCad,Pcbnew,(5.1.6)-1*
G04 #@! TF.CreationDate,2020-09-28T23:28:13+08:00*
G04 #@! TF.ProjectId,Hami,48616d69-2e6b-4696-9361-645f70636258,rev?*
G04 #@! TF.SameCoordinates,Original*
G04 #@! TF.FileFunction,Legend,Bot*
G04 #@! TF.FilePolarity,Positive*
%FSLAX46Y46*%
G04 Gerber Fmt 4.6, Leading zero omitted, Abs format (unit mm)*
G04 Created by KiCad (PCBNEW (5.1.6)-1) date 2020-09-28 23:28:13*
%MOMM*%
%LPD*%
G01*
G04 APERTURE LIST*
%ADD10C,0.150000*%
%ADD11C,0.400000*%
%ADD12C,0.500000*%
%ADD13C,3.500000*%
%ADD14C,1.000000*%
%ADD15C,3.000000*%
%ADD16C,0.800000*%
%ADD17C,0.300000*%
%ADD18C,0.010000*%
%ADD19C,0.120000*%
G04 APERTURE END LIST*
D10*
X178648857Y-118245380D02*
X178648857Y-117245380D01*
X178648857Y-117721571D02*
X178077428Y-117721571D01*
X178077428Y-118245380D02*
X178077428Y-117245380D01*
X177172666Y-118245380D02*
X177172666Y-117721571D01*
X177220285Y-117626333D01*
X177315523Y-117578714D01*
X177506000Y-117578714D01*
X177601238Y-117626333D01*
X177172666Y-118197761D02*
X177267904Y-118245380D01*
X177506000Y-118245380D01*
X177601238Y-118197761D01*
X177648857Y-118102523D01*
X177648857Y-118007285D01*
X177601238Y-117912047D01*
X177506000Y-117864428D01*
X177267904Y-117864428D01*
X177172666Y-117816809D01*
X176696476Y-118245380D02*
X176696476Y-117578714D01*
X176696476Y-117673952D02*
X176648857Y-117626333D01*
X176553619Y-117578714D01*
X176410761Y-117578714D01*
X176315523Y-117626333D01*
X176267904Y-117721571D01*
X176267904Y-118245380D01*
X176267904Y-117721571D02*
X176220285Y-117626333D01*
X176125047Y-117578714D01*
X175982190Y-117578714D01*
X175886952Y-117626333D01*
X175839333Y-117721571D01*
X175839333Y-118245380D01*
X175363142Y-118245380D02*
X175363142Y-117578714D01*
X175363142Y-117245380D02*
X175410761Y-117293000D01*
X175363142Y-117340619D01*
X175315523Y-117293000D01*
X175363142Y-117245380D01*
X175363142Y-117340619D01*
X174267904Y-117245380D02*
X173934571Y-118245380D01*
X173601238Y-117245380D01*
X172744095Y-118245380D02*
X173315523Y-118245380D01*
X173029809Y-118245380D02*
X173029809Y-117245380D01*
X173125047Y-117388238D01*
X173220285Y-117483476D01*
X173315523Y-117531095D01*
X172315523Y-118150142D02*
X172267904Y-118197761D01*
X172315523Y-118245380D01*
X172363142Y-118197761D01*
X172315523Y-118150142D01*
X172315523Y-118245380D01*
X171315523Y-118245380D02*
X171886952Y-118245380D01*
X171601238Y-118245380D02*
X171601238Y-117245380D01*
X171696476Y-117388238D01*
X171791714Y-117483476D01*
X171886952Y-117531095D01*
X181148857Y-119895380D02*
X181148857Y-118895380D01*
X180910761Y-118895380D01*
X180767904Y-118943000D01*
X180672666Y-119038238D01*
X180625047Y-119133476D01*
X180577428Y-119323952D01*
X180577428Y-119466809D01*
X180625047Y-119657285D01*
X180672666Y-119752523D01*
X180767904Y-119847761D01*
X180910761Y-119895380D01*
X181148857Y-119895380D01*
X179767904Y-119847761D02*
X179863142Y-119895380D01*
X180053619Y-119895380D01*
X180148857Y-119847761D01*
X180196476Y-119752523D01*
X180196476Y-119371571D01*
X180148857Y-119276333D01*
X180053619Y-119228714D01*
X179863142Y-119228714D01*
X179767904Y-119276333D01*
X179720285Y-119371571D01*
X179720285Y-119466809D01*
X180196476Y-119562047D01*
X179339333Y-119847761D02*
X179244095Y-119895380D01*
X179053619Y-119895380D01*
X178958380Y-119847761D01*
X178910761Y-119752523D01*
X178910761Y-119704904D01*
X178958380Y-119609666D01*
X179053619Y-119562047D01*
X179196476Y-119562047D01*
X179291714Y-119514428D01*
X179339333Y-119419190D01*
X179339333Y-119371571D01*
X179291714Y-119276333D01*
X179196476Y-119228714D01*
X179053619Y-119228714D01*
X178958380Y-119276333D01*
X178482190Y-119895380D02*
X178482190Y-119228714D01*
X178482190Y-118895380D02*
X178529809Y-118943000D01*
X178482190Y-118990619D01*
X178434571Y-118943000D01*
X178482190Y-118895380D01*
X178482190Y-118990619D01*
X177577428Y-119228714D02*
X177577428Y-120038238D01*
X177625047Y-120133476D01*
X177672666Y-120181095D01*
X177767904Y-120228714D01*
X177910761Y-120228714D01*
X178006000Y-120181095D01*
X177577428Y-119847761D02*
X177672666Y-119895380D01*
X177863142Y-119895380D01*
X177958380Y-119847761D01*
X178006000Y-119800142D01*
X178053619Y-119704904D01*
X178053619Y-119419190D01*
X178006000Y-119323952D01*
X177958380Y-119276333D01*
X177863142Y-119228714D01*
X177672666Y-119228714D01*
X177577428Y-119276333D01*
X177101238Y-119228714D02*
X177101238Y-119895380D01*
X177101238Y-119323952D02*
X177053619Y-119276333D01*
X176958380Y-119228714D01*
X176815523Y-119228714D01*
X176720285Y-119276333D01*
X176672666Y-119371571D01*
X176672666Y-119895380D01*
X175815523Y-119847761D02*
X175910761Y-119895380D01*
X176101238Y-119895380D01*
X176196476Y-119847761D01*
X176244095Y-119752523D01*
X176244095Y-119371571D01*
X176196476Y-119276333D01*
X176101238Y-119228714D01*
X175910761Y-119228714D01*
X175815523Y-119276333D01*
X175767904Y-119371571D01*
X175767904Y-119466809D01*
X176244095Y-119562047D01*
X174910761Y-119895380D02*
X174910761Y-118895380D01*
X174910761Y-119847761D02*
X175006000Y-119895380D01*
X175196476Y-119895380D01*
X175291714Y-119847761D01*
X175339333Y-119800142D01*
X175386952Y-119704904D01*
X175386952Y-119419190D01*
X175339333Y-119323952D01*
X175291714Y-119276333D01*
X175196476Y-119228714D01*
X175006000Y-119228714D01*
X174910761Y-119276333D01*
X173672666Y-119895380D02*
X173672666Y-118895380D01*
X173672666Y-119276333D02*
X173577428Y-119228714D01*
X173386952Y-119228714D01*
X173291714Y-119276333D01*
X173244095Y-119323952D01*
X173196476Y-119419190D01*
X173196476Y-119704904D01*
X173244095Y-119800142D01*
X173291714Y-119847761D01*
X173386952Y-119895380D01*
X173577428Y-119895380D01*
X173672666Y-119847761D01*
X172863142Y-119228714D02*
X172625047Y-119895380D01*
X172386952Y-119228714D02*
X172625047Y-119895380D01*
X172720285Y-120133476D01*
X172767904Y-120181095D01*
X172863142Y-120228714D01*
X171291714Y-119609666D02*
X170815523Y-119609666D01*
X171386952Y-119895380D02*
X171053619Y-118895380D01*
X170720285Y-119895380D01*
X170386952Y-119895380D02*
X170386952Y-119228714D01*
X170386952Y-119419190D02*
X170339333Y-119323952D01*
X170291714Y-119276333D01*
X170196476Y-119228714D01*
X170101238Y-119228714D01*
X169767904Y-119895380D02*
X169767904Y-119228714D01*
X169767904Y-118895380D02*
X169815523Y-118943000D01*
X169767904Y-118990619D01*
X169720285Y-118943000D01*
X169767904Y-118895380D01*
X169767904Y-118990619D01*
X168863142Y-119895380D02*
X168863142Y-119371571D01*
X168910761Y-119276333D01*
X169006000Y-119228714D01*
X169196476Y-119228714D01*
X169291714Y-119276333D01*
X168863142Y-119847761D02*
X168958380Y-119895380D01*
X169196476Y-119895380D01*
X169291714Y-119847761D01*
X169339333Y-119752523D01*
X169339333Y-119657285D01*
X169291714Y-119562047D01*
X169196476Y-119514428D01*
X168958380Y-119514428D01*
X168863142Y-119466809D01*
D11*
X159825000Y-95200000D02*
X158575000Y-95200000D01*
D12*
X150125000Y-100300000D02*
X152575000Y-100300000D01*
D10*
X159975000Y-95000000D02*
X151774999Y-95000000D01*
X155175000Y-98600000D02*
X159975000Y-98600000D01*
X149925000Y-100500000D02*
X152955000Y-100500000D01*
X149675000Y-96900000D02*
X149675000Y-97650000D01*
X149925000Y-96050000D02*
X149925000Y-100500000D01*
X149675000Y-97650000D02*
X149875000Y-97650000D01*
X159955000Y-97600000D02*
X159955000Y-95350000D01*
X159975000Y-98600000D02*
X159975000Y-95000000D01*
D13*
X158175000Y-96800000D02*
X151475000Y-96800000D01*
D14*
X159475000Y-95600000D02*
X159475000Y-98100000D01*
D12*
X159775000Y-98350000D02*
X158475000Y-98300000D01*
D15*
X151405000Y-96500000D02*
X151405000Y-98740000D01*
D16*
X150275000Y-100000000D02*
X150275000Y-98200001D01*
D17*
X149775000Y-97550000D02*
X149775000Y-96900000D01*
D10*
X152958682Y-100478529D02*
G75*
G02*
X155175000Y-98600000I2151318J-291471D01*
G01*
X149675000Y-96900001D02*
G75*
G02*
X151774999Y-95000000I2000000J-99999D01*
G01*
D14*
X152558682Y-100078529D02*
G75*
G02*
X154775000Y-98200000I2151318J-291471D01*
G01*
D11*
X140775000Y-95200000D02*
X139525000Y-95200000D01*
D12*
X131075000Y-100300000D02*
X133525000Y-100300000D01*
D10*
X140925000Y-95000000D02*
X132724999Y-95000000D01*
X136125000Y-98600000D02*
X140925000Y-98600000D01*
X130875000Y-100500000D02*
X133905000Y-100500000D01*
X130625000Y-96900000D02*
X130625000Y-97650000D01*
X130875000Y-96050000D02*
X130875000Y-100500000D01*
X130625000Y-97650000D02*
X130825000Y-97650000D01*
X140905000Y-97600000D02*
X140905000Y-95350000D01*
X140925000Y-98600000D02*
X140925000Y-95000000D01*
D13*
X139125000Y-96800000D02*
X132425000Y-96800000D01*
D14*
X140425000Y-95600000D02*
X140425000Y-98100000D01*
D12*
X140725000Y-98350000D02*
X139425000Y-98300000D01*
D15*
X132355000Y-96500000D02*
X132355000Y-98740000D01*
D16*
X131225000Y-100000000D02*
X131225000Y-98200001D01*
D17*
X130725000Y-97550000D02*
X130725000Y-96900000D01*
D10*
X133908682Y-100478529D02*
G75*
G02*
X136125000Y-98600000I2151318J-291471D01*
G01*
X130625000Y-96900001D02*
G75*
G02*
X132724999Y-95000000I2000000J-99999D01*
G01*
D14*
X133508682Y-100078529D02*
G75*
G02*
X135725000Y-98200000I2151318J-291471D01*
G01*
D11*
X159825000Y-76150000D02*
X158575000Y-76150000D01*
D12*
X150125000Y-81250000D02*
X152575000Y-81250000D01*
D10*
X159975000Y-75950000D02*
X151774999Y-75950000D01*
X155175000Y-79550000D02*
X159975000Y-79550000D01*
X149925000Y-81450000D02*
X152955000Y-81450000D01*
X149675000Y-77850000D02*
X149675000Y-78600000D01*
X149925000Y-77000000D02*
X149925000Y-81450000D01*
X149675000Y-78600000D02*
X149875000Y-78600000D01*
X159955000Y-78550000D02*
X159955000Y-76300000D01*
X159975000Y-79550000D02*
X159975000Y-75950000D01*
D13*
X158175000Y-77750000D02*
X151475000Y-77750000D01*
D14*
X159475000Y-76550000D02*
X159475000Y-79050000D01*
D12*
X159775000Y-79300000D02*
X158475000Y-79250000D01*
D15*
X151405000Y-77450000D02*
X151405000Y-79690000D01*
D16*
X150275000Y-80950000D02*
X150275000Y-79150001D01*
D17*
X149775000Y-78500000D02*
X149775000Y-77850000D01*
D10*
X152958682Y-81428529D02*
G75*
G02*
X155175000Y-79550000I2151318J-291471D01*
G01*
X149675000Y-77850001D02*
G75*
G02*
X151774999Y-75950000I2000000J-99999D01*
G01*
D14*
X152558682Y-81028529D02*
G75*
G02*
X154775000Y-79150000I2151318J-291471D01*
G01*
D11*
X140775000Y-57100000D02*
X139525000Y-57100000D01*
D12*
X131075000Y-62200000D02*
X133525000Y-62200000D01*
D10*
X140925000Y-56900000D02*
X132724999Y-56900000D01*
X136125000Y-60500000D02*
X140925000Y-60500000D01*
X130875000Y-62400000D02*
X133905000Y-62400000D01*
X130625000Y-58800000D02*
X130625000Y-59550000D01*
X130875000Y-57950000D02*
X130875000Y-62400000D01*
X130625000Y-59550000D02*
X130825000Y-59550000D01*
X140905000Y-59500000D02*
X140905000Y-57250000D01*
X140925000Y-60500000D02*
X140925000Y-56900000D01*
D13*
X139125000Y-58700000D02*
X132425000Y-58700000D01*
D14*
X140425000Y-57500000D02*
X140425000Y-60000000D01*
D12*
X140725000Y-60250000D02*
X139425000Y-60200000D01*
D15*
X132355000Y-58400000D02*
X132355000Y-60640000D01*
D16*
X131225000Y-61900000D02*
X131225000Y-60100001D01*
D17*
X130725000Y-59450000D02*
X130725000Y-58800000D01*
D10*
X133908682Y-62378529D02*
G75*
G02*
X136125000Y-60500000I2151318J-291471D01*
G01*
X130625000Y-58800001D02*
G75*
G02*
X132724999Y-56900000I2000000J-99999D01*
G01*
D14*
X133508682Y-61978529D02*
G75*
G02*
X135725000Y-60100000I2151318J-291471D01*
G01*
D11*
X159825000Y-57100000D02*
X158575000Y-57100000D01*
D12*
X150125000Y-62200000D02*
X152575000Y-62200000D01*
D10*
X159975000Y-56900000D02*
X151774999Y-56900000D01*
X155175000Y-60500000D02*
X159975000Y-60500000D01*
X149925000Y-62400000D02*
X152955000Y-62400000D01*
X149675000Y-58800000D02*
X149675000Y-59550000D01*
X149925000Y-57950000D02*
X149925000Y-62400000D01*
X149675000Y-59550000D02*
X149875000Y-59550000D01*
X159955000Y-59500000D02*
X159955000Y-57250000D01*
X159975000Y-60500000D02*
X159975000Y-56900000D01*
D13*
X158175000Y-58700000D02*
X151475000Y-58700000D01*
D14*
X159475000Y-57500000D02*
X159475000Y-60000000D01*
D12*
X159775000Y-60250000D02*
X158475000Y-60200000D01*
D15*
X151405000Y-58400000D02*
X151405000Y-60640000D01*
D16*
X150275000Y-61900000D02*
X150275000Y-60100001D01*
D17*
X149775000Y-59450000D02*
X149775000Y-58800000D01*
D10*
X152958682Y-62378529D02*
G75*
G02*
X155175000Y-60500000I2151318J-291471D01*
G01*
X149675000Y-58800001D02*
G75*
G02*
X151774999Y-56900000I2000000J-99999D01*
G01*
D14*
X152558682Y-61978529D02*
G75*
G02*
X154775000Y-60100000I2151318J-291471D01*
G01*
D17*
X170575000Y-135975000D02*
X169925000Y-135975000D01*
D16*
X173025000Y-135475000D02*
X171225001Y-135475000D01*
D15*
X169525000Y-134345000D02*
X171765000Y-134345000D01*
D12*
X171375000Y-125975000D02*
X171325000Y-127275000D01*
D14*
X168625000Y-126275000D02*
X171125000Y-126275000D01*
D13*
X169825000Y-127575000D02*
X169825000Y-134275000D01*
D10*
X171625000Y-125775000D02*
X168025000Y-125775000D01*
X170625000Y-125795000D02*
X168375000Y-125795000D01*
X170675000Y-136075000D02*
X170675000Y-135875000D01*
X169075000Y-135825000D02*
X173525000Y-135825000D01*
X169925000Y-136075000D02*
X170675000Y-136075000D01*
X173525000Y-135825000D02*
X173525000Y-132795000D01*
X171625000Y-130575000D02*
X171625000Y-125775000D01*
X168025000Y-125775000D02*
X168025000Y-133975001D01*
D12*
X173325000Y-135625000D02*
X173325000Y-133175000D01*
D11*
X168225000Y-125925000D02*
X168225000Y-127175000D01*
D14*
X173103529Y-133191318D02*
G75*
G02*
X171225000Y-130975000I291471J2151318D01*
G01*
D10*
X169925001Y-136075000D02*
G75*
G02*
X168025000Y-133975001I99999J2000000D01*
G01*
X173503529Y-132791318D02*
G75*
G02*
X171625000Y-130575000I291471J2151318D01*
G01*
D17*
X170575000Y-97875000D02*
X169925000Y-97875000D01*
D16*
X173025000Y-97375000D02*
X171225001Y-97375000D01*
D15*
X169525000Y-96245000D02*
X171765000Y-96245000D01*
D12*
X171375000Y-87875000D02*
X171325000Y-89175000D01*
D14*
X168625000Y-88175000D02*
X171125000Y-88175000D01*
D13*
X169825000Y-89475000D02*
X169825000Y-96175000D01*
D10*
X171625000Y-87675000D02*
X168025000Y-87675000D01*
X170625000Y-87695000D02*
X168375000Y-87695000D01*
X170675000Y-97975000D02*
X170675000Y-97775000D01*
X169075000Y-97725000D02*
X173525000Y-97725000D01*
X169925000Y-97975000D02*
X170675000Y-97975000D01*
X173525000Y-97725000D02*
X173525000Y-94695000D01*
X171625000Y-92475000D02*
X171625000Y-87675000D01*
X168025000Y-87675000D02*
X168025000Y-95875001D01*
D12*
X173325000Y-97525000D02*
X173325000Y-95075000D01*
D11*
X168225000Y-87825000D02*
X168225000Y-89075000D01*
D14*
X173103529Y-95091318D02*
G75*
G02*
X171225000Y-92875000I291471J2151318D01*
G01*
D10*
X169925001Y-97975000D02*
G75*
G02*
X168025000Y-95875001I99999J2000000D01*
G01*
X173503529Y-94691318D02*
G75*
G02*
X171625000Y-92475000I291471J2151318D01*
G01*
D11*
X178875000Y-57100000D02*
X177625000Y-57100000D01*
D12*
X169175000Y-62200000D02*
X171625000Y-62200000D01*
D10*
X179025000Y-56900000D02*
X170824999Y-56900000D01*
X174225000Y-60500000D02*
X179025000Y-60500000D01*
X168975000Y-62400000D02*
X172005000Y-62400000D01*
X168725000Y-58800000D02*
X168725000Y-59550000D01*
X168975000Y-57950000D02*
X168975000Y-62400000D01*
X168725000Y-59550000D02*
X168925000Y-59550000D01*
X179005000Y-59500000D02*
X179005000Y-57250000D01*
X179025000Y-60500000D02*
X179025000Y-56900000D01*
D13*
X177225000Y-58700000D02*
X170525000Y-58700000D01*
D14*
X178525000Y-57500000D02*
X178525000Y-60000000D01*
D12*
X178825000Y-60250000D02*
X177525000Y-60200000D01*
D15*
X170455000Y-58400000D02*
X170455000Y-60640000D01*
D16*
X169325000Y-61900000D02*
X169325000Y-60100001D01*
D17*
X168825000Y-59450000D02*
X168825000Y-58800000D01*
D10*
X172008682Y-62378529D02*
G75*
G02*
X174225000Y-60500000I2151318J-291471D01*
G01*
X168725000Y-58800001D02*
G75*
G02*
X170824999Y-56900000I2000000J-99999D01*
G01*
D14*
X171608682Y-61978529D02*
G75*
G02*
X173825000Y-60100000I2151318J-291471D01*
G01*
D11*
X159825000Y-133300000D02*
X158575000Y-133300000D01*
D12*
X150125000Y-138400000D02*
X152575000Y-138400000D01*
D10*
X159975000Y-133100000D02*
X151774999Y-133100000D01*
X155175000Y-136700000D02*
X159975000Y-136700000D01*
X149925000Y-138600000D02*
X152955000Y-138600000D01*
X149675000Y-135000000D02*
X149675000Y-135750000D01*
X149925000Y-134150000D02*
X149925000Y-138600000D01*
X149675000Y-135750000D02*
X149875000Y-135750000D01*
X159955000Y-135700000D02*
X159955000Y-133450000D01*
X159975000Y-136700000D02*
X159975000Y-133100000D01*
D13*
X158175000Y-134900000D02*
X151475000Y-134900000D01*
D14*
X159475000Y-133700000D02*
X159475000Y-136200000D01*
D12*
X159775000Y-136450000D02*
X158475000Y-136400000D01*
D15*
X151405000Y-134600000D02*
X151405000Y-136840000D01*
D16*
X150275000Y-138100000D02*
X150275000Y-136300001D01*
D17*
X149775000Y-135650000D02*
X149775000Y-135000000D01*
D10*
X152958682Y-138578529D02*
G75*
G02*
X155175000Y-136700000I2151318J-291471D01*
G01*
X149675000Y-135000001D02*
G75*
G02*
X151774999Y-133100000I2000000J-99999D01*
G01*
D14*
X152558682Y-138178529D02*
G75*
G02*
X154775000Y-136300000I2151318J-291471D01*
G01*
D11*
X159825000Y-114250000D02*
X158575000Y-114250000D01*
D12*
X150125000Y-119350000D02*
X152575000Y-119350000D01*
D10*
X159975000Y-114050000D02*
X151774999Y-114050000D01*
X155175000Y-117650000D02*
X159975000Y-117650000D01*
X149925000Y-119550000D02*
X152955000Y-119550000D01*
X149675000Y-115950000D02*
X149675000Y-116700000D01*
X149925000Y-115100000D02*
X149925000Y-119550000D01*
X149675000Y-116700000D02*
X149875000Y-116700000D01*
X159955000Y-116650000D02*
X159955000Y-114400000D01*
X159975000Y-117650000D02*
X159975000Y-114050000D01*
D13*
X158175000Y-115850000D02*
X151475000Y-115850000D01*
D14*
X159475000Y-114650000D02*
X159475000Y-117150000D01*
D12*
X159775000Y-117400000D02*
X158475000Y-117350000D01*
D15*
X151405000Y-115550000D02*
X151405000Y-117790000D01*
D16*
X150275000Y-119050000D02*
X150275000Y-117250001D01*
D17*
X149775000Y-116600000D02*
X149775000Y-115950000D01*
D10*
X152958682Y-119528529D02*
G75*
G02*
X155175000Y-117650000I2151318J-291471D01*
G01*
X149675000Y-115950001D02*
G75*
G02*
X151774999Y-114050000I2000000J-99999D01*
G01*
D14*
X152558682Y-119128529D02*
G75*
G02*
X154775000Y-117250000I2151318J-291471D01*
G01*
D11*
X140775000Y-133300000D02*
X139525000Y-133300000D01*
D12*
X131075000Y-138400000D02*
X133525000Y-138400000D01*
D10*
X140925000Y-133100000D02*
X132724999Y-133100000D01*
X136125000Y-136700000D02*
X140925000Y-136700000D01*
X130875000Y-138600000D02*
X133905000Y-138600000D01*
X130625000Y-135000000D02*
X130625000Y-135750000D01*
X130875000Y-134150000D02*
X130875000Y-138600000D01*
X130625000Y-135750000D02*
X130825000Y-135750000D01*
X140905000Y-135700000D02*
X140905000Y-133450000D01*
X140925000Y-136700000D02*
X140925000Y-133100000D01*
D13*
X139125000Y-134900000D02*
X132425000Y-134900000D01*
D14*
X140425000Y-133700000D02*
X140425000Y-136200000D01*
D12*
X140725000Y-136450000D02*
X139425000Y-136400000D01*
D15*
X132355000Y-134600000D02*
X132355000Y-136840000D01*
D16*
X131225000Y-138100000D02*
X131225000Y-136300001D01*
D17*
X130725000Y-135650000D02*
X130725000Y-135000000D01*
D10*
X133908682Y-138578529D02*
G75*
G02*
X136125000Y-136700000I2151318J-291471D01*
G01*
X130625000Y-135000001D02*
G75*
G02*
X132724999Y-133100000I2000000J-99999D01*
G01*
D14*
X133508682Y-138178529D02*
G75*
G02*
X135725000Y-136300000I2151318J-291471D01*
G01*
D11*
X140775000Y-114250000D02*
X139525000Y-114250000D01*
D12*
X131075000Y-119350000D02*
X133525000Y-119350000D01*
D10*
X140925000Y-114050000D02*
X132724999Y-114050000D01*
X136125000Y-117650000D02*
X140925000Y-117650000D01*
X130875000Y-119550000D02*
X133905000Y-119550000D01*
X130625000Y-115950000D02*
X130625000Y-116700000D01*
X130875000Y-115100000D02*
X130875000Y-119550000D01*
X130625000Y-116700000D02*
X130825000Y-116700000D01*
X140905000Y-116650000D02*
X140905000Y-114400000D01*
X140925000Y-117650000D02*
X140925000Y-114050000D01*
D13*
X139125000Y-115850000D02*
X132425000Y-115850000D01*
D14*
X140425000Y-114650000D02*
X140425000Y-117150000D01*
D12*
X140725000Y-117400000D02*
X139425000Y-117350000D01*
D15*
X132355000Y-115550000D02*
X132355000Y-117790000D01*
D16*
X131225000Y-119050000D02*
X131225000Y-117250001D01*
D17*
X130725000Y-116600000D02*
X130725000Y-115950000D01*
D10*
X133908682Y-119528529D02*
G75*
G02*
X136125000Y-117650000I2151318J-291471D01*
G01*
X130625000Y-115950001D02*
G75*
G02*
X132724999Y-114050000I2000000J-99999D01*
G01*
D14*
X133508682Y-119128529D02*
G75*
G02*
X135725000Y-117250000I2151318J-291471D01*
G01*
D11*
X140775000Y-76150000D02*
X139525000Y-76150000D01*
D12*
X131075000Y-81250000D02*
X133525000Y-81250000D01*
D10*
X140925000Y-75950000D02*
X132724999Y-75950000D01*
X136125000Y-79550000D02*
X140925000Y-79550000D01*
X130875000Y-81450000D02*
X133905000Y-81450000D01*
X130625000Y-77850000D02*
X130625000Y-78600000D01*
X130875000Y-77000000D02*
X130875000Y-81450000D01*
X130625000Y-78600000D02*
X130825000Y-78600000D01*
X140905000Y-78550000D02*
X140905000Y-76300000D01*
X140925000Y-79550000D02*
X140925000Y-75950000D01*
D13*
X139125000Y-77750000D02*
X132425000Y-77750000D01*
D14*
X140425000Y-76550000D02*
X140425000Y-79050000D01*
D12*
X140725000Y-79300000D02*
X139425000Y-79250000D01*
D15*
X132355000Y-77450000D02*
X132355000Y-79690000D01*
D16*
X131225000Y-80950000D02*
X131225000Y-79150001D01*
D17*
X130725000Y-78500000D02*
X130725000Y-77850000D01*
D10*
X133908682Y-81428529D02*
G75*
G02*
X136125000Y-79550000I2151318J-291471D01*
G01*
X130625000Y-77850001D02*
G75*
G02*
X132724999Y-75950000I2000000J-99999D01*
G01*
D14*
X133508682Y-81028529D02*
G75*
G02*
X135725000Y-79150000I2151318J-291471D01*
G01*
D11*
X121725000Y-133300000D02*
X120475000Y-133300000D01*
D12*
X112025000Y-138400000D02*
X114475000Y-138400000D01*
D10*
X121875000Y-133100000D02*
X113674999Y-133100000D01*
X117075000Y-136700000D02*
X121875000Y-136700000D01*
X111825000Y-138600000D02*
X114855000Y-138600000D01*
X111575000Y-135000000D02*
X111575000Y-135750000D01*
X111825000Y-134150000D02*
X111825000Y-138600000D01*
X111575000Y-135750000D02*
X111775000Y-135750000D01*
X121855000Y-135700000D02*
X121855000Y-133450000D01*
X121875000Y-136700000D02*
X121875000Y-133100000D01*
D13*
X120075000Y-134900000D02*
X113375000Y-134900000D01*
D14*
X121375000Y-133700000D02*
X121375000Y-136200000D01*
D12*
X121675000Y-136450000D02*
X120375000Y-136400000D01*
D15*
X113305000Y-134600000D02*
X113305000Y-136840000D01*
D16*
X112175000Y-138100000D02*
X112175000Y-136300001D01*
D17*
X111675000Y-135650000D02*
X111675000Y-135000000D01*
D10*
X114858682Y-138578529D02*
G75*
G02*
X117075000Y-136700000I2151318J-291471D01*
G01*
X111575000Y-135000001D02*
G75*
G02*
X113674999Y-133100000I2000000J-99999D01*
G01*
D14*
X114458682Y-138178529D02*
G75*
G02*
X116675000Y-136300000I2151318J-291471D01*
G01*
D11*
X121725000Y-114250000D02*
X120475000Y-114250000D01*
D12*
X112025000Y-119350000D02*
X114475000Y-119350000D01*
D10*
X121875000Y-114050000D02*
X113674999Y-114050000D01*
X117075000Y-117650000D02*
X121875000Y-117650000D01*
X111825000Y-119550000D02*
X114855000Y-119550000D01*
X111575000Y-115950000D02*
X111575000Y-116700000D01*
X111825000Y-115100000D02*
X111825000Y-119550000D01*
X111575000Y-116700000D02*
X111775000Y-116700000D01*
X121855000Y-116650000D02*
X121855000Y-114400000D01*
X121875000Y-117650000D02*
X121875000Y-114050000D01*
D13*
X120075000Y-115850000D02*
X113375000Y-115850000D01*
D14*
X121375000Y-114650000D02*
X121375000Y-117150000D01*
D12*
X121675000Y-117400000D02*
X120375000Y-117350000D01*
D15*
X113305000Y-115550000D02*
X113305000Y-117790000D01*
D16*
X112175000Y-119050000D02*
X112175000Y-117250001D01*
D17*
X111675000Y-116600000D02*
X111675000Y-115950000D01*
D10*
X114858682Y-119528529D02*
G75*
G02*
X117075000Y-117650000I2151318J-291471D01*
G01*
X111575000Y-115950001D02*
G75*
G02*
X113674999Y-114050000I2000000J-99999D01*
G01*
D14*
X114458682Y-119128529D02*
G75*
G02*
X116675000Y-117250000I2151318J-291471D01*
G01*
D11*
X121725000Y-95200000D02*
X120475000Y-95200000D01*
D12*
X112025000Y-100300000D02*
X114475000Y-100300000D01*
D10*
X121875000Y-95000000D02*
X113674999Y-95000000D01*
X117075000Y-98600000D02*
X121875000Y-98600000D01*
X111825000Y-100500000D02*
X114855000Y-100500000D01*
X111575000Y-96900000D02*
X111575000Y-97650000D01*
X111825000Y-96050000D02*
X111825000Y-100500000D01*
X111575000Y-97650000D02*
X111775000Y-97650000D01*
X121855000Y-97600000D02*
X121855000Y-95350000D01*
X121875000Y-98600000D02*
X121875000Y-95000000D01*
D13*
X120075000Y-96800000D02*
X113375000Y-96800000D01*
D14*
X121375000Y-95600000D02*
X121375000Y-98100000D01*
D12*
X121675000Y-98350000D02*
X120375000Y-98300000D01*
D15*
X113305000Y-96500000D02*
X113305000Y-98740000D01*
D16*
X112175000Y-100000000D02*
X112175000Y-98200001D01*
D17*
X111675000Y-97550000D02*
X111675000Y-96900000D01*
D10*
X114858682Y-100478529D02*
G75*
G02*
X117075000Y-98600000I2151318J-291471D01*
G01*
X111575000Y-96900001D02*
G75*
G02*
X113674999Y-95000000I2000000J-99999D01*
G01*
D14*
X114458682Y-100078529D02*
G75*
G02*
X116675000Y-98200000I2151318J-291471D01*
G01*
D11*
X121725000Y-76150000D02*
X120475000Y-76150000D01*
D12*
X112025000Y-81250000D02*
X114475000Y-81250000D01*
D10*
X121875000Y-75950000D02*
X113674999Y-75950000D01*
X117075000Y-79550000D02*
X121875000Y-79550000D01*
X111825000Y-81450000D02*
X114855000Y-81450000D01*
X111575000Y-77850000D02*
X111575000Y-78600000D01*
X111825000Y-77000000D02*
X111825000Y-81450000D01*
X111575000Y-78600000D02*
X111775000Y-78600000D01*
X121855000Y-78550000D02*
X121855000Y-76300000D01*
X121875000Y-79550000D02*
X121875000Y-75950000D01*
D13*
X120075000Y-77750000D02*
X113375000Y-77750000D01*
D14*
X121375000Y-76550000D02*
X121375000Y-79050000D01*
D12*
X121675000Y-79300000D02*
X120375000Y-79250000D01*
D15*
X113305000Y-77450000D02*
X113305000Y-79690000D01*
D16*
X112175000Y-80950000D02*
X112175000Y-79150001D01*
D17*
X111675000Y-78500000D02*
X111675000Y-77850000D01*
D10*
X114858682Y-81428529D02*
G75*
G02*
X117075000Y-79550000I2151318J-291471D01*
G01*
X111575000Y-77850001D02*
G75*
G02*
X113674999Y-75950000I2000000J-99999D01*
G01*
D14*
X114458682Y-81028529D02*
G75*
G02*
X116675000Y-79150000I2151318J-291471D01*
G01*
D11*
X121725000Y-57100000D02*
X120475000Y-57100000D01*
D12*
X112025000Y-62200000D02*
X114475000Y-62200000D01*
D10*
X121875000Y-56900000D02*
X113674999Y-56900000D01*
X117075000Y-60500000D02*
X121875000Y-60500000D01*
X111825000Y-62400000D02*
X114855000Y-62400000D01*
X111575000Y-58800000D02*
X111575000Y-59550000D01*
X111825000Y-57950000D02*
X111825000Y-62400000D01*
X111575000Y-59550000D02*
X111775000Y-59550000D01*
X121855000Y-59500000D02*
X121855000Y-57250000D01*
X121875000Y-60500000D02*
X121875000Y-56900000D01*
D13*
X120075000Y-58700000D02*
X113375000Y-58700000D01*
D14*
X121375000Y-57500000D02*
X121375000Y-60000000D01*
D12*
X121675000Y-60250000D02*
X120375000Y-60200000D01*
D15*
X113305000Y-58400000D02*
X113305000Y-60640000D01*
D16*
X112175000Y-61900000D02*
X112175000Y-60100001D01*
D17*
X111675000Y-59450000D02*
X111675000Y-58800000D01*
D10*
X114858682Y-62378529D02*
G75*
G02*
X117075000Y-60500000I2151318J-291471D01*
G01*
X111575000Y-58800001D02*
G75*
G02*
X113674999Y-56900000I2000000J-99999D01*
G01*
D14*
X114458682Y-61978529D02*
G75*
G02*
X116675000Y-60100000I2151318J-291471D01*
G01*
D18*
G36*
X170581674Y-103277274D02*
G01*
X170556530Y-103338998D01*
X170538299Y-103455439D01*
X170525001Y-103637696D01*
X170517600Y-103809500D01*
X170511500Y-103978833D01*
X170723167Y-103985441D01*
X170863484Y-103985253D01*
X170977904Y-103977240D01*
X171012697Y-103971026D01*
X171063543Y-103951321D01*
X171058075Y-103917599D01*
X171008220Y-103858584D01*
X170963773Y-103805474D01*
X170921668Y-103742972D01*
X170871534Y-103652869D01*
X170803001Y-103516956D01*
X170739186Y-103386166D01*
X170680099Y-103299179D01*
X170619748Y-103259419D01*
X170615711Y-103259166D01*
X170581674Y-103277274D01*
G37*
X170581674Y-103277274D02*
X170556530Y-103338998D01*
X170538299Y-103455439D01*
X170525001Y-103637696D01*
X170517600Y-103809500D01*
X170511500Y-103978833D01*
X170723167Y-103985441D01*
X170863484Y-103985253D01*
X170977904Y-103977240D01*
X171012697Y-103971026D01*
X171063543Y-103951321D01*
X171058075Y-103917599D01*
X171008220Y-103858584D01*
X170963773Y-103805474D01*
X170921668Y-103742972D01*
X170871534Y-103652869D01*
X170803001Y-103516956D01*
X170739186Y-103386166D01*
X170680099Y-103299179D01*
X170619748Y-103259419D01*
X170615711Y-103259166D01*
X170581674Y-103277274D01*
G36*
X178747713Y-103201929D02*
G01*
X178706572Y-103247860D01*
X178648560Y-103350704D01*
X178584161Y-103487248D01*
X178523857Y-103634278D01*
X178478131Y-103768582D01*
X178461709Y-103835236D01*
X178457090Y-103904561D01*
X178489222Y-103946647D01*
X178577431Y-103979392D01*
X178633158Y-103993986D01*
X178797063Y-104030555D01*
X178897496Y-104038832D01*
X178950862Y-104018594D01*
X178968301Y-103989416D01*
X178966880Y-103918319D01*
X178940678Y-103806709D01*
X178929496Y-103772427D01*
X178890860Y-103621832D01*
X178872022Y-103470704D01*
X178871686Y-103454927D01*
X178855659Y-103307228D01*
X178812942Y-103218739D01*
X178749381Y-103201393D01*
X178747713Y-103201929D01*
G37*
X178747713Y-103201929D02*
X178706572Y-103247860D01*
X178648560Y-103350704D01*
X178584161Y-103487248D01*
X178523857Y-103634278D01*
X178478131Y-103768582D01*
X178461709Y-103835236D01*
X178457090Y-103904561D01*
X178489222Y-103946647D01*
X178577431Y-103979392D01*
X178633158Y-103993986D01*
X178797063Y-104030555D01*
X178897496Y-104038832D01*
X178950862Y-104018594D01*
X178968301Y-103989416D01*
X178966880Y-103918319D01*
X178940678Y-103806709D01*
X178929496Y-103772427D01*
X178890860Y-103621832D01*
X178872022Y-103470704D01*
X178871686Y-103454927D01*
X178855659Y-103307228D01*
X178812942Y-103218739D01*
X178749381Y-103201393D01*
X178747713Y-103201929D01*
G36*
X177106803Y-104692843D02*
G01*
X177094772Y-104694415D01*
X176946647Y-104736522D01*
X176775653Y-104819008D01*
X176598515Y-104929293D01*
X176431958Y-105054798D01*
X176292706Y-105182943D01*
X176197484Y-105301147D01*
X176163000Y-105395285D01*
X176183878Y-105438296D01*
X176242922Y-105411803D01*
X176334751Y-105318908D01*
X176369953Y-105275951D01*
X176533946Y-105104830D01*
X176730608Y-104954083D01*
X176935149Y-104839644D01*
X177122778Y-104777443D01*
X177152523Y-104773059D01*
X177367363Y-104791227D01*
X177587104Y-104892827D01*
X177809875Y-105076895D01*
X177872753Y-105143319D01*
X177985601Y-105250405D01*
X178074693Y-105299616D01*
X178102045Y-105300523D01*
X178123085Y-105277706D01*
X178096000Y-105224172D01*
X178014818Y-105131431D01*
X177907470Y-105023847D01*
X177701284Y-104845557D01*
X177511893Y-104736142D01*
X177320124Y-104687828D01*
X177106803Y-104692843D01*
G37*
X177106803Y-104692843D02*
X177094772Y-104694415D01*
X176946647Y-104736522D01*
X176775653Y-104819008D01*
X176598515Y-104929293D01*
X176431958Y-105054798D01*
X176292706Y-105182943D01*
X176197484Y-105301147D01*
X176163000Y-105395285D01*
X176183878Y-105438296D01*
X176242922Y-105411803D01*
X176334751Y-105318908D01*
X176369953Y-105275951D01*
X176533946Y-105104830D01*
X176730608Y-104954083D01*
X176935149Y-104839644D01*
X177122778Y-104777443D01*
X177152523Y-104773059D01*
X177367363Y-104791227D01*
X177587104Y-104892827D01*
X177809875Y-105076895D01*
X177872753Y-105143319D01*
X177985601Y-105250405D01*
X178074693Y-105299616D01*
X178102045Y-105300523D01*
X178123085Y-105277706D01*
X178096000Y-105224172D01*
X178014818Y-105131431D01*
X177907470Y-105023847D01*
X177701284Y-104845557D01*
X177511893Y-104736142D01*
X177320124Y-104687828D01*
X177106803Y-104692843D01*
G36*
X172073939Y-104780354D02*
G01*
X171893991Y-104843270D01*
X171783372Y-104912447D01*
X171664625Y-105005740D01*
X171558322Y-105104372D01*
X171485035Y-105189568D01*
X171464000Y-105235703D01*
X171488604Y-105270199D01*
X171559803Y-105238845D01*
X171673674Y-105143737D01*
X171719691Y-105098976D01*
X171834538Y-104995683D01*
X171944390Y-104915467D01*
X171997614Y-104887309D01*
X172216181Y-104847886D01*
X172444124Y-104888642D01*
X172675169Y-105006548D01*
X172903044Y-105198574D01*
X173085836Y-105412821D01*
X173153532Y-105455885D01*
X173194951Y-105443002D01*
X173213793Y-105409236D01*
X173187196Y-105349304D01*
X173108186Y-105250995D01*
X173046784Y-105183567D01*
X172812353Y-104975751D01*
X172565337Y-104837290D01*
X172315833Y-104771164D01*
X172073939Y-104780354D01*
G37*
X172073939Y-104780354D02*
X171893991Y-104843270D01*
X171783372Y-104912447D01*
X171664625Y-105005740D01*
X171558322Y-105104372D01*
X171485035Y-105189568D01*
X171464000Y-105235703D01*
X171488604Y-105270199D01*
X171559803Y-105238845D01*
X171673674Y-105143737D01*
X171719691Y-105098976D01*
X171834538Y-104995683D01*
X171944390Y-104915467D01*
X171997614Y-104887309D01*
X172216181Y-104847886D01*
X172444124Y-104888642D01*
X172675169Y-105006548D01*
X172903044Y-105198574D01*
X173085836Y-105412821D01*
X173153532Y-105455885D01*
X173194951Y-105443002D01*
X173213793Y-105409236D01*
X173187196Y-105349304D01*
X173108186Y-105250995D01*
X173046784Y-105183567D01*
X172812353Y-104975751D01*
X172565337Y-104837290D01*
X172315833Y-104771164D01*
X172073939Y-104780354D01*
G36*
X174200300Y-105537181D02*
G01*
X174120250Y-105556831D01*
X174109689Y-105566566D01*
X174121634Y-105616692D01*
X174174491Y-105708092D01*
X174252474Y-105819161D01*
X174339796Y-105928297D01*
X174420670Y-106013897D01*
X174459084Y-106044686D01*
X174507161Y-106116119D01*
X174496491Y-106212383D01*
X174440110Y-106313415D01*
X174351056Y-106399153D01*
X174242365Y-106449535D01*
X174192239Y-106455333D01*
X173998663Y-106415630D01*
X173829829Y-106307039D01*
X173715201Y-106154549D01*
X173659884Y-106056629D01*
X173624317Y-106031983D01*
X173606705Y-106055738D01*
X173582056Y-106149880D01*
X173597449Y-106188049D01*
X173623000Y-106180166D01*
X173662010Y-106183523D01*
X173665334Y-106198834D01*
X173673531Y-106287416D01*
X173713852Y-106353573D01*
X173732462Y-106374676D01*
X173845835Y-106452486D01*
X174006192Y-106507629D01*
X174176788Y-106530026D01*
X174272627Y-106522853D01*
X174426699Y-106457700D01*
X174529131Y-106367742D01*
X174600523Y-106288401D01*
X174646073Y-106267654D01*
X174693177Y-106298261D01*
X174714170Y-106318836D01*
X174895704Y-106460267D01*
X175083006Y-106535166D01*
X175262034Y-106541344D01*
X175418741Y-106476611D01*
X175466425Y-106436090D01*
X175547726Y-106331333D01*
X175563798Y-106227659D01*
X175517775Y-106096090D01*
X175505747Y-106072231D01*
X175442526Y-105973434D01*
X175399626Y-105955517D01*
X175380142Y-106016463D01*
X175386638Y-106149824D01*
X175394590Y-106288769D01*
X175374022Y-106371967D01*
X175342180Y-106409116D01*
X175217993Y-106462006D01*
X175072692Y-106447513D01*
X174926070Y-106372387D01*
X174797916Y-106243375D01*
X174779927Y-106217391D01*
X174733846Y-106138584D01*
X174737199Y-106097172D01*
X174780570Y-106067021D01*
X174841287Y-106012853D01*
X174914434Y-105921583D01*
X174925523Y-105905000D01*
X174808334Y-105905000D01*
X174776119Y-105946103D01*
X174766000Y-105947333D01*
X174724897Y-105915118D01*
X174723667Y-105905000D01*
X174755882Y-105863896D01*
X174766000Y-105862666D01*
X174807104Y-105894881D01*
X174808334Y-105905000D01*
X174925523Y-105905000D01*
X174984046Y-105817488D01*
X175034162Y-105724847D01*
X175048819Y-105667937D01*
X175046175Y-105663063D01*
X174971090Y-105624335D01*
X174840470Y-105589700D01*
X174676198Y-105561412D01*
X174500157Y-105541726D01*
X174334230Y-105532898D01*
X174200300Y-105537181D01*
G37*
X174200300Y-105537181D02*
X174120250Y-105556831D01*
X174109689Y-105566566D01*
X174121634Y-105616692D01*
X174174491Y-105708092D01*
X174252474Y-105819161D01*
X174339796Y-105928297D01*
X174420670Y-106013897D01*
X174459084Y-106044686D01*
X174507161Y-106116119D01*
X174496491Y-106212383D01*
X174440110Y-106313415D01*
X174351056Y-106399153D01*
X174242365Y-106449535D01*
X174192239Y-106455333D01*
X173998663Y-106415630D01*
X173829829Y-106307039D01*
X173715201Y-106154549D01*
X173659884Y-106056629D01*
X173624317Y-106031983D01*
X173606705Y-106055738D01*
X173582056Y-106149880D01*
X173597449Y-106188049D01*
X173623000Y-106180166D01*
X173662010Y-106183523D01*
X173665334Y-106198834D01*
X173673531Y-106287416D01*
X173713852Y-106353573D01*
X173732462Y-106374676D01*
X173845835Y-106452486D01*
X174006192Y-106507629D01*
X174176788Y-106530026D01*
X174272627Y-106522853D01*
X174426699Y-106457700D01*
X174529131Y-106367742D01*
X174600523Y-106288401D01*
X174646073Y-106267654D01*
X174693177Y-106298261D01*
X174714170Y-106318836D01*
X174895704Y-106460267D01*
X175083006Y-106535166D01*
X175262034Y-106541344D01*
X175418741Y-106476611D01*
X175466425Y-106436090D01*
X175547726Y-106331333D01*
X175563798Y-106227659D01*
X175517775Y-106096090D01*
X175505747Y-106072231D01*
X175442526Y-105973434D01*
X175399626Y-105955517D01*
X175380142Y-106016463D01*
X175386638Y-106149824D01*
X175394590Y-106288769D01*
X175374022Y-106371967D01*
X175342180Y-106409116D01*
X175217993Y-106462006D01*
X175072692Y-106447513D01*
X174926070Y-106372387D01*
X174797916Y-106243375D01*
X174779927Y-106217391D01*
X174733846Y-106138584D01*
X174737199Y-106097172D01*
X174780570Y-106067021D01*
X174841287Y-106012853D01*
X174914434Y-105921583D01*
X174925523Y-105905000D01*
X174808334Y-105905000D01*
X174776119Y-105946103D01*
X174766000Y-105947333D01*
X174724897Y-105915118D01*
X174723667Y-105905000D01*
X174755882Y-105863896D01*
X174766000Y-105862666D01*
X174807104Y-105894881D01*
X174808334Y-105905000D01*
X174925523Y-105905000D01*
X174984046Y-105817488D01*
X175034162Y-105724847D01*
X175048819Y-105667937D01*
X175046175Y-105663063D01*
X174971090Y-105624335D01*
X174840470Y-105589700D01*
X174676198Y-105561412D01*
X174500157Y-105541726D01*
X174334230Y-105532898D01*
X174200300Y-105537181D01*
G36*
X171887334Y-107450166D02*
G01*
X171908500Y-107471333D01*
X171929667Y-107450166D01*
X171908500Y-107429000D01*
X171887334Y-107450166D01*
G37*
X171887334Y-107450166D02*
X171908500Y-107471333D01*
X171929667Y-107450166D01*
X171908500Y-107429000D01*
X171887334Y-107450166D01*
G36*
X172226000Y-107450166D02*
G01*
X172247167Y-107471333D01*
X172268334Y-107450166D01*
X172247167Y-107429000D01*
X172226000Y-107450166D01*
G37*
X172226000Y-107450166D02*
X172247167Y-107471333D01*
X172268334Y-107450166D01*
X172247167Y-107429000D01*
X172226000Y-107450166D01*
G36*
X172409445Y-107443111D02*
G01*
X172415256Y-107468278D01*
X172437667Y-107471333D01*
X172472512Y-107455844D01*
X172465889Y-107443111D01*
X172415650Y-107438044D01*
X172409445Y-107443111D01*
G37*
X172409445Y-107443111D02*
X172415256Y-107468278D01*
X172437667Y-107471333D01*
X172472512Y-107455844D01*
X172465889Y-107443111D01*
X172415650Y-107438044D01*
X172409445Y-107443111D01*
G36*
X172607000Y-107492500D02*
G01*
X172628167Y-107513666D01*
X172649334Y-107492500D01*
X172628167Y-107471333D01*
X172607000Y-107492500D01*
G37*
X172607000Y-107492500D02*
X172628167Y-107513666D01*
X172649334Y-107492500D01*
X172628167Y-107471333D01*
X172607000Y-107492500D01*
G36*
X177658778Y-107527777D02*
G01*
X177664589Y-107552944D01*
X177687000Y-107556000D01*
X177721846Y-107540510D01*
X177715223Y-107527777D01*
X177664983Y-107522711D01*
X177658778Y-107527777D01*
G37*
X177658778Y-107527777D02*
X177664589Y-107552944D01*
X177687000Y-107556000D01*
X177721846Y-107540510D01*
X177715223Y-107527777D01*
X177664983Y-107522711D01*
X177658778Y-107527777D01*
G36*
X171421667Y-107577166D02*
G01*
X171442834Y-107598333D01*
X171464000Y-107577166D01*
X171442834Y-107556000D01*
X171421667Y-107577166D01*
G37*
X171421667Y-107577166D02*
X171442834Y-107598333D01*
X171464000Y-107577166D01*
X171442834Y-107556000D01*
X171421667Y-107577166D01*
G36*
X171506334Y-107577166D02*
G01*
X171527500Y-107598333D01*
X171548667Y-107577166D01*
X171527500Y-107556000D01*
X171506334Y-107577166D01*
G37*
X171506334Y-107577166D02*
X171527500Y-107598333D01*
X171548667Y-107577166D01*
X171527500Y-107556000D01*
X171506334Y-107577166D01*
G36*
X177687000Y-107619500D02*
G01*
X177708167Y-107640666D01*
X177729334Y-107619500D01*
X177708167Y-107598333D01*
X177687000Y-107619500D01*
G37*
X177687000Y-107619500D02*
X177708167Y-107640666D01*
X177729334Y-107619500D01*
X177708167Y-107598333D01*
X177687000Y-107619500D01*
G36*
X177856334Y-107619500D02*
G01*
X177877500Y-107640666D01*
X177898667Y-107619500D01*
X177877500Y-107598333D01*
X177856334Y-107619500D01*
G37*
X177856334Y-107619500D02*
X177877500Y-107640666D01*
X177898667Y-107619500D01*
X177877500Y-107598333D01*
X177856334Y-107619500D01*
G36*
X171464000Y-107661833D02*
G01*
X171485167Y-107683000D01*
X171506334Y-107661833D01*
X171485167Y-107640666D01*
X171464000Y-107661833D01*
G37*
X171464000Y-107661833D02*
X171485167Y-107683000D01*
X171506334Y-107661833D01*
X171485167Y-107640666D01*
X171464000Y-107661833D01*
G36*
X172655875Y-107657790D02*
G01*
X172610785Y-107697143D01*
X172607000Y-107706665D01*
X172627091Y-107724064D01*
X172668919Y-107685076D01*
X172674543Y-107676459D01*
X172679533Y-107647490D01*
X172655875Y-107657790D01*
G37*
X172655875Y-107657790D02*
X172610785Y-107697143D01*
X172607000Y-107706665D01*
X172627091Y-107724064D01*
X172668919Y-107685076D01*
X172674543Y-107676459D01*
X172679533Y-107647490D01*
X172655875Y-107657790D01*
G36*
X177947541Y-107657790D02*
G01*
X177902451Y-107697143D01*
X177898667Y-107706665D01*
X177918758Y-107724064D01*
X177960585Y-107685076D01*
X177966210Y-107676459D01*
X177971199Y-107647490D01*
X177947541Y-107657790D01*
G37*
X177947541Y-107657790D02*
X177902451Y-107697143D01*
X177898667Y-107706665D01*
X177918758Y-107724064D01*
X177960585Y-107685076D01*
X177966210Y-107676459D01*
X177971199Y-107647490D01*
X177947541Y-107657790D01*
G36*
X172607000Y-107831166D02*
G01*
X172628167Y-107852333D01*
X172649334Y-107831166D01*
X172628167Y-107810000D01*
X172607000Y-107831166D01*
G37*
X172607000Y-107831166D02*
X172628167Y-107852333D01*
X172649334Y-107831166D01*
X172628167Y-107810000D01*
X172607000Y-107831166D01*
G36*
X174893000Y-107831166D02*
G01*
X174914167Y-107852333D01*
X174935334Y-107831166D01*
X174914167Y-107810000D01*
X174893000Y-107831166D01*
G37*
X174893000Y-107831166D02*
X174914167Y-107852333D01*
X174935334Y-107831166D01*
X174914167Y-107810000D01*
X174893000Y-107831166D01*
G36*
X171506334Y-107873500D02*
G01*
X171527500Y-107894666D01*
X171548667Y-107873500D01*
X171527500Y-107852333D01*
X171506334Y-107873500D01*
G37*
X171506334Y-107873500D02*
X171527500Y-107894666D01*
X171548667Y-107873500D01*
X171527500Y-107852333D01*
X171506334Y-107873500D01*
G36*
X177775631Y-107669270D02*
G01*
X177777765Y-107739929D01*
X177776032Y-107767666D01*
X177765687Y-107809822D01*
X177736039Y-107777927D01*
X177729334Y-107767666D01*
X177695790Y-107733782D01*
X177688297Y-107746500D01*
X177709098Y-107818162D01*
X177722640Y-107842951D01*
X177757767Y-107862064D01*
X177798925Y-107804630D01*
X177805062Y-107791546D01*
X177829919Y-107696232D01*
X177811355Y-107660198D01*
X177776453Y-107658014D01*
X177775631Y-107669270D01*
G37*
X177775631Y-107669270D02*
X177777765Y-107739929D01*
X177776032Y-107767666D01*
X177765687Y-107809822D01*
X177736039Y-107777927D01*
X177729334Y-107767666D01*
X177695790Y-107733782D01*
X177688297Y-107746500D01*
X177709098Y-107818162D01*
X177722640Y-107842951D01*
X177757767Y-107862064D01*
X177798925Y-107804630D01*
X177805062Y-107791546D01*
X177829919Y-107696232D01*
X177811355Y-107660198D01*
X177776453Y-107658014D01*
X177775631Y-107669270D01*
G36*
X173072667Y-107958166D02*
G01*
X173093834Y-107979333D01*
X173115000Y-107958166D01*
X173093834Y-107937000D01*
X173072667Y-107958166D01*
G37*
X173072667Y-107958166D02*
X173093834Y-107979333D01*
X173115000Y-107958166D01*
X173093834Y-107937000D01*
X173072667Y-107958166D01*
G36*
X177150778Y-107908777D02*
G01*
X177145712Y-107959017D01*
X177150778Y-107965222D01*
X177175945Y-107959411D01*
X177179000Y-107937000D01*
X177163511Y-107902154D01*
X177150778Y-107908777D01*
G37*
X177150778Y-107908777D02*
X177145712Y-107959017D01*
X177150778Y-107965222D01*
X177175945Y-107959411D01*
X177179000Y-107937000D01*
X177163511Y-107902154D01*
X177150778Y-107908777D01*
G36*
X177687000Y-107958166D02*
G01*
X177708167Y-107979333D01*
X177729334Y-107958166D01*
X177708167Y-107937000D01*
X177687000Y-107958166D01*
G37*
X177687000Y-107958166D02*
X177708167Y-107979333D01*
X177729334Y-107958166D01*
X177708167Y-107937000D01*
X177687000Y-107958166D01*
G36*
X174821749Y-107929062D02*
G01*
X174816702Y-107995224D01*
X174825091Y-108010201D01*
X174844332Y-107997575D01*
X174847325Y-107954638D01*
X174836986Y-107909467D01*
X174821749Y-107929062D01*
G37*
X174821749Y-107929062D02*
X174816702Y-107995224D01*
X174825091Y-108010201D01*
X174844332Y-107997575D01*
X174847325Y-107954638D01*
X174836986Y-107909467D01*
X174821749Y-107929062D01*
G36*
X173030334Y-108042833D02*
G01*
X173051500Y-108064000D01*
X173072667Y-108042833D01*
X173051500Y-108021666D01*
X173030334Y-108042833D01*
G37*
X173030334Y-108042833D02*
X173051500Y-108064000D01*
X173072667Y-108042833D01*
X173051500Y-108021666D01*
X173030334Y-108042833D01*
G36*
X174187445Y-107993444D02*
G01*
X174182378Y-108043684D01*
X174187445Y-108049888D01*
X174212612Y-108044077D01*
X174215667Y-108021666D01*
X174200178Y-107986821D01*
X174187445Y-107993444D01*
G37*
X174187445Y-107993444D02*
X174182378Y-108043684D01*
X174187445Y-108049888D01*
X174212612Y-108044077D01*
X174215667Y-108021666D01*
X174200178Y-107986821D01*
X174187445Y-107993444D01*
G36*
X177263667Y-108042833D02*
G01*
X177284834Y-108064000D01*
X177306000Y-108042833D01*
X177284834Y-108021666D01*
X177263667Y-108042833D01*
G37*
X177263667Y-108042833D02*
X177284834Y-108064000D01*
X177306000Y-108042833D01*
X177284834Y-108021666D01*
X177263667Y-108042833D01*
G36*
X176290000Y-108085166D02*
G01*
X176311167Y-108106333D01*
X176332334Y-108085166D01*
X176311167Y-108064000D01*
X176290000Y-108085166D01*
G37*
X176290000Y-108085166D02*
X176311167Y-108106333D01*
X176332334Y-108085166D01*
X176311167Y-108064000D01*
X176290000Y-108085166D01*
G36*
X172916615Y-108091345D02*
G01*
X172924500Y-108106333D01*
X172964388Y-108146761D01*
X172971831Y-108148666D01*
X172974719Y-108121321D01*
X172966834Y-108106333D01*
X172926947Y-108065904D01*
X172919504Y-108064000D01*
X172916615Y-108091345D01*
G37*
X172916615Y-108091345D02*
X172924500Y-108106333D01*
X172964388Y-108146761D01*
X172971831Y-108148666D01*
X172974719Y-108121321D01*
X172966834Y-108106333D01*
X172926947Y-108065904D01*
X172919504Y-108064000D01*
X172916615Y-108091345D01*
G36*
X174264541Y-108081124D02*
G01*
X174219095Y-108123749D01*
X174228417Y-108148254D01*
X174234335Y-108148666D01*
X174270142Y-108118598D01*
X174283210Y-108099792D01*
X174288199Y-108070823D01*
X174264541Y-108081124D01*
G37*
X174264541Y-108081124D02*
X174219095Y-108123749D01*
X174228417Y-108148254D01*
X174234335Y-108148666D01*
X174270142Y-108118598D01*
X174283210Y-108099792D01*
X174288199Y-108070823D01*
X174264541Y-108081124D01*
G36*
X175274000Y-108127500D02*
G01*
X175295167Y-108148666D01*
X175316334Y-108127500D01*
X175295167Y-108106333D01*
X175274000Y-108127500D01*
G37*
X175274000Y-108127500D02*
X175295167Y-108148666D01*
X175316334Y-108127500D01*
X175295167Y-108106333D01*
X175274000Y-108127500D01*
G36*
X175909000Y-108127500D02*
G01*
X175930167Y-108148666D01*
X175951334Y-108127500D01*
X175930167Y-108106333D01*
X175909000Y-108127500D01*
G37*
X175909000Y-108127500D02*
X175930167Y-108148666D01*
X175951334Y-108127500D01*
X175930167Y-108106333D01*
X175909000Y-108127500D01*
G36*
X177221334Y-108127500D02*
G01*
X177242500Y-108148666D01*
X177263667Y-108127500D01*
X177242500Y-108106333D01*
X177221334Y-108127500D01*
G37*
X177221334Y-108127500D02*
X177242500Y-108148666D01*
X177263667Y-108127500D01*
X177242500Y-108106333D01*
X177221334Y-108127500D01*
G36*
X172183667Y-108169833D02*
G01*
X172204834Y-108191000D01*
X172226000Y-108169833D01*
X172204834Y-108148666D01*
X172183667Y-108169833D01*
G37*
X172183667Y-108169833D02*
X172204834Y-108191000D01*
X172226000Y-108169833D01*
X172204834Y-108148666D01*
X172183667Y-108169833D01*
G36*
X173623000Y-108169833D02*
G01*
X173644167Y-108191000D01*
X173665334Y-108169833D01*
X173644167Y-108148666D01*
X173623000Y-108169833D01*
G37*
X173623000Y-108169833D02*
X173644167Y-108191000D01*
X173665334Y-108169833D01*
X173644167Y-108148666D01*
X173623000Y-108169833D01*
G36*
X173086778Y-108205111D02*
G01*
X173092589Y-108230278D01*
X173115000Y-108233333D01*
X173149846Y-108217844D01*
X173143223Y-108205111D01*
X173092983Y-108200044D01*
X173086778Y-108205111D01*
G37*
X173086778Y-108205111D02*
X173092589Y-108230278D01*
X173115000Y-108233333D01*
X173149846Y-108217844D01*
X173143223Y-108205111D01*
X173092983Y-108200044D01*
X173086778Y-108205111D01*
G36*
X176417000Y-108212166D02*
G01*
X176438167Y-108233333D01*
X176459334Y-108212166D01*
X176438167Y-108191000D01*
X176417000Y-108212166D01*
G37*
X176417000Y-108212166D02*
X176438167Y-108233333D01*
X176459334Y-108212166D01*
X176438167Y-108191000D01*
X176417000Y-108212166D01*
G36*
X172903334Y-108254500D02*
G01*
X172924500Y-108275666D01*
X172945667Y-108254500D01*
X172924500Y-108233333D01*
X172903334Y-108254500D01*
G37*
X172903334Y-108254500D02*
X172924500Y-108275666D01*
X172945667Y-108254500D01*
X172924500Y-108233333D01*
X172903334Y-108254500D01*
G36*
X173538334Y-108254500D02*
G01*
X173559500Y-108275666D01*
X173580667Y-108254500D01*
X173559500Y-108233333D01*
X173538334Y-108254500D01*
G37*
X173538334Y-108254500D02*
X173559500Y-108275666D01*
X173580667Y-108254500D01*
X173559500Y-108233333D01*
X173538334Y-108254500D01*
G36*
X173707667Y-108254500D02*
G01*
X173728834Y-108275666D01*
X173750000Y-108254500D01*
X173728834Y-108233333D01*
X173707667Y-108254500D01*
G37*
X173707667Y-108254500D02*
X173728834Y-108275666D01*
X173750000Y-108254500D01*
X173728834Y-108233333D01*
X173707667Y-108254500D01*
G36*
X174526112Y-108247444D02*
G01*
X174531923Y-108272611D01*
X174554334Y-108275666D01*
X174589179Y-108260177D01*
X174582556Y-108247444D01*
X174532316Y-108242377D01*
X174526112Y-108247444D01*
G37*
X174526112Y-108247444D02*
X174531923Y-108272611D01*
X174554334Y-108275666D01*
X174589179Y-108260177D01*
X174582556Y-108247444D01*
X174532316Y-108242377D01*
X174526112Y-108247444D01*
G36*
X175909000Y-108254500D02*
G01*
X175930167Y-108275666D01*
X175951334Y-108254500D01*
X175930167Y-108233333D01*
X175909000Y-108254500D01*
G37*
X175909000Y-108254500D02*
X175930167Y-108275666D01*
X175951334Y-108254500D01*
X175930167Y-108233333D01*
X175909000Y-108254500D01*
G36*
X171893875Y-108250457D02*
G01*
X171848428Y-108293082D01*
X171857751Y-108317587D01*
X171863669Y-108318000D01*
X171899475Y-108287931D01*
X171912543Y-108269125D01*
X171917533Y-108240157D01*
X171893875Y-108250457D01*
G37*
X171893875Y-108250457D02*
X171848428Y-108293082D01*
X171857751Y-108317587D01*
X171863669Y-108318000D01*
X171899475Y-108287931D01*
X171912543Y-108269125D01*
X171917533Y-108240157D01*
X171893875Y-108250457D01*
G36*
X173636282Y-108303011D02*
G01*
X173644167Y-108318000D01*
X173684054Y-108358428D01*
X173691497Y-108360333D01*
X173694386Y-108332988D01*
X173686500Y-108318000D01*
X173646613Y-108277571D01*
X173639170Y-108275666D01*
X173636282Y-108303011D01*
G37*
X173636282Y-108303011D02*
X173644167Y-108318000D01*
X173684054Y-108358428D01*
X173691497Y-108360333D01*
X173694386Y-108332988D01*
X173686500Y-108318000D01*
X173646613Y-108277571D01*
X173639170Y-108275666D01*
X173636282Y-108303011D01*
G36*
X173792334Y-108339166D02*
G01*
X173813500Y-108360333D01*
X173834667Y-108339166D01*
X173813500Y-108318000D01*
X173792334Y-108339166D01*
G37*
X173792334Y-108339166D02*
X173813500Y-108360333D01*
X173834667Y-108339166D01*
X173813500Y-108318000D01*
X173792334Y-108339166D01*
G36*
X174048057Y-108306396D02*
G01*
X174046334Y-108318000D01*
X174060777Y-108359232D01*
X174065002Y-108360333D01*
X174101145Y-108330668D01*
X174109834Y-108318000D01*
X174106477Y-108278990D01*
X174091166Y-108275666D01*
X174048057Y-108306396D01*
G37*
X174048057Y-108306396D02*
X174046334Y-108318000D01*
X174060777Y-108359232D01*
X174065002Y-108360333D01*
X174101145Y-108330668D01*
X174109834Y-108318000D01*
X174106477Y-108278990D01*
X174091166Y-108275666D01*
X174048057Y-108306396D01*
G36*
X175372082Y-108267729D02*
G01*
X175367035Y-108333891D01*
X175375424Y-108348868D01*
X175394665Y-108336242D01*
X175397658Y-108293305D01*
X175387320Y-108248134D01*
X175372082Y-108267729D01*
G37*
X175372082Y-108267729D02*
X175367035Y-108333891D01*
X175375424Y-108348868D01*
X175394665Y-108336242D01*
X175397658Y-108293305D01*
X175387320Y-108248134D01*
X175372082Y-108267729D01*
G36*
X176459334Y-108339166D02*
G01*
X176480500Y-108360333D01*
X176501667Y-108339166D01*
X176480500Y-108318000D01*
X176459334Y-108339166D01*
G37*
X176459334Y-108339166D02*
X176480500Y-108360333D01*
X176501667Y-108339166D01*
X176480500Y-108318000D01*
X176459334Y-108339166D01*
G36*
X171774445Y-108332111D02*
G01*
X171769378Y-108382350D01*
X171774445Y-108388555D01*
X171799612Y-108382744D01*
X171802667Y-108360333D01*
X171787178Y-108325488D01*
X171774445Y-108332111D01*
G37*
X171774445Y-108332111D02*
X171769378Y-108382350D01*
X171774445Y-108388555D01*
X171799612Y-108382744D01*
X171802667Y-108360333D01*
X171787178Y-108325488D01*
X171774445Y-108332111D01*
G36*
X172564667Y-108381500D02*
G01*
X172585834Y-108402666D01*
X172607000Y-108381500D01*
X172585834Y-108360333D01*
X172564667Y-108381500D01*
G37*
X172564667Y-108381500D02*
X172585834Y-108402666D01*
X172607000Y-108381500D01*
X172585834Y-108360333D01*
X172564667Y-108381500D01*
G36*
X174258000Y-108381500D02*
G01*
X174279167Y-108402666D01*
X174300334Y-108381500D01*
X174279167Y-108360333D01*
X174258000Y-108381500D01*
G37*
X174258000Y-108381500D02*
X174279167Y-108402666D01*
X174300334Y-108381500D01*
X174279167Y-108360333D01*
X174258000Y-108381500D01*
G36*
X174469667Y-108381500D02*
G01*
X174490834Y-108402666D01*
X174512000Y-108381500D01*
X174490834Y-108360333D01*
X174469667Y-108381500D01*
G37*
X174469667Y-108381500D02*
X174490834Y-108402666D01*
X174512000Y-108381500D01*
X174490834Y-108360333D01*
X174469667Y-108381500D01*
G36*
X176120667Y-108381500D02*
G01*
X176141834Y-108402666D01*
X176163000Y-108381500D01*
X176141834Y-108360333D01*
X176120667Y-108381500D01*
G37*
X176120667Y-108381500D02*
X176141834Y-108402666D01*
X176163000Y-108381500D01*
X176141834Y-108360333D01*
X176120667Y-108381500D01*
G36*
X172832778Y-108374444D02*
G01*
X172827712Y-108424684D01*
X172832778Y-108430888D01*
X172857945Y-108425077D01*
X172861000Y-108402666D01*
X172845511Y-108367821D01*
X172832778Y-108374444D01*
G37*
X172832778Y-108374444D02*
X172827712Y-108424684D01*
X172832778Y-108430888D01*
X172857945Y-108425077D01*
X172861000Y-108402666D01*
X172845511Y-108367821D01*
X172832778Y-108374444D01*
G36*
X174342667Y-108423833D02*
G01*
X174363834Y-108445000D01*
X174385000Y-108423833D01*
X174363834Y-108402666D01*
X174342667Y-108423833D01*
G37*
X174342667Y-108423833D02*
X174363834Y-108445000D01*
X174385000Y-108423833D01*
X174363834Y-108402666D01*
X174342667Y-108423833D01*
G36*
X171845000Y-108466166D02*
G01*
X171866167Y-108487333D01*
X171887334Y-108466166D01*
X171866167Y-108445000D01*
X171845000Y-108466166D01*
G37*
X171845000Y-108466166D02*
X171866167Y-108487333D01*
X171887334Y-108466166D01*
X171866167Y-108445000D01*
X171845000Y-108466166D01*
G36*
X172734000Y-108508500D02*
G01*
X172755167Y-108529666D01*
X172776334Y-108508500D01*
X172755167Y-108487333D01*
X172734000Y-108508500D01*
G37*
X172734000Y-108508500D02*
X172755167Y-108529666D01*
X172776334Y-108508500D01*
X172755167Y-108487333D01*
X172734000Y-108508500D01*
G36*
X173326667Y-108508500D02*
G01*
X173347834Y-108529666D01*
X173369000Y-108508500D01*
X173347834Y-108487333D01*
X173326667Y-108508500D01*
G37*
X173326667Y-108508500D02*
X173347834Y-108529666D01*
X173369000Y-108508500D01*
X173347834Y-108487333D01*
X173326667Y-108508500D01*
G36*
X176507452Y-107666826D02*
G01*
X176467070Y-107690773D01*
X176425544Y-107728147D01*
X176409473Y-107777756D01*
X176417305Y-107863083D01*
X176446417Y-108002850D01*
X176525737Y-108245713D01*
X176639046Y-108412585D01*
X176788755Y-108506031D01*
X176941380Y-108529666D01*
X177079423Y-108517953D01*
X177163437Y-108476199D01*
X177194104Y-108440809D01*
X177230133Y-108318820D01*
X177189016Y-108170663D01*
X177072382Y-108001208D01*
X177032230Y-107956739D01*
X176956258Y-107867588D01*
X176917554Y-107804695D01*
X176917188Y-107789590D01*
X176903838Y-107770551D01*
X176875060Y-107767666D01*
X176794984Y-107749590D01*
X176686814Y-107705643D01*
X176678088Y-107701357D01*
X176576971Y-107660740D01*
X176507452Y-107666826D01*
G37*
X176507452Y-107666826D02*
X176467070Y-107690773D01*
X176425544Y-107728147D01*
X176409473Y-107777756D01*
X176417305Y-107863083D01*
X176446417Y-108002850D01*
X176525737Y-108245713D01*
X176639046Y-108412585D01*
X176788755Y-108506031D01*
X176941380Y-108529666D01*
X177079423Y-108517953D01*
X177163437Y-108476199D01*
X177194104Y-108440809D01*
X177230133Y-108318820D01*
X177189016Y-108170663D01*
X177072382Y-108001208D01*
X177032230Y-107956739D01*
X176956258Y-107867588D01*
X176917554Y-107804695D01*
X176917188Y-107789590D01*
X176903838Y-107770551D01*
X176875060Y-107767666D01*
X176794984Y-107749590D01*
X176686814Y-107705643D01*
X176678088Y-107701357D01*
X176576971Y-107660740D01*
X176507452Y-107666826D01*
G36*
X173496000Y-108550833D02*
G01*
X173517167Y-108572000D01*
X173538334Y-108550833D01*
X173517167Y-108529666D01*
X173496000Y-108550833D01*
G37*
X173496000Y-108550833D02*
X173517167Y-108572000D01*
X173538334Y-108550833D01*
X173517167Y-108529666D01*
X173496000Y-108550833D01*
G36*
X176120667Y-108550833D02*
G01*
X176141834Y-108572000D01*
X176163000Y-108550833D01*
X176141834Y-108529666D01*
X176120667Y-108550833D01*
G37*
X176120667Y-108550833D02*
X176141834Y-108572000D01*
X176163000Y-108550833D01*
X176141834Y-108529666D01*
X176120667Y-108550833D01*
G36*
X176685112Y-108586111D02*
G01*
X176690923Y-108611278D01*
X176713334Y-108614333D01*
X176748179Y-108598844D01*
X176741556Y-108586111D01*
X176691316Y-108581044D01*
X176685112Y-108586111D01*
G37*
X176685112Y-108586111D02*
X176690923Y-108611278D01*
X176713334Y-108614333D01*
X176748179Y-108598844D01*
X176741556Y-108586111D01*
X176691316Y-108581044D01*
X176685112Y-108586111D01*
G36*
X173425445Y-108586111D02*
G01*
X173420378Y-108636350D01*
X173425445Y-108642555D01*
X173450612Y-108636744D01*
X173453667Y-108614333D01*
X173438178Y-108579488D01*
X173425445Y-108586111D01*
G37*
X173425445Y-108586111D02*
X173420378Y-108636350D01*
X173425445Y-108642555D01*
X173450612Y-108636744D01*
X173453667Y-108614333D01*
X173438178Y-108579488D01*
X173425445Y-108586111D01*
G36*
X176205334Y-108635500D02*
G01*
X176226500Y-108656666D01*
X176247667Y-108635500D01*
X176226500Y-108614333D01*
X176205334Y-108635500D01*
G37*
X176205334Y-108635500D02*
X176226500Y-108656666D01*
X176247667Y-108635500D01*
X176226500Y-108614333D01*
X176205334Y-108635500D01*
G36*
X173538334Y-108677833D02*
G01*
X173559500Y-108699000D01*
X173580667Y-108677833D01*
X173559500Y-108656666D01*
X173538334Y-108677833D01*
G37*
X173538334Y-108677833D02*
X173559500Y-108699000D01*
X173580667Y-108677833D01*
X173559500Y-108656666D01*
X173538334Y-108677833D01*
G36*
X177066112Y-108670777D02*
G01*
X177071923Y-108695944D01*
X177094334Y-108699000D01*
X177129179Y-108683510D01*
X177122556Y-108670777D01*
X177072316Y-108665711D01*
X177066112Y-108670777D01*
G37*
X177066112Y-108670777D02*
X177071923Y-108695944D01*
X177094334Y-108699000D01*
X177129179Y-108683510D01*
X177122556Y-108670777D01*
X177072316Y-108665711D01*
X177066112Y-108670777D01*
G36*
X172607000Y-108720166D02*
G01*
X172628167Y-108741333D01*
X172649334Y-108720166D01*
X172628167Y-108699000D01*
X172607000Y-108720166D01*
G37*
X172607000Y-108720166D02*
X172628167Y-108741333D01*
X172649334Y-108720166D01*
X172628167Y-108699000D01*
X172607000Y-108720166D01*
G36*
X173961667Y-108720166D02*
G01*
X173982834Y-108741333D01*
X174004000Y-108720166D01*
X173982834Y-108699000D01*
X173961667Y-108720166D01*
G37*
X173961667Y-108720166D02*
X173982834Y-108741333D01*
X174004000Y-108720166D01*
X173982834Y-108699000D01*
X173961667Y-108720166D01*
G36*
X174893000Y-108720166D02*
G01*
X174914167Y-108741333D01*
X174935334Y-108720166D01*
X174914167Y-108699000D01*
X174893000Y-108720166D01*
G37*
X174893000Y-108720166D02*
X174914167Y-108741333D01*
X174935334Y-108720166D01*
X174914167Y-108699000D01*
X174893000Y-108720166D01*
G36*
X176628667Y-108720166D02*
G01*
X176649834Y-108741333D01*
X176671000Y-108720166D01*
X176649834Y-108699000D01*
X176628667Y-108720166D01*
G37*
X176628667Y-108720166D02*
X176649834Y-108741333D01*
X176671000Y-108720166D01*
X176649834Y-108699000D01*
X176628667Y-108720166D01*
G36*
X173340778Y-108713111D02*
G01*
X173335712Y-108763350D01*
X173340778Y-108769555D01*
X173365945Y-108763744D01*
X173369000Y-108741333D01*
X173353511Y-108706488D01*
X173340778Y-108713111D01*
G37*
X173340778Y-108713111D02*
X173335712Y-108763350D01*
X173340778Y-108769555D01*
X173365945Y-108763744D01*
X173369000Y-108741333D01*
X173353511Y-108706488D01*
X173340778Y-108713111D01*
G36*
X174780112Y-108713111D02*
G01*
X174775045Y-108763350D01*
X174780112Y-108769555D01*
X174805279Y-108763744D01*
X174808334Y-108741333D01*
X174792845Y-108706488D01*
X174780112Y-108713111D01*
G37*
X174780112Y-108713111D02*
X174775045Y-108763350D01*
X174780112Y-108769555D01*
X174805279Y-108763744D01*
X174808334Y-108741333D01*
X174792845Y-108706488D01*
X174780112Y-108713111D01*
G36*
X173919334Y-108847166D02*
G01*
X173940500Y-108868333D01*
X173961667Y-108847166D01*
X173940500Y-108826000D01*
X173919334Y-108847166D01*
G37*
X173919334Y-108847166D02*
X173940500Y-108868333D01*
X173961667Y-108847166D01*
X173940500Y-108826000D01*
X173919334Y-108847166D01*
G36*
X175316334Y-108847166D02*
G01*
X175337500Y-108868333D01*
X175358667Y-108847166D01*
X175337500Y-108826000D01*
X175316334Y-108847166D01*
G37*
X175316334Y-108847166D02*
X175337500Y-108868333D01*
X175358667Y-108847166D01*
X175337500Y-108826000D01*
X175316334Y-108847166D01*
G36*
X172124717Y-108781120D02*
G01*
X172117143Y-108826604D01*
X172122308Y-108899712D01*
X172143769Y-108895620D01*
X172164780Y-108864644D01*
X172166877Y-108797205D01*
X172155183Y-108780582D01*
X172124717Y-108781120D01*
G37*
X172124717Y-108781120D02*
X172117143Y-108826604D01*
X172122308Y-108899712D01*
X172143769Y-108895620D01*
X172164780Y-108864644D01*
X172166877Y-108797205D01*
X172155183Y-108780582D01*
X172124717Y-108781120D01*
G36*
X176840334Y-108889500D02*
G01*
X176861500Y-108910666D01*
X176882667Y-108889500D01*
X176861500Y-108868333D01*
X176840334Y-108889500D01*
G37*
X176840334Y-108889500D02*
X176861500Y-108910666D01*
X176882667Y-108889500D01*
X176861500Y-108868333D01*
X176840334Y-108889500D01*
G36*
X175457445Y-108882444D02*
G01*
X175452378Y-108932684D01*
X175457445Y-108938888D01*
X175482612Y-108933077D01*
X175485667Y-108910666D01*
X175470178Y-108875821D01*
X175457445Y-108882444D01*
G37*
X175457445Y-108882444D02*
X175452378Y-108932684D01*
X175457445Y-108938888D01*
X175482612Y-108933077D01*
X175485667Y-108910666D01*
X175470178Y-108875821D01*
X175457445Y-108882444D01*
G36*
X174004000Y-108931833D02*
G01*
X173963615Y-108969874D01*
X173961667Y-108976665D01*
X173994420Y-108994847D01*
X174004000Y-108995333D01*
X174044707Y-108962789D01*
X174046334Y-108950501D01*
X174020399Y-108925218D01*
X174004000Y-108931833D01*
G37*
X174004000Y-108931833D02*
X173963615Y-108969874D01*
X173961667Y-108976665D01*
X173994420Y-108994847D01*
X174004000Y-108995333D01*
X174044707Y-108962789D01*
X174046334Y-108950501D01*
X174020399Y-108925218D01*
X174004000Y-108931833D01*
G36*
X173425445Y-108967111D02*
G01*
X173420378Y-109017350D01*
X173425445Y-109023555D01*
X173450612Y-109017744D01*
X173453667Y-108995333D01*
X173438178Y-108960488D01*
X173425445Y-108967111D01*
G37*
X173425445Y-108967111D02*
X173420378Y-109017350D01*
X173425445Y-109023555D01*
X173450612Y-109017744D01*
X173453667Y-108995333D01*
X173438178Y-108960488D01*
X173425445Y-108967111D01*
G36*
X174808334Y-109016500D02*
G01*
X174829500Y-109037666D01*
X174850667Y-109016500D01*
X174829500Y-108995333D01*
X174808334Y-109016500D01*
G37*
X174808334Y-109016500D02*
X174829500Y-109037666D01*
X174850667Y-109016500D01*
X174829500Y-108995333D01*
X174808334Y-109016500D01*
G36*
X172353000Y-109058833D02*
G01*
X172374167Y-109080000D01*
X172395334Y-109058833D01*
X172374167Y-109037666D01*
X172353000Y-109058833D01*
G37*
X172353000Y-109058833D02*
X172374167Y-109080000D01*
X172395334Y-109058833D01*
X172374167Y-109037666D01*
X172353000Y-109058833D01*
G36*
X172522334Y-109101166D02*
G01*
X172543500Y-109122333D01*
X172564667Y-109101166D01*
X172543500Y-109080000D01*
X172522334Y-109101166D01*
G37*
X172522334Y-109101166D02*
X172543500Y-109122333D01*
X172564667Y-109101166D01*
X172543500Y-109080000D01*
X172522334Y-109101166D01*
G36*
X173063049Y-108310835D02*
G01*
X173030721Y-108338700D01*
X172968228Y-108378828D01*
X172934330Y-108374493D01*
X172909439Y-108373718D01*
X172916454Y-108389647D01*
X172905315Y-108442435D01*
X172845727Y-108523095D01*
X172817689Y-108551770D01*
X172727323Y-108669321D01*
X172669080Y-108801303D01*
X172664933Y-108819623D01*
X172656035Y-108932571D01*
X172691880Y-109007489D01*
X172732596Y-109045041D01*
X172856359Y-109104643D01*
X173003767Y-109121030D01*
X173139872Y-109094213D01*
X173214273Y-109044916D01*
X173259186Y-108958436D01*
X173280987Y-108815324D01*
X173284334Y-108695266D01*
X173288705Y-108539802D01*
X173305857Y-108445865D01*
X173341847Y-108390585D01*
X173370722Y-108369082D01*
X173457190Y-108337854D01*
X173508306Y-108343943D01*
X173538317Y-108355167D01*
X173508378Y-108317537D01*
X173455197Y-108284359D01*
X173391438Y-108316731D01*
X173385077Y-108321910D01*
X173324531Y-108357900D01*
X173295325Y-108329280D01*
X173295088Y-108328583D01*
X173242676Y-108285066D01*
X173152843Y-108279628D01*
X173063049Y-108310835D01*
G37*
X173063049Y-108310835D02*
X173030721Y-108338700D01*
X172968228Y-108378828D01*
X172934330Y-108374493D01*
X172909439Y-108373718D01*
X172916454Y-108389647D01*
X172905315Y-108442435D01*
X172845727Y-108523095D01*
X172817689Y-108551770D01*
X172727323Y-108669321D01*
X172669080Y-108801303D01*
X172664933Y-108819623D01*
X172656035Y-108932571D01*
X172691880Y-109007489D01*
X172732596Y-109045041D01*
X172856359Y-109104643D01*
X173003767Y-109121030D01*
X173139872Y-109094213D01*
X173214273Y-109044916D01*
X173259186Y-108958436D01*
X173280987Y-108815324D01*
X173284334Y-108695266D01*
X173288705Y-108539802D01*
X173305857Y-108445865D01*
X173341847Y-108390585D01*
X173370722Y-108369082D01*
X173457190Y-108337854D01*
X173508306Y-108343943D01*
X173538317Y-108355167D01*
X173508378Y-108317537D01*
X173455197Y-108284359D01*
X173391438Y-108316731D01*
X173385077Y-108321910D01*
X173324531Y-108357900D01*
X173295325Y-108329280D01*
X173295088Y-108328583D01*
X173242676Y-108285066D01*
X173152843Y-108279628D01*
X173063049Y-108310835D01*
G36*
X176290000Y-109101166D02*
G01*
X176311167Y-109122333D01*
X176332334Y-109101166D01*
X176311167Y-109080000D01*
X176290000Y-109101166D01*
G37*
X176290000Y-109101166D02*
X176311167Y-109122333D01*
X176332334Y-109101166D01*
X176311167Y-109080000D01*
X176290000Y-109101166D01*
G36*
X176459334Y-109101166D02*
G01*
X176480500Y-109122333D01*
X176501667Y-109101166D01*
X176480500Y-109080000D01*
X176459334Y-109101166D01*
G37*
X176459334Y-109101166D02*
X176480500Y-109122333D01*
X176501667Y-109101166D01*
X176480500Y-109080000D01*
X176459334Y-109101166D01*
G36*
X172395334Y-109143500D02*
G01*
X172416500Y-109164666D01*
X172437667Y-109143500D01*
X172416500Y-109122333D01*
X172395334Y-109143500D01*
G37*
X172395334Y-109143500D02*
X172416500Y-109164666D01*
X172437667Y-109143500D01*
X172416500Y-109122333D01*
X172395334Y-109143500D01*
G36*
X174018112Y-109094111D02*
G01*
X174013045Y-109144350D01*
X174018112Y-109150555D01*
X174043279Y-109144744D01*
X174046334Y-109122333D01*
X174030845Y-109087488D01*
X174018112Y-109094111D01*
G37*
X174018112Y-109094111D02*
X174013045Y-109144350D01*
X174018112Y-109150555D01*
X174043279Y-109144744D01*
X174046334Y-109122333D01*
X174030845Y-109087488D01*
X174018112Y-109094111D01*
G36*
X173919334Y-109185833D02*
G01*
X173940500Y-109207000D01*
X173961667Y-109185833D01*
X173940500Y-109164666D01*
X173919334Y-109185833D01*
G37*
X173919334Y-109185833D02*
X173940500Y-109207000D01*
X173961667Y-109185833D01*
X173940500Y-109164666D01*
X173919334Y-109185833D01*
G36*
X175511658Y-108131506D02*
G01*
X175474074Y-108190188D01*
X175461571Y-108323828D01*
X175474187Y-108526504D01*
X175507468Y-108765566D01*
X175565854Y-108917474D01*
X175674504Y-109046729D01*
X175812281Y-109138211D01*
X175958051Y-109176803D01*
X176061016Y-109161519D01*
X176132931Y-109118587D01*
X176201529Y-109055987D01*
X176248321Y-108995025D01*
X176254817Y-108957008D01*
X176241961Y-108953000D01*
X176213168Y-108915790D01*
X176218344Y-108815416D01*
X176228138Y-108739321D01*
X176222172Y-108727251D01*
X176218946Y-108734237D01*
X176187963Y-108744477D01*
X176142111Y-108699435D01*
X176095868Y-108623245D01*
X176063716Y-108540042D01*
X176060135Y-108473961D01*
X176061109Y-108471160D01*
X176057076Y-108402563D01*
X176039371Y-108383583D01*
X176011673Y-108388818D01*
X176018862Y-108432217D01*
X176020183Y-108465979D01*
X175979140Y-108430030D01*
X175955871Y-108402666D01*
X175827096Y-108251218D01*
X175733310Y-108158130D01*
X175658907Y-108113877D01*
X175588280Y-108108931D01*
X175511658Y-108131506D01*
G37*
X175511658Y-108131506D02*
X175474074Y-108190188D01*
X175461571Y-108323828D01*
X175474187Y-108526504D01*
X175507468Y-108765566D01*
X175565854Y-108917474D01*
X175674504Y-109046729D01*
X175812281Y-109138211D01*
X175958051Y-109176803D01*
X176061016Y-109161519D01*
X176132931Y-109118587D01*
X176201529Y-109055987D01*
X176248321Y-108995025D01*
X176254817Y-108957008D01*
X176241961Y-108953000D01*
X176213168Y-108915790D01*
X176218344Y-108815416D01*
X176228138Y-108739321D01*
X176222172Y-108727251D01*
X176218946Y-108734237D01*
X176187963Y-108744477D01*
X176142111Y-108699435D01*
X176095868Y-108623245D01*
X176063716Y-108540042D01*
X176060135Y-108473961D01*
X176061109Y-108471160D01*
X176057076Y-108402563D01*
X176039371Y-108383583D01*
X176011673Y-108388818D01*
X176018862Y-108432217D01*
X176020183Y-108465979D01*
X175979140Y-108430030D01*
X175955871Y-108402666D01*
X175827096Y-108251218D01*
X175733310Y-108158130D01*
X175658907Y-108113877D01*
X175588280Y-108108931D01*
X175511658Y-108131506D01*
G36*
X176600445Y-109136444D02*
G01*
X176595378Y-109186684D01*
X176600445Y-109192888D01*
X176625612Y-109187077D01*
X176628667Y-109164666D01*
X176613178Y-109129821D01*
X176600445Y-109136444D01*
G37*
X176600445Y-109136444D02*
X176595378Y-109186684D01*
X176600445Y-109192888D01*
X176625612Y-109187077D01*
X176628667Y-109164666D01*
X176613178Y-109129821D01*
X176600445Y-109136444D01*
G36*
X172787799Y-109266090D02*
G01*
X172800425Y-109285331D01*
X172843362Y-109288324D01*
X172888533Y-109277985D01*
X172868938Y-109262748D01*
X172802776Y-109257701D01*
X172787799Y-109266090D01*
G37*
X172787799Y-109266090D02*
X172800425Y-109285331D01*
X172843362Y-109288324D01*
X172888533Y-109277985D01*
X172868938Y-109262748D01*
X172802776Y-109257701D01*
X172787799Y-109266090D01*
G36*
X175909000Y-109270500D02*
G01*
X175930167Y-109291666D01*
X175951334Y-109270500D01*
X175930167Y-109249333D01*
X175909000Y-109270500D01*
G37*
X175909000Y-109270500D02*
X175930167Y-109291666D01*
X175951334Y-109270500D01*
X175930167Y-109249333D01*
X175909000Y-109270500D01*
G36*
X172494887Y-109192396D02*
G01*
X172496063Y-109223062D01*
X172519786Y-109297700D01*
X172532043Y-109315487D01*
X172549781Y-109306269D01*
X172548605Y-109275604D01*
X172524882Y-109200966D01*
X172512625Y-109183179D01*
X172494887Y-109192396D01*
G37*
X172494887Y-109192396D02*
X172496063Y-109223062D01*
X172519786Y-109297700D01*
X172532043Y-109315487D01*
X172549781Y-109306269D01*
X172548605Y-109275604D01*
X172524882Y-109200966D01*
X172512625Y-109183179D01*
X172494887Y-109192396D01*
G36*
X172903334Y-109397500D02*
G01*
X172924500Y-109418666D01*
X172945667Y-109397500D01*
X172924500Y-109376333D01*
X172903334Y-109397500D01*
G37*
X172903334Y-109397500D02*
X172924500Y-109418666D01*
X172945667Y-109397500D01*
X172924500Y-109376333D01*
X172903334Y-109397500D01*
G36*
X175909000Y-109397500D02*
G01*
X175930167Y-109418666D01*
X175951334Y-109397500D01*
X175930167Y-109376333D01*
X175909000Y-109397500D01*
G37*
X175909000Y-109397500D02*
X175930167Y-109418666D01*
X175951334Y-109397500D01*
X175930167Y-109376333D01*
X175909000Y-109397500D01*
G36*
X176120667Y-109397500D02*
G01*
X176141834Y-109418666D01*
X176163000Y-109397500D01*
X176141834Y-109376333D01*
X176120667Y-109397500D01*
G37*
X176120667Y-109397500D02*
X176141834Y-109418666D01*
X176163000Y-109397500D01*
X176141834Y-109376333D01*
X176120667Y-109397500D01*
G36*
X172790445Y-109432777D02*
G01*
X172796256Y-109457944D01*
X172818667Y-109461000D01*
X172853512Y-109445510D01*
X172846889Y-109432777D01*
X172796650Y-109427711D01*
X172790445Y-109432777D01*
G37*
X172790445Y-109432777D02*
X172796256Y-109457944D01*
X172818667Y-109461000D01*
X172853512Y-109445510D01*
X172846889Y-109432777D01*
X172796650Y-109427711D01*
X172790445Y-109432777D01*
G36*
X173086778Y-109432777D02*
G01*
X173092589Y-109457944D01*
X173115000Y-109461000D01*
X173149846Y-109445510D01*
X173143223Y-109432777D01*
X173092983Y-109427711D01*
X173086778Y-109432777D01*
G37*
X173086778Y-109432777D02*
X173092589Y-109457944D01*
X173115000Y-109461000D01*
X173149846Y-109445510D01*
X173143223Y-109432777D01*
X173092983Y-109427711D01*
X173086778Y-109432777D01*
G36*
X174405566Y-108487832D02*
G01*
X174334482Y-108516762D01*
X174302673Y-108509945D01*
X174275630Y-108514310D01*
X174281036Y-108540439D01*
X174269900Y-108606949D01*
X174214584Y-108699553D01*
X174195936Y-108722554D01*
X174120865Y-108838456D01*
X174091053Y-108976137D01*
X174088719Y-109048250D01*
X174097749Y-109173557D01*
X174121916Y-109242112D01*
X174135530Y-109249333D01*
X174163377Y-109280298D01*
X174157181Y-109315032D01*
X174152868Y-109359564D01*
X174169022Y-109357831D01*
X174222344Y-109366695D01*
X174259502Y-109399309D01*
X174345909Y-109446866D01*
X174468890Y-109456735D01*
X174592105Y-109432166D01*
X174679215Y-109376406D01*
X174689613Y-109360863D01*
X174711546Y-109268040D01*
X174715219Y-109125158D01*
X174709158Y-109041235D01*
X174688748Y-108861800D01*
X174668964Y-108743837D01*
X174642893Y-108664489D01*
X174603621Y-108600898D01*
X174560074Y-108548333D01*
X174485669Y-108477855D01*
X174430715Y-108471589D01*
X174405566Y-108487832D01*
G37*
X174405566Y-108487832D02*
X174334482Y-108516762D01*
X174302673Y-108509945D01*
X174275630Y-108514310D01*
X174281036Y-108540439D01*
X174269900Y-108606949D01*
X174214584Y-108699553D01*
X174195936Y-108722554D01*
X174120865Y-108838456D01*
X174091053Y-108976137D01*
X174088719Y-109048250D01*
X174097749Y-109173557D01*
X174121916Y-109242112D01*
X174135530Y-109249333D01*
X174163377Y-109280298D01*
X174157181Y-109315032D01*
X174152868Y-109359564D01*
X174169022Y-109357831D01*
X174222344Y-109366695D01*
X174259502Y-109399309D01*
X174345909Y-109446866D01*
X174468890Y-109456735D01*
X174592105Y-109432166D01*
X174679215Y-109376406D01*
X174689613Y-109360863D01*
X174711546Y-109268040D01*
X174715219Y-109125158D01*
X174709158Y-109041235D01*
X174688748Y-108861800D01*
X174668964Y-108743837D01*
X174642893Y-108664489D01*
X174603621Y-108600898D01*
X174560074Y-108548333D01*
X174485669Y-108477855D01*
X174430715Y-108471589D01*
X174405566Y-108487832D01*
G36*
X172903334Y-109482166D02*
G01*
X172924500Y-109503333D01*
X172945667Y-109482166D01*
X172924500Y-109461000D01*
X172903334Y-109482166D01*
G37*
X172903334Y-109482166D02*
X172924500Y-109503333D01*
X172945667Y-109482166D01*
X172924500Y-109461000D01*
X172903334Y-109482166D01*
G36*
X173072667Y-109524500D02*
G01*
X173093834Y-109545666D01*
X173115000Y-109524500D01*
X173093834Y-109503333D01*
X173072667Y-109524500D01*
G37*
X173072667Y-109524500D02*
X173093834Y-109545666D01*
X173115000Y-109524500D01*
X173093834Y-109503333D01*
X173072667Y-109524500D01*
G36*
X174300334Y-109524500D02*
G01*
X174321500Y-109545666D01*
X174342667Y-109524500D01*
X174321500Y-109503333D01*
X174300334Y-109524500D01*
G37*
X174300334Y-109524500D02*
X174321500Y-109545666D01*
X174342667Y-109524500D01*
X174321500Y-109503333D01*
X174300334Y-109524500D01*
G36*
X174526112Y-109517444D02*
G01*
X174531923Y-109542611D01*
X174554334Y-109545666D01*
X174589179Y-109530177D01*
X174582556Y-109517444D01*
X174532316Y-109512377D01*
X174526112Y-109517444D01*
G37*
X174526112Y-109517444D02*
X174531923Y-109542611D01*
X174554334Y-109545666D01*
X174589179Y-109530177D01*
X174582556Y-109517444D01*
X174532316Y-109512377D01*
X174526112Y-109517444D01*
G36*
X175932366Y-109487180D02*
G01*
X175872779Y-109521341D01*
X175882761Y-109543431D01*
X175906502Y-109545666D01*
X175963907Y-109514920D01*
X175972201Y-109503818D01*
X175965387Y-109479762D01*
X175932366Y-109487180D01*
G37*
X175932366Y-109487180D02*
X175872779Y-109521341D01*
X175882761Y-109543431D01*
X175906502Y-109545666D01*
X175963907Y-109514920D01*
X175972201Y-109503818D01*
X175965387Y-109479762D01*
X175932366Y-109487180D01*
G36*
X175612667Y-109566833D02*
G01*
X175633834Y-109588000D01*
X175655000Y-109566833D01*
X175633834Y-109545666D01*
X175612667Y-109566833D01*
G37*
X175612667Y-109566833D02*
X175633834Y-109588000D01*
X175655000Y-109566833D01*
X175633834Y-109545666D01*
X175612667Y-109566833D01*
G36*
X174596667Y-109736166D02*
G01*
X174617834Y-109757333D01*
X174639000Y-109736166D01*
X174617834Y-109715000D01*
X174596667Y-109736166D01*
G37*
X174596667Y-109736166D02*
X174617834Y-109757333D01*
X174639000Y-109736166D01*
X174617834Y-109715000D01*
X174596667Y-109736166D01*
G36*
X175316334Y-109736166D02*
G01*
X175337500Y-109757333D01*
X175358667Y-109736166D01*
X175337500Y-109715000D01*
X175316334Y-109736166D01*
G37*
X175316334Y-109736166D02*
X175337500Y-109757333D01*
X175358667Y-109736166D01*
X175337500Y-109715000D01*
X175316334Y-109736166D01*
G36*
X174653112Y-109813777D02*
G01*
X174658923Y-109838944D01*
X174681334Y-109842000D01*
X174716179Y-109826510D01*
X174709556Y-109813777D01*
X174659316Y-109808711D01*
X174653112Y-109813777D01*
G37*
X174653112Y-109813777D02*
X174658923Y-109838944D01*
X174681334Y-109842000D01*
X174716179Y-109826510D01*
X174709556Y-109813777D01*
X174659316Y-109808711D01*
X174653112Y-109813777D01*
G36*
X178718669Y-101909946D02*
G01*
X178703000Y-101949958D01*
X178684824Y-102012966D01*
X178635522Y-102133057D01*
X178562933Y-102292144D01*
X178487354Y-102447375D01*
X178325257Y-102750951D01*
X178158855Y-103014864D01*
X177965192Y-103273292D01*
X177800873Y-103469510D01*
X177655488Y-103637520D01*
X177186373Y-103393781D01*
X176762680Y-103199123D01*
X176307514Y-103035625D01*
X175834943Y-102905418D01*
X175359034Y-102810635D01*
X174893853Y-102753408D01*
X174453468Y-102735870D01*
X174051947Y-102760153D01*
X173703357Y-102828389D01*
X173623000Y-102853637D01*
X173535997Y-102881937D01*
X173392803Y-102926847D01*
X173218312Y-102980596D01*
X173136167Y-103005611D01*
X172821197Y-103109590D01*
X172523284Y-103223725D01*
X172259535Y-103340537D01*
X172047053Y-103452545D01*
X171921566Y-103536759D01*
X171816127Y-103611240D01*
X171729918Y-103655760D01*
X171705184Y-103661333D01*
X171655161Y-103629455D01*
X171569738Y-103543749D01*
X171462970Y-103419109D01*
X171395785Y-103333508D01*
X171245463Y-103140961D01*
X171072938Y-102927682D01*
X170910961Y-102734029D01*
X170881917Y-102700286D01*
X170767446Y-102563496D01*
X170677910Y-102447632D01*
X170625678Y-102369173D01*
X170617334Y-102347833D01*
X170582536Y-102316044D01*
X170526539Y-102314305D01*
X170459887Y-102349502D01*
X170398383Y-102443057D01*
X170349212Y-102560666D01*
X170280501Y-102720098D01*
X170186193Y-102907406D01*
X170094606Y-103068666D01*
X169889603Y-103408404D01*
X169731118Y-103680171D01*
X169619418Y-103883475D01*
X169554773Y-104017827D01*
X169537449Y-104082734D01*
X169538731Y-104086118D01*
X169532253Y-104141642D01*
X169488697Y-104237654D01*
X169461383Y-104284175D01*
X169373967Y-104445878D01*
X169277869Y-104659441D01*
X169185484Y-104894723D01*
X169109206Y-105121583D01*
X169090811Y-105185333D01*
X169067873Y-105308677D01*
X169047854Y-105488851D01*
X169033414Y-105698018D01*
X169028186Y-105840486D01*
X169017849Y-106305138D01*
X168621675Y-106378081D01*
X168461788Y-106411294D01*
X168284751Y-106454135D01*
X168103171Y-106502663D01*
X167929658Y-106552937D01*
X167776820Y-106601015D01*
X167657267Y-106642956D01*
X167583608Y-106674818D01*
X167568451Y-106692660D01*
X167611667Y-106693799D01*
X167717757Y-106677083D01*
X167878300Y-106643117D01*
X168066317Y-106597830D01*
X168162000Y-106572847D01*
X168357183Y-106522227D01*
X168541630Y-106477490D01*
X168686719Y-106445456D01*
X168733500Y-106436673D01*
X168860249Y-106413445D01*
X168959208Y-106391706D01*
X168973093Y-106387937D01*
X169031118Y-106399263D01*
X169079355Y-106479914D01*
X169093729Y-106520030D01*
X169122637Y-106621468D01*
X169131143Y-106681569D01*
X169129303Y-106686553D01*
X169085595Y-106708901D01*
X168985851Y-106753721D01*
X168860500Y-106807555D01*
X168669893Y-106890843D01*
X168465558Y-106985007D01*
X168258986Y-107084126D01*
X168061665Y-107182276D01*
X167885085Y-107273536D01*
X167740734Y-107351983D01*
X167640103Y-107411695D01*
X167594679Y-107446750D01*
X167609230Y-107452545D01*
X167701828Y-107424825D01*
X167850390Y-107366775D01*
X168035448Y-107286522D01*
X168237537Y-107192190D01*
X168265397Y-107178657D01*
X168585930Y-107024186D01*
X168833173Y-106909565D01*
X169008267Y-106834290D01*
X169112352Y-106797857D01*
X169136308Y-106794000D01*
X169181414Y-106828390D01*
X169199690Y-106903702D01*
X169182406Y-106978149D01*
X169176492Y-106986317D01*
X169121991Y-107033939D01*
X169016153Y-107113378D01*
X168878533Y-107210157D01*
X168826511Y-107245424D01*
X168628360Y-107380263D01*
X168412790Y-107530019D01*
X168193089Y-107685125D01*
X167982545Y-107836017D01*
X167794445Y-107973129D01*
X167642078Y-108086896D01*
X167538731Y-108167752D01*
X167507010Y-108195293D01*
X167447200Y-108260835D01*
X167448049Y-108282168D01*
X167501453Y-108264479D01*
X167599307Y-108212952D01*
X167733504Y-108132774D01*
X167895940Y-108029131D01*
X168078511Y-107907208D01*
X168273109Y-107772192D01*
X168471631Y-107629269D01*
X168665971Y-107483623D01*
X168848024Y-107340441D01*
X168866311Y-107325587D01*
X168960164Y-107256898D01*
X169029798Y-107219579D01*
X169041044Y-107217333D01*
X169100473Y-107188165D01*
X169135667Y-107153833D01*
X169204150Y-107106590D01*
X169283412Y-107091367D01*
X169339082Y-107111269D01*
X169347334Y-107134700D01*
X169377530Y-107230078D01*
X169458211Y-107360978D01*
X169574512Y-107509088D01*
X169711570Y-107656095D01*
X169854521Y-107783686D01*
X169904766Y-107821482D01*
X170123177Y-107967644D01*
X170323820Y-108085647D01*
X170496464Y-108170989D01*
X170630881Y-108219167D01*
X170716842Y-108225679D01*
X170744334Y-108191000D01*
X170778622Y-108153442D01*
X170807834Y-108148666D01*
X170860845Y-108159939D01*
X170857168Y-108200103D01*
X170793093Y-108278682D01*
X170733750Y-108338792D01*
X170644448Y-108447204D01*
X170524189Y-108625347D01*
X170377260Y-108865968D01*
X170207946Y-109161814D01*
X170020534Y-109505632D01*
X169835264Y-109859149D01*
X169743943Y-110053726D01*
X169649168Y-110285840D01*
X169554760Y-110542510D01*
X169464540Y-110810755D01*
X169382329Y-111077593D01*
X169311947Y-111330044D01*
X169257216Y-111555126D01*
X169221956Y-111739857D01*
X169209988Y-111871257D01*
X169224154Y-111935383D01*
X169254338Y-111936293D01*
X169262667Y-111882466D01*
X169261184Y-111796287D01*
X169259051Y-111762316D01*
X169286147Y-111719175D01*
X169308674Y-111702396D01*
X169357158Y-111642071D01*
X169403892Y-111539229D01*
X169407540Y-111528329D01*
X169442548Y-111443030D01*
X169493960Y-111397280D01*
X169588792Y-111373914D01*
X169664834Y-111364848D01*
X169838203Y-111321087D01*
X170036523Y-111233278D01*
X170226903Y-111119204D01*
X170376455Y-110996648D01*
X170405667Y-110964289D01*
X170468277Y-110908057D01*
X170583035Y-110821716D01*
X170730151Y-110719803D01*
X170809603Y-110667585D01*
X170977401Y-110550565D01*
X171132833Y-110426903D01*
X171250564Y-110317292D01*
X171281002Y-110282553D01*
X171381304Y-110145406D01*
X171485647Y-109985733D01*
X171582592Y-109823284D01*
X171660705Y-109677807D01*
X171708548Y-109569050D01*
X171718000Y-109527960D01*
X171721831Y-109494752D01*
X171591000Y-109494752D01*
X171559287Y-109632442D01*
X171472296Y-109805465D01*
X171342255Y-109998050D01*
X171181390Y-110194427D01*
X171001927Y-110378822D01*
X170816093Y-110535465D01*
X170746193Y-110584534D01*
X170576863Y-110701900D01*
X170405607Y-110829970D01*
X170269092Y-110941310D01*
X170267449Y-110942753D01*
X170070402Y-111091993D01*
X169866534Y-111204745D01*
X169679077Y-111269452D01*
X169588832Y-111280403D01*
X169512943Y-111275173D01*
X169485623Y-111241690D01*
X169493064Y-111155736D01*
X169498849Y-111122583D01*
X169543072Y-110941140D01*
X169615422Y-110718077D01*
X169708479Y-110470266D01*
X169814823Y-110214573D01*
X169927032Y-109967871D01*
X170037686Y-109747027D01*
X170139363Y-109568911D01*
X170224643Y-109450392D01*
X170242516Y-109432066D01*
X170342126Y-109361574D01*
X170495121Y-109277152D01*
X170674517Y-109191504D01*
X170853332Y-109117333D01*
X171004581Y-109067343D01*
X171030622Y-109061039D01*
X171185397Y-109065321D01*
X171341129Y-109131062D01*
X171475346Y-109240870D01*
X171565580Y-109377355D01*
X171591000Y-109494752D01*
X171721831Y-109494752D01*
X171723278Y-109482217D01*
X171747404Y-109469156D01*
X171802819Y-109493876D01*
X171901961Y-109561477D01*
X172028059Y-109655075D01*
X172283228Y-109823842D01*
X172590711Y-109991516D01*
X172919295Y-110143147D01*
X173237768Y-110263789D01*
X173400444Y-110312339D01*
X173634867Y-110356729D01*
X173929090Y-110386521D01*
X174259421Y-110401194D01*
X174602172Y-110400224D01*
X174933651Y-110383090D01*
X175210500Y-110352272D01*
X175504053Y-110297340D01*
X175831639Y-110217863D01*
X176163083Y-110122471D01*
X176468208Y-110019792D01*
X176699035Y-109926629D01*
X176840199Y-109864478D01*
X176950784Y-109819226D01*
X177008779Y-109799838D01*
X177010811Y-109799666D01*
X177038315Y-109836715D01*
X177066271Y-109928410D01*
X177071654Y-109954657D01*
X177092648Y-110020612D01*
X177137094Y-110098846D01*
X177212577Y-110198570D01*
X177326687Y-110328996D01*
X177487009Y-110499334D01*
X177700782Y-110718441D01*
X177913997Y-110932853D01*
X178079304Y-111093675D01*
X178206592Y-111209195D01*
X178305748Y-111287695D01*
X178386658Y-111337461D01*
X178459210Y-111366778D01*
X178482138Y-111373159D01*
X178610201Y-111417168D01*
X178688923Y-111483913D01*
X178737090Y-111596288D01*
X178762847Y-111715250D01*
X178790694Y-111817065D01*
X178823972Y-111871274D01*
X178831919Y-111874000D01*
X178861980Y-111835388D01*
X178869988Y-111727343D01*
X178858145Y-111561549D01*
X178828653Y-111349693D01*
X178795309Y-111166994D01*
X178741526Y-111166994D01*
X178731361Y-111214351D01*
X178706951Y-111297107D01*
X178703000Y-111327129D01*
X178676714Y-111363896D01*
X178600654Y-111336494D01*
X178522116Y-111281333D01*
X178436496Y-111222434D01*
X178377826Y-111196709D01*
X178376567Y-111196666D01*
X178336143Y-111168108D01*
X178248874Y-111090278D01*
X178126592Y-110974939D01*
X177981129Y-110833856D01*
X177824315Y-110678793D01*
X177667983Y-110521514D01*
X177523964Y-110373785D01*
X177404090Y-110247369D01*
X177320192Y-110154031D01*
X177290897Y-110117166D01*
X177239739Y-110014554D01*
X177201885Y-109893424D01*
X177190837Y-109803392D01*
X177214245Y-109732413D01*
X177285515Y-109650987D01*
X177331748Y-109607674D01*
X177441646Y-109522446D01*
X177542307Y-109469540D01*
X177581794Y-109461000D01*
X177660909Y-109485426D01*
X177778835Y-109549185D01*
X177898667Y-109630333D01*
X178025488Y-109717243D01*
X178134367Y-109778332D01*
X178198041Y-109799666D01*
X178240743Y-109823063D01*
X178290033Y-109899776D01*
X178350961Y-110039585D01*
X178422067Y-110233583D01*
X178488605Y-110431797D01*
X178546675Y-110618975D01*
X178588553Y-110769453D01*
X178603682Y-110836833D01*
X178623933Y-110938947D01*
X178639684Y-110965635D01*
X178659221Y-110925165D01*
X178667323Y-110900333D01*
X178683630Y-110867847D01*
X178685478Y-110915933D01*
X178677542Y-111000103D01*
X178668162Y-111123011D01*
X178678407Y-111175703D01*
X178706923Y-111173075D01*
X178741526Y-111166994D01*
X178795309Y-111166994D01*
X178783712Y-111103457D01*
X178725524Y-110834528D01*
X178656291Y-110554591D01*
X178578215Y-110275330D01*
X178493496Y-110008430D01*
X178465031Y-109926666D01*
X178380698Y-109690922D01*
X178227500Y-109690922D01*
X178203179Y-109707789D01*
X178132165Y-109669170D01*
X178031759Y-109594125D01*
X177914778Y-109507904D01*
X177808222Y-109438032D01*
X177781347Y-109422819D01*
X177685194Y-109372387D01*
X177808625Y-109268527D01*
X177899174Y-109200928D01*
X177965933Y-109165986D01*
X177974200Y-109164666D01*
X178014497Y-109200577D01*
X178072257Y-109293163D01*
X178135531Y-109419704D01*
X178192372Y-109557479D01*
X178213497Y-109619750D01*
X178227500Y-109690922D01*
X178380698Y-109690922D01*
X178370251Y-109661719D01*
X178298840Y-109465616D01*
X178245887Y-109327396D01*
X178206479Y-109236098D01*
X178175706Y-109180762D01*
X178148655Y-109150427D01*
X178120414Y-109134135D01*
X178107599Y-109129061D01*
X178081201Y-109107225D01*
X178087087Y-109064344D01*
X178131610Y-108988606D01*
X178221124Y-108868199D01*
X178304751Y-108762500D01*
X178425501Y-108619866D01*
X178534400Y-108505976D01*
X178616811Y-108435371D01*
X178650003Y-108419517D01*
X178756730Y-108412746D01*
X178812159Y-108408934D01*
X178966214Y-108360720D01*
X179138275Y-108243439D01*
X179318163Y-108067860D01*
X179495698Y-107844752D01*
X179660698Y-107584886D01*
X179747867Y-107419056D01*
X179820035Y-107281563D01*
X179883283Y-107180140D01*
X179925583Y-107133725D01*
X179929756Y-107132666D01*
X179952816Y-107137562D01*
X179990642Y-107156639D01*
X180052752Y-107196477D01*
X180148667Y-107263659D01*
X180287906Y-107364767D01*
X180479987Y-107506383D01*
X180615225Y-107606608D01*
X180953476Y-107866786D01*
X181237576Y-108107588D01*
X181488739Y-108348210D01*
X181728183Y-108607854D01*
X181752209Y-108635500D01*
X181850105Y-108741577D01*
X181928754Y-108813908D01*
X181970142Y-108836583D01*
X182003723Y-108857384D01*
X182005000Y-108868333D01*
X182037362Y-108909266D01*
X182048421Y-108910666D01*
X182065088Y-108881183D01*
X182033281Y-108801630D01*
X181960627Y-108685350D01*
X181854751Y-108545688D01*
X181807975Y-108489935D01*
X181693381Y-108371107D01*
X181525367Y-108215247D01*
X181319121Y-108034933D01*
X181089831Y-107842743D01*
X180852685Y-107651255D01*
X180622871Y-107473049D01*
X180415579Y-107320702D01*
X180302037Y-107242772D01*
X180128240Y-107119933D01*
X180016339Y-107022917D01*
X179970100Y-106956003D01*
X179993292Y-106923471D01*
X180018764Y-106921000D01*
X180085845Y-106940848D01*
X180204493Y-106993078D01*
X180353548Y-107066717D01*
X180511851Y-107150794D01*
X180658244Y-107234335D01*
X180771568Y-107306368D01*
X180795692Y-107323894D01*
X180894150Y-107390491D01*
X180969462Y-107426767D01*
X180982413Y-107429000D01*
X181028672Y-107457046D01*
X181031334Y-107470526D01*
X181067220Y-107510799D01*
X181135756Y-107538261D01*
X181210664Y-107569082D01*
X181231006Y-107597843D01*
X181254240Y-107646215D01*
X181325232Y-107729396D01*
X181425207Y-107829830D01*
X181535392Y-107929962D01*
X181637010Y-108012236D01*
X181711288Y-108059098D01*
X181729543Y-108064000D01*
X181766929Y-108041920D01*
X181742860Y-107980731D01*
X181666516Y-107888005D01*
X181547073Y-107771315D01*
X181393713Y-107638236D01*
X181215613Y-107496339D01*
X181021951Y-107353199D01*
X180821908Y-107216389D01*
X180624662Y-107093482D01*
X180439391Y-106992051D01*
X180416886Y-106980945D01*
X180251895Y-106898013D01*
X180179328Y-106858747D01*
X179831689Y-106858747D01*
X179830315Y-106874232D01*
X179774416Y-106877166D01*
X179688255Y-106859886D01*
X179653760Y-106833516D01*
X179637499Y-106780675D01*
X179684512Y-106780839D01*
X179761398Y-106817130D01*
X179831689Y-106858747D01*
X180179328Y-106858747D01*
X180119779Y-106826526D01*
X180036382Y-106775376D01*
X180015334Y-106755559D01*
X180038129Y-106701776D01*
X180076801Y-106643341D01*
X180119032Y-106594231D01*
X180162310Y-106584347D01*
X180235234Y-106614351D01*
X180299051Y-106648481D01*
X180570743Y-106796627D01*
X180780485Y-106912654D01*
X180941167Y-107004037D01*
X181065677Y-107078251D01*
X181166904Y-107142772D01*
X181253682Y-107202211D01*
X181375943Y-107279709D01*
X181480357Y-107330585D01*
X181528848Y-107342571D01*
X181561819Y-107322695D01*
X181525493Y-107269235D01*
X181426308Y-107186458D01*
X181270702Y-107078632D01*
X181065112Y-106950024D01*
X180815977Y-106804900D01*
X180529734Y-106647530D01*
X180291782Y-106522593D01*
X180166063Y-106457846D01*
X180160874Y-105938006D01*
X180157945Y-105867868D01*
X180019328Y-105867868D01*
X180019041Y-106084859D01*
X180007009Y-106226220D01*
X179972507Y-106300982D01*
X179904810Y-106318174D01*
X179793194Y-106286828D01*
X179626932Y-106215973D01*
X179613167Y-106209855D01*
X179411164Y-106131652D01*
X179210182Y-106073893D01*
X179027677Y-106039477D01*
X178881103Y-106031306D01*
X178787917Y-106052280D01*
X178769404Y-106069635D01*
X178783670Y-106100021D01*
X178876276Y-106114831D01*
X178953821Y-106116666D01*
X179109491Y-106131784D01*
X179292214Y-106180978D01*
X179522739Y-106270005D01*
X179552983Y-106282941D01*
X179718023Y-106355030D01*
X179851531Y-106415108D01*
X179935925Y-106455166D01*
X179956022Y-106466577D01*
X179955259Y-106513922D01*
X179930450Y-106606763D01*
X179925813Y-106620395D01*
X179879086Y-106714248D01*
X179824518Y-106734914D01*
X179809872Y-106730616D01*
X179703620Y-106694234D01*
X179547670Y-106646174D01*
X179361469Y-106591819D01*
X179164462Y-106536550D01*
X178976095Y-106485747D01*
X178815814Y-106444794D01*
X178703066Y-106419070D01*
X178662141Y-106413000D01*
X178585890Y-106424552D01*
X178580608Y-106452213D01*
X178636889Y-106485486D01*
X178745324Y-106513875D01*
X178753817Y-106515279D01*
X178875140Y-106540731D01*
X178961696Y-106569685D01*
X178976067Y-106578047D01*
X179045838Y-106615255D01*
X179148712Y-106655388D01*
X179231625Y-106692198D01*
X179349786Y-106755139D01*
X179482374Y-106831693D01*
X179608570Y-106909345D01*
X179707555Y-106975577D01*
X179758509Y-107017872D01*
X179761334Y-107023701D01*
X179746039Y-107067153D01*
X179705426Y-107168806D01*
X179647405Y-107308988D01*
X179629953Y-107350483D01*
X179454719Y-107696209D01*
X179248624Y-107981378D01*
X179019527Y-108195485D01*
X178974191Y-108227170D01*
X178839522Y-108312495D01*
X178756346Y-108351058D01*
X178708106Y-108346469D01*
X178678243Y-108302338D01*
X178674337Y-108292560D01*
X178680144Y-108216858D01*
X178705664Y-108189353D01*
X178724066Y-108154754D01*
X178699857Y-108089315D01*
X178627089Y-107980638D01*
X178568360Y-107903280D01*
X178465821Y-107767535D01*
X178379481Y-107646611D01*
X178351117Y-107602658D01*
X178043741Y-107602658D01*
X178033345Y-107641137D01*
X177987533Y-107708478D01*
X177899830Y-107818637D01*
X177813362Y-107924629D01*
X177775460Y-107996896D01*
X177771667Y-108019879D01*
X177740528Y-108062424D01*
X177729334Y-108064000D01*
X177688680Y-108096584D01*
X177687000Y-108109157D01*
X177663348Y-108172747D01*
X177605738Y-108260287D01*
X177534189Y-108347238D01*
X177468720Y-108409057D01*
X177431216Y-108422730D01*
X177381877Y-108432114D01*
X177365885Y-108450850D01*
X177360184Y-108480540D01*
X177384126Y-108470209D01*
X177427830Y-108464615D01*
X177433000Y-108478683D01*
X177403347Y-108529173D01*
X177328507Y-108607514D01*
X177229664Y-108695814D01*
X177128000Y-108776182D01*
X177044698Y-108830726D01*
X177002201Y-108842552D01*
X176975113Y-108846405D01*
X176976868Y-108857734D01*
X176954865Y-108904875D01*
X176885943Y-108989157D01*
X176802058Y-109075499D01*
X176686608Y-109178360D01*
X176602730Y-109227358D01*
X176528244Y-109234044D01*
X176505724Y-109229832D01*
X176439678Y-109220731D01*
X176449597Y-109240385D01*
X176451276Y-109241523D01*
X176475763Y-109279309D01*
X176429561Y-109326690D01*
X176408943Y-109340200D01*
X176288094Y-109406608D01*
X176129616Y-109481162D01*
X175961051Y-109552296D01*
X175809942Y-109608443D01*
X175703831Y-109638039D01*
X175697334Y-109639018D01*
X175582570Y-109674353D01*
X175486831Y-109726326D01*
X175372964Y-109781986D01*
X175275164Y-109802642D01*
X175154979Y-109819656D01*
X175083500Y-109841710D01*
X174977179Y-109861751D01*
X174804848Y-109864931D01*
X174583211Y-109852482D01*
X174328971Y-109825636D01*
X174058828Y-109785625D01*
X173882618Y-109753140D01*
X173637032Y-109703864D01*
X173463326Y-109668132D01*
X173350332Y-109642994D01*
X173286886Y-109625499D01*
X173261821Y-109612695D01*
X173263973Y-109601630D01*
X173276399Y-109592904D01*
X173265968Y-109576937D01*
X173190442Y-109567079D01*
X173142708Y-109565708D01*
X172950963Y-109533544D01*
X172730404Y-109446946D01*
X172505217Y-109317508D01*
X172310667Y-109166894D01*
X172216506Y-109077650D01*
X172160615Y-109015621D01*
X172154098Y-108995391D01*
X172149473Y-108970803D01*
X172103884Y-108919530D01*
X171279283Y-108919530D01*
X171244218Y-108970288D01*
X171134226Y-108994043D01*
X171089551Y-108995333D01*
X170963935Y-109011642D01*
X170802324Y-109053825D01*
X170679299Y-109097426D01*
X170511390Y-109163539D01*
X170409352Y-109195437D01*
X170361124Y-109191994D01*
X170354642Y-109152081D01*
X170377845Y-109074572D01*
X170379664Y-109069416D01*
X170433342Y-108953689D01*
X170515494Y-108813083D01*
X170563591Y-108741333D01*
X170653677Y-108614292D01*
X170733931Y-108500878D01*
X170765892Y-108455583D01*
X170848181Y-108375139D01*
X170925977Y-108377486D01*
X171002475Y-108463384D01*
X171032352Y-108519083D01*
X171092100Y-108614790D01*
X171149234Y-108663798D01*
X171164879Y-108665518D01*
X171201781Y-108682015D01*
X171195826Y-108717210D01*
X171202670Y-108795781D01*
X171235665Y-108845616D01*
X171279283Y-108919530D01*
X172103884Y-108919530D01*
X172095365Y-108909949D01*
X172076175Y-108891670D01*
X172009653Y-108812270D01*
X171989609Y-108749970D01*
X171992474Y-108742454D01*
X171993080Y-108708062D01*
X171976745Y-108708534D01*
X171936227Y-108680165D01*
X171867991Y-108594503D01*
X171785099Y-108468452D01*
X171763941Y-108433159D01*
X171690577Y-108303444D01*
X171644093Y-108210990D01*
X171631920Y-108171011D01*
X171636177Y-108171590D01*
X171699903Y-108188251D01*
X171815772Y-108202059D01*
X171887499Y-108206682D01*
X171997466Y-108207256D01*
X172053636Y-108198342D01*
X172052420Y-108188375D01*
X172051320Y-108157553D01*
X172134110Y-108118579D01*
X172226000Y-108090795D01*
X172270832Y-108064749D01*
X172356376Y-108006994D01*
X172385101Y-107986718D01*
X172481968Y-107897998D01*
X172496667Y-107828345D01*
X172429075Y-107777621D01*
X172279068Y-107745685D01*
X172163095Y-107736169D01*
X171915154Y-107739025D01*
X171727007Y-107775286D01*
X171606211Y-107842813D01*
X171566534Y-107905064D01*
X171544022Y-107960949D01*
X171519313Y-107952531D01*
X171475237Y-107875068D01*
X171430142Y-107747822D01*
X171409382Y-107619500D01*
X171040667Y-107619500D01*
X171019500Y-107640666D01*
X170998334Y-107619500D01*
X171019500Y-107598333D01*
X171040667Y-107619500D01*
X171409382Y-107619500D01*
X171406796Y-107603516D01*
X171406476Y-107596471D01*
X171396022Y-107499372D01*
X171393154Y-107492500D01*
X171125334Y-107492500D01*
X171104167Y-107513666D01*
X171083000Y-107492500D01*
X171104167Y-107471333D01*
X171125334Y-107492500D01*
X171393154Y-107492500D01*
X171377440Y-107454861D01*
X171371676Y-107455209D01*
X171326950Y-107443387D01*
X171316724Y-107430439D01*
X171346878Y-107413548D01*
X171459221Y-107400930D01*
X171651373Y-107392724D01*
X171920959Y-107389067D01*
X172034026Y-107388888D01*
X172777455Y-107389612D01*
X172757321Y-107500649D01*
X172721139Y-107711428D01*
X172702939Y-107852372D01*
X172702255Y-107936275D01*
X172718625Y-107975935D01*
X172739777Y-107984208D01*
X172920674Y-107970181D01*
X173037548Y-107908386D01*
X173095810Y-107869848D01*
X173136091Y-107899742D01*
X173155454Y-107933487D01*
X173181035Y-108000473D01*
X173173429Y-108021666D01*
X173175127Y-108047583D01*
X173214365Y-108099185D01*
X173260744Y-108164521D01*
X173265275Y-108195947D01*
X173283326Y-108211660D01*
X173325575Y-108215190D01*
X173381716Y-108201148D01*
X173384561Y-108181928D01*
X173395327Y-108150498D01*
X173408835Y-108148666D01*
X173451541Y-108181408D01*
X173453667Y-108195689D01*
X173475412Y-108201678D01*
X173527905Y-108151020D01*
X173529696Y-108148821D01*
X173605725Y-108054929D01*
X173740496Y-108168332D01*
X173833621Y-108232961D01*
X173904376Y-108258124D01*
X173918467Y-108255035D01*
X173958186Y-108255592D01*
X173961667Y-108269640D01*
X173928540Y-108321298D01*
X173908750Y-108332296D01*
X173879311Y-108351619D01*
X173907261Y-108356991D01*
X173965950Y-108326589D01*
X174003157Y-108277243D01*
X174069903Y-108216372D01*
X174121063Y-108217736D01*
X174165772Y-108226892D01*
X174139129Y-108201561D01*
X174103358Y-108125825D01*
X174112293Y-108048107D01*
X174146067Y-107968182D01*
X174203954Y-107955036D01*
X174231164Y-107961880D01*
X174338295Y-108012259D01*
X174389129Y-108048560D01*
X174482770Y-108089405D01*
X174558462Y-108092165D01*
X174635789Y-108059437D01*
X174651242Y-107979658D01*
X174650846Y-107975029D01*
X174632900Y-107840480D01*
X174602899Y-107668873D01*
X174568145Y-107498265D01*
X174535937Y-107366713D01*
X174530998Y-107350197D01*
X174516797Y-107281794D01*
X174549211Y-107264353D01*
X174622246Y-107276745D01*
X174769469Y-107299775D01*
X174985699Y-107321776D01*
X175255277Y-107341872D01*
X175562544Y-107359185D01*
X175891840Y-107372842D01*
X176227506Y-107381964D01*
X176553882Y-107385677D01*
X176569972Y-107385706D01*
X176953170Y-107390745D01*
X177270976Y-107404530D01*
X177519155Y-107426619D01*
X177693474Y-107456570D01*
X177789699Y-107493941D01*
X177807033Y-107514756D01*
X177847131Y-107538208D01*
X177859075Y-107533139D01*
X177922040Y-107532610D01*
X177984190Y-107556457D01*
X178025198Y-107579083D01*
X178043741Y-107602658D01*
X178351117Y-107602658D01*
X178327052Y-107565367D01*
X178325205Y-107561987D01*
X178255368Y-107491150D01*
X178192176Y-107471333D01*
X178109161Y-107458007D01*
X177977197Y-107423299D01*
X177844415Y-107381213D01*
X177762698Y-107355502D01*
X177676200Y-107334548D01*
X177574336Y-107317528D01*
X177446518Y-107303617D01*
X177282158Y-107291991D01*
X177070671Y-107281827D01*
X176801470Y-107272300D01*
X176463966Y-107262586D01*
X176247667Y-107256923D01*
X175909359Y-107246959D01*
X175589271Y-107235091D01*
X175299684Y-107221962D01*
X175052881Y-107208212D01*
X174861146Y-107194485D01*
X174736759Y-107181423D01*
X174708147Y-107176424D01*
X174569219Y-107154364D01*
X174452407Y-107151369D01*
X174415501Y-107157588D01*
X174355615Y-107182517D01*
X174373815Y-107209446D01*
X174404350Y-107227320D01*
X174452296Y-107268313D01*
X174425782Y-107302958D01*
X174398211Y-107337934D01*
X174394152Y-107407545D01*
X174413593Y-107531740D01*
X174425610Y-107590209D01*
X174451817Y-107731694D01*
X174465181Y-107841379D01*
X174463991Y-107888346D01*
X174420224Y-107897231D01*
X174321533Y-107865155D01*
X174247981Y-107830712D01*
X174130853Y-107773449D01*
X174065736Y-107753566D01*
X174029717Y-107769012D01*
X174004565Y-107808946D01*
X173968206Y-107916890D01*
X173961667Y-107974051D01*
X173942873Y-108062421D01*
X173888761Y-108074996D01*
X173802740Y-108011275D01*
X173791108Y-107999195D01*
X173683870Y-107913388D01*
X173585309Y-107906675D01*
X173476101Y-107978247D01*
X173468084Y-107985674D01*
X173410154Y-108033853D01*
X173370775Y-108040286D01*
X173342672Y-107994064D01*
X173318569Y-107884274D01*
X173294805Y-107725814D01*
X173258671Y-107571780D01*
X173207693Y-107485863D01*
X173149336Y-107472750D01*
X173091065Y-107537126D01*
X173069844Y-107584592D01*
X173011493Y-107701122D01*
X172953668Y-107782214D01*
X172899704Y-107834041D01*
X172873603Y-107815491D01*
X172858302Y-107761125D01*
X172859187Y-107646984D01*
X172884530Y-107577166D01*
X172928275Y-107475093D01*
X172961601Y-107349995D01*
X172974938Y-107255423D01*
X172955230Y-107224379D01*
X172886296Y-107237422D01*
X172871510Y-107241744D01*
X172792767Y-107252965D01*
X172645274Y-107263168D01*
X172444947Y-107271665D01*
X172207702Y-107277767D01*
X171972000Y-107280665D01*
X171188834Y-107285333D01*
X170922189Y-107548628D01*
X170795660Y-107676273D01*
X170722494Y-107760364D01*
X170694060Y-107815015D01*
X170701730Y-107854339D01*
X170721105Y-107877485D01*
X170776051Y-107946654D01*
X170771037Y-108009005D01*
X170724508Y-108078999D01*
X170691683Y-108114284D01*
X170651757Y-108124748D01*
X170587696Y-108105731D01*
X170482460Y-108052574D01*
X170344271Y-107974995D01*
X170042627Y-107781411D01*
X169802844Y-107573863D01*
X169602387Y-107331666D01*
X169536641Y-107233780D01*
X169454118Y-107094630D01*
X169419409Y-107005196D01*
X169426869Y-106949535D01*
X169432952Y-106941020D01*
X169501996Y-106891451D01*
X169630634Y-106825972D01*
X169797462Y-106753340D01*
X169981080Y-106682311D01*
X170160086Y-106621641D01*
X170253761Y-106596198D01*
X169841689Y-106596198D01*
X169801162Y-106641240D01*
X169683407Y-106716273D01*
X169664834Y-106726764D01*
X169498366Y-106815900D01*
X169391108Y-106861225D01*
X169331326Y-106865142D01*
X169307288Y-106830052D01*
X169305000Y-106800430D01*
X169332664Y-106741413D01*
X169424009Y-106687732D01*
X169521528Y-106652264D01*
X169699709Y-106600585D01*
X169807150Y-106582271D01*
X169841689Y-106596198D01*
X170253761Y-106596198D01*
X170313078Y-106580087D01*
X170317436Y-106579142D01*
X170434144Y-106547613D01*
X170503373Y-106516058D01*
X170512479Y-106499250D01*
X170533615Y-106469058D01*
X170613128Y-106441416D01*
X170620242Y-106439935D01*
X170748776Y-106414228D01*
X170690191Y-106351343D01*
X170511500Y-106351343D01*
X170151667Y-106425194D01*
X169958078Y-106467440D01*
X169770458Y-106512605D01*
X169623731Y-106552197D01*
X169601334Y-106559024D01*
X169435941Y-106605629D01*
X169331754Y-106617220D01*
X169272043Y-106591862D01*
X169240075Y-106527616D01*
X169237223Y-106516861D01*
X169227034Y-106425770D01*
X169239839Y-106379278D01*
X169295819Y-106362574D01*
X169416320Y-106347230D01*
X169581199Y-106334207D01*
X169770312Y-106324467D01*
X169963516Y-106318972D01*
X170140667Y-106318684D01*
X170281620Y-106324563D01*
X170315869Y-106327913D01*
X170511500Y-106351343D01*
X170690191Y-106351343D01*
X170665581Y-106324928D01*
X170625654Y-106288583D01*
X170575335Y-106263841D01*
X170499112Y-106248647D01*
X170381470Y-106240949D01*
X170206896Y-106238692D01*
X170019450Y-106239400D01*
X169797087Y-106242679D01*
X169594309Y-106248924D01*
X169431946Y-106257276D01*
X169330830Y-106266875D01*
X169323572Y-106268113D01*
X169190629Y-106293053D01*
X169163516Y-106067276D01*
X169147213Y-105897270D01*
X169145189Y-105862666D01*
X169093334Y-105862666D01*
X169077845Y-105897511D01*
X169065112Y-105890888D01*
X169060045Y-105840649D01*
X169065112Y-105834444D01*
X169090279Y-105840255D01*
X169093334Y-105862666D01*
X169145189Y-105862666D01*
X169137341Y-105728514D01*
X169136035Y-105667469D01*
X169153971Y-105509217D01*
X169203321Y-105297542D01*
X169276609Y-105054230D01*
X169366361Y-104801066D01*
X169465100Y-104559835D01*
X169565352Y-104352322D01*
X169619334Y-104259016D01*
X169677260Y-104157494D01*
X169705056Y-104088724D01*
X169704207Y-104074650D01*
X169704501Y-104019299D01*
X169746630Y-103907625D01*
X169824065Y-103752800D01*
X169930275Y-103567993D01*
X170045568Y-103386166D01*
X170162932Y-103199590D01*
X170277785Y-103001390D01*
X170370054Y-102826633D01*
X170390633Y-102783357D01*
X170455398Y-102651325D01*
X170510220Y-102556469D01*
X170543495Y-102518810D01*
X170543998Y-102518774D01*
X170593713Y-102551185D01*
X170692672Y-102646975D01*
X170837746Y-102802997D01*
X170933041Y-102909916D01*
X170984173Y-102977046D01*
X170998334Y-103007991D01*
X171023886Y-103067737D01*
X171085738Y-103149885D01*
X171161682Y-103230445D01*
X171229513Y-103285426D01*
X171263585Y-103294546D01*
X171287514Y-103294420D01*
X171278138Y-103315162D01*
X171286976Y-103371550D01*
X171342726Y-103461620D01*
X171388014Y-103515962D01*
X171478212Y-103619584D01*
X171546107Y-103706043D01*
X171563347Y-103732153D01*
X171631832Y-103775282D01*
X171750434Y-103750900D01*
X171919441Y-103658923D01*
X172010147Y-103596799D01*
X172237603Y-103453911D01*
X172487678Y-103329869D01*
X172721892Y-103243394D01*
X172755167Y-103234335D01*
X172849027Y-103206282D01*
X172998302Y-103157212D01*
X173178883Y-103095174D01*
X173293297Y-103054693D01*
X173509904Y-102983358D01*
X173738892Y-102917961D01*
X173942734Y-102868892D01*
X174012964Y-102855457D01*
X174328323Y-102825756D01*
X174700968Y-102829866D01*
X175111498Y-102865711D01*
X175540513Y-102931218D01*
X175968612Y-103024313D01*
X176209479Y-103090319D01*
X176349315Y-103138341D01*
X176526863Y-103208786D01*
X176727558Y-103294760D01*
X176936838Y-103389367D01*
X177140138Y-103485713D01*
X177322895Y-103576901D01*
X177470545Y-103656037D01*
X177568523Y-103716226D01*
X177602334Y-103749759D01*
X177635467Y-103765768D01*
X177676417Y-103759174D01*
X177744482Y-103713809D01*
X177843692Y-103615574D01*
X177962848Y-103479337D01*
X178090750Y-103319965D01*
X178216200Y-103152326D01*
X178327997Y-102991288D01*
X178414941Y-102851718D01*
X178465833Y-102748484D01*
X178472955Y-102701753D01*
X178487263Y-102644563D01*
X178506913Y-102632168D01*
X178551538Y-102582411D01*
X178601041Y-102481473D01*
X178617550Y-102436042D01*
X178677246Y-102292182D01*
X178732785Y-102232687D01*
X178783121Y-102257313D01*
X178827209Y-102365815D01*
X178853746Y-102491262D01*
X178877197Y-102591973D01*
X178903341Y-102616510D01*
X178922749Y-102597961D01*
X178948101Y-102576482D01*
X178944145Y-102630098D01*
X178940501Y-102647752D01*
X178942219Y-102735571D01*
X178966808Y-102883363D01*
X179010393Y-103070772D01*
X179045299Y-103198085D01*
X179101864Y-103404187D01*
X179151011Y-103603261D01*
X179186095Y-103767346D01*
X179198120Y-103841250D01*
X179218589Y-103964120D01*
X179249047Y-104023831D01*
X179302558Y-104041835D01*
X179320576Y-104042333D01*
X179427248Y-104082443D01*
X179537462Y-104194672D01*
X179646567Y-104366872D01*
X179749912Y-104586892D01*
X179842848Y-104842584D01*
X179920724Y-105121797D01*
X179978889Y-105412381D01*
X180012693Y-105702188D01*
X180019328Y-105867868D01*
X180157945Y-105867868D01*
X180145047Y-105559113D01*
X180143189Y-105545166D01*
X180100000Y-105545166D01*
X180078834Y-105566333D01*
X180057667Y-105545166D01*
X180078834Y-105524000D01*
X180100000Y-105545166D01*
X180143189Y-105545166D01*
X180101573Y-105232854D01*
X180024031Y-104929901D01*
X179906003Y-104620926D01*
X179841775Y-104480114D01*
X179698415Y-104218173D01*
X179553421Y-104031483D01*
X179511737Y-103992423D01*
X179386763Y-103859996D01*
X179323435Y-103719900D01*
X179315215Y-103681642D01*
X179290743Y-103572868D01*
X179247623Y-103407219D01*
X179192303Y-103208686D01*
X179140960Y-103033505D01*
X179078507Y-102820270D01*
X179020881Y-102614275D01*
X178975286Y-102441792D01*
X178952252Y-102345297D01*
X178921666Y-102230581D01*
X178891920Y-102163345D01*
X178877611Y-102155238D01*
X178875142Y-102151444D01*
X178731223Y-102151444D01*
X178725412Y-102176611D01*
X178703000Y-102179666D01*
X178668155Y-102164177D01*
X178674778Y-102151444D01*
X178725018Y-102146377D01*
X178731223Y-102151444D01*
X178875142Y-102151444D01*
X178862166Y-102131509D01*
X178862512Y-102049293D01*
X178864646Y-102028530D01*
X178868755Y-101929943D01*
X178841389Y-101889698D01*
X178792299Y-101883333D01*
X178718669Y-101909946D01*
G37*
X178718669Y-101909946D02*
X178703000Y-101949958D01*
X178684824Y-102012966D01*
X178635522Y-102133057D01*
X178562933Y-102292144D01*
X178487354Y-102447375D01*
X178325257Y-102750951D01*
X178158855Y-103014864D01*
X177965192Y-103273292D01*
X177800873Y-103469510D01*
X177655488Y-103637520D01*
X177186373Y-103393781D01*
X176762680Y-103199123D01*
X176307514Y-103035625D01*
X175834943Y-102905418D01*
X175359034Y-102810635D01*
X174893853Y-102753408D01*
X174453468Y-102735870D01*
X174051947Y-102760153D01*
X173703357Y-102828389D01*
X173623000Y-102853637D01*
X173535997Y-102881937D01*
X173392803Y-102926847D01*
X173218312Y-102980596D01*
X173136167Y-103005611D01*
X172821197Y-103109590D01*
X172523284Y-103223725D01*
X172259535Y-103340537D01*
X172047053Y-103452545D01*
X171921566Y-103536759D01*
X171816127Y-103611240D01*
X171729918Y-103655760D01*
X171705184Y-103661333D01*
X171655161Y-103629455D01*
X171569738Y-103543749D01*
X171462970Y-103419109D01*
X171395785Y-103333508D01*
X171245463Y-103140961D01*
X171072938Y-102927682D01*
X170910961Y-102734029D01*
X170881917Y-102700286D01*
X170767446Y-102563496D01*
X170677910Y-102447632D01*
X170625678Y-102369173D01*
X170617334Y-102347833D01*
X170582536Y-102316044D01*
X170526539Y-102314305D01*
X170459887Y-102349502D01*
X170398383Y-102443057D01*
X170349212Y-102560666D01*
X170280501Y-102720098D01*
X170186193Y-102907406D01*
X170094606Y-103068666D01*
X169889603Y-103408404D01*
X169731118Y-103680171D01*
X169619418Y-103883475D01*
X169554773Y-104017827D01*
X169537449Y-104082734D01*
X169538731Y-104086118D01*
X169532253Y-104141642D01*
X169488697Y-104237654D01*
X169461383Y-104284175D01*
X169373967Y-104445878D01*
X169277869Y-104659441D01*
X169185484Y-104894723D01*
X169109206Y-105121583D01*
X169090811Y-105185333D01*
X169067873Y-105308677D01*
X169047854Y-105488851D01*
X169033414Y-105698018D01*
X169028186Y-105840486D01*
X169017849Y-106305138D01*
X168621675Y-106378081D01*
X168461788Y-106411294D01*
X168284751Y-106454135D01*
X168103171Y-106502663D01*
X167929658Y-106552937D01*
X167776820Y-106601015D01*
X167657267Y-106642956D01*
X167583608Y-106674818D01*
X167568451Y-106692660D01*
X167611667Y-106693799D01*
X167717757Y-106677083D01*
X167878300Y-106643117D01*
X168066317Y-106597830D01*
X168162000Y-106572847D01*
X168357183Y-106522227D01*
X168541630Y-106477490D01*
X168686719Y-106445456D01*
X168733500Y-106436673D01*
X168860249Y-106413445D01*
X168959208Y-106391706D01*
X168973093Y-106387937D01*
X169031118Y-106399263D01*
X169079355Y-106479914D01*
X169093729Y-106520030D01*
X169122637Y-106621468D01*
X169131143Y-106681569D01*
X169129303Y-106686553D01*
X169085595Y-106708901D01*
X168985851Y-106753721D01*
X168860500Y-106807555D01*
X168669893Y-106890843D01*
X168465558Y-106985007D01*
X168258986Y-107084126D01*
X168061665Y-107182276D01*
X167885085Y-107273536D01*
X167740734Y-107351983D01*
X167640103Y-107411695D01*
X167594679Y-107446750D01*
X167609230Y-107452545D01*
X167701828Y-107424825D01*
X167850390Y-107366775D01*
X168035448Y-107286522D01*
X168237537Y-107192190D01*
X168265397Y-107178657D01*
X168585930Y-107024186D01*
X168833173Y-106909565D01*
X169008267Y-106834290D01*
X169112352Y-106797857D01*
X169136308Y-106794000D01*
X169181414Y-106828390D01*
X169199690Y-106903702D01*
X169182406Y-106978149D01*
X169176492Y-106986317D01*
X169121991Y-107033939D01*
X169016153Y-107113378D01*
X168878533Y-107210157D01*
X168826511Y-107245424D01*
X168628360Y-107380263D01*
X168412790Y-107530019D01*
X168193089Y-107685125D01*
X167982545Y-107836017D01*
X167794445Y-107973129D01*
X167642078Y-108086896D01*
X167538731Y-108167752D01*
X167507010Y-108195293D01*
X167447200Y-108260835D01*
X167448049Y-108282168D01*
X167501453Y-108264479D01*
X167599307Y-108212952D01*
X167733504Y-108132774D01*
X167895940Y-108029131D01*
X168078511Y-107907208D01*
X168273109Y-107772192D01*
X168471631Y-107629269D01*
X168665971Y-107483623D01*
X168848024Y-107340441D01*
X168866311Y-107325587D01*
X168960164Y-107256898D01*
X169029798Y-107219579D01*
X169041044Y-107217333D01*
X169100473Y-107188165D01*
X169135667Y-107153833D01*
X169204150Y-107106590D01*
X169283412Y-107091367D01*
X169339082Y-107111269D01*
X169347334Y-107134700D01*
X169377530Y-107230078D01*
X169458211Y-107360978D01*
X169574512Y-107509088D01*
X169711570Y-107656095D01*
X169854521Y-107783686D01*
X169904766Y-107821482D01*
X170123177Y-107967644D01*
X170323820Y-108085647D01*
X170496464Y-108170989D01*
X170630881Y-108219167D01*
X170716842Y-108225679D01*
X170744334Y-108191000D01*
X170778622Y-108153442D01*
X170807834Y-108148666D01*
X170860845Y-108159939D01*
X170857168Y-108200103D01*
X170793093Y-108278682D01*
X170733750Y-108338792D01*
X170644448Y-108447204D01*
X170524189Y-108625347D01*
X170377260Y-108865968D01*
X170207946Y-109161814D01*
X170020534Y-109505632D01*
X169835264Y-109859149D01*
X169743943Y-110053726D01*
X169649168Y-110285840D01*
X169554760Y-110542510D01*
X169464540Y-110810755D01*
X169382329Y-111077593D01*
X169311947Y-111330044D01*
X169257216Y-111555126D01*
X169221956Y-111739857D01*
X169209988Y-111871257D01*
X169224154Y-111935383D01*
X169254338Y-111936293D01*
X169262667Y-111882466D01*
X169261184Y-111796287D01*
X169259051Y-111762316D01*
X169286147Y-111719175D01*
X169308674Y-111702396D01*
X169357158Y-111642071D01*
X169403892Y-111539229D01*
X169407540Y-111528329D01*
X169442548Y-111443030D01*
X169493960Y-111397280D01*
X169588792Y-111373914D01*
X169664834Y-111364848D01*
X169838203Y-111321087D01*
X170036523Y-111233278D01*
X170226903Y-111119204D01*
X170376455Y-110996648D01*
X170405667Y-110964289D01*
X170468277Y-110908057D01*
X170583035Y-110821716D01*
X170730151Y-110719803D01*
X170809603Y-110667585D01*
X170977401Y-110550565D01*
X171132833Y-110426903D01*
X171250564Y-110317292D01*
X171281002Y-110282553D01*
X171381304Y-110145406D01*
X171485647Y-109985733D01*
X171582592Y-109823284D01*
X171660705Y-109677807D01*
X171708548Y-109569050D01*
X171718000Y-109527960D01*
X171721831Y-109494752D01*
X171591000Y-109494752D01*
X171559287Y-109632442D01*
X171472296Y-109805465D01*
X171342255Y-109998050D01*
X171181390Y-110194427D01*
X171001927Y-110378822D01*
X170816093Y-110535465D01*
X170746193Y-110584534D01*
X170576863Y-110701900D01*
X170405607Y-110829970D01*
X170269092Y-110941310D01*
X170267449Y-110942753D01*
X170070402Y-111091993D01*
X169866534Y-111204745D01*
X169679077Y-111269452D01*
X169588832Y-111280403D01*
X169512943Y-111275173D01*
X169485623Y-111241690D01*
X169493064Y-111155736D01*
X169498849Y-111122583D01*
X169543072Y-110941140D01*
X169615422Y-110718077D01*
X169708479Y-110470266D01*
X169814823Y-110214573D01*
X169927032Y-109967871D01*
X170037686Y-109747027D01*
X170139363Y-109568911D01*
X170224643Y-109450392D01*
X170242516Y-109432066D01*
X170342126Y-109361574D01*
X170495121Y-109277152D01*
X170674517Y-109191504D01*
X170853332Y-109117333D01*
X171004581Y-109067343D01*
X171030622Y-109061039D01*
X171185397Y-109065321D01*
X171341129Y-109131062D01*
X171475346Y-109240870D01*
X171565580Y-109377355D01*
X171591000Y-109494752D01*
X171721831Y-109494752D01*
X171723278Y-109482217D01*
X171747404Y-109469156D01*
X171802819Y-109493876D01*
X171901961Y-109561477D01*
X172028059Y-109655075D01*
X172283228Y-109823842D01*
X172590711Y-109991516D01*
X172919295Y-110143147D01*
X173237768Y-110263789D01*
X173400444Y-110312339D01*
X173634867Y-110356729D01*
X173929090Y-110386521D01*
X174259421Y-110401194D01*
X174602172Y-110400224D01*
X174933651Y-110383090D01*
X175210500Y-110352272D01*
X175504053Y-110297340D01*
X175831639Y-110217863D01*
X176163083Y-110122471D01*
X176468208Y-110019792D01*
X176699035Y-109926629D01*
X176840199Y-109864478D01*
X176950784Y-109819226D01*
X177008779Y-109799838D01*
X177010811Y-109799666D01*
X177038315Y-109836715D01*
X177066271Y-109928410D01*
X177071654Y-109954657D01*
X177092648Y-110020612D01*
X177137094Y-110098846D01*
X177212577Y-110198570D01*
X177326687Y-110328996D01*
X177487009Y-110499334D01*
X177700782Y-110718441D01*
X177913997Y-110932853D01*
X178079304Y-111093675D01*
X178206592Y-111209195D01*
X178305748Y-111287695D01*
X178386658Y-111337461D01*
X178459210Y-111366778D01*
X178482138Y-111373159D01*
X178610201Y-111417168D01*
X178688923Y-111483913D01*
X178737090Y-111596288D01*
X178762847Y-111715250D01*
X178790694Y-111817065D01*
X178823972Y-111871274D01*
X178831919Y-111874000D01*
X178861980Y-111835388D01*
X178869988Y-111727343D01*
X178858145Y-111561549D01*
X178828653Y-111349693D01*
X178795309Y-111166994D01*
X178741526Y-111166994D01*
X178731361Y-111214351D01*
X178706951Y-111297107D01*
X178703000Y-111327129D01*
X178676714Y-111363896D01*
X178600654Y-111336494D01*
X178522116Y-111281333D01*
X178436496Y-111222434D01*
X178377826Y-111196709D01*
X178376567Y-111196666D01*
X178336143Y-111168108D01*
X178248874Y-111090278D01*
X178126592Y-110974939D01*
X177981129Y-110833856D01*
X177824315Y-110678793D01*
X177667983Y-110521514D01*
X177523964Y-110373785D01*
X177404090Y-110247369D01*
X177320192Y-110154031D01*
X177290897Y-110117166D01*
X177239739Y-110014554D01*
X177201885Y-109893424D01*
X177190837Y-109803392D01*
X177214245Y-109732413D01*
X177285515Y-109650987D01*
X177331748Y-109607674D01*
X177441646Y-109522446D01*
X177542307Y-109469540D01*
X177581794Y-109461000D01*
X177660909Y-109485426D01*
X177778835Y-109549185D01*
X177898667Y-109630333D01*
X178025488Y-109717243D01*
X178134367Y-109778332D01*
X178198041Y-109799666D01*
X178240743Y-109823063D01*
X178290033Y-109899776D01*
X178350961Y-110039585D01*
X178422067Y-110233583D01*
X178488605Y-110431797D01*
X178546675Y-110618975D01*
X178588553Y-110769453D01*
X178603682Y-110836833D01*
X178623933Y-110938947D01*
X178639684Y-110965635D01*
X178659221Y-110925165D01*
X178667323Y-110900333D01*
X178683630Y-110867847D01*
X178685478Y-110915933D01*
X178677542Y-111000103D01*
X178668162Y-111123011D01*
X178678407Y-111175703D01*
X178706923Y-111173075D01*
X178741526Y-111166994D01*
X178795309Y-111166994D01*
X178783712Y-111103457D01*
X178725524Y-110834528D01*
X178656291Y-110554591D01*
X178578215Y-110275330D01*
X178493496Y-110008430D01*
X178465031Y-109926666D01*
X178380698Y-109690922D01*
X178227500Y-109690922D01*
X178203179Y-109707789D01*
X178132165Y-109669170D01*
X178031759Y-109594125D01*
X177914778Y-109507904D01*
X177808222Y-109438032D01*
X177781347Y-109422819D01*
X177685194Y-109372387D01*
X177808625Y-109268527D01*
X177899174Y-109200928D01*
X177965933Y-109165986D01*
X177974200Y-109164666D01*
X178014497Y-109200577D01*
X178072257Y-109293163D01*
X178135531Y-109419704D01*
X178192372Y-109557479D01*
X178213497Y-109619750D01*
X178227500Y-109690922D01*
X178380698Y-109690922D01*
X178370251Y-109661719D01*
X178298840Y-109465616D01*
X178245887Y-109327396D01*
X178206479Y-109236098D01*
X178175706Y-109180762D01*
X178148655Y-109150427D01*
X178120414Y-109134135D01*
X178107599Y-109129061D01*
X178081201Y-109107225D01*
X178087087Y-109064344D01*
X178131610Y-108988606D01*
X178221124Y-108868199D01*
X178304751Y-108762500D01*
X178425501Y-108619866D01*
X178534400Y-108505976D01*
X178616811Y-108435371D01*
X178650003Y-108419517D01*
X178756730Y-108412746D01*
X178812159Y-108408934D01*
X178966214Y-108360720D01*
X179138275Y-108243439D01*
X179318163Y-108067860D01*
X179495698Y-107844752D01*
X179660698Y-107584886D01*
X179747867Y-107419056D01*
X179820035Y-107281563D01*
X179883283Y-107180140D01*
X179925583Y-107133725D01*
X179929756Y-107132666D01*
X179952816Y-107137562D01*
X179990642Y-107156639D01*
X180052752Y-107196477D01*
X180148667Y-107263659D01*
X180287906Y-107364767D01*
X180479987Y-107506383D01*
X180615225Y-107606608D01*
X180953476Y-107866786D01*
X181237576Y-108107588D01*
X181488739Y-108348210D01*
X181728183Y-108607854D01*
X181752209Y-108635500D01*
X181850105Y-108741577D01*
X181928754Y-108813908D01*
X181970142Y-108836583D01*
X182003723Y-108857384D01*
X182005000Y-108868333D01*
X182037362Y-108909266D01*
X182048421Y-108910666D01*
X182065088Y-108881183D01*
X182033281Y-108801630D01*
X181960627Y-108685350D01*
X181854751Y-108545688D01*
X181807975Y-108489935D01*
X181693381Y-108371107D01*
X181525367Y-108215247D01*
X181319121Y-108034933D01*
X181089831Y-107842743D01*
X180852685Y-107651255D01*
X180622871Y-107473049D01*
X180415579Y-107320702D01*
X180302037Y-107242772D01*
X180128240Y-107119933D01*
X180016339Y-107022917D01*
X179970100Y-106956003D01*
X179993292Y-106923471D01*
X180018764Y-106921000D01*
X180085845Y-106940848D01*
X180204493Y-106993078D01*
X180353548Y-107066717D01*
X180511851Y-107150794D01*
X180658244Y-107234335D01*
X180771568Y-107306368D01*
X180795692Y-107323894D01*
X180894150Y-107390491D01*
X180969462Y-107426767D01*
X180982413Y-107429000D01*
X181028672Y-107457046D01*
X181031334Y-107470526D01*
X181067220Y-107510799D01*
X181135756Y-107538261D01*
X181210664Y-107569082D01*
X181231006Y-107597843D01*
X181254240Y-107646215D01*
X181325232Y-107729396D01*
X181425207Y-107829830D01*
X181535392Y-107929962D01*
X181637010Y-108012236D01*
X181711288Y-108059098D01*
X181729543Y-108064000D01*
X181766929Y-108041920D01*
X181742860Y-107980731D01*
X181666516Y-107888005D01*
X181547073Y-107771315D01*
X181393713Y-107638236D01*
X181215613Y-107496339D01*
X181021951Y-107353199D01*
X180821908Y-107216389D01*
X180624662Y-107093482D01*
X180439391Y-106992051D01*
X180416886Y-106980945D01*
X180251895Y-106898013D01*
X180179328Y-106858747D01*
X179831689Y-106858747D01*
X179830315Y-106874232D01*
X179774416Y-106877166D01*
X179688255Y-106859886D01*
X179653760Y-106833516D01*
X179637499Y-106780675D01*
X179684512Y-106780839D01*
X179761398Y-106817130D01*
X179831689Y-106858747D01*
X180179328Y-106858747D01*
X180119779Y-106826526D01*
X180036382Y-106775376D01*
X180015334Y-106755559D01*
X180038129Y-106701776D01*
X180076801Y-106643341D01*
X180119032Y-106594231D01*
X180162310Y-106584347D01*
X180235234Y-106614351D01*
X180299051Y-106648481D01*
X180570743Y-106796627D01*
X180780485Y-106912654D01*
X180941167Y-107004037D01*
X181065677Y-107078251D01*
X181166904Y-107142772D01*
X181253682Y-107202211D01*
X181375943Y-107279709D01*
X181480357Y-107330585D01*
X181528848Y-107342571D01*
X181561819Y-107322695D01*
X181525493Y-107269235D01*
X181426308Y-107186458D01*
X181270702Y-107078632D01*
X181065112Y-106950024D01*
X180815977Y-106804900D01*
X180529734Y-106647530D01*
X180291782Y-106522593D01*
X180166063Y-106457846D01*
X180160874Y-105938006D01*
X180157945Y-105867868D01*
X180019328Y-105867868D01*
X180019041Y-106084859D01*
X180007009Y-106226220D01*
X179972507Y-106300982D01*
X179904810Y-106318174D01*
X179793194Y-106286828D01*
X179626932Y-106215973D01*
X179613167Y-106209855D01*
X179411164Y-106131652D01*
X179210182Y-106073893D01*
X179027677Y-106039477D01*
X178881103Y-106031306D01*
X178787917Y-106052280D01*
X178769404Y-106069635D01*
X178783670Y-106100021D01*
X178876276Y-106114831D01*
X178953821Y-106116666D01*
X179109491Y-106131784D01*
X179292214Y-106180978D01*
X179522739Y-106270005D01*
X179552983Y-106282941D01*
X179718023Y-106355030D01*
X179851531Y-106415108D01*
X179935925Y-106455166D01*
X179956022Y-106466577D01*
X179955259Y-106513922D01*
X179930450Y-106606763D01*
X179925813Y-106620395D01*
X179879086Y-106714248D01*
X179824518Y-106734914D01*
X179809872Y-106730616D01*
X179703620Y-106694234D01*
X179547670Y-106646174D01*
X179361469Y-106591819D01*
X179164462Y-106536550D01*
X178976095Y-106485747D01*
X178815814Y-106444794D01*
X178703066Y-106419070D01*
X178662141Y-106413000D01*
X178585890Y-106424552D01*
X178580608Y-106452213D01*
X178636889Y-106485486D01*
X178745324Y-106513875D01*
X178753817Y-106515279D01*
X178875140Y-106540731D01*
X178961696Y-106569685D01*
X178976067Y-106578047D01*
X179045838Y-106615255D01*
X179148712Y-106655388D01*
X179231625Y-106692198D01*
X179349786Y-106755139D01*
X179482374Y-106831693D01*
X179608570Y-106909345D01*
X179707555Y-106975577D01*
X179758509Y-107017872D01*
X179761334Y-107023701D01*
X179746039Y-107067153D01*
X179705426Y-107168806D01*
X179647405Y-107308988D01*
X179629953Y-107350483D01*
X179454719Y-107696209D01*
X179248624Y-107981378D01*
X179019527Y-108195485D01*
X178974191Y-108227170D01*
X178839522Y-108312495D01*
X178756346Y-108351058D01*
X178708106Y-108346469D01*
X178678243Y-108302338D01*
X178674337Y-108292560D01*
X178680144Y-108216858D01*
X178705664Y-108189353D01*
X178724066Y-108154754D01*
X178699857Y-108089315D01*
X178627089Y-107980638D01*
X178568360Y-107903280D01*
X178465821Y-107767535D01*
X178379481Y-107646611D01*
X178351117Y-107602658D01*
X178043741Y-107602658D01*
X178033345Y-107641137D01*
X177987533Y-107708478D01*
X177899830Y-107818637D01*
X177813362Y-107924629D01*
X177775460Y-107996896D01*
X177771667Y-108019879D01*
X177740528Y-108062424D01*
X177729334Y-108064000D01*
X177688680Y-108096584D01*
X177687000Y-108109157D01*
X177663348Y-108172747D01*
X177605738Y-108260287D01*
X177534189Y-108347238D01*
X177468720Y-108409057D01*
X177431216Y-108422730D01*
X177381877Y-108432114D01*
X177365885Y-108450850D01*
X177360184Y-108480540D01*
X177384126Y-108470209D01*
X177427830Y-108464615D01*
X177433000Y-108478683D01*
X177403347Y-108529173D01*
X177328507Y-108607514D01*
X177229664Y-108695814D01*
X177128000Y-108776182D01*
X177044698Y-108830726D01*
X177002201Y-108842552D01*
X176975113Y-108846405D01*
X176976868Y-108857734D01*
X176954865Y-108904875D01*
X176885943Y-108989157D01*
X176802058Y-109075499D01*
X176686608Y-109178360D01*
X176602730Y-109227358D01*
X176528244Y-109234044D01*
X176505724Y-109229832D01*
X176439678Y-109220731D01*
X176449597Y-109240385D01*
X176451276Y-109241523D01*
X176475763Y-109279309D01*
X176429561Y-109326690D01*
X176408943Y-109340200D01*
X176288094Y-109406608D01*
X176129616Y-109481162D01*
X175961051Y-109552296D01*
X175809942Y-109608443D01*
X175703831Y-109638039D01*
X175697334Y-109639018D01*
X175582570Y-109674353D01*
X175486831Y-109726326D01*
X175372964Y-109781986D01*
X175275164Y-109802642D01*
X175154979Y-109819656D01*
X175083500Y-109841710D01*
X174977179Y-109861751D01*
X174804848Y-109864931D01*
X174583211Y-109852482D01*
X174328971Y-109825636D01*
X174058828Y-109785625D01*
X173882618Y-109753140D01*
X173637032Y-109703864D01*
X173463326Y-109668132D01*
X173350332Y-109642994D01*
X173286886Y-109625499D01*
X173261821Y-109612695D01*
X173263973Y-109601630D01*
X173276399Y-109592904D01*
X173265968Y-109576937D01*
X173190442Y-109567079D01*
X173142708Y-109565708D01*
X172950963Y-109533544D01*
X172730404Y-109446946D01*
X172505217Y-109317508D01*
X172310667Y-109166894D01*
X172216506Y-109077650D01*
X172160615Y-109015621D01*
X172154098Y-108995391D01*
X172149473Y-108970803D01*
X172103884Y-108919530D01*
X171279283Y-108919530D01*
X171244218Y-108970288D01*
X171134226Y-108994043D01*
X171089551Y-108995333D01*
X170963935Y-109011642D01*
X170802324Y-109053825D01*
X170679299Y-109097426D01*
X170511390Y-109163539D01*
X170409352Y-109195437D01*
X170361124Y-109191994D01*
X170354642Y-109152081D01*
X170377845Y-109074572D01*
X170379664Y-109069416D01*
X170433342Y-108953689D01*
X170515494Y-108813083D01*
X170563591Y-108741333D01*
X170653677Y-108614292D01*
X170733931Y-108500878D01*
X170765892Y-108455583D01*
X170848181Y-108375139D01*
X170925977Y-108377486D01*
X171002475Y-108463384D01*
X171032352Y-108519083D01*
X171092100Y-108614790D01*
X171149234Y-108663798D01*
X171164879Y-108665518D01*
X171201781Y-108682015D01*
X171195826Y-108717210D01*
X171202670Y-108795781D01*
X171235665Y-108845616D01*
X171279283Y-108919530D01*
X172103884Y-108919530D01*
X172095365Y-108909949D01*
X172076175Y-108891670D01*
X172009653Y-108812270D01*
X171989609Y-108749970D01*
X171992474Y-108742454D01*
X171993080Y-108708062D01*
X171976745Y-108708534D01*
X171936227Y-108680165D01*
X171867991Y-108594503D01*
X171785099Y-108468452D01*
X171763941Y-108433159D01*
X171690577Y-108303444D01*
X171644093Y-108210990D01*
X171631920Y-108171011D01*
X171636177Y-108171590D01*
X171699903Y-108188251D01*
X171815772Y-108202059D01*
X171887499Y-108206682D01*
X171997466Y-108207256D01*
X172053636Y-108198342D01*
X172052420Y-108188375D01*
X172051320Y-108157553D01*
X172134110Y-108118579D01*
X172226000Y-108090795D01*
X172270832Y-108064749D01*
X172356376Y-108006994D01*
X172385101Y-107986718D01*
X172481968Y-107897998D01*
X172496667Y-107828345D01*
X172429075Y-107777621D01*
X172279068Y-107745685D01*
X172163095Y-107736169D01*
X171915154Y-107739025D01*
X171727007Y-107775286D01*
X171606211Y-107842813D01*
X171566534Y-107905064D01*
X171544022Y-107960949D01*
X171519313Y-107952531D01*
X171475237Y-107875068D01*
X171430142Y-107747822D01*
X171409382Y-107619500D01*
X171040667Y-107619500D01*
X171019500Y-107640666D01*
X170998334Y-107619500D01*
X171019500Y-107598333D01*
X171040667Y-107619500D01*
X171409382Y-107619500D01*
X171406796Y-107603516D01*
X171406476Y-107596471D01*
X171396022Y-107499372D01*
X171393154Y-107492500D01*
X171125334Y-107492500D01*
X171104167Y-107513666D01*
X171083000Y-107492500D01*
X171104167Y-107471333D01*
X171125334Y-107492500D01*
X171393154Y-107492500D01*
X171377440Y-107454861D01*
X171371676Y-107455209D01*
X171326950Y-107443387D01*
X171316724Y-107430439D01*
X171346878Y-107413548D01*
X171459221Y-107400930D01*
X171651373Y-107392724D01*
X171920959Y-107389067D01*
X172034026Y-107388888D01*
X172777455Y-107389612D01*
X172757321Y-107500649D01*
X172721139Y-107711428D01*
X172702939Y-107852372D01*
X172702255Y-107936275D01*
X172718625Y-107975935D01*
X172739777Y-107984208D01*
X172920674Y-107970181D01*
X173037548Y-107908386D01*
X173095810Y-107869848D01*
X173136091Y-107899742D01*
X173155454Y-107933487D01*
X173181035Y-108000473D01*
X173173429Y-108021666D01*
X173175127Y-108047583D01*
X173214365Y-108099185D01*
X173260744Y-108164521D01*
X173265275Y-108195947D01*
X173283326Y-108211660D01*
X173325575Y-108215190D01*
X173381716Y-108201148D01*
X173384561Y-108181928D01*
X173395327Y-108150498D01*
X173408835Y-108148666D01*
X173451541Y-108181408D01*
X173453667Y-108195689D01*
X173475412Y-108201678D01*
X173527905Y-108151020D01*
X173529696Y-108148821D01*
X173605725Y-108054929D01*
X173740496Y-108168332D01*
X173833621Y-108232961D01*
X173904376Y-108258124D01*
X173918467Y-108255035D01*
X173958186Y-108255592D01*
X173961667Y-108269640D01*
X173928540Y-108321298D01*
X173908750Y-108332296D01*
X173879311Y-108351619D01*
X173907261Y-108356991D01*
X173965950Y-108326589D01*
X174003157Y-108277243D01*
X174069903Y-108216372D01*
X174121063Y-108217736D01*
X174165772Y-108226892D01*
X174139129Y-108201561D01*
X174103358Y-108125825D01*
X174112293Y-108048107D01*
X174146067Y-107968182D01*
X174203954Y-107955036D01*
X174231164Y-107961880D01*
X174338295Y-108012259D01*
X174389129Y-108048560D01*
X174482770Y-108089405D01*
X174558462Y-108092165D01*
X174635789Y-108059437D01*
X174651242Y-107979658D01*
X174650846Y-107975029D01*
X174632900Y-107840480D01*
X174602899Y-107668873D01*
X174568145Y-107498265D01*
X174535937Y-107366713D01*
X174530998Y-107350197D01*
X174516797Y-107281794D01*
X174549211Y-107264353D01*
X174622246Y-107276745D01*
X174769469Y-107299775D01*
X174985699Y-107321776D01*
X175255277Y-107341872D01*
X175562544Y-107359185D01*
X175891840Y-107372842D01*
X176227506Y-107381964D01*
X176553882Y-107385677D01*
X176569972Y-107385706D01*
X176953170Y-107390745D01*
X177270976Y-107404530D01*
X177519155Y-107426619D01*
X177693474Y-107456570D01*
X177789699Y-107493941D01*
X177807033Y-107514756D01*
X177847131Y-107538208D01*
X177859075Y-107533139D01*
X177922040Y-107532610D01*
X177984190Y-107556457D01*
X178025198Y-107579083D01*
X178043741Y-107602658D01*
X178351117Y-107602658D01*
X178327052Y-107565367D01*
X178325205Y-107561987D01*
X178255368Y-107491150D01*
X178192176Y-107471333D01*
X178109161Y-107458007D01*
X177977197Y-107423299D01*
X177844415Y-107381213D01*
X177762698Y-107355502D01*
X177676200Y-107334548D01*
X177574336Y-107317528D01*
X177446518Y-107303617D01*
X177282158Y-107291991D01*
X177070671Y-107281827D01*
X176801470Y-107272300D01*
X176463966Y-107262586D01*
X176247667Y-107256923D01*
X175909359Y-107246959D01*
X175589271Y-107235091D01*
X175299684Y-107221962D01*
X175052881Y-107208212D01*
X174861146Y-107194485D01*
X174736759Y-107181423D01*
X174708147Y-107176424D01*
X174569219Y-107154364D01*
X174452407Y-107151369D01*
X174415501Y-107157588D01*
X174355615Y-107182517D01*
X174373815Y-107209446D01*
X174404350Y-107227320D01*
X174452296Y-107268313D01*
X174425782Y-107302958D01*
X174398211Y-107337934D01*
X174394152Y-107407545D01*
X174413593Y-107531740D01*
X174425610Y-107590209D01*
X174451817Y-107731694D01*
X174465181Y-107841379D01*
X174463991Y-107888346D01*
X174420224Y-107897231D01*
X174321533Y-107865155D01*
X174247981Y-107830712D01*
X174130853Y-107773449D01*
X174065736Y-107753566D01*
X174029717Y-107769012D01*
X174004565Y-107808946D01*
X173968206Y-107916890D01*
X173961667Y-107974051D01*
X173942873Y-108062421D01*
X173888761Y-108074996D01*
X173802740Y-108011275D01*
X173791108Y-107999195D01*
X173683870Y-107913388D01*
X173585309Y-107906675D01*
X173476101Y-107978247D01*
X173468084Y-107985674D01*
X173410154Y-108033853D01*
X173370775Y-108040286D01*
X173342672Y-107994064D01*
X173318569Y-107884274D01*
X173294805Y-107725814D01*
X173258671Y-107571780D01*
X173207693Y-107485863D01*
X173149336Y-107472750D01*
X173091065Y-107537126D01*
X173069844Y-107584592D01*
X173011493Y-107701122D01*
X172953668Y-107782214D01*
X172899704Y-107834041D01*
X172873603Y-107815491D01*
X172858302Y-107761125D01*
X172859187Y-107646984D01*
X172884530Y-107577166D01*
X172928275Y-107475093D01*
X172961601Y-107349995D01*
X172974938Y-107255423D01*
X172955230Y-107224379D01*
X172886296Y-107237422D01*
X172871510Y-107241744D01*
X172792767Y-107252965D01*
X172645274Y-107263168D01*
X172444947Y-107271665D01*
X172207702Y-107277767D01*
X171972000Y-107280665D01*
X171188834Y-107285333D01*
X170922189Y-107548628D01*
X170795660Y-107676273D01*
X170722494Y-107760364D01*
X170694060Y-107815015D01*
X170701730Y-107854339D01*
X170721105Y-107877485D01*
X170776051Y-107946654D01*
X170771037Y-108009005D01*
X170724508Y-108078999D01*
X170691683Y-108114284D01*
X170651757Y-108124748D01*
X170587696Y-108105731D01*
X170482460Y-108052574D01*
X170344271Y-107974995D01*
X170042627Y-107781411D01*
X169802844Y-107573863D01*
X169602387Y-107331666D01*
X169536641Y-107233780D01*
X169454118Y-107094630D01*
X169419409Y-107005196D01*
X169426869Y-106949535D01*
X169432952Y-106941020D01*
X169501996Y-106891451D01*
X169630634Y-106825972D01*
X169797462Y-106753340D01*
X169981080Y-106682311D01*
X170160086Y-106621641D01*
X170253761Y-106596198D01*
X169841689Y-106596198D01*
X169801162Y-106641240D01*
X169683407Y-106716273D01*
X169664834Y-106726764D01*
X169498366Y-106815900D01*
X169391108Y-106861225D01*
X169331326Y-106865142D01*
X169307288Y-106830052D01*
X169305000Y-106800430D01*
X169332664Y-106741413D01*
X169424009Y-106687732D01*
X169521528Y-106652264D01*
X169699709Y-106600585D01*
X169807150Y-106582271D01*
X169841689Y-106596198D01*
X170253761Y-106596198D01*
X170313078Y-106580087D01*
X170317436Y-106579142D01*
X170434144Y-106547613D01*
X170503373Y-106516058D01*
X170512479Y-106499250D01*
X170533615Y-106469058D01*
X170613128Y-106441416D01*
X170620242Y-106439935D01*
X170748776Y-106414228D01*
X170690191Y-106351343D01*
X170511500Y-106351343D01*
X170151667Y-106425194D01*
X169958078Y-106467440D01*
X169770458Y-106512605D01*
X169623731Y-106552197D01*
X169601334Y-106559024D01*
X169435941Y-106605629D01*
X169331754Y-106617220D01*
X169272043Y-106591862D01*
X169240075Y-106527616D01*
X169237223Y-106516861D01*
X169227034Y-106425770D01*
X169239839Y-106379278D01*
X169295819Y-106362574D01*
X169416320Y-106347230D01*
X169581199Y-106334207D01*
X169770312Y-106324467D01*
X169963516Y-106318972D01*
X170140667Y-106318684D01*
X170281620Y-106324563D01*
X170315869Y-106327913D01*
X170511500Y-106351343D01*
X170690191Y-106351343D01*
X170665581Y-106324928D01*
X170625654Y-106288583D01*
X170575335Y-106263841D01*
X170499112Y-106248647D01*
X170381470Y-106240949D01*
X170206896Y-106238692D01*
X170019450Y-106239400D01*
X169797087Y-106242679D01*
X169594309Y-106248924D01*
X169431946Y-106257276D01*
X169330830Y-106266875D01*
X169323572Y-106268113D01*
X169190629Y-106293053D01*
X169163516Y-106067276D01*
X169147213Y-105897270D01*
X169145189Y-105862666D01*
X169093334Y-105862666D01*
X169077845Y-105897511D01*
X169065112Y-105890888D01*
X169060045Y-105840649D01*
X169065112Y-105834444D01*
X169090279Y-105840255D01*
X169093334Y-105862666D01*
X169145189Y-105862666D01*
X169137341Y-105728514D01*
X169136035Y-105667469D01*
X169153971Y-105509217D01*
X169203321Y-105297542D01*
X169276609Y-105054230D01*
X169366361Y-104801066D01*
X169465100Y-104559835D01*
X169565352Y-104352322D01*
X169619334Y-104259016D01*
X169677260Y-104157494D01*
X169705056Y-104088724D01*
X169704207Y-104074650D01*
X169704501Y-104019299D01*
X169746630Y-103907625D01*
X169824065Y-103752800D01*
X169930275Y-103567993D01*
X170045568Y-103386166D01*
X170162932Y-103199590D01*
X170277785Y-103001390D01*
X170370054Y-102826633D01*
X170390633Y-102783357D01*
X170455398Y-102651325D01*
X170510220Y-102556469D01*
X170543495Y-102518810D01*
X170543998Y-102518774D01*
X170593713Y-102551185D01*
X170692672Y-102646975D01*
X170837746Y-102802997D01*
X170933041Y-102909916D01*
X170984173Y-102977046D01*
X170998334Y-103007991D01*
X171023886Y-103067737D01*
X171085738Y-103149885D01*
X171161682Y-103230445D01*
X171229513Y-103285426D01*
X171263585Y-103294546D01*
X171287514Y-103294420D01*
X171278138Y-103315162D01*
X171286976Y-103371550D01*
X171342726Y-103461620D01*
X171388014Y-103515962D01*
X171478212Y-103619584D01*
X171546107Y-103706043D01*
X171563347Y-103732153D01*
X171631832Y-103775282D01*
X171750434Y-103750900D01*
X171919441Y-103658923D01*
X172010147Y-103596799D01*
X172237603Y-103453911D01*
X172487678Y-103329869D01*
X172721892Y-103243394D01*
X172755167Y-103234335D01*
X172849027Y-103206282D01*
X172998302Y-103157212D01*
X173178883Y-103095174D01*
X173293297Y-103054693D01*
X173509904Y-102983358D01*
X173738892Y-102917961D01*
X173942734Y-102868892D01*
X174012964Y-102855457D01*
X174328323Y-102825756D01*
X174700968Y-102829866D01*
X175111498Y-102865711D01*
X175540513Y-102931218D01*
X175968612Y-103024313D01*
X176209479Y-103090319D01*
X176349315Y-103138341D01*
X176526863Y-103208786D01*
X176727558Y-103294760D01*
X176936838Y-103389367D01*
X177140138Y-103485713D01*
X177322895Y-103576901D01*
X177470545Y-103656037D01*
X177568523Y-103716226D01*
X177602334Y-103749759D01*
X177635467Y-103765768D01*
X177676417Y-103759174D01*
X177744482Y-103713809D01*
X177843692Y-103615574D01*
X177962848Y-103479337D01*
X178090750Y-103319965D01*
X178216200Y-103152326D01*
X178327997Y-102991288D01*
X178414941Y-102851718D01*
X178465833Y-102748484D01*
X178472955Y-102701753D01*
X178487263Y-102644563D01*
X178506913Y-102632168D01*
X178551538Y-102582411D01*
X178601041Y-102481473D01*
X178617550Y-102436042D01*
X178677246Y-102292182D01*
X178732785Y-102232687D01*
X178783121Y-102257313D01*
X178827209Y-102365815D01*
X178853746Y-102491262D01*
X178877197Y-102591973D01*
X178903341Y-102616510D01*
X178922749Y-102597961D01*
X178948101Y-102576482D01*
X178944145Y-102630098D01*
X178940501Y-102647752D01*
X178942219Y-102735571D01*
X178966808Y-102883363D01*
X179010393Y-103070772D01*
X179045299Y-103198085D01*
X179101864Y-103404187D01*
X179151011Y-103603261D01*
X179186095Y-103767346D01*
X179198120Y-103841250D01*
X179218589Y-103964120D01*
X179249047Y-104023831D01*
X179302558Y-104041835D01*
X179320576Y-104042333D01*
X179427248Y-104082443D01*
X179537462Y-104194672D01*
X179646567Y-104366872D01*
X179749912Y-104586892D01*
X179842848Y-104842584D01*
X179920724Y-105121797D01*
X179978889Y-105412381D01*
X180012693Y-105702188D01*
X180019328Y-105867868D01*
X180157945Y-105867868D01*
X180145047Y-105559113D01*
X180143189Y-105545166D01*
X180100000Y-105545166D01*
X180078834Y-105566333D01*
X180057667Y-105545166D01*
X180078834Y-105524000D01*
X180100000Y-105545166D01*
X180143189Y-105545166D01*
X180101573Y-105232854D01*
X180024031Y-104929901D01*
X179906003Y-104620926D01*
X179841775Y-104480114D01*
X179698415Y-104218173D01*
X179553421Y-104031483D01*
X179511737Y-103992423D01*
X179386763Y-103859996D01*
X179323435Y-103719900D01*
X179315215Y-103681642D01*
X179290743Y-103572868D01*
X179247623Y-103407219D01*
X179192303Y-103208686D01*
X179140960Y-103033505D01*
X179078507Y-102820270D01*
X179020881Y-102614275D01*
X178975286Y-102441792D01*
X178952252Y-102345297D01*
X178921666Y-102230581D01*
X178891920Y-102163345D01*
X178877611Y-102155238D01*
X178875142Y-102151444D01*
X178731223Y-102151444D01*
X178725412Y-102176611D01*
X178703000Y-102179666D01*
X178668155Y-102164177D01*
X178674778Y-102151444D01*
X178725018Y-102146377D01*
X178731223Y-102151444D01*
X178875142Y-102151444D01*
X178862166Y-102131509D01*
X178862512Y-102049293D01*
X178864646Y-102028530D01*
X178868755Y-101929943D01*
X178841389Y-101889698D01*
X178792299Y-101883333D01*
X178718669Y-101909946D01*
G36*
X178795043Y-111992553D02*
G01*
X178787667Y-112022166D01*
X178821554Y-112078290D01*
X178851167Y-112085666D01*
X178907291Y-112051780D01*
X178914667Y-112022166D01*
X178880781Y-111966042D01*
X178851167Y-111958666D01*
X178795043Y-111992553D01*
G37*
X178795043Y-111992553D02*
X178787667Y-112022166D01*
X178821554Y-112078290D01*
X178851167Y-112085666D01*
X178907291Y-112051780D01*
X178914667Y-112022166D01*
X178880781Y-111966042D01*
X178851167Y-111958666D01*
X178795043Y-111992553D01*
G36*
X169199616Y-112041070D02*
G01*
X169184775Y-112152538D01*
X169178189Y-112322289D01*
X169178000Y-112360833D01*
X169182168Y-112523435D01*
X169193289Y-112647797D01*
X169209292Y-112714486D01*
X169216371Y-112720666D01*
X169238337Y-112754311D01*
X169232973Y-112803907D01*
X169229700Y-112897885D01*
X169248013Y-113033351D01*
X169280833Y-113179034D01*
X169321084Y-113303661D01*
X169361685Y-113375962D01*
X169362649Y-113376833D01*
X169408381Y-113453875D01*
X169416759Y-113493525D01*
X169442382Y-113579761D01*
X169501955Y-113706270D01*
X169583848Y-113854273D01*
X169676427Y-114004994D01*
X169768058Y-114139655D01*
X169847109Y-114239479D01*
X169901948Y-114285687D01*
X169908241Y-114286861D01*
X169942855Y-114295141D01*
X169963390Y-114330247D01*
X169972190Y-114407818D01*
X169971601Y-114543492D01*
X169966967Y-114678583D01*
X169967492Y-115093163D01*
X169999244Y-115499625D01*
X170059361Y-115870021D01*
X170109412Y-116068596D01*
X170206329Y-116302170D01*
X170346712Y-116521172D01*
X170512376Y-116701310D01*
X170662412Y-116807252D01*
X170815369Y-116854855D01*
X170990421Y-116864584D01*
X171146717Y-116835848D01*
X171192359Y-116814916D01*
X171389292Y-116672644D01*
X171543361Y-116491712D01*
X171623863Y-116357672D01*
X171699610Y-116193541D01*
X171771383Y-115996647D01*
X171831498Y-115793399D01*
X171872273Y-115610202D01*
X171881114Y-115522292D01*
X171702934Y-115522292D01*
X171693936Y-115685739D01*
X171674836Y-115814429D01*
X171674180Y-115817200D01*
X171573487Y-116133248D01*
X171437289Y-116403461D01*
X171274639Y-116610397D01*
X171250766Y-116632880D01*
X171096880Y-116744799D01*
X170954606Y-116781383D01*
X170805884Y-116743009D01*
X170652375Y-116645286D01*
X170459722Y-116446069D01*
X170309027Y-116173732D01*
X170200445Y-115828782D01*
X170134132Y-115411726D01*
X170110242Y-114923071D01*
X170110180Y-114874868D01*
X170118939Y-114630341D01*
X170141945Y-114375903D01*
X170175958Y-114133163D01*
X170217734Y-113923729D01*
X170264034Y-113769211D01*
X170281987Y-113729673D01*
X170353987Y-113641468D01*
X170477163Y-113532713D01*
X170627340Y-113421473D01*
X170780345Y-113325811D01*
X170899216Y-113268446D01*
X171013885Y-113242541D01*
X171106987Y-113269611D01*
X171191216Y-113358922D01*
X171279264Y-113519736D01*
X171297446Y-113559080D01*
X171370837Y-113747334D01*
X171443021Y-113977727D01*
X171507404Y-114223727D01*
X171557391Y-114458802D01*
X171586388Y-114656423D01*
X171591000Y-114740101D01*
X171601234Y-114834577D01*
X171626206Y-114879147D01*
X171629534Y-114879666D01*
X171656843Y-114918628D01*
X171678785Y-115022256D01*
X171694412Y-115170665D01*
X171702777Y-115343972D01*
X171702934Y-115522292D01*
X171881114Y-115522292D01*
X171886026Y-115473463D01*
X171885316Y-115458990D01*
X171882527Y-115373535D01*
X171904057Y-115337426D01*
X171968000Y-115344620D01*
X172092450Y-115389072D01*
X172093475Y-115389461D01*
X172221654Y-115428608D01*
X172406245Y-115472919D01*
X172619755Y-115516211D01*
X172781392Y-115544144D01*
X173022596Y-115573692D01*
X173316006Y-115595961D01*
X173644295Y-115610917D01*
X173990140Y-115618528D01*
X174336216Y-115618759D01*
X174665197Y-115611577D01*
X174959758Y-115596949D01*
X175202576Y-115574841D01*
X175359819Y-115549143D01*
X175636137Y-115486625D01*
X175752865Y-115794479D01*
X175909353Y-116137674D01*
X176092562Y-116405349D01*
X176308978Y-116604197D01*
X176565091Y-116740910D01*
X176718030Y-116790172D01*
X176849466Y-116817836D01*
X176946275Y-116812047D01*
X177053305Y-116768544D01*
X177077863Y-116755993D01*
X177200210Y-116672362D01*
X177297834Y-116571710D01*
X177313704Y-116547704D01*
X177392342Y-116369331D01*
X177461775Y-116132601D01*
X177516457Y-115863746D01*
X177550839Y-115588995D01*
X177560000Y-115383146D01*
X177560000Y-115162037D01*
X177426586Y-115162037D01*
X177421865Y-115361560D01*
X177419888Y-115408833D01*
X177397655Y-115712262D01*
X177356784Y-115967709D01*
X177291518Y-116210871D01*
X177289590Y-116216896D01*
X177199804Y-116455849D01*
X177103715Y-116615826D01*
X176991201Y-116702430D01*
X176852144Y-116721265D01*
X176676422Y-116677936D01*
X176551602Y-116625552D01*
X176385132Y-116525251D01*
X176238785Y-116383007D01*
X176105891Y-116188719D01*
X175979778Y-115932282D01*
X175853778Y-115603594D01*
X175828925Y-115531030D01*
X175664540Y-114983399D01*
X175560636Y-114494894D01*
X175517211Y-114065391D01*
X175534263Y-113694766D01*
X175611792Y-113382897D01*
X175749796Y-113129660D01*
X175803155Y-113064921D01*
X175990993Y-112903557D01*
X176183342Y-112825947D01*
X176374573Y-112831787D01*
X176559060Y-112920771D01*
X176731174Y-113092597D01*
X176748720Y-113116008D01*
X176925084Y-113373430D01*
X177059930Y-113612886D01*
X177165545Y-113862060D01*
X177254212Y-114148633D01*
X177313115Y-114387797D01*
X177367201Y-114633869D01*
X177402187Y-114826237D01*
X177421004Y-114992945D01*
X177426586Y-115162037D01*
X177560000Y-115162037D01*
X177560000Y-115013572D01*
X177718750Y-114915598D01*
X177932287Y-114762189D01*
X178129176Y-114581836D01*
X178281177Y-114401009D01*
X178303420Y-114367569D01*
X178528407Y-113985799D01*
X178713501Y-113619201D01*
X178850875Y-113284236D01*
X178911783Y-113087788D01*
X178968050Y-112820144D01*
X178992678Y-112581081D01*
X178986614Y-112381712D01*
X178950805Y-112233150D01*
X178886199Y-112146507D01*
X178830000Y-112128677D01*
X178821323Y-112167865D01*
X178814183Y-112274463D01*
X178809422Y-112431215D01*
X178807884Y-112583112D01*
X178801877Y-112826636D01*
X178780808Y-113033313D01*
X178738419Y-113224042D01*
X178668453Y-113419720D01*
X178564652Y-113641246D01*
X178420759Y-113909519D01*
X178399109Y-113948333D01*
X178278242Y-114146369D01*
X178141145Y-114341978D01*
X177998363Y-114523160D01*
X177860440Y-114677911D01*
X177737920Y-114794230D01*
X177641348Y-114860114D01*
X177590566Y-114868688D01*
X177562245Y-114822369D01*
X177528692Y-114713247D01*
X177496052Y-114562418D01*
X177488165Y-114517111D01*
X177418818Y-114193097D01*
X177323856Y-113887062D01*
X177212290Y-113625903D01*
X177155867Y-113525000D01*
X177078640Y-113396995D01*
X176989043Y-113243580D01*
X176950994Y-113176875D01*
X176802234Y-112983451D01*
X176659292Y-112874108D01*
X176461270Y-112776949D01*
X176294407Y-112739292D01*
X176132526Y-112758344D01*
X176006866Y-112804496D01*
X175807622Y-112908920D01*
X175661036Y-113030671D01*
X175554224Y-113187509D01*
X175474300Y-113397197D01*
X175421931Y-113610788D01*
X175380989Y-113841359D01*
X175364130Y-114049516D01*
X175372611Y-114259573D01*
X175407688Y-114495846D01*
X175470617Y-114782649D01*
X175485667Y-114844220D01*
X175534034Y-115041829D01*
X175573919Y-115208676D01*
X175601411Y-115328108D01*
X175612594Y-115383468D01*
X175612667Y-115384682D01*
X175572523Y-115408139D01*
X175460318Y-115436318D01*
X175288393Y-115467252D01*
X175069089Y-115498973D01*
X174814747Y-115529511D01*
X174537708Y-115556900D01*
X174526717Y-115557868D01*
X174317540Y-115574011D01*
X174136498Y-115581388D01*
X173960431Y-115579178D01*
X173766177Y-115566556D01*
X173530574Y-115542700D01*
X173287454Y-115513831D01*
X172837310Y-115452036D01*
X172471516Y-115387721D01*
X172189789Y-115320808D01*
X171991845Y-115251216D01*
X171877403Y-115178869D01*
X171845543Y-115112724D01*
X171837364Y-115031188D01*
X171815283Y-114894742D01*
X171783850Y-114731109D01*
X171779534Y-114710333D01*
X171739657Y-114519340D01*
X171699876Y-114327588D01*
X171669742Y-114181166D01*
X171578494Y-113819847D01*
X171465831Y-113531274D01*
X171327582Y-113305304D01*
X171291125Y-113260416D01*
X171188880Y-113154396D01*
X171096897Y-113081535D01*
X171043678Y-113059333D01*
X170937036Y-113085254D01*
X170795082Y-113154431D01*
X170635020Y-113253984D01*
X170474056Y-113371032D01*
X170329393Y-113492696D01*
X170218238Y-113606095D01*
X170157795Y-113698349D01*
X170151667Y-113727120D01*
X170139147Y-113798314D01*
X170107207Y-113916616D01*
X170083564Y-113992471D01*
X170041059Y-114112247D01*
X170007561Y-114165006D01*
X169968960Y-114165185D01*
X169935084Y-114144387D01*
X169882774Y-114084259D01*
X169805538Y-113966787D01*
X169715209Y-113810896D01*
X169651077Y-113690128D01*
X169488058Y-113315800D01*
X169368768Y-112924547D01*
X169301640Y-112546495D01*
X169291254Y-112404954D01*
X169279681Y-112290669D01*
X169258885Y-112221792D01*
X169247495Y-112212667D01*
X169229356Y-112177968D01*
X169237718Y-112106833D01*
X169243678Y-112026565D01*
X169221140Y-112001000D01*
X169199616Y-112041070D01*
G37*
X169199616Y-112041070D02*
X169184775Y-112152538D01*
X169178189Y-112322289D01*
X169178000Y-112360833D01*
X169182168Y-112523435D01*
X169193289Y-112647797D01*
X169209292Y-112714486D01*
X169216371Y-112720666D01*
X169238337Y-112754311D01*
X169232973Y-112803907D01*
X169229700Y-112897885D01*
X169248013Y-113033351D01*
X169280833Y-113179034D01*
X169321084Y-113303661D01*
X169361685Y-113375962D01*
X169362649Y-113376833D01*
X169408381Y-113453875D01*
X169416759Y-113493525D01*
X169442382Y-113579761D01*
X169501955Y-113706270D01*
X169583848Y-113854273D01*
X169676427Y-114004994D01*
X169768058Y-114139655D01*
X169847109Y-114239479D01*
X169901948Y-114285687D01*
X169908241Y-114286861D01*
X169942855Y-114295141D01*
X169963390Y-114330247D01*
X169972190Y-114407818D01*
X169971601Y-114543492D01*
X169966967Y-114678583D01*
X169967492Y-115093163D01*
X169999244Y-115499625D01*
X170059361Y-115870021D01*
X170109412Y-116068596D01*
X170206329Y-116302170D01*
X170346712Y-116521172D01*
X170512376Y-116701310D01*
X170662412Y-116807252D01*
X170815369Y-116854855D01*
X170990421Y-116864584D01*
X171146717Y-116835848D01*
X171192359Y-116814916D01*
X171389292Y-116672644D01*
X171543361Y-116491712D01*
X171623863Y-116357672D01*
X171699610Y-116193541D01*
X171771383Y-115996647D01*
X171831498Y-115793399D01*
X171872273Y-115610202D01*
X171881114Y-115522292D01*
X171702934Y-115522292D01*
X171693936Y-115685739D01*
X171674836Y-115814429D01*
X171674180Y-115817200D01*
X171573487Y-116133248D01*
X171437289Y-116403461D01*
X171274639Y-116610397D01*
X171250766Y-116632880D01*
X171096880Y-116744799D01*
X170954606Y-116781383D01*
X170805884Y-116743009D01*
X170652375Y-116645286D01*
X170459722Y-116446069D01*
X170309027Y-116173732D01*
X170200445Y-115828782D01*
X170134132Y-115411726D01*
X170110242Y-114923071D01*
X170110180Y-114874868D01*
X170118939Y-114630341D01*
X170141945Y-114375903D01*
X170175958Y-114133163D01*
X170217734Y-113923729D01*
X170264034Y-113769211D01*
X170281987Y-113729673D01*
X170353987Y-113641468D01*
X170477163Y-113532713D01*
X170627340Y-113421473D01*
X170780345Y-113325811D01*
X170899216Y-113268446D01*
X171013885Y-113242541D01*
X171106987Y-113269611D01*
X171191216Y-113358922D01*
X171279264Y-113519736D01*
X171297446Y-113559080D01*
X171370837Y-113747334D01*
X171443021Y-113977727D01*
X171507404Y-114223727D01*
X171557391Y-114458802D01*
X171586388Y-114656423D01*
X171591000Y-114740101D01*
X171601234Y-114834577D01*
X171626206Y-114879147D01*
X171629534Y-114879666D01*
X171656843Y-114918628D01*
X171678785Y-115022256D01*
X171694412Y-115170665D01*
X171702777Y-115343972D01*
X171702934Y-115522292D01*
X171881114Y-115522292D01*
X171886026Y-115473463D01*
X171885316Y-115458990D01*
X171882527Y-115373535D01*
X171904057Y-115337426D01*
X171968000Y-115344620D01*
X172092450Y-115389072D01*
X172093475Y-115389461D01*
X172221654Y-115428608D01*
X172406245Y-115472919D01*
X172619755Y-115516211D01*
X172781392Y-115544144D01*
X173022596Y-115573692D01*
X173316006Y-115595961D01*
X173644295Y-115610917D01*
X173990140Y-115618528D01*
X174336216Y-115618759D01*
X174665197Y-115611577D01*
X174959758Y-115596949D01*
X175202576Y-115574841D01*
X175359819Y-115549143D01*
X175636137Y-115486625D01*
X175752865Y-115794479D01*
X175909353Y-116137674D01*
X176092562Y-116405349D01*
X176308978Y-116604197D01*
X176565091Y-116740910D01*
X176718030Y-116790172D01*
X176849466Y-116817836D01*
X176946275Y-116812047D01*
X177053305Y-116768544D01*
X177077863Y-116755993D01*
X177200210Y-116672362D01*
X177297834Y-116571710D01*
X177313704Y-116547704D01*
X177392342Y-116369331D01*
X177461775Y-116132601D01*
X177516457Y-115863746D01*
X177550839Y-115588995D01*
X177560000Y-115383146D01*
X177560000Y-115162037D01*
X177426586Y-115162037D01*
X177421865Y-115361560D01*
X177419888Y-115408833D01*
X177397655Y-115712262D01*
X177356784Y-115967709D01*
X177291518Y-116210871D01*
X177289590Y-116216896D01*
X177199804Y-116455849D01*
X177103715Y-116615826D01*
X176991201Y-116702430D01*
X176852144Y-116721265D01*
X176676422Y-116677936D01*
X176551602Y-116625552D01*
X176385132Y-116525251D01*
X176238785Y-116383007D01*
X176105891Y-116188719D01*
X175979778Y-115932282D01*
X175853778Y-115603594D01*
X175828925Y-115531030D01*
X175664540Y-114983399D01*
X175560636Y-114494894D01*
X175517211Y-114065391D01*
X175534263Y-113694766D01*
X175611792Y-113382897D01*
X175749796Y-113129660D01*
X175803155Y-113064921D01*
X175990993Y-112903557D01*
X176183342Y-112825947D01*
X176374573Y-112831787D01*
X176559060Y-112920771D01*
X176731174Y-113092597D01*
X176748720Y-113116008D01*
X176925084Y-113373430D01*
X177059930Y-113612886D01*
X177165545Y-113862060D01*
X177254212Y-114148633D01*
X177313115Y-114387797D01*
X177367201Y-114633869D01*
X177402187Y-114826237D01*
X177421004Y-114992945D01*
X177426586Y-115162037D01*
X177560000Y-115162037D01*
X177560000Y-115013572D01*
X177718750Y-114915598D01*
X177932287Y-114762189D01*
X178129176Y-114581836D01*
X178281177Y-114401009D01*
X178303420Y-114367569D01*
X178528407Y-113985799D01*
X178713501Y-113619201D01*
X178850875Y-113284236D01*
X178911783Y-113087788D01*
X178968050Y-112820144D01*
X178992678Y-112581081D01*
X178986614Y-112381712D01*
X178950805Y-112233150D01*
X178886199Y-112146507D01*
X178830000Y-112128677D01*
X178821323Y-112167865D01*
X178814183Y-112274463D01*
X178809422Y-112431215D01*
X178807884Y-112583112D01*
X178801877Y-112826636D01*
X178780808Y-113033313D01*
X178738419Y-113224042D01*
X178668453Y-113419720D01*
X178564652Y-113641246D01*
X178420759Y-113909519D01*
X178399109Y-113948333D01*
X178278242Y-114146369D01*
X178141145Y-114341978D01*
X177998363Y-114523160D01*
X177860440Y-114677911D01*
X177737920Y-114794230D01*
X177641348Y-114860114D01*
X177590566Y-114868688D01*
X177562245Y-114822369D01*
X177528692Y-114713247D01*
X177496052Y-114562418D01*
X177488165Y-114517111D01*
X177418818Y-114193097D01*
X177323856Y-113887062D01*
X177212290Y-113625903D01*
X177155867Y-113525000D01*
X177078640Y-113396995D01*
X176989043Y-113243580D01*
X176950994Y-113176875D01*
X176802234Y-112983451D01*
X176659292Y-112874108D01*
X176461270Y-112776949D01*
X176294407Y-112739292D01*
X176132526Y-112758344D01*
X176006866Y-112804496D01*
X175807622Y-112908920D01*
X175661036Y-113030671D01*
X175554224Y-113187509D01*
X175474300Y-113397197D01*
X175421931Y-113610788D01*
X175380989Y-113841359D01*
X175364130Y-114049516D01*
X175372611Y-114259573D01*
X175407688Y-114495846D01*
X175470617Y-114782649D01*
X175485667Y-114844220D01*
X175534034Y-115041829D01*
X175573919Y-115208676D01*
X175601411Y-115328108D01*
X175612594Y-115383468D01*
X175612667Y-115384682D01*
X175572523Y-115408139D01*
X175460318Y-115436318D01*
X175288393Y-115467252D01*
X175069089Y-115498973D01*
X174814747Y-115529511D01*
X174537708Y-115556900D01*
X174526717Y-115557868D01*
X174317540Y-115574011D01*
X174136498Y-115581388D01*
X173960431Y-115579178D01*
X173766177Y-115566556D01*
X173530574Y-115542700D01*
X173287454Y-115513831D01*
X172837310Y-115452036D01*
X172471516Y-115387721D01*
X172189789Y-115320808D01*
X171991845Y-115251216D01*
X171877403Y-115178869D01*
X171845543Y-115112724D01*
X171837364Y-115031188D01*
X171815283Y-114894742D01*
X171783850Y-114731109D01*
X171779534Y-114710333D01*
X171739657Y-114519340D01*
X171699876Y-114327588D01*
X171669742Y-114181166D01*
X171578494Y-113819847D01*
X171465831Y-113531274D01*
X171327582Y-113305304D01*
X171291125Y-113260416D01*
X171188880Y-113154396D01*
X171096897Y-113081535D01*
X171043678Y-113059333D01*
X170937036Y-113085254D01*
X170795082Y-113154431D01*
X170635020Y-113253984D01*
X170474056Y-113371032D01*
X170329393Y-113492696D01*
X170218238Y-113606095D01*
X170157795Y-113698349D01*
X170151667Y-113727120D01*
X170139147Y-113798314D01*
X170107207Y-113916616D01*
X170083564Y-113992471D01*
X170041059Y-114112247D01*
X170007561Y-114165006D01*
X169968960Y-114165185D01*
X169935084Y-114144387D01*
X169882774Y-114084259D01*
X169805538Y-113966787D01*
X169715209Y-113810896D01*
X169651077Y-113690128D01*
X169488058Y-113315800D01*
X169368768Y-112924547D01*
X169301640Y-112546495D01*
X169291254Y-112404954D01*
X169279681Y-112290669D01*
X169258885Y-112221792D01*
X169247495Y-112212667D01*
X169229356Y-112177968D01*
X169237718Y-112106833D01*
X169243678Y-112026565D01*
X169221140Y-112001000D01*
X169199616Y-112041070D01*
D19*
X175211000Y-69581999D02*
X175661000Y-69131999D01*
X178611000Y-69581999D02*
X178161000Y-69131999D01*
X178611000Y-74181999D02*
X178161000Y-74631999D01*
X175211000Y-74181999D02*
X175661000Y-74631999D01*
X179661000Y-72881999D02*
X179661000Y-70881999D01*
X175661000Y-69131999D02*
X178161000Y-69131999D01*
X174161000Y-72881999D02*
X174161000Y-70881999D01*
X175661000Y-74631999D02*
X178161000Y-74631999D01*
X144668750Y-141950000D02*
X142668750Y-141950000D01*
X142668750Y-141950000D02*
X142668750Y-138050000D01*
X144668750Y-141950000D02*
X144668750Y-138050000D01*
X182966679Y-71397400D02*
X182641121Y-71397400D01*
X182966679Y-72417400D02*
X182641121Y-72417400D01*
X176557500Y-121682000D02*
X172657500Y-121682000D01*
X176557500Y-123682000D02*
X172657500Y-123682000D01*
X176557500Y-121682000D02*
X176557500Y-123682000D01*
X176557500Y-83582000D02*
X172657500Y-83582000D01*
X176557500Y-85582000D02*
X172657500Y-85582000D01*
X176557500Y-83582000D02*
X176557500Y-85582000D01*
X182768750Y-65750000D02*
X182768750Y-61850000D01*
X180768750Y-65750000D02*
X180768750Y-61850000D01*
X182768750Y-65750000D02*
X180768750Y-65750000D01*
X163718750Y-141950000D02*
X163718750Y-138050000D01*
X161718750Y-141950000D02*
X161718750Y-138050000D01*
X163718750Y-141950000D02*
X161718750Y-141950000D01*
X163718750Y-122900000D02*
X163718750Y-119000000D01*
X161718750Y-122900000D02*
X161718750Y-119000000D01*
X163718750Y-122900000D02*
X161718750Y-122900000D01*
X163718750Y-103850000D02*
X163718750Y-99950000D01*
X161718750Y-103850000D02*
X161718750Y-99950000D01*
X163718750Y-103850000D02*
X161718750Y-103850000D01*
X163718750Y-84800000D02*
X163718750Y-80900000D01*
X161718750Y-84800000D02*
X161718750Y-80900000D01*
X163718750Y-84800000D02*
X161718750Y-84800000D01*
X163718750Y-65750000D02*
X163718750Y-61850000D01*
X161718750Y-65750000D02*
X161718750Y-61850000D01*
X163718750Y-65750000D02*
X161718750Y-65750000D01*
X144668750Y-122900000D02*
X144668750Y-119000000D01*
X142668750Y-122900000D02*
X142668750Y-119000000D01*
X144668750Y-122900000D02*
X142668750Y-122900000D01*
X144668750Y-103850000D02*
X144668750Y-99950000D01*
X142668750Y-103850000D02*
X142668750Y-99950000D01*
X144668750Y-103850000D02*
X142668750Y-103850000D01*
X144668750Y-84800000D02*
X144668750Y-80900000D01*
X142668750Y-84800000D02*
X142668750Y-80900000D01*
X144668750Y-84800000D02*
X142668750Y-84800000D01*
X144668750Y-65750000D02*
X144668750Y-61850000D01*
X142668750Y-65750000D02*
X142668750Y-61850000D01*
X144668750Y-65750000D02*
X142668750Y-65750000D01*
X125618750Y-141950000D02*
X125618750Y-138050000D01*
X123618750Y-141950000D02*
X123618750Y-138050000D01*
X125618750Y-141950000D02*
X123618750Y-141950000D01*
X125618750Y-122900000D02*
X125618750Y-119000000D01*
X123618750Y-122900000D02*
X123618750Y-119000000D01*
X125618750Y-122900000D02*
X123618750Y-122900000D01*
X125618750Y-103850000D02*
X125618750Y-99950000D01*
X123618750Y-103850000D02*
X123618750Y-99950000D01*
X125618750Y-103850000D02*
X123618750Y-103850000D01*
X125618750Y-84800000D02*
X125618750Y-80900000D01*
X123618750Y-84800000D02*
X123618750Y-80900000D01*
X125618750Y-84800000D02*
X123618750Y-84800000D01*
X125618750Y-65750000D02*
X125618750Y-61850000D01*
X123618750Y-65750000D02*
X123618750Y-61850000D01*
X125618750Y-65750000D02*
X123618750Y-65750000D01*
D10*
X146121130Y-138485714D02*
X145121130Y-138485714D01*
X145121130Y-138723809D01*
X145168750Y-138866666D01*
X145263988Y-138961904D01*
X145359226Y-139009523D01*
X145549702Y-139057142D01*
X145692559Y-139057142D01*
X145883035Y-139009523D01*
X145978273Y-138961904D01*
X146073511Y-138866666D01*
X146121130Y-138723809D01*
X146121130Y-138485714D01*
X146121130Y-140009523D02*
X146121130Y-139438095D01*
X146121130Y-139723809D02*
X145121130Y-139723809D01*
X145263988Y-139628571D01*
X145359226Y-139533333D01*
X145406845Y-139438095D01*
X145121130Y-140628571D02*
X145121130Y-140723809D01*
X145168750Y-140819047D01*
X145216369Y-140866666D01*
X145311607Y-140914285D01*
X145502083Y-140961904D01*
X145740178Y-140961904D01*
X145930654Y-140914285D01*
X146025892Y-140866666D01*
X146073511Y-140819047D01*
X146121130Y-140723809D01*
X146121130Y-140628571D01*
X146073511Y-140533333D01*
X146025892Y-140485714D01*
X145930654Y-140438095D01*
X145740178Y-140390476D01*
X145502083Y-140390476D01*
X145311607Y-140438095D01*
X145216369Y-140485714D01*
X145168750Y-140533333D01*
X145121130Y-140628571D01*
X179395285Y-123134380D02*
X179395285Y-122134380D01*
X179157190Y-122134380D01*
X179014333Y-122182000D01*
X178919095Y-122277238D01*
X178871476Y-122372476D01*
X178823857Y-122562952D01*
X178823857Y-122705809D01*
X178871476Y-122896285D01*
X178919095Y-122991523D01*
X179014333Y-123086761D01*
X179157190Y-123134380D01*
X179395285Y-123134380D01*
X177871476Y-123134380D02*
X178442904Y-123134380D01*
X178157190Y-123134380D02*
X178157190Y-122134380D01*
X178252428Y-122277238D01*
X178347666Y-122372476D01*
X178442904Y-122420095D01*
X177300047Y-122562952D02*
X177395285Y-122515333D01*
X177442904Y-122467714D01*
X177490523Y-122372476D01*
X177490523Y-122324857D01*
X177442904Y-122229619D01*
X177395285Y-122182000D01*
X177300047Y-122134380D01*
X177109571Y-122134380D01*
X177014333Y-122182000D01*
X176966714Y-122229619D01*
X176919095Y-122324857D01*
X176919095Y-122372476D01*
X176966714Y-122467714D01*
X177014333Y-122515333D01*
X177109571Y-122562952D01*
X177300047Y-122562952D01*
X177395285Y-122610571D01*
X177442904Y-122658190D01*
X177490523Y-122753428D01*
X177490523Y-122943904D01*
X177442904Y-123039142D01*
X177395285Y-123086761D01*
X177300047Y-123134380D01*
X177109571Y-123134380D01*
X177014333Y-123086761D01*
X176966714Y-123039142D01*
X176919095Y-122943904D01*
X176919095Y-122753428D01*
X176966714Y-122658190D01*
X177014333Y-122610571D01*
X177109571Y-122562952D01*
X175521785Y-87415630D02*
X175521785Y-86415630D01*
X175283690Y-86415630D01*
X175140833Y-86463250D01*
X175045595Y-86558488D01*
X174997976Y-86653726D01*
X174950357Y-86844202D01*
X174950357Y-86987059D01*
X174997976Y-87177535D01*
X175045595Y-87272773D01*
X175140833Y-87368011D01*
X175283690Y-87415630D01*
X175521785Y-87415630D01*
X173997976Y-87415630D02*
X174569404Y-87415630D01*
X174283690Y-87415630D02*
X174283690Y-86415630D01*
X174378928Y-86558488D01*
X174474166Y-86653726D01*
X174569404Y-86701345D01*
X173664642Y-86415630D02*
X172997976Y-86415630D01*
X173426547Y-87415630D01*
X184221130Y-62285714D02*
X183221130Y-62285714D01*
X183221130Y-62523809D01*
X183268750Y-62666666D01*
X183363988Y-62761904D01*
X183459226Y-62809523D01*
X183649702Y-62857142D01*
X183792559Y-62857142D01*
X183983035Y-62809523D01*
X184078273Y-62761904D01*
X184173511Y-62666666D01*
X184221130Y-62523809D01*
X184221130Y-62285714D01*
X184221130Y-63809523D02*
X184221130Y-63238095D01*
X184221130Y-63523809D02*
X183221130Y-63523809D01*
X183363988Y-63428571D01*
X183459226Y-63333333D01*
X183506845Y-63238095D01*
X183221130Y-64666666D02*
X183221130Y-64476190D01*
X183268750Y-64380952D01*
X183316369Y-64333333D01*
X183459226Y-64238095D01*
X183649702Y-64190476D01*
X184030654Y-64190476D01*
X184125892Y-64238095D01*
X184173511Y-64285714D01*
X184221130Y-64380952D01*
X184221130Y-64571428D01*
X184173511Y-64666666D01*
X184125892Y-64714285D01*
X184030654Y-64761904D01*
X183792559Y-64761904D01*
X183697321Y-64714285D01*
X183649702Y-64666666D01*
X183602083Y-64571428D01*
X183602083Y-64380952D01*
X183649702Y-64285714D01*
X183697321Y-64238095D01*
X183792559Y-64190476D01*
X165171130Y-138485714D02*
X164171130Y-138485714D01*
X164171130Y-138723809D01*
X164218750Y-138866666D01*
X164313988Y-138961904D01*
X164409226Y-139009523D01*
X164599702Y-139057142D01*
X164742559Y-139057142D01*
X164933035Y-139009523D01*
X165028273Y-138961904D01*
X165123511Y-138866666D01*
X165171130Y-138723809D01*
X165171130Y-138485714D01*
X165171130Y-140009523D02*
X165171130Y-139438095D01*
X165171130Y-139723809D02*
X164171130Y-139723809D01*
X164313988Y-139628571D01*
X164409226Y-139533333D01*
X164456845Y-139438095D01*
X164171130Y-140914285D02*
X164171130Y-140438095D01*
X164647321Y-140390476D01*
X164599702Y-140438095D01*
X164552083Y-140533333D01*
X164552083Y-140771428D01*
X164599702Y-140866666D01*
X164647321Y-140914285D01*
X164742559Y-140961904D01*
X164980654Y-140961904D01*
X165075892Y-140914285D01*
X165123511Y-140866666D01*
X165171130Y-140771428D01*
X165171130Y-140533333D01*
X165123511Y-140438095D01*
X165075892Y-140390476D01*
X165171130Y-119435714D02*
X164171130Y-119435714D01*
X164171130Y-119673809D01*
X164218750Y-119816666D01*
X164313988Y-119911904D01*
X164409226Y-119959523D01*
X164599702Y-120007142D01*
X164742559Y-120007142D01*
X164933035Y-119959523D01*
X165028273Y-119911904D01*
X165123511Y-119816666D01*
X165171130Y-119673809D01*
X165171130Y-119435714D01*
X165171130Y-120959523D02*
X165171130Y-120388095D01*
X165171130Y-120673809D02*
X164171130Y-120673809D01*
X164313988Y-120578571D01*
X164409226Y-120483333D01*
X164456845Y-120388095D01*
X164504464Y-121816666D02*
X165171130Y-121816666D01*
X164123511Y-121578571D02*
X164837797Y-121340476D01*
X164837797Y-121959523D01*
X165171130Y-100385714D02*
X164171130Y-100385714D01*
X164171130Y-100623809D01*
X164218750Y-100766666D01*
X164313988Y-100861904D01*
X164409226Y-100909523D01*
X164599702Y-100957142D01*
X164742559Y-100957142D01*
X164933035Y-100909523D01*
X165028273Y-100861904D01*
X165123511Y-100766666D01*
X165171130Y-100623809D01*
X165171130Y-100385714D01*
X165171130Y-101909523D02*
X165171130Y-101338095D01*
X165171130Y-101623809D02*
X164171130Y-101623809D01*
X164313988Y-101528571D01*
X164409226Y-101433333D01*
X164456845Y-101338095D01*
X164171130Y-102242857D02*
X164171130Y-102861904D01*
X164552083Y-102528571D01*
X164552083Y-102671428D01*
X164599702Y-102766666D01*
X164647321Y-102814285D01*
X164742559Y-102861904D01*
X164980654Y-102861904D01*
X165075892Y-102814285D01*
X165123511Y-102766666D01*
X165171130Y-102671428D01*
X165171130Y-102385714D01*
X165123511Y-102290476D01*
X165075892Y-102242857D01*
X165171130Y-81335714D02*
X164171130Y-81335714D01*
X164171130Y-81573809D01*
X164218750Y-81716666D01*
X164313988Y-81811904D01*
X164409226Y-81859523D01*
X164599702Y-81907142D01*
X164742559Y-81907142D01*
X164933035Y-81859523D01*
X165028273Y-81811904D01*
X165123511Y-81716666D01*
X165171130Y-81573809D01*
X165171130Y-81335714D01*
X165171130Y-82859523D02*
X165171130Y-82288095D01*
X165171130Y-82573809D02*
X164171130Y-82573809D01*
X164313988Y-82478571D01*
X164409226Y-82383333D01*
X164456845Y-82288095D01*
X164266369Y-83240476D02*
X164218750Y-83288095D01*
X164171130Y-83383333D01*
X164171130Y-83621428D01*
X164218750Y-83716666D01*
X164266369Y-83764285D01*
X164361607Y-83811904D01*
X164456845Y-83811904D01*
X164599702Y-83764285D01*
X165171130Y-83192857D01*
X165171130Y-83811904D01*
X165171130Y-62285714D02*
X164171130Y-62285714D01*
X164171130Y-62523809D01*
X164218750Y-62666666D01*
X164313988Y-62761904D01*
X164409226Y-62809523D01*
X164599702Y-62857142D01*
X164742559Y-62857142D01*
X164933035Y-62809523D01*
X165028273Y-62761904D01*
X165123511Y-62666666D01*
X165171130Y-62523809D01*
X165171130Y-62285714D01*
X165171130Y-63809523D02*
X165171130Y-63238095D01*
X165171130Y-63523809D02*
X164171130Y-63523809D01*
X164313988Y-63428571D01*
X164409226Y-63333333D01*
X164456845Y-63238095D01*
X165171130Y-64761904D02*
X165171130Y-64190476D01*
X165171130Y-64476190D02*
X164171130Y-64476190D01*
X164313988Y-64380952D01*
X164409226Y-64285714D01*
X164456845Y-64190476D01*
X146121130Y-119911904D02*
X145121130Y-119911904D01*
X145121130Y-120150000D01*
X145168750Y-120292857D01*
X145263988Y-120388095D01*
X145359226Y-120435714D01*
X145549702Y-120483333D01*
X145692559Y-120483333D01*
X145883035Y-120435714D01*
X145978273Y-120388095D01*
X146073511Y-120292857D01*
X146121130Y-120150000D01*
X146121130Y-119911904D01*
X146121130Y-120959523D02*
X146121130Y-121150000D01*
X146073511Y-121245238D01*
X146025892Y-121292857D01*
X145883035Y-121388095D01*
X145692559Y-121435714D01*
X145311607Y-121435714D01*
X145216369Y-121388095D01*
X145168750Y-121340476D01*
X145121130Y-121245238D01*
X145121130Y-121054761D01*
X145168750Y-120959523D01*
X145216369Y-120911904D01*
X145311607Y-120864285D01*
X145549702Y-120864285D01*
X145644940Y-120911904D01*
X145692559Y-120959523D01*
X145740178Y-121054761D01*
X145740178Y-121245238D01*
X145692559Y-121340476D01*
X145644940Y-121388095D01*
X145549702Y-121435714D01*
X146121130Y-100861904D02*
X145121130Y-100861904D01*
X145121130Y-101100000D01*
X145168750Y-101242857D01*
X145263988Y-101338095D01*
X145359226Y-101385714D01*
X145549702Y-101433333D01*
X145692559Y-101433333D01*
X145883035Y-101385714D01*
X145978273Y-101338095D01*
X146073511Y-101242857D01*
X146121130Y-101100000D01*
X146121130Y-100861904D01*
X145549702Y-102004761D02*
X145502083Y-101909523D01*
X145454464Y-101861904D01*
X145359226Y-101814285D01*
X145311607Y-101814285D01*
X145216369Y-101861904D01*
X145168750Y-101909523D01*
X145121130Y-102004761D01*
X145121130Y-102195238D01*
X145168750Y-102290476D01*
X145216369Y-102338095D01*
X145311607Y-102385714D01*
X145359226Y-102385714D01*
X145454464Y-102338095D01*
X145502083Y-102290476D01*
X145549702Y-102195238D01*
X145549702Y-102004761D01*
X145597321Y-101909523D01*
X145644940Y-101861904D01*
X145740178Y-101814285D01*
X145930654Y-101814285D01*
X146025892Y-101861904D01*
X146073511Y-101909523D01*
X146121130Y-102004761D01*
X146121130Y-102195238D01*
X146073511Y-102290476D01*
X146025892Y-102338095D01*
X145930654Y-102385714D01*
X145740178Y-102385714D01*
X145644940Y-102338095D01*
X145597321Y-102290476D01*
X145549702Y-102195238D01*
X146121130Y-81811904D02*
X145121130Y-81811904D01*
X145121130Y-82050000D01*
X145168750Y-82192857D01*
X145263988Y-82288095D01*
X145359226Y-82335714D01*
X145549702Y-82383333D01*
X145692559Y-82383333D01*
X145883035Y-82335714D01*
X145978273Y-82288095D01*
X146073511Y-82192857D01*
X146121130Y-82050000D01*
X146121130Y-81811904D01*
X145121130Y-82716666D02*
X145121130Y-83383333D01*
X146121130Y-82954761D01*
X146121130Y-62761904D02*
X145121130Y-62761904D01*
X145121130Y-63000000D01*
X145168750Y-63142857D01*
X145263988Y-63238095D01*
X145359226Y-63285714D01*
X145549702Y-63333333D01*
X145692559Y-63333333D01*
X145883035Y-63285714D01*
X145978273Y-63238095D01*
X146073511Y-63142857D01*
X146121130Y-63000000D01*
X146121130Y-62761904D01*
X145121130Y-64190476D02*
X145121130Y-64000000D01*
X145168750Y-63904761D01*
X145216369Y-63857142D01*
X145359226Y-63761904D01*
X145549702Y-63714285D01*
X145930654Y-63714285D01*
X146025892Y-63761904D01*
X146073511Y-63809523D01*
X146121130Y-63904761D01*
X146121130Y-64095238D01*
X146073511Y-64190476D01*
X146025892Y-64238095D01*
X145930654Y-64285714D01*
X145692559Y-64285714D01*
X145597321Y-64238095D01*
X145549702Y-64190476D01*
X145502083Y-64095238D01*
X145502083Y-63904761D01*
X145549702Y-63809523D01*
X145597321Y-63761904D01*
X145692559Y-63714285D01*
X127071130Y-138961904D02*
X126071130Y-138961904D01*
X126071130Y-139200000D01*
X126118750Y-139342857D01*
X126213988Y-139438095D01*
X126309226Y-139485714D01*
X126499702Y-139533333D01*
X126642559Y-139533333D01*
X126833035Y-139485714D01*
X126928273Y-139438095D01*
X127023511Y-139342857D01*
X127071130Y-139200000D01*
X127071130Y-138961904D01*
X126071130Y-140438095D02*
X126071130Y-139961904D01*
X126547321Y-139914285D01*
X126499702Y-139961904D01*
X126452083Y-140057142D01*
X126452083Y-140295238D01*
X126499702Y-140390476D01*
X126547321Y-140438095D01*
X126642559Y-140485714D01*
X126880654Y-140485714D01*
X126975892Y-140438095D01*
X127023511Y-140390476D01*
X127071130Y-140295238D01*
X127071130Y-140057142D01*
X127023511Y-139961904D01*
X126975892Y-139914285D01*
X127071130Y-119911904D02*
X126071130Y-119911904D01*
X126071130Y-120150000D01*
X126118750Y-120292857D01*
X126213988Y-120388095D01*
X126309226Y-120435714D01*
X126499702Y-120483333D01*
X126642559Y-120483333D01*
X126833035Y-120435714D01*
X126928273Y-120388095D01*
X127023511Y-120292857D01*
X127071130Y-120150000D01*
X127071130Y-119911904D01*
X126404464Y-121340476D02*
X127071130Y-121340476D01*
X126023511Y-121102380D02*
X126737797Y-120864285D01*
X126737797Y-121483333D01*
X127071130Y-100861904D02*
X126071130Y-100861904D01*
X126071130Y-101100000D01*
X126118750Y-101242857D01*
X126213988Y-101338095D01*
X126309226Y-101385714D01*
X126499702Y-101433333D01*
X126642559Y-101433333D01*
X126833035Y-101385714D01*
X126928273Y-101338095D01*
X127023511Y-101242857D01*
X127071130Y-101100000D01*
X127071130Y-100861904D01*
X126071130Y-101766666D02*
X126071130Y-102385714D01*
X126452083Y-102052380D01*
X126452083Y-102195238D01*
X126499702Y-102290476D01*
X126547321Y-102338095D01*
X126642559Y-102385714D01*
X126880654Y-102385714D01*
X126975892Y-102338095D01*
X127023511Y-102290476D01*
X127071130Y-102195238D01*
X127071130Y-101909523D01*
X127023511Y-101814285D01*
X126975892Y-101766666D01*
X127071130Y-81811904D02*
X126071130Y-81811904D01*
X126071130Y-82050000D01*
X126118750Y-82192857D01*
X126213988Y-82288095D01*
X126309226Y-82335714D01*
X126499702Y-82383333D01*
X126642559Y-82383333D01*
X126833035Y-82335714D01*
X126928273Y-82288095D01*
X127023511Y-82192857D01*
X127071130Y-82050000D01*
X127071130Y-81811904D01*
X126166369Y-82764285D02*
X126118750Y-82811904D01*
X126071130Y-82907142D01*
X126071130Y-83145238D01*
X126118750Y-83240476D01*
X126166369Y-83288095D01*
X126261607Y-83335714D01*
X126356845Y-83335714D01*
X126499702Y-83288095D01*
X127071130Y-82716666D01*
X127071130Y-83335714D01*
X127071130Y-62761904D02*
X126071130Y-62761904D01*
X126071130Y-63000000D01*
X126118750Y-63142857D01*
X126213988Y-63238095D01*
X126309226Y-63285714D01*
X126499702Y-63333333D01*
X126642559Y-63333333D01*
X126833035Y-63285714D01*
X126928273Y-63238095D01*
X127023511Y-63142857D01*
X127071130Y-63000000D01*
X127071130Y-62761904D01*
X127071130Y-64285714D02*
X127071130Y-63714285D01*
X127071130Y-64000000D02*
X126071130Y-64000000D01*
X126213988Y-63904761D01*
X126309226Y-63809523D01*
X126356845Y-63714285D01*
M02*
