G04 #@! TF.GenerationSoftware,KiCad,Pcbnew,(5.1.6)-1*
G04 #@! TF.CreationDate,2020-09-28T23:28:13+08:00*
G04 #@! TF.ProjectId,Hami,48616d69-2e6b-4696-9361-645f70636258,rev?*
G04 #@! TF.SameCoordinates,Original*
G04 #@! TF.FileFunction,Copper,L2,Bot*
G04 #@! TF.FilePolarity,Positive*
%FSLAX46Y46*%
G04 Gerber Fmt 4.6, Leading zero omitted, Abs format (unit mm)*
G04 Created by KiCad (PCBNEW (5.1.6)-1) date 2020-09-28 23:28:13*
%MOMM*%
%LPD*%
G01*
G04 APERTURE LIST*
G04 #@! TA.AperFunction,ComponentPad*
%ADD10C,2.400000*%
G04 #@! TD*
G04 #@! TA.AperFunction,SMDPad,CuDef*
%ADD11R,2.550000X2.500000*%
G04 #@! TD*
G04 #@! TA.AperFunction,ComponentPad*
%ADD12R,2.000000X3.200000*%
G04 #@! TD*
G04 #@! TA.AperFunction,ComponentPad*
%ADD13C,2.000000*%
G04 #@! TD*
G04 #@! TA.AperFunction,ComponentPad*
%ADD14R,2.000000X2.000000*%
G04 #@! TD*
G04 #@! TA.AperFunction,ComponentPad*
%ADD15R,1.752600X1.752600*%
G04 #@! TD*
G04 #@! TA.AperFunction,ComponentPad*
%ADD16C,1.752600*%
G04 #@! TD*
G04 #@! TA.AperFunction,SMDPad,CuDef*
%ADD17R,2.500000X2.550000*%
G04 #@! TD*
G04 #@! TA.AperFunction,ComponentPad*
%ADD18O,1.700000X1.700000*%
G04 #@! TD*
G04 #@! TA.AperFunction,ComponentPad*
%ADD19R,1.700000X1.700000*%
G04 #@! TD*
G04 #@! TA.AperFunction,SMDPad,CuDef*
%ADD20R,1.700000X1.000000*%
G04 #@! TD*
G04 #@! TA.AperFunction,SMDPad,CuDef*
%ADD21R,1.200000X0.900000*%
G04 #@! TD*
G04 #@! TA.AperFunction,ComponentPad*
%ADD22C,4.400000*%
G04 #@! TD*
G04 #@! TA.AperFunction,SMDPad,CuDef*
%ADD23R,0.900000X1.200000*%
G04 #@! TD*
G04 #@! TA.AperFunction,ViaPad*
%ADD24C,0.700000*%
G04 #@! TD*
G04 #@! TA.AperFunction,Conductor*
%ADD25C,0.250000*%
G04 #@! TD*
G04 #@! TA.AperFunction,Conductor*
%ADD26C,0.500000*%
G04 #@! TD*
G04 APERTURE END LIST*
D10*
X160075000Y-104750000D03*
X161325000Y-98450000D03*
D11*
X161417000Y-96520000D03*
X148490000Y-99060000D03*
D10*
X141025000Y-104750000D03*
X142275000Y-98450000D03*
D11*
X142367000Y-96520000D03*
X129440000Y-99060000D03*
D10*
X160075000Y-85700000D03*
X161325000Y-79400000D03*
D11*
X161417000Y-77470000D03*
X148490000Y-80010000D03*
D10*
X141025000Y-66650000D03*
X142275000Y-60350000D03*
D11*
X142367000Y-58420000D03*
X129440000Y-60960000D03*
D10*
X160075000Y-66650000D03*
X161325000Y-60350000D03*
D11*
X161417000Y-58420000D03*
X148490000Y-60960000D03*
D12*
X123075000Y-139700000D03*
X111875000Y-139700000D03*
D13*
X119975000Y-132700000D03*
X119975000Y-147200000D03*
X117475000Y-147200000D03*
D14*
X114975000Y-147200000D03*
D13*
X114975000Y-132700000D03*
D12*
X123061000Y-63481999D03*
X111861000Y-63481999D03*
D13*
X119961000Y-56481999D03*
X119961000Y-70981999D03*
X117461000Y-70981999D03*
D14*
X114961000Y-70981999D03*
D13*
X114961000Y-56481999D03*
D15*
X182829200Y-36108000D03*
D16*
X180289200Y-36108000D03*
X177749200Y-36108000D03*
X175209200Y-36108000D03*
X172669200Y-36108000D03*
X170129200Y-36108000D03*
X167589200Y-36108000D03*
X165049200Y-36108000D03*
X162509200Y-36108000D03*
X159969200Y-36108000D03*
X157429200Y-36108000D03*
X154889200Y-51348000D03*
X157429200Y-51348000D03*
X159969200Y-51348000D03*
X162509200Y-51348000D03*
X165049200Y-51348000D03*
X167589200Y-51348000D03*
X170129200Y-51348000D03*
X172669200Y-51348000D03*
X175209200Y-51348000D03*
X177749200Y-51348000D03*
X180289200Y-51348000D03*
X154889200Y-36108000D03*
X182829200Y-51348000D03*
D17*
X172085000Y-137260000D03*
X169545000Y-124333000D03*
D10*
X177775000Y-125675000D03*
X171475000Y-124425000D03*
D17*
X172085000Y-99160000D03*
X169545000Y-86233000D03*
D10*
X177775000Y-87575000D03*
X171475000Y-86325000D03*
X179125000Y-66650000D03*
X180375000Y-60350000D03*
D11*
X180467000Y-58420000D03*
X167540000Y-60960000D03*
D10*
X160075000Y-142850000D03*
X161325000Y-136550000D03*
D11*
X161417000Y-134620000D03*
X148490000Y-137160000D03*
D10*
X160075000Y-123800000D03*
X161325000Y-117500000D03*
D11*
X161417000Y-115570000D03*
X148490000Y-118110000D03*
D10*
X141025000Y-142850000D03*
X142275000Y-136550000D03*
D11*
X142367000Y-134620000D03*
X129440000Y-137160000D03*
D10*
X141025000Y-123800000D03*
X142275000Y-117500000D03*
D11*
X142367000Y-115570000D03*
X129440000Y-118110000D03*
D10*
X141025000Y-85700000D03*
X142275000Y-79400000D03*
D11*
X142367000Y-77470000D03*
X129440000Y-80010000D03*
D10*
X121975000Y-142850000D03*
X123225000Y-136550000D03*
D11*
X123317000Y-134620000D03*
X110390000Y-137160000D03*
D10*
X121975000Y-123800000D03*
X123225000Y-117500000D03*
D11*
X123317000Y-115570000D03*
X110390000Y-118110000D03*
D10*
X121975000Y-104750000D03*
X123225000Y-98450000D03*
D11*
X123317000Y-96520000D03*
X110390000Y-99060000D03*
D10*
X121975000Y-85700000D03*
X123225000Y-79400000D03*
D11*
X123317000Y-77470000D03*
X110390000Y-80010000D03*
D10*
X121975000Y-66650000D03*
X123225000Y-60350000D03*
D11*
X123317000Y-58420000D03*
X110390000Y-60960000D03*
D18*
X183042901Y-56461797D03*
D19*
X183042901Y-53921797D03*
D18*
X146242901Y-40411797D03*
X146242901Y-42951797D03*
X146242901Y-45491797D03*
D19*
X146242901Y-48031797D03*
D20*
X173761000Y-73781999D03*
X180061000Y-73781999D03*
X173761000Y-69981999D03*
X180061000Y-69981999D03*
D21*
X143668750Y-138050000D03*
X143668750Y-141350000D03*
D22*
X127000000Y-73025000D03*
X165100000Y-73025000D03*
G04 #@! TA.AperFunction,SMDPad,CuDef*
G36*
G01*
X184028900Y-71651150D02*
X184028900Y-72163650D01*
G75*
G02*
X183810150Y-72382400I-218750J0D01*
G01*
X183372650Y-72382400D01*
G75*
G02*
X183153900Y-72163650I0J218750D01*
G01*
X183153900Y-71651150D01*
G75*
G02*
X183372650Y-71432400I218750J0D01*
G01*
X183810150Y-71432400D01*
G75*
G02*
X184028900Y-71651150I0J-218750D01*
G01*
G37*
G04 #@! TD.AperFunction*
G04 #@! TA.AperFunction,SMDPad,CuDef*
G36*
G01*
X182453900Y-71651150D02*
X182453900Y-72163650D01*
G75*
G02*
X182235150Y-72382400I-218750J0D01*
G01*
X181797650Y-72382400D01*
G75*
G02*
X181578900Y-72163650I0J218750D01*
G01*
X181578900Y-71651150D01*
G75*
G02*
X181797650Y-71432400I218750J0D01*
G01*
X182235150Y-71432400D01*
G75*
G02*
X182453900Y-71651150I0J-218750D01*
G01*
G37*
G04 #@! TD.AperFunction*
X127000000Y-130175000D03*
X165100000Y-130175000D03*
D23*
X172657500Y-122682000D03*
X175957500Y-122682000D03*
X172657500Y-84582000D03*
X175957500Y-84582000D03*
D21*
X181768750Y-61850000D03*
X181768750Y-65150000D03*
X162718750Y-138050000D03*
X162718750Y-141350000D03*
X162718750Y-119000000D03*
X162718750Y-122300000D03*
X162718750Y-99950000D03*
X162718750Y-103250000D03*
X162718750Y-80900000D03*
X162718750Y-84200000D03*
X162718750Y-61850000D03*
X162718750Y-65150000D03*
X143668750Y-119000000D03*
X143668750Y-122300000D03*
X143668750Y-99950000D03*
X143668750Y-103250000D03*
X143668750Y-80900000D03*
X143668750Y-84200000D03*
X143668750Y-61850000D03*
X143668750Y-65150000D03*
X124618750Y-138050000D03*
X124618750Y-141350000D03*
X124618750Y-119000000D03*
X124618750Y-122300000D03*
X124618750Y-99950000D03*
X124618750Y-103250000D03*
X124618750Y-80900000D03*
X124618750Y-84200000D03*
X124618750Y-61850000D03*
X124618750Y-65150000D03*
D24*
X166850297Y-65150000D03*
X165702206Y-82046091D03*
X164860356Y-103109645D03*
X165227000Y-85852000D03*
X164868751Y-121446793D03*
X166116000Y-139827000D03*
X165521249Y-123657751D03*
X180800000Y-71525000D03*
X145950000Y-67000000D03*
X149625000Y-54350000D03*
X145400499Y-59900000D03*
X167481250Y-63500000D03*
X182016400Y-69773800D03*
X183591400Y-69849800D03*
X153525000Y-53224301D03*
X151875000Y-53250000D03*
X127775000Y-65950000D03*
X151854246Y-35725245D03*
X126625000Y-65825000D03*
D25*
X162718750Y-65150000D02*
X166850297Y-65150000D01*
X167575298Y-65875001D02*
X166850297Y-65150000D01*
X174091003Y-65875001D02*
X167575298Y-65875001D01*
X176391003Y-68175001D02*
X174091003Y-65875001D01*
X179857001Y-68175001D02*
X176391003Y-68175001D01*
X181768750Y-66263252D02*
X179857001Y-68175001D01*
X181768750Y-65150000D02*
X181768750Y-66263252D01*
X159907001Y-69075001D02*
X153546589Y-69075001D01*
X153546589Y-69075001D02*
X149621588Y-65150000D01*
X149621588Y-65150000D02*
X143668750Y-65150000D01*
X162718750Y-66263252D02*
X159907001Y-69075001D01*
X162718750Y-65150000D02*
X162718750Y-66263252D01*
X134496589Y-69075001D02*
X130571588Y-65150000D01*
X143668750Y-66263252D02*
X140857001Y-69075001D01*
X140857001Y-69075001D02*
X134496589Y-69075001D01*
X130571588Y-65150000D02*
X124618750Y-65150000D01*
X143668750Y-65150000D02*
X143668750Y-66263252D01*
X124618750Y-61743750D02*
X123225000Y-60350000D01*
X124618750Y-61850000D02*
X124618750Y-61743750D01*
X123225000Y-58512000D02*
X123317000Y-58420000D01*
X123225000Y-60350000D02*
X123225000Y-58512000D01*
X121378999Y-56481999D02*
X123317000Y-58420000D01*
X119961000Y-56481999D02*
X121378999Y-56481999D01*
X134496589Y-88125001D02*
X130571588Y-84200000D01*
X140857001Y-88125001D02*
X134496589Y-88125001D01*
X143668750Y-84200000D02*
X143668750Y-85313252D01*
X130571588Y-84200000D02*
X124618750Y-84200000D01*
X143668750Y-85313252D02*
X140857001Y-88125001D01*
X153546589Y-88125001D02*
X149621588Y-84200000D01*
X159907001Y-88125001D02*
X153546589Y-88125001D01*
X162718750Y-84200000D02*
X162718750Y-85313252D01*
X149621588Y-84200000D02*
X143668750Y-84200000D01*
X162718750Y-85313252D02*
X159907001Y-88125001D01*
X162718750Y-84200000D02*
X164945297Y-84200000D01*
X165702206Y-82046091D02*
X165702206Y-83443091D01*
X165702206Y-83443091D02*
X164945297Y-84200000D01*
X123225000Y-77562000D02*
X123317000Y-77470000D01*
X123225000Y-79400000D02*
X123225000Y-77562000D01*
X123225000Y-79506250D02*
X124618750Y-80900000D01*
X123225000Y-79400000D02*
X123225000Y-79506250D01*
X134496589Y-107175001D02*
X130571588Y-103250000D01*
X140857001Y-107175001D02*
X134496589Y-107175001D01*
X143668750Y-103250000D02*
X143668750Y-104363252D01*
X130571588Y-103250000D02*
X124618750Y-103250000D01*
X143668750Y-104363252D02*
X140857001Y-107175001D01*
X153546589Y-107175001D02*
X149621588Y-103250000D01*
X159907001Y-107175001D02*
X153546589Y-107175001D01*
X162718750Y-103250000D02*
X162718750Y-104363252D01*
X149621588Y-103250000D02*
X143668750Y-103250000D01*
X162718750Y-104363252D02*
X159907001Y-107175001D01*
X162718750Y-103250000D02*
X164720000Y-103250000D01*
X164720000Y-103250000D02*
X164860356Y-103109645D01*
X167422001Y-83656999D02*
X165227000Y-85852000D01*
X175957500Y-84582000D02*
X175032499Y-83656999D01*
X175032499Y-83656999D02*
X167422001Y-83656999D01*
X123225000Y-96612000D02*
X123317000Y-96520000D01*
X123225000Y-98450000D02*
X123225000Y-96612000D01*
X123225000Y-98556250D02*
X124618750Y-99950000D01*
X123225000Y-98450000D02*
X123225000Y-98556250D01*
X134496589Y-126225001D02*
X130571588Y-122300000D01*
X140857001Y-126225001D02*
X134496589Y-126225001D01*
X143668750Y-122300000D02*
X143668750Y-123413252D01*
X130571588Y-122300000D02*
X124618750Y-122300000D01*
X143668750Y-123413252D02*
X140857001Y-126225001D01*
X153546589Y-126225001D02*
X149621588Y-122300000D01*
X159907001Y-126225001D02*
X153546589Y-126225001D01*
X162718750Y-122300000D02*
X162718750Y-123413252D01*
X149621588Y-122300000D02*
X143668750Y-122300000D01*
X162718750Y-123413252D02*
X159907001Y-126225001D01*
X164015544Y-122300000D02*
X162718750Y-122300000D01*
X164868751Y-121446793D02*
X164015544Y-122300000D01*
X123225000Y-115662000D02*
X123317000Y-115570000D01*
X123225000Y-117500000D02*
X123225000Y-115662000D01*
X123225000Y-117606250D02*
X124618750Y-119000000D01*
X123225000Y-117500000D02*
X123225000Y-117606250D01*
X134496589Y-145275001D02*
X130571588Y-141350000D01*
X140857001Y-145275001D02*
X134496589Y-145275001D01*
X143668750Y-141350000D02*
X143668750Y-142463252D01*
X130571588Y-141350000D02*
X124618750Y-141350000D01*
X143668750Y-142463252D02*
X140857001Y-145275001D01*
X153546589Y-145275001D02*
X149621588Y-141350000D01*
X159907001Y-145275001D02*
X153546589Y-145275001D01*
X162718750Y-141350000D02*
X162718750Y-142463252D01*
X149621588Y-141350000D02*
X143668750Y-141350000D01*
X162718750Y-142463252D02*
X159907001Y-145275001D01*
X162718750Y-141350000D02*
X164593000Y-141350000D01*
X164593000Y-141350000D02*
X166116000Y-139827000D01*
X175957500Y-122682000D02*
X175032499Y-121756999D01*
X175032499Y-121756999D02*
X167422001Y-121756999D01*
X167422001Y-121756999D02*
X165521249Y-123657751D01*
X124618750Y-137943750D02*
X123225000Y-136550000D01*
X124618750Y-138050000D02*
X124618750Y-137943750D01*
X123317000Y-136458000D02*
X123225000Y-136550000D01*
X123317000Y-134620000D02*
X123317000Y-136458000D01*
X121491999Y-132794999D02*
X123317000Y-134620000D01*
X120474000Y-132794999D02*
X121491999Y-132794999D01*
X120379001Y-132700000D02*
X120474000Y-132794999D01*
X119975000Y-132700000D02*
X120379001Y-132700000D01*
X142275000Y-60456250D02*
X143668750Y-61850000D01*
X142275000Y-60350000D02*
X142275000Y-60456250D01*
X142275000Y-58512000D02*
X142367000Y-58420000D01*
X142275000Y-60350000D02*
X142275000Y-58512000D01*
X142275000Y-77562000D02*
X142367000Y-77470000D01*
X142275000Y-79400000D02*
X142275000Y-77562000D01*
X142275000Y-79506250D02*
X143668750Y-80900000D01*
X142275000Y-79400000D02*
X142275000Y-79506250D01*
X143668750Y-99843750D02*
X142275000Y-98450000D01*
X143668750Y-99950000D02*
X143668750Y-99843750D01*
X142275000Y-96612000D02*
X142367000Y-96520000D01*
X142275000Y-98450000D02*
X142275000Y-96612000D01*
X142275000Y-115662000D02*
X142367000Y-115570000D01*
X142275000Y-117500000D02*
X142275000Y-115662000D01*
X142275000Y-117606250D02*
X143668750Y-119000000D01*
X142275000Y-117500000D02*
X142275000Y-117606250D01*
X161325000Y-60456250D02*
X162718750Y-61850000D01*
X161325000Y-60350000D02*
X161325000Y-60456250D01*
X161325000Y-58512000D02*
X161417000Y-58420000D01*
X161325000Y-60350000D02*
X161325000Y-58512000D01*
X161325000Y-77562000D02*
X161417000Y-77470000D01*
X161325000Y-79400000D02*
X161325000Y-77562000D01*
X161325000Y-79506250D02*
X162718750Y-80900000D01*
X161325000Y-79400000D02*
X161325000Y-79506250D01*
X161325000Y-96612000D02*
X161417000Y-96520000D01*
X161325000Y-98450000D02*
X161325000Y-96612000D01*
X161325000Y-98556250D02*
X162718750Y-99950000D01*
X161325000Y-98450000D02*
X161325000Y-98556250D01*
X161325000Y-115662000D02*
X161417000Y-115570000D01*
X161325000Y-117500000D02*
X161325000Y-115662000D01*
X161325000Y-117606250D02*
X162718750Y-119000000D01*
X161325000Y-117500000D02*
X161325000Y-117606250D01*
X161325000Y-134712000D02*
X161417000Y-134620000D01*
X161325000Y-136550000D02*
X161325000Y-134712000D01*
X161325000Y-136656250D02*
X162718750Y-138050000D01*
X161325000Y-136550000D02*
X161325000Y-136656250D01*
X180375000Y-58512000D02*
X180467000Y-58420000D01*
X180375000Y-60350000D02*
X180375000Y-58512000D01*
X180375000Y-60456250D02*
X181768750Y-61850000D01*
X180375000Y-60350000D02*
X180375000Y-60456250D01*
X172657500Y-85142500D02*
X171475000Y-86325000D01*
X172657500Y-84582000D02*
X172657500Y-85142500D01*
X169637000Y-86325000D02*
X169545000Y-86233000D01*
X171475000Y-86325000D02*
X169637000Y-86325000D01*
D26*
X173761000Y-69981999D02*
X180061000Y-69981999D01*
X180061000Y-70786000D02*
X180800000Y-71525000D01*
X180061000Y-69981999D02*
X180061000Y-70786000D01*
X146242901Y-50063900D02*
X146242901Y-48031797D01*
X108664999Y-78399999D02*
X113914998Y-73150000D01*
X117475000Y-147200000D02*
X117475000Y-146889998D01*
X117475000Y-146889998D02*
X114010012Y-143425010D01*
X114010012Y-143425010D02*
X111601822Y-143425010D01*
X111601822Y-143425010D02*
X108664999Y-140488187D01*
X108664999Y-140488187D02*
X108664999Y-78399999D01*
X117461000Y-72396212D02*
X117461000Y-70981999D01*
X116707212Y-73150000D02*
X117461000Y-72396212D01*
X113914998Y-73150000D02*
X116707212Y-73150000D01*
X118911001Y-72432000D02*
X123670998Y-72432000D01*
X117461000Y-70981999D02*
X118911001Y-72432000D01*
X123670998Y-72432000D02*
X125727999Y-70374999D01*
X125727999Y-70374999D02*
X142575001Y-70374999D01*
X142575001Y-70374999D02*
X145950000Y-67000000D01*
X149625000Y-53446000D02*
X147502000Y-51323000D01*
X149625000Y-54350000D02*
X149625000Y-53446000D01*
X147502000Y-51323000D02*
X146242901Y-50063900D01*
X151360999Y-55181999D02*
X150529000Y-54350000D01*
X176455201Y-55181999D02*
X151360999Y-55181999D01*
X150529000Y-54350000D02*
X149625000Y-54350000D01*
X180289200Y-51348000D02*
X176455201Y-55181999D01*
D25*
X110390000Y-82432002D02*
X110390000Y-80010000D01*
X113657998Y-85700000D02*
X110390000Y-82432002D01*
X121975000Y-85700000D02*
X113657998Y-85700000D01*
X110390000Y-101482002D02*
X110390000Y-99060000D01*
X113657998Y-104750000D02*
X110390000Y-101482002D01*
X121975000Y-104750000D02*
X113657998Y-104750000D01*
X110390000Y-120532002D02*
X110390000Y-118110000D01*
X113657998Y-123800000D02*
X110390000Y-120532002D01*
X121975000Y-123800000D02*
X113657998Y-123800000D01*
X114961000Y-56481999D02*
X112861000Y-56481999D01*
X110390000Y-58952999D02*
X110390000Y-60960000D01*
X112861000Y-56481999D02*
X110390000Y-58952999D01*
X110390000Y-141400002D02*
X110390000Y-137160000D01*
X111839998Y-142850000D02*
X110390000Y-141400002D01*
X121975000Y-142850000D02*
X111839998Y-142850000D01*
X110390000Y-137160000D02*
X110390000Y-135585000D01*
X113275000Y-132700000D02*
X114975000Y-132700000D01*
X110390000Y-135585000D02*
X113275000Y-132700000D01*
X110390000Y-65196001D02*
X110390000Y-60960000D01*
X111843999Y-66650000D02*
X110390000Y-65196001D01*
X121975000Y-66650000D02*
X111843999Y-66650000D01*
X129440000Y-82432002D02*
X129440000Y-80010000D01*
X132707998Y-85700000D02*
X129440000Y-82432002D01*
X141025000Y-85700000D02*
X132707998Y-85700000D01*
X129440000Y-101482002D02*
X129440000Y-99060000D01*
X132707998Y-104750000D02*
X129440000Y-101482002D01*
X141025000Y-104750000D02*
X132707998Y-104750000D01*
X129440000Y-120532002D02*
X129440000Y-118110000D01*
X132707998Y-123800000D02*
X129440000Y-120532002D01*
X141025000Y-123800000D02*
X132707998Y-123800000D01*
X129440000Y-139582002D02*
X129440000Y-137160000D01*
X132707998Y-142850000D02*
X129440000Y-139582002D01*
X141025000Y-142850000D02*
X132707998Y-142850000D01*
X141025000Y-66650000D02*
X132707998Y-66650000D01*
X129440000Y-63382002D02*
X129440000Y-60960000D01*
X132707998Y-66650000D02*
X129440000Y-63382002D01*
X148490000Y-139582002D02*
X148490000Y-137160000D01*
X151757998Y-142850000D02*
X148490000Y-139582002D01*
X160075000Y-142850000D02*
X151757998Y-142850000D01*
X148490000Y-120532002D02*
X148490000Y-118110000D01*
X151757998Y-123800000D02*
X148490000Y-120532002D01*
X160075000Y-123800000D02*
X151757998Y-123800000D01*
X148490000Y-101482002D02*
X148490000Y-99060000D01*
X151757998Y-104750000D02*
X148490000Y-101482002D01*
X160075000Y-104750000D02*
X151757998Y-104750000D01*
X148490000Y-82432002D02*
X148490000Y-80010000D01*
X151757998Y-85700000D02*
X148490000Y-82432002D01*
X160075000Y-85700000D02*
X151757998Y-85700000D01*
X148490000Y-63382002D02*
X148490000Y-60960000D01*
X151757998Y-66650000D02*
X148490000Y-63382002D01*
X160075000Y-66650000D02*
X151757998Y-66650000D01*
X148490000Y-60960000D02*
X146460499Y-60960000D01*
X146460499Y-60960000D02*
X145400499Y-59900000D01*
X167065000Y-63083750D02*
X167481250Y-63500000D01*
X167065000Y-60960000D02*
X167065000Y-63083750D01*
X177775000Y-133992002D02*
X177775000Y-125675000D01*
X174507002Y-137260000D02*
X177775000Y-133992002D01*
X172085000Y-137260000D02*
X174507002Y-137260000D01*
X177775000Y-95892002D02*
X177775000Y-87575000D01*
X174507002Y-99160000D02*
X177775000Y-95892002D01*
X172085000Y-99160000D02*
X174507002Y-99160000D01*
X177775000Y-125675000D02*
X177775000Y-95892002D01*
X172657500Y-123242500D02*
X171475000Y-124425000D01*
X172657500Y-122682000D02*
X172657500Y-123242500D01*
X169637000Y-124425000D02*
X169545000Y-124333000D01*
X171475000Y-124425000D02*
X169637000Y-124425000D01*
D26*
X182016400Y-71907400D02*
X182016400Y-69773800D01*
X147561000Y-50392037D02*
X151650952Y-54481989D01*
X172075211Y-54481989D02*
X175209200Y-51348000D01*
X151650952Y-54481989D02*
X172075211Y-54481989D01*
X146242901Y-45491797D02*
X147561000Y-46809896D01*
X147561000Y-46809896D02*
X147561000Y-50392037D01*
D25*
X180061000Y-73781999D02*
X173761000Y-73781999D01*
X182775801Y-73781999D02*
X183591400Y-72966400D01*
X180061000Y-73781999D02*
X182775801Y-73781999D01*
X183591400Y-72966400D02*
X183591400Y-71907400D01*
X183591400Y-71907400D02*
X183591400Y-69849800D01*
X143668750Y-137943750D02*
X142275000Y-136550000D01*
X143668750Y-138050000D02*
X143668750Y-137943750D01*
X142275000Y-134712000D02*
X142367000Y-134620000D01*
X142275000Y-136550000D02*
X142275000Y-134712000D01*
X162509200Y-36108000D02*
X160857890Y-34456690D01*
X151347090Y-51046391D02*
X153525000Y-53224301D01*
X160857890Y-34456690D02*
X152123799Y-34456690D01*
X152123799Y-34456690D02*
X151179245Y-35401244D01*
X151179245Y-35401244D02*
X151179245Y-50878546D01*
X151179245Y-50878546D02*
X151347090Y-51046391D01*
X162947880Y-34006680D02*
X151937398Y-34006681D01*
X151937398Y-34006681D02*
X150729235Y-35214844D01*
X165049200Y-36108000D02*
X162947880Y-34006680D01*
X150729235Y-35214844D02*
X150729235Y-52104235D01*
X150729235Y-52104235D02*
X151875000Y-53250000D01*
X122743001Y-70981999D02*
X119961000Y-70981999D01*
X127775000Y-65950000D02*
X122743001Y-70981999D01*
X158767899Y-34906699D02*
X159969200Y-36108000D01*
X152672792Y-34906699D02*
X158767899Y-34906699D01*
X151854246Y-35725245D02*
X152672792Y-34906699D01*
X126625000Y-65825000D02*
X123374999Y-69075001D01*
X123374999Y-69075001D02*
X115399999Y-69075001D01*
X114961000Y-69514000D02*
X114961000Y-70981999D01*
X115399999Y-69075001D02*
X114961000Y-69514000D01*
M02*
