M48
; DRILL file {KiCad (5.1.6)-1} date 09/28/20 23:28:14
; FORMAT={-:-/ absolute / inch / decimal}
; #@! TF.CreationDate,2020-09-28T23:28:14+08:00
; #@! TF.GenerationSoftware,Kicad,Pcbnew,(5.1.6)-1
; #@! TF.FileFunction,NonPlated,1,2,NPTH
FMAT,2
INCH
T1C0.0591
T2C0.0748
T3C0.0866
T4C0.1181
T5C0.1200
T6C0.1570
T7C0.1614
%
G90
G05
T1
X6.6978Y-3.625
X7.0522Y-3.625
X4.625Y-2.3228
X4.625Y-2.6772
X6.125Y-3.8228
X6.125Y-4.1772
X6.125Y-4.5728
X6.125Y-4.9272
X5.375Y-3.8228
X5.375Y-4.1772
X4.625Y-3.0728
X4.625Y-3.4272
X6.125Y-5.3228
X6.125Y-5.6772
X6.125Y-2.3228
X6.125Y-2.6772
X6.875Y-2.3228
X6.875Y-2.6772
X4.625Y-5.3228
X4.625Y-5.6772
X5.375Y-3.0728
X5.375Y-3.4272
X5.375Y-2.3228
X5.375Y-2.6772
X6.125Y-3.0728
X6.125Y-3.4272
X5.375Y-4.5728
X5.375Y-4.9272
X4.625Y-4.5728
X4.625Y-4.9272
X6.6978Y-5.125
X7.0522Y-5.125
X4.625Y-3.8228
X4.625Y-4.1772
X5.375Y-5.3228
X5.375Y-5.6772
T2
X5.925Y-2.5
X6.325Y-2.5
X6.675Y-2.5
X7.075Y-2.5
X4.425Y-5.5
X4.825Y-5.5
X5.175Y-3.25
X5.575Y-3.25
X5.175Y-2.5
X5.575Y-2.5
X5.925Y-3.25
X6.325Y-3.25
X5.175Y-4.75
X5.575Y-4.75
X4.425Y-4.75
X4.825Y-4.75
X6.875Y-4.925
X6.875Y-5.325
X4.425Y-4.0
X4.825Y-4.0
X5.175Y-5.5
X5.575Y-5.5
X6.875Y-3.425
X6.875Y-3.825
X4.425Y-2.5
X4.825Y-2.5
X5.925Y-4.0
X6.325Y-4.0
X5.925Y-4.75
X6.325Y-4.75
X5.175Y-4.0
X5.575Y-4.0
X4.425Y-3.25
X4.825Y-3.25
X5.925Y-5.5
X6.325Y-5.5
T3
X5.7379Y-1.4261
X5.7379Y-2.056
T4
X5.225Y-4.65
X5.475Y-4.55
X4.475Y-4.65
X4.725Y-4.55
X6.675Y-5.025
X6.775Y-5.275
X4.475Y-3.9
X4.725Y-3.8
X5.225Y-5.4
X5.475Y-5.3
X6.675Y-3.525
X6.775Y-3.775
X4.475Y-2.4
X4.725Y-2.3
X5.975Y-3.9
X6.225Y-3.8
X5.975Y-4.65
X6.225Y-4.55
X5.225Y-3.9
X5.475Y-3.8
X4.475Y-3.15
X4.725Y-3.05
X5.975Y-5.4
X6.225Y-5.3
X5.975Y-2.4
X6.225Y-2.3
X6.725Y-2.4
X6.975Y-2.3
X4.475Y-5.4
X4.725Y-5.3
X5.225Y-3.15
X5.475Y-3.05
X5.225Y-2.4
X5.475Y-2.3
X5.975Y-3.15
X6.225Y-3.05
T5
X6.6Y-4.655
X6.6Y-5.595
X6.6Y-3.155
X6.6Y-4.095
T6
X7.2Y-4.655
X7.2Y-5.595
X7.2Y-3.155
X7.2Y-4.095
T7
X5.375Y-3.25
X5.375Y-2.5
X6.125Y-3.25
X5.375Y-4.75
X4.625Y-4.75
X6.875Y-5.125
X4.625Y-4.0
X5.375Y-5.5
X6.875Y-3.625
X4.625Y-2.5
X6.125Y-4.0
X6.125Y-4.75
X5.375Y-4.0
X4.625Y-3.25
X6.125Y-5.5
X6.125Y-2.5
X6.875Y-2.5
X4.625Y-5.5
T0
M30
