G04 #@! TF.GenerationSoftware,KiCad,Pcbnew,(5.1.6)-1*
G04 #@! TF.CreationDate,2020-09-28T23:28:13+08:00*
G04 #@! TF.ProjectId,Hami,48616d69-2e6b-4696-9361-645f70636258,rev?*
G04 #@! TF.SameCoordinates,Original*
G04 #@! TF.FileFunction,Paste,Bot*
G04 #@! TF.FilePolarity,Positive*
%FSLAX46Y46*%
G04 Gerber Fmt 4.6, Leading zero omitted, Abs format (unit mm)*
G04 Created by KiCad (PCBNEW (5.1.6)-1) date 2020-09-28 23:28:13*
%MOMM*%
%LPD*%
G01*
G04 APERTURE LIST*
%ADD10R,2.550000X2.500000*%
%ADD11R,2.500000X2.550000*%
%ADD12R,1.700000X1.000000*%
%ADD13R,1.200000X0.900000*%
%ADD14R,0.900000X1.200000*%
G04 APERTURE END LIST*
D10*
X161417000Y-96520000D03*
X148490000Y-99060000D03*
X142367000Y-96520000D03*
X129440000Y-99060000D03*
X161417000Y-77470000D03*
X148490000Y-80010000D03*
X142367000Y-58420000D03*
X129440000Y-60960000D03*
X161417000Y-58420000D03*
X148490000Y-60960000D03*
D11*
X172085000Y-137260000D03*
X169545000Y-124333000D03*
X172085000Y-99160000D03*
X169545000Y-86233000D03*
D10*
X180467000Y-58420000D03*
X167540000Y-60960000D03*
X161417000Y-134620000D03*
X148490000Y-137160000D03*
X161417000Y-115570000D03*
X148490000Y-118110000D03*
X142367000Y-134620000D03*
X129440000Y-137160000D03*
X142367000Y-115570000D03*
X129440000Y-118110000D03*
X142367000Y-77470000D03*
X129440000Y-80010000D03*
X123317000Y-134620000D03*
X110390000Y-137160000D03*
X123317000Y-115570000D03*
X110390000Y-118110000D03*
X123317000Y-96520000D03*
X110390000Y-99060000D03*
X123317000Y-77470000D03*
X110390000Y-80010000D03*
X123317000Y-58420000D03*
X110390000Y-60960000D03*
D12*
X173761000Y-73781999D03*
X180061000Y-73781999D03*
X173761000Y-69981999D03*
X180061000Y-69981999D03*
D13*
X143668750Y-138050000D03*
X143668750Y-141350000D03*
G36*
G01*
X184028900Y-71651150D02*
X184028900Y-72163650D01*
G75*
G02*
X183810150Y-72382400I-218750J0D01*
G01*
X183372650Y-72382400D01*
G75*
G02*
X183153900Y-72163650I0J218750D01*
G01*
X183153900Y-71651150D01*
G75*
G02*
X183372650Y-71432400I218750J0D01*
G01*
X183810150Y-71432400D01*
G75*
G02*
X184028900Y-71651150I0J-218750D01*
G01*
G37*
G36*
G01*
X182453900Y-71651150D02*
X182453900Y-72163650D01*
G75*
G02*
X182235150Y-72382400I-218750J0D01*
G01*
X181797650Y-72382400D01*
G75*
G02*
X181578900Y-72163650I0J218750D01*
G01*
X181578900Y-71651150D01*
G75*
G02*
X181797650Y-71432400I218750J0D01*
G01*
X182235150Y-71432400D01*
G75*
G02*
X182453900Y-71651150I0J-218750D01*
G01*
G37*
D14*
X172657500Y-122682000D03*
X175957500Y-122682000D03*
X172657500Y-84582000D03*
X175957500Y-84582000D03*
D13*
X181768750Y-61850000D03*
X181768750Y-65150000D03*
X162718750Y-138050000D03*
X162718750Y-141350000D03*
X162718750Y-119000000D03*
X162718750Y-122300000D03*
X162718750Y-99950000D03*
X162718750Y-103250000D03*
X162718750Y-80900000D03*
X162718750Y-84200000D03*
X162718750Y-61850000D03*
X162718750Y-65150000D03*
X143668750Y-119000000D03*
X143668750Y-122300000D03*
X143668750Y-99950000D03*
X143668750Y-103250000D03*
X143668750Y-80900000D03*
X143668750Y-84200000D03*
X143668750Y-61850000D03*
X143668750Y-65150000D03*
X124618750Y-138050000D03*
X124618750Y-141350000D03*
X124618750Y-119000000D03*
X124618750Y-122300000D03*
X124618750Y-99950000D03*
X124618750Y-103250000D03*
X124618750Y-80900000D03*
X124618750Y-84200000D03*
X124618750Y-61850000D03*
X124618750Y-65150000D03*
M02*
