M48
; DRILL file {KiCad (5.1.6)-1} date 09/28/20 23:28:14
; FORMAT={-:-/ absolute / inch / decimal}
; #@! TF.CreationDate,2020-09-28T23:28:14+08:00
; #@! TF.GenerationSoftware,Kicad,Pcbnew,(5.1.6)-1
; #@! TF.FileFunction,Plated,1,2,PTH
FMAT,2
INCH
T1C0.0138
T2C0.0394
T3C0.0430
T4C0.0591
T5C0.0866
%
G90
G05
T1
X4.9852Y-2.5915
X5.0305Y-2.5965
X5.7244Y-2.3583
X5.7461Y-2.6378
X5.8907Y-2.1398
X5.9785Y-1.4065
X5.9793Y-2.0965
X6.0443Y-2.0954
X6.4906Y-4.0594
X6.4909Y-4.7814
X6.505Y-3.38
X6.5166Y-4.8684
X6.5237Y-3.2302
X6.54Y-5.505
X6.5689Y-2.565
X6.5938Y-2.5
X7.1181Y-2.8159
X7.166Y-2.747
X7.228Y-2.75
T2
X7.2064Y-2.1229
X7.2064Y-2.2229
X5.7576Y-1.591
X5.7576Y-1.691
X5.7576Y-1.791
X5.7576Y-1.891
X4.526Y-2.2237
X4.526Y-2.7946
X4.6244Y-2.7946
X4.7229Y-2.2237
X4.7229Y-2.7946
X4.5266Y-5.2244
X4.5266Y-5.7953
X4.625Y-5.7953
X4.7234Y-5.2244
X4.7234Y-5.7953
T3
X6.098Y-1.4216
X6.098Y-2.0216
X6.198Y-1.4216
X6.198Y-2.0216
X6.298Y-1.4216
X6.298Y-2.0216
X6.398Y-1.4216
X6.398Y-2.0216
X6.498Y-1.4216
X6.498Y-2.0216
X6.598Y-1.4216
X6.598Y-2.0216
X6.698Y-1.4216
X6.698Y-2.0216
X6.798Y-1.4216
X6.798Y-2.0216
X6.898Y-1.4216
X6.898Y-2.0216
X6.998Y-1.4216
X6.998Y-2.0216
X7.098Y-1.4216
X7.098Y-2.0216
X7.198Y-1.4216
X7.198Y-2.0216
T4
X5.5522Y-5.624
X5.6014Y-5.376
X6.751Y-3.3986
X6.999Y-3.4478
X4.8022Y-2.624
X4.8514Y-2.376
X6.3022Y-4.124
X6.3514Y-3.876
X6.3022Y-4.874
X6.3514Y-4.626
X5.5522Y-4.124
X5.6014Y-3.876
X4.8022Y-3.374
X4.8514Y-3.126
X6.3022Y-5.624
X6.3514Y-5.376
X6.3022Y-2.624
X6.3514Y-2.376
X7.0522Y-2.624
X7.1014Y-2.376
X4.8022Y-5.624
X4.8514Y-5.376
X5.5522Y-3.374
X5.6014Y-3.126
X5.5522Y-2.624
X5.6014Y-2.376
X6.3022Y-3.374
X6.3514Y-3.126
X5.5522Y-4.874
X5.6014Y-4.626
X4.8022Y-4.874
X4.8514Y-4.626
X6.751Y-4.8986
X6.999Y-4.9478
X4.8022Y-4.124
X4.8514Y-3.876
T5
X6.5Y-2.875
X5.0Y-2.875
X6.5Y-5.125
X5.0Y-5.125
T4
G00X4.404Y-2.5249
M15
G01X4.404Y-2.4737
M16
G05
G00X4.8449Y-2.5249
M15
G01X4.8449Y-2.4737
M16
G05
G00X4.4045Y-5.5256
M15
G01X4.4045Y-5.4744
M16
G05
G00X4.8455Y-5.5256
M15
G01X4.8455Y-5.4744
M16
G05
T0
M30
