  0
SECTION
  2
HEADER
  9
$ANGBASE
  50
0.0
  9
$ANGDIR
  70
1
  9
$MEASUREMENT
  70
1
  0
ENDSEC
  0
SECTION
  2
TABLES
  0
TABLE
  2
LTYPE
  70
4
  0
LTYPE
  5
40F
  2
CONTINUOUS
  70
0
  3
Solid line
  72
65
  73
0
  40
0.0
  0
LTYPE
  5
410
  2
DASHDOT
 70
0
  3
Dash Dot ____ _ ____ _
 72
65
 73
4
 40
2.0
 49
1.25
 49
-0.25
 49
0.25
 49
-0.25
  0
LTYPE
  5
411
  2
DASHED
 70
0
  3
Dashed __ __ __ __ __
 72
65
 73
2
 40
0.75
 49
0.5
 49
-0.25
  0
LTYPE
  5
43B
  2
DOTTED
 70
0
  3
Dotted .  .  .  .
 72
65
 73
2
 40
0.2
 49
0.0
 49
-0.2
  0
ENDTAB
  0
TABLE
  2
STYLE
  70
4
  0
STYLE
  2
KICAD
  70
0
  40
0
  41
1
  42
1
  50
0
  71
0
  3
isocp.shx
  0
STYLE
  2
KICADB
  70
0
  40
0
  41
1
  42
1
  50
0
  71
0
  3
isocp.shx
  0
STYLE
  2
KICADI
  70
0
  40
0
  41
1
  42
1
  50
15
  71
0
  3
isocp.shx
  0
STYLE
  2
KICADBI
  70
0
  40
0
  41
1
  42
1
  50
15
  71
0
  3
isocp.shx
  0
ENDTAB
  0
TABLE
  2
LAYER
  70
1
  0
LAYER
  2
BLACK
  70
0
  62
7
  6
CONTINUOUS
  0
ENDTAB
  0
ENDSEC
  0
SECTION
  2
ENTITIES
0
LINE
8
BLACK
6
CONTINUOUS
10
127.467
20
-128.636
11
127.758
21
-128.757
0
LINE
8
BLACK
6
CONTINUOUS
10
127.758
20
-128.757
11
128.02
21
-128.932
0
LINE
8
BLACK
6
CONTINUOUS
10
128.02
20
-128.932
11
128.243
21
-129.155
0
LINE
8
BLACK
6
CONTINUOUS
10
128.243
20
-129.155
11
128.418
21
-129.417
0
LINE
8
BLACK
6
CONTINUOUS
10
128.418
20
-129.417
11
128.539
21
-129.708
0
LINE
8
BLACK
6
CONTINUOUS
10
128.539
20
-129.708
11
128.6
21
-130.017
0
LINE
8
BLACK
6
CONTINUOUS
10
128.6
20
-130.017
11
128.6
21
-130.333
0
LINE
8
BLACK
6
CONTINUOUS
10
128.6
20
-130.333
11
128.539
21
-130.642
0
LINE
8
BLACK
6
CONTINUOUS
10
128.539
20
-130.642
11
128.418
21
-130.933
0
LINE
8
BLACK
6
CONTINUOUS
10
128.418
20
-130.933
11
128.243
21
-131.195
0
LINE
8
BLACK
6
CONTINUOUS
10
128.243
20
-131.195
11
128.02
21
-131.418
0
LINE
8
BLACK
6
CONTINUOUS
10
128.02
20
-131.418
11
127.758
21
-131.593
0
LINE
8
BLACK
6
CONTINUOUS
10
127.758
20
-131.593
11
127.467
21
-131.714
0
LINE
8
BLACK
6
CONTINUOUS
10
127.467
20
-131.714
11
127.158
21
-131.775
0
LINE
8
BLACK
6
CONTINUOUS
10
127.158
20
-131.775
11
126.842
21
-131.775
0
LINE
8
BLACK
6
CONTINUOUS
10
126.842
20
-131.775
11
126.533
21
-131.714
0
LINE
8
BLACK
6
CONTINUOUS
10
126.533
20
-131.714
11
126.242
21
-131.593
0
LINE
8
BLACK
6
CONTINUOUS
10
126.242
20
-131.593
11
125.98
21
-131.418
0
LINE
8
BLACK
6
CONTINUOUS
10
125.98
20
-131.418
11
125.757
21
-131.195
0
LINE
8
BLACK
6
CONTINUOUS
10
125.757
20
-131.195
11
125.582
21
-130.933
0
LINE
8
BLACK
6
CONTINUOUS
10
125.582
20
-130.933
11
125.461
21
-130.642
0
LINE
8
BLACK
6
CONTINUOUS
10
125.461
20
-130.642
11
125.4
21
-130.333
0
LINE
8
BLACK
6
CONTINUOUS
10
125.4
20
-130.333
11
125.4
21
-130.017
0
LINE
8
BLACK
6
CONTINUOUS
10
125.4
20
-130.017
11
125.461
21
-129.708
0
LINE
8
BLACK
6
CONTINUOUS
10
125.461
20
-129.708
11
125.582
21
-129.417
0
LINE
8
BLACK
6
CONTINUOUS
10
125.582
20
-129.417
11
125.757
21
-129.155
0
LINE
8
BLACK
6
CONTINUOUS
10
125.757
20
-129.155
11
125.98
21
-128.932
0
LINE
8
BLACK
6
CONTINUOUS
10
125.98
20
-128.932
11
126.242
21
-128.757
0
LINE
8
BLACK
6
CONTINUOUS
10
126.242
20
-128.757
11
126.533
21
-128.636
0
LINE
8
BLACK
6
CONTINUOUS
10
126.533
20
-128.636
11
126.842
21
-128.575
0
LINE
8
BLACK
6
CONTINUOUS
10
126.842
20
-128.575
11
127.158
21
-128.575
0
LINE
8
BLACK
6
CONTINUOUS
10
127.158
20
-128.575
11
127.467
21
-128.636
0
LINE
8
BLACK
6
CONTINUOUS
10
165.567
20
-128.636
11
165.858
21
-128.757
0
LINE
8
BLACK
6
CONTINUOUS
10
165.858
20
-128.757
11
166.12
21
-128.932
0
LINE
8
BLACK
6
CONTINUOUS
10
166.12
20
-128.932
11
166.343
21
-129.155
0
LINE
8
BLACK
6
CONTINUOUS
10
166.343
20
-129.155
11
166.518
21
-129.417
0
LINE
8
BLACK
6
CONTINUOUS
10
166.518
20
-129.417
11
166.639
21
-129.708
0
LINE
8
BLACK
6
CONTINUOUS
10
166.639
20
-129.708
11
166.7
21
-130.017
0
LINE
8
BLACK
6
CONTINUOUS
10
166.7
20
-130.017
11
166.7
21
-130.333
0
LINE
8
BLACK
6
CONTINUOUS
10
166.7
20
-130.333
11
166.639
21
-130.642
0
LINE
8
BLACK
6
CONTINUOUS
10
166.639
20
-130.642
11
166.518
21
-130.933
0
LINE
8
BLACK
6
CONTINUOUS
10
166.518
20
-130.933
11
166.343
21
-131.195
0
LINE
8
BLACK
6
CONTINUOUS
10
166.343
20
-131.195
11
166.12
21
-131.418
0
LINE
8
BLACK
6
CONTINUOUS
10
166.12
20
-131.418
11
165.858
21
-131.593
0
LINE
8
BLACK
6
CONTINUOUS
10
165.858
20
-131.593
11
165.567
21
-131.714
0
LINE
8
BLACK
6
CONTINUOUS
10
165.567
20
-131.714
11
165.258
21
-131.775
0
LINE
8
BLACK
6
CONTINUOUS
10
165.258
20
-131.775
11
164.942
21
-131.775
0
LINE
8
BLACK
6
CONTINUOUS
10
164.942
20
-131.775
11
164.633
21
-131.714
0
LINE
8
BLACK
6
CONTINUOUS
10
164.633
20
-131.714
11
164.342
21
-131.593
0
LINE
8
BLACK
6
CONTINUOUS
10
164.342
20
-131.593
11
164.08
21
-131.418
0
LINE
8
BLACK
6
CONTINUOUS
10
164.08
20
-131.418
11
163.857
21
-131.195
0
LINE
8
BLACK
6
CONTINUOUS
10
163.857
20
-131.195
11
163.682
21
-130.933
0
LINE
8
BLACK
6
CONTINUOUS
10
163.682
20
-130.933
11
163.561
21
-130.642
0
LINE
8
BLACK
6
CONTINUOUS
10
163.561
20
-130.642
11
163.5
21
-130.333
0
LINE
8
BLACK
6
CONTINUOUS
10
163.5
20
-130.333
11
163.5
21
-130.017
0
LINE
8
BLACK
6
CONTINUOUS
10
163.5
20
-130.017
11
163.561
21
-129.708
0
LINE
8
BLACK
6
CONTINUOUS
10
163.561
20
-129.708
11
163.682
21
-129.417
0
LINE
8
BLACK
6
CONTINUOUS
10
163.682
20
-129.417
11
163.857
21
-129.155
0
LINE
8
BLACK
6
CONTINUOUS
10
163.857
20
-129.155
11
164.08
21
-128.932
0
LINE
8
BLACK
6
CONTINUOUS
10
164.08
20
-128.932
11
164.342
21
-128.757
0
LINE
8
BLACK
6
CONTINUOUS
10
164.342
20
-128.757
11
164.633
21
-128.636
0
LINE
8
BLACK
6
CONTINUOUS
10
164.633
20
-128.636
11
164.942
21
-128.575
0
LINE
8
BLACK
6
CONTINUOUS
10
164.942
20
-128.575
11
165.258
21
-128.575
0
LINE
8
BLACK
6
CONTINUOUS
10
165.258
20
-128.575
11
165.567
21
-128.636
0
LINE
8
BLACK
6
CONTINUOUS
10
127.467
20
-71.4865
11
127.758
21
-71.6071
0
LINE
8
BLACK
6
CONTINUOUS
10
127.758
20
-71.6071
11
128.02
21
-71.7822
0
LINE
8
BLACK
6
CONTINUOUS
10
128.02
20
-71.7822
11
128.243
21
-72.0051
0
LINE
8
BLACK
6
CONTINUOUS
10
128.243
20
-72.0051
11
128.418
21
-72.2671
0
LINE
8
BLACK
6
CONTINUOUS
10
128.418
20
-72.2671
11
128.539
21
-72.5583
0
LINE
8
BLACK
6
CONTINUOUS
10
128.539
20
-72.5583
11
128.6
21
-72.8674
0
LINE
8
BLACK
6
CONTINUOUS
10
128.6
20
-72.8674
11
128.6
21
-73.1826
0
LINE
8
BLACK
6
CONTINUOUS
10
128.6
20
-73.1826
11
128.539
21
-73.4917
0
LINE
8
BLACK
6
CONTINUOUS
10
128.539
20
-73.4917
11
128.418
21
-73.7829
0
LINE
8
BLACK
6
CONTINUOUS
10
128.418
20
-73.7829
11
128.243
21
-74.0449
0
LINE
8
BLACK
6
CONTINUOUS
10
128.243
20
-74.0449
11
128.02
21
-74.2678
0
LINE
8
BLACK
6
CONTINUOUS
10
128.02
20
-74.2678
11
127.758
21
-74.4429
0
LINE
8
BLACK
6
CONTINUOUS
10
127.758
20
-74.4429
11
127.467
21
-74.5635
0
LINE
8
BLACK
6
CONTINUOUS
10
127.467
20
-74.5635
11
127.158
21
-74.625
0
LINE
8
BLACK
6
CONTINUOUS
10
127.158
20
-74.625
11
126.842
21
-74.625
0
LINE
8
BLACK
6
CONTINUOUS
10
126.842
20
-74.625
11
126.533
21
-74.5635
0
LINE
8
BLACK
6
CONTINUOUS
10
126.533
20
-74.5635
11
126.242
21
-74.4429
0
LINE
8
BLACK
6
CONTINUOUS
10
126.242
20
-74.4429
11
125.98
21
-74.2678
0
LINE
8
BLACK
6
CONTINUOUS
10
125.98
20
-74.2678
11
125.757
21
-74.0449
0
LINE
8
BLACK
6
CONTINUOUS
10
125.757
20
-74.0449
11
125.582
21
-73.7829
0
LINE
8
BLACK
6
CONTINUOUS
10
125.582
20
-73.7829
11
125.461
21
-73.4917
0
LINE
8
BLACK
6
CONTINUOUS
10
125.461
20
-73.4917
11
125.4
21
-73.1826
0
LINE
8
BLACK
6
CONTINUOUS
10
125.4
20
-73.1826
11
125.4
21
-72.8674
0
LINE
8
BLACK
6
CONTINUOUS
10
125.4
20
-72.8674
11
125.461
21
-72.5583
0
LINE
8
BLACK
6
CONTINUOUS
10
125.461
20
-72.5583
11
125.582
21
-72.2671
0
LINE
8
BLACK
6
CONTINUOUS
10
125.582
20
-72.2671
11
125.757
21
-72.0051
0
LINE
8
BLACK
6
CONTINUOUS
10
125.757
20
-72.0051
11
125.98
21
-71.7822
0
LINE
8
BLACK
6
CONTINUOUS
10
125.98
20
-71.7822
11
126.242
21
-71.6071
0
LINE
8
BLACK
6
CONTINUOUS
10
126.242
20
-71.6071
11
126.533
21
-71.4865
0
LINE
8
BLACK
6
CONTINUOUS
10
126.533
20
-71.4865
11
126.842
21
-71.425
0
LINE
8
BLACK
6
CONTINUOUS
10
126.842
20
-71.425
11
127.158
21
-71.425
0
LINE
8
BLACK
6
CONTINUOUS
10
127.158
20
-71.425
11
127.467
21
-71.4865
0
LINE
8
BLACK
6
CONTINUOUS
10
165.567
20
-71.4865
11
165.858
21
-71.6071
0
LINE
8
BLACK
6
CONTINUOUS
10
165.858
20
-71.6071
11
166.12
21
-71.7822
0
LINE
8
BLACK
6
CONTINUOUS
10
166.12
20
-71.7822
11
166.343
21
-72.0051
0
LINE
8
BLACK
6
CONTINUOUS
10
166.343
20
-72.0051
11
166.518
21
-72.2671
0
LINE
8
BLACK
6
CONTINUOUS
10
166.518
20
-72.2671
11
166.639
21
-72.5583
0
LINE
8
BLACK
6
CONTINUOUS
10
166.639
20
-72.5583
11
166.7
21
-72.8674
0
LINE
8
BLACK
6
CONTINUOUS
10
166.7
20
-72.8674
11
166.7
21
-73.1826
0
LINE
8
BLACK
6
CONTINUOUS
10
166.7
20
-73.1826
11
166.639
21
-73.4917
0
LINE
8
BLACK
6
CONTINUOUS
10
166.639
20
-73.4917
11
166.518
21
-73.7829
0
LINE
8
BLACK
6
CONTINUOUS
10
166.518
20
-73.7829
11
166.343
21
-74.0449
0
LINE
8
BLACK
6
CONTINUOUS
10
166.343
20
-74.0449
11
166.12
21
-74.2678
0
LINE
8
BLACK
6
CONTINUOUS
10
166.12
20
-74.2678
11
165.858
21
-74.4429
0
LINE
8
BLACK
6
CONTINUOUS
10
165.858
20
-74.4429
11
165.567
21
-74.5635
0
LINE
8
BLACK
6
CONTINUOUS
10
165.567
20
-74.5635
11
165.258
21
-74.625
0
LINE
8
BLACK
6
CONTINUOUS
10
165.258
20
-74.625
11
164.942
21
-74.625
0
LINE
8
BLACK
6
CONTINUOUS
10
164.942
20
-74.625
11
164.633
21
-74.5635
0
LINE
8
BLACK
6
CONTINUOUS
10
164.633
20
-74.5635
11
164.342
21
-74.4429
0
LINE
8
BLACK
6
CONTINUOUS
10
164.342
20
-74.4429
11
164.08
21
-74.2678
0
LINE
8
BLACK
6
CONTINUOUS
10
164.08
20
-74.2678
11
163.857
21
-74.0449
0
LINE
8
BLACK
6
CONTINUOUS
10
163.857
20
-74.0449
11
163.682
21
-73.7829
0
LINE
8
BLACK
6
CONTINUOUS
10
163.682
20
-73.7829
11
163.561
21
-73.4917
0
LINE
8
BLACK
6
CONTINUOUS
10
163.561
20
-73.4917
11
163.5
21
-73.1826
0
LINE
8
BLACK
6
CONTINUOUS
10
163.5
20
-73.1826
11
163.5
21
-72.8674
0
LINE
8
BLACK
6
CONTINUOUS
10
163.5
20
-72.8674
11
163.561
21
-72.5583
0
LINE
8
BLACK
6
CONTINUOUS
10
163.561
20
-72.5583
11
163.682
21
-72.2671
0
LINE
8
BLACK
6
CONTINUOUS
10
163.682
20
-72.2671
11
163.857
21
-72.0051
0
LINE
8
BLACK
6
CONTINUOUS
10
163.857
20
-72.0051
11
164.08
21
-71.7822
0
LINE
8
BLACK
6
CONTINUOUS
10
164.08
20
-71.7822
11
164.342
21
-71.6071
0
LINE
8
BLACK
6
CONTINUOUS
10
164.342
20
-71.6071
11
164.633
21
-71.4865
0
LINE
8
BLACK
6
CONTINUOUS
10
164.633
20
-71.4865
11
164.942
21
-71.425
0
LINE
8
BLACK
6
CONTINUOUS
10
164.942
20
-71.425
11
165.258
21
-71.425
0
LINE
8
BLACK
6
CONTINUOUS
10
165.258
20
-71.425
11
165.567
21
-71.4865
  0
ENDSEC
  0
EOF
