  0
SECTION
  2
HEADER
  9
$ANGBASE
  50
0.0
  9
$ANGDIR
  70
1
  9
$MEASUREMENT
  70
1
  0
ENDSEC
  0
SECTION
  2
TABLES
  0
TABLE
  2
LTYPE
  70
4
  0
LTYPE
  5
40F
  2
CONTINUOUS
  70
0
  3
Solid line
  72
65
  73
0
  40
0.0
  0
LTYPE
  5
410
  2
DASHDOT
 70
0
  3
Dash Dot ____ _ ____ _
 72
65
 73
4
 40
2.0
 49
1.25
 49
-0.25
 49
0.25
 49
-0.25
  0
LTYPE
  5
411
  2
DASHED
 70
0
  3
Dashed __ __ __ __ __
 72
65
 73
2
 40
0.75
 49
0.5
 49
-0.25
  0
LTYPE
  5
43B
  2
DOTTED
 70
0
  3
Dotted .  .  .  .
 72
65
 73
2
 40
0.2
 49
0.0
 49
-0.2
  0
ENDTAB
  0
TABLE
  2
STYLE
  70
4
  0
STYLE
  2
KICAD
  70
0
  40
0
  41
1
  42
1
  50
0
  71
0
  3
isocp.shx
  0
STYLE
  2
KICADB
  70
0
  40
0
  41
1
  42
1
  50
0
  71
0
  3
isocp.shx
  0
STYLE
  2
KICADI
  70
0
  40
0
  41
1
  42
1
  50
15
  71
0
  3
isocp.shx
  0
STYLE
  2
KICADBI
  70
0
  40
0
  41
1
  42
1
  50
15
  71
0
  3
isocp.shx
  0
ENDTAB
  0
TABLE
  2
LAYER
  70
1
  0
LAYER
  2
BLACK
  70
0
  62
7
  6
CONTINUOUS
  0
ENDTAB
  0
ENDSEC
  0
SECTION
  2
ENTITIES
0
LINE
8
BLACK
6
CONTINUOUS
10
165.475
20
-128.566
11
165.582
21
-128.587
0
LINE
8
BLACK
6
CONTINUOUS
10
165.582
20
-128.587
11
165.882
21
-128.712
0
LINE
8
BLACK
6
CONTINUOUS
10
165.882
20
-128.712
11
166.152
21
-128.893
0
LINE
8
BLACK
6
CONTINUOUS
10
166.152
20
-128.893
11
166.382
21
-129.123
0
LINE
8
BLACK
6
CONTINUOUS
10
166.382
20
-129.123
11
166.563
21
-129.393
0
LINE
8
BLACK
6
CONTINUOUS
10
166.563
20
-129.393
11
166.688
21
-129.693
0
LINE
8
BLACK
6
CONTINUOUS
10
166.688
20
-129.693
11
166.751
21
-130.012
0
LINE
8
BLACK
6
CONTINUOUS
10
166.751
20
-130.012
11
166.751
21
-130.338
0
LINE
8
BLACK
6
CONTINUOUS
10
166.751
20
-130.338
11
166.688
21
-130.657
0
LINE
8
BLACK
6
CONTINUOUS
10
166.688
20
-130.657
11
166.563
21
-130.957
0
LINE
8
BLACK
6
CONTINUOUS
10
166.563
20
-130.957
11
166.382
21
-131.227
0
LINE
8
BLACK
6
CONTINUOUS
10
166.382
20
-131.227
11
166.152
21
-131.457
0
LINE
8
BLACK
6
CONTINUOUS
10
166.152
20
-131.457
11
165.882
21
-131.638
0
LINE
8
BLACK
6
CONTINUOUS
10
165.882
20
-131.638
11
165.582
21
-131.763
0
LINE
8
BLACK
6
CONTINUOUS
10
165.582
20
-131.763
11
165.475
21
-131.784
0
LINE
8
BLACK
6
CONTINUOUS
10
165.475
20
-131.784
11
165.263
21
-131.826
0
LINE
8
BLACK
6
CONTINUOUS
10
165.263
20
-131.826
11
164.937
21
-131.826
0
LINE
8
BLACK
6
CONTINUOUS
10
164.937
20
-131.826
11
164.725
21
-131.784
0
LINE
8
BLACK
6
CONTINUOUS
10
164.725
20
-131.784
11
164.618
21
-131.763
0
LINE
8
BLACK
6
CONTINUOUS
10
164.618
20
-131.763
11
164.318
21
-131.638
0
LINE
8
BLACK
6
CONTINUOUS
10
164.318
20
-131.638
11
164.048
21
-131.457
0
LINE
8
BLACK
6
CONTINUOUS
10
164.048
20
-131.457
11
163.818
21
-131.227
0
LINE
8
BLACK
6
CONTINUOUS
10
163.818
20
-131.227
11
163.637
21
-130.957
0
LINE
8
BLACK
6
CONTINUOUS
10
163.637
20
-130.957
11
163.512
21
-130.657
0
LINE
8
BLACK
6
CONTINUOUS
10
163.512
20
-130.657
11
163.449
21
-130.338
0
LINE
8
BLACK
6
CONTINUOUS
10
163.449
20
-130.338
11
163.449
21
-130.012
0
LINE
8
BLACK
6
CONTINUOUS
10
163.449
20
-130.012
11
163.512
21
-129.693
0
LINE
8
BLACK
6
CONTINUOUS
10
163.512
20
-129.693
11
163.637
21
-129.393
0
LINE
8
BLACK
6
CONTINUOUS
10
163.637
20
-129.393
11
163.818
21
-129.123
0
LINE
8
BLACK
6
CONTINUOUS
10
163.818
20
-129.123
11
164.048
21
-128.893
0
LINE
8
BLACK
6
CONTINUOUS
10
164.048
20
-128.893
11
164.318
21
-128.712
0
LINE
8
BLACK
6
CONTINUOUS
10
164.318
20
-128.712
11
164.618
21
-128.587
0
LINE
8
BLACK
6
CONTINUOUS
10
164.618
20
-128.587
11
164.725
21
-128.566
0
LINE
8
BLACK
6
CONTINUOUS
10
164.725
20
-128.566
11
164.937
21
-128.524
0
LINE
8
BLACK
6
CONTINUOUS
10
164.937
20
-128.524
11
165.263
21
-128.524
0
LINE
8
BLACK
6
CONTINUOUS
10
165.263
20
-128.524
11
165.475
21
-128.566
0
LINE
8
BLACK
6
CONTINUOUS
10
127.375
20
-128.566
11
127.482
21
-128.587
0
LINE
8
BLACK
6
CONTINUOUS
10
127.482
20
-128.587
11
127.782
21
-128.712
0
LINE
8
BLACK
6
CONTINUOUS
10
127.782
20
-128.712
11
128.052
21
-128.893
0
LINE
8
BLACK
6
CONTINUOUS
10
128.052
20
-128.893
11
128.282
21
-129.123
0
LINE
8
BLACK
6
CONTINUOUS
10
128.282
20
-129.123
11
128.463
21
-129.393
0
LINE
8
BLACK
6
CONTINUOUS
10
128.463
20
-129.393
11
128.588
21
-129.693
0
LINE
8
BLACK
6
CONTINUOUS
10
128.588
20
-129.693
11
128.651
21
-130.012
0
LINE
8
BLACK
6
CONTINUOUS
10
128.651
20
-130.012
11
128.651
21
-130.338
0
LINE
8
BLACK
6
CONTINUOUS
10
128.651
20
-130.338
11
128.588
21
-130.657
0
LINE
8
BLACK
6
CONTINUOUS
10
128.588
20
-130.657
11
128.463
21
-130.957
0
LINE
8
BLACK
6
CONTINUOUS
10
128.463
20
-130.957
11
128.282
21
-131.227
0
LINE
8
BLACK
6
CONTINUOUS
10
128.282
20
-131.227
11
128.052
21
-131.457
0
LINE
8
BLACK
6
CONTINUOUS
10
128.052
20
-131.457
11
127.782
21
-131.638
0
LINE
8
BLACK
6
CONTINUOUS
10
127.782
20
-131.638
11
127.482
21
-131.763
0
LINE
8
BLACK
6
CONTINUOUS
10
127.482
20
-131.763
11
127.375
21
-131.784
0
LINE
8
BLACK
6
CONTINUOUS
10
127.375
20
-131.784
11
127.163
21
-131.826
0
LINE
8
BLACK
6
CONTINUOUS
10
127.163
20
-131.826
11
126.837
21
-131.826
0
LINE
8
BLACK
6
CONTINUOUS
10
126.837
20
-131.826
11
126.625
21
-131.784
0
LINE
8
BLACK
6
CONTINUOUS
10
126.625
20
-131.784
11
126.518
21
-131.763
0
LINE
8
BLACK
6
CONTINUOUS
10
126.518
20
-131.763
11
126.218
21
-131.638
0
LINE
8
BLACK
6
CONTINUOUS
10
126.218
20
-131.638
11
125.948
21
-131.457
0
LINE
8
BLACK
6
CONTINUOUS
10
125.948
20
-131.457
11
125.718
21
-131.227
0
LINE
8
BLACK
6
CONTINUOUS
10
125.718
20
-131.227
11
125.537
21
-130.957
0
LINE
8
BLACK
6
CONTINUOUS
10
125.537
20
-130.957
11
125.412
21
-130.657
0
LINE
8
BLACK
6
CONTINUOUS
10
125.412
20
-130.657
11
125.349
21
-130.338
0
LINE
8
BLACK
6
CONTINUOUS
10
125.349
20
-130.338
11
125.349
21
-130.012
0
LINE
8
BLACK
6
CONTINUOUS
10
125.349
20
-130.012
11
125.412
21
-129.693
0
LINE
8
BLACK
6
CONTINUOUS
10
125.412
20
-129.693
11
125.537
21
-129.393
0
LINE
8
BLACK
6
CONTINUOUS
10
125.537
20
-129.393
11
125.718
21
-129.123
0
LINE
8
BLACK
6
CONTINUOUS
10
125.718
20
-129.123
11
125.948
21
-128.893
0
LINE
8
BLACK
6
CONTINUOUS
10
125.948
20
-128.893
11
126.218
21
-128.712
0
LINE
8
BLACK
6
CONTINUOUS
10
126.218
20
-128.712
11
126.518
21
-128.587
0
LINE
8
BLACK
6
CONTINUOUS
10
126.518
20
-128.587
11
126.625
21
-128.566
0
LINE
8
BLACK
6
CONTINUOUS
10
126.625
20
-128.566
11
126.837
21
-128.524
0
LINE
8
BLACK
6
CONTINUOUS
10
126.837
20
-128.524
11
127.163
21
-128.524
0
LINE
8
BLACK
6
CONTINUOUS
10
127.163
20
-128.524
11
127.375
21
-128.566
0
LINE
8
BLACK
6
CONTINUOUS
10
165.475
20
-71.4163
11
165.582
21
-71.4374
0
LINE
8
BLACK
6
CONTINUOUS
10
165.582
20
-71.4374
11
165.882
21
-71.5619
0
LINE
8
BLACK
6
CONTINUOUS
10
165.882
20
-71.5619
11
166.152
21
-71.7426
0
LINE
8
BLACK
6
CONTINUOUS
10
166.152
20
-71.7426
11
166.382
21
-71.9725
0
LINE
8
BLACK
6
CONTINUOUS
10
166.382
20
-71.9725
11
166.563
21
-72.243
0
LINE
8
BLACK
6
CONTINUOUS
10
166.563
20
-72.243
11
166.688
21
-72.5434
0
LINE
8
BLACK
6
CONTINUOUS
10
166.688
20
-72.5434
11
166.751
21
-72.8624
0
LINE
8
BLACK
6
CONTINUOUS
10
166.751
20
-72.8624
11
166.751
21
-73.1876
0
LINE
8
BLACK
6
CONTINUOUS
10
166.751
20
-73.1876
11
166.688
21
-73.5066
0
LINE
8
BLACK
6
CONTINUOUS
10
166.688
20
-73.5066
11
166.563
21
-73.807
0
LINE
8
BLACK
6
CONTINUOUS
10
166.563
20
-73.807
11
166.382
21
-74.0775
0
LINE
8
BLACK
6
CONTINUOUS
10
166.382
20
-74.0775
11
166.152
21
-74.3074
0
LINE
8
BLACK
6
CONTINUOUS
10
166.152
20
-74.3074
11
165.882
21
-74.4881
0
LINE
8
BLACK
6
CONTINUOUS
10
165.882
20
-74.4881
11
165.582
21
-74.6126
0
LINE
8
BLACK
6
CONTINUOUS
10
165.582
20
-74.6126
11
165.475
21
-74.6337
0
LINE
8
BLACK
6
CONTINUOUS
10
165.475
20
-74.6337
11
165.263
21
-74.676
0
LINE
8
BLACK
6
CONTINUOUS
10
165.263
20
-74.676
11
164.937
21
-74.676
0
LINE
8
BLACK
6
CONTINUOUS
10
164.937
20
-74.676
11
164.725
21
-74.6337
0
LINE
8
BLACK
6
CONTINUOUS
10
164.725
20
-74.6337
11
164.618
21
-74.6126
0
LINE
8
BLACK
6
CONTINUOUS
10
164.618
20
-74.6126
11
164.318
21
-74.4881
0
LINE
8
BLACK
6
CONTINUOUS
10
164.318
20
-74.4881
11
164.048
21
-74.3074
0
LINE
8
BLACK
6
CONTINUOUS
10
164.048
20
-74.3074
11
163.818
21
-74.0775
0
LINE
8
BLACK
6
CONTINUOUS
10
163.818
20
-74.0775
11
163.637
21
-73.807
0
LINE
8
BLACK
6
CONTINUOUS
10
163.637
20
-73.807
11
163.512
21
-73.5066
0
LINE
8
BLACK
6
CONTINUOUS
10
163.512
20
-73.5066
11
163.449
21
-73.1876
0
LINE
8
BLACK
6
CONTINUOUS
10
163.449
20
-73.1876
11
163.449
21
-72.8624
0
LINE
8
BLACK
6
CONTINUOUS
10
163.449
20
-72.8624
11
163.512
21
-72.5434
0
LINE
8
BLACK
6
CONTINUOUS
10
163.512
20
-72.5434
11
163.637
21
-72.243
0
LINE
8
BLACK
6
CONTINUOUS
10
163.637
20
-72.243
11
163.818
21
-71.9725
0
LINE
8
BLACK
6
CONTINUOUS
10
163.818
20
-71.9725
11
164.048
21
-71.7426
0
LINE
8
BLACK
6
CONTINUOUS
10
164.048
20
-71.7426
11
164.318
21
-71.5619
0
LINE
8
BLACK
6
CONTINUOUS
10
164.318
20
-71.5619
11
164.618
21
-71.4374
0
LINE
8
BLACK
6
CONTINUOUS
10
164.618
20
-71.4374
11
164.725
21
-71.4163
0
LINE
8
BLACK
6
CONTINUOUS
10
164.725
20
-71.4163
11
164.937
21
-71.374
0
LINE
8
BLACK
6
CONTINUOUS
10
164.937
20
-71.374
11
165.263
21
-71.374
0
LINE
8
BLACK
6
CONTINUOUS
10
165.263
20
-71.374
11
165.475
21
-71.4163
0
LINE
8
BLACK
6
CONTINUOUS
10
127.375
20
-71.4163
11
127.482
21
-71.4374
0
LINE
8
BLACK
6
CONTINUOUS
10
127.482
20
-71.4374
11
127.782
21
-71.5619
0
LINE
8
BLACK
6
CONTINUOUS
10
127.782
20
-71.5619
11
128.052
21
-71.7426
0
LINE
8
BLACK
6
CONTINUOUS
10
128.052
20
-71.7426
11
128.282
21
-71.9725
0
LINE
8
BLACK
6
CONTINUOUS
10
128.282
20
-71.9725
11
128.463
21
-72.243
0
LINE
8
BLACK
6
CONTINUOUS
10
128.463
20
-72.243
11
128.588
21
-72.5434
0
LINE
8
BLACK
6
CONTINUOUS
10
128.588
20
-72.5434
11
128.651
21
-72.8624
0
LINE
8
BLACK
6
CONTINUOUS
10
128.651
20
-72.8624
11
128.651
21
-73.1876
0
LINE
8
BLACK
6
CONTINUOUS
10
128.651
20
-73.1876
11
128.588
21
-73.5066
0
LINE
8
BLACK
6
CONTINUOUS
10
128.588
20
-73.5066
11
128.463
21
-73.807
0
LINE
8
BLACK
6
CONTINUOUS
10
128.463
20
-73.807
11
128.282
21
-74.0775
0
LINE
8
BLACK
6
CONTINUOUS
10
128.282
20
-74.0775
11
128.052
21
-74.3074
0
LINE
8
BLACK
6
CONTINUOUS
10
128.052
20
-74.3074
11
127.782
21
-74.4881
0
LINE
8
BLACK
6
CONTINUOUS
10
127.782
20
-74.4881
11
127.482
21
-74.6126
0
LINE
8
BLACK
6
CONTINUOUS
10
127.482
20
-74.6126
11
127.375
21
-74.6337
0
LINE
8
BLACK
6
CONTINUOUS
10
127.375
20
-74.6337
11
127.163
21
-74.676
0
LINE
8
BLACK
6
CONTINUOUS
10
127.163
20
-74.676
11
126.837
21
-74.676
0
LINE
8
BLACK
6
CONTINUOUS
10
126.837
20
-74.676
11
126.625
21
-74.6337
0
LINE
8
BLACK
6
CONTINUOUS
10
126.625
20
-74.6337
11
126.518
21
-74.6126
0
LINE
8
BLACK
6
CONTINUOUS
10
126.518
20
-74.6126
11
126.218
21
-74.4881
0
LINE
8
BLACK
6
CONTINUOUS
10
126.218
20
-74.4881
11
125.948
21
-74.3074
0
LINE
8
BLACK
6
CONTINUOUS
10
125.948
20
-74.3074
11
125.718
21
-74.0775
0
LINE
8
BLACK
6
CONTINUOUS
10
125.718
20
-74.0775
11
125.537
21
-73.807
0
LINE
8
BLACK
6
CONTINUOUS
10
125.537
20
-73.807
11
125.412
21
-73.5066
0
LINE
8
BLACK
6
CONTINUOUS
10
125.412
20
-73.5066
11
125.349
21
-73.1876
0
LINE
8
BLACK
6
CONTINUOUS
10
125.349
20
-73.1876
11
125.349
21
-72.8624
0
LINE
8
BLACK
6
CONTINUOUS
10
125.349
20
-72.8624
11
125.412
21
-72.5434
0
LINE
8
BLACK
6
CONTINUOUS
10
125.412
20
-72.5434
11
125.537
21
-72.243
0
LINE
8
BLACK
6
CONTINUOUS
10
125.537
20
-72.243
11
125.718
21
-71.9725
0
LINE
8
BLACK
6
CONTINUOUS
10
125.718
20
-71.9725
11
125.948
21
-71.7426
0
LINE
8
BLACK
6
CONTINUOUS
10
125.948
20
-71.7426
11
126.218
21
-71.5619
0
LINE
8
BLACK
6
CONTINUOUS
10
126.218
20
-71.5619
11
126.518
21
-71.4374
0
LINE
8
BLACK
6
CONTINUOUS
10
126.518
20
-71.4374
11
126.625
21
-71.4163
0
LINE
8
BLACK
6
CONTINUOUS
10
126.625
20
-71.4163
11
126.837
21
-71.374
0
LINE
8
BLACK
6
CONTINUOUS
10
126.837
20
-71.374
11
127.163
21
-71.374
0
LINE
8
BLACK
6
CONTINUOUS
10
127.163
20
-71.374
11
127.375
21
-71.4163
  0
ENDSEC
  0
EOF
