  0
SECTION
  2
HEADER
  9
$ANGBASE
  50
0.0
  9
$ANGDIR
  70
1
  9
$MEASUREMENT
  70
1
  0
ENDSEC
  0
SECTION
  2
TABLES
  0
TABLE
  2
LTYPE
  70
4
  0
LTYPE
  5
40F
  2
CONTINUOUS
  70
0
  3
Solid line
  72
65
  73
0
  40
0.0
  0
LTYPE
  5
410
  2
DASHDOT
 70
0
  3
Dash Dot ____ _ ____ _
 72
65
 73
4
 40
2.0
 49
1.25
 49
-0.25
 49
0.25
 49
-0.25
  0
LTYPE
  5
411
  2
DASHED
 70
0
  3
Dashed __ __ __ __ __
 72
65
 73
2
 40
0.75
 49
0.5
 49
-0.25
  0
LTYPE
  5
43B
  2
DOTTED
 70
0
  3
Dotted .  .  .  .
 72
65
 73
2
 40
0.2
 49
0.0
 49
-0.2
  0
ENDTAB
  0
TABLE
  2
STYLE
  70
4
  0
STYLE
  2
KICAD
  70
0
  40
0
  41
1
  42
1
  50
0
  71
0
  3
isocp.shx
  0
STYLE
  2
KICADB
  70
0
  40
0
  41
1
  42
1
  50
0
  71
0
  3
isocp.shx
  0
STYLE
  2
KICADI
  70
0
  40
0
  41
1
  42
1
  50
15
  71
0
  3
isocp.shx
  0
STYLE
  2
KICADBI
  70
0
  40
0
  41
1
  42
1
  50
15
  71
0
  3
isocp.shx
  0
ENDTAB
  0
TABLE
  2
LAYER
  70
1
  0
LAYER
  2
BLACK
  70
0
  62
7
  6
CONTINUOUS
  0
ENDTAB
  0
ENDSEC
  0
SECTION
  2
ENTITIES
0
CIRCLE
8
BLACK
10
127
20
-130.175
40
1.6
0
CIRCLE
8
BLACK
10
165.1
20
-130.175
40
1.6
0
CIRCLE
8
BLACK
10
165.1
20
-73.025
40
1.6
0
CIRCLE
8
BLACK
10
127
20
-73.025
40
1.6
0
LINE
8
BLACK
6
CONTINUOUS
10
103.95
20
-33.195
11
103.95
21
-153.812
0
LINE
8
BLACK
6
CONTINUOUS
10
104.95
20
-154.812
11
188.42
21
-154.812
0
ARC
8
BLACK
10
188.42
20
-33.195
40
1
50
-0
51
90
0
LINE
8
BLACK
6
CONTINUOUS
10
189.42
20
-153.812
11
189.42
21
-33.195
0
LINE
8
BLACK
6
CONTINUOUS
10
104.95
20
-32.195
11
188.42
21
-32.195
0
ARC
8
BLACK
10
188.42
20
-153.812
40
1
50
-90
51
-0
0
ARC
8
BLACK
10
104.95
20
-33.195
40
1
50
90
51
180
0
ARC
8
BLACK
10
104.95
20
-153.812
40
1
50
180
51
270
0
LINE
8
BLACK
6
CONTINUOUS
10
175.379
20
-114.075
11
175.379
21
-114.95
0
LINE
8
BLACK
6
CONTINUOUS
10
175.379
20
-114.075
11
172.579
21
-114.075
0
LINE
8
BLACK
6
CONTINUOUS
10
172.579
20
-114.075
11
172.579
21
-114.95
0
LINE
8
BLACK
6
CONTINUOUS
10
182.849
20
-116.775
11
181.649
21
-116.775
0
LINE
8
BLACK
6
CONTINUOUS
10
182.849
20
-119.775
11
181.649
21
-119.775
0
LINE
8
BLACK
6
CONTINUOUS
10
181.649
20
-114.95
11
181.649
21
-116.775
0
LINE
8
BLACK
6
CONTINUOUS
10
181.649
20
-119.775
11
181.649
21
-121.6
0
LINE
8
BLACK
6
CONTINUOUS
10
182.849
20
-116.775
11
182.849
21
-119.775
0
LINE
8
BLACK
6
CONTINUOUS
10
181.649
20
-114.95
11
175.379
21
-114.95
0
LINE
8
BLACK
6
CONTINUOUS
10
172.579
20
-114.95
11
169.349
21
-114.95
0
LINE
8
BLACK
6
CONTINUOUS
10
169.349
20
-114.95
11
169.349
21
-121.6
0
LINE
8
BLACK
6
CONTINUOUS
10
181.649
20
-121.6
11
169.349
21
-121.6
0
LINE
8
BLACK
6
CONTINUOUS
10
181.625
20
-123.175
11
167.625
21
-123.175
0
LINE
8
BLACK
6
CONTINUOUS
10
167.625
20
-123.175
11
167.625
21
-137.175
0
LINE
8
BLACK
6
CONTINUOUS
10
181.625
20
-123.175
11
181.625
21
-137.175
0
LINE
8
BLACK
6
CONTINUOUS
10
181.625
20
-137.175
11
167.625
21
-137.175
0
LINE
8
BLACK
6
CONTINUOUS
10
181.649
20
-138.75
11
181.649
21
-140.575
0
LINE
8
BLACK
6
CONTINUOUS
10
182.849
20
-140.575
11
181.649
21
-140.575
0
LINE
8
BLACK
6
CONTINUOUS
10
182.849
20
-140.575
11
182.849
21
-143.575
0
LINE
8
BLACK
6
CONTINUOUS
10
182.849
20
-143.575
11
181.649
21
-143.575
0
LINE
8
BLACK
6
CONTINUOUS
10
181.649
20
-143.575
11
181.649
21
-145.4
0
LINE
8
BLACK
6
CONTINUOUS
10
181.649
20
-145.4
11
175.379
21
-145.4
0
LINE
8
BLACK
6
CONTINUOUS
10
175.379
20
-145.4
11
175.379
21
-146.275
0
LINE
8
BLACK
6
CONTINUOUS
10
175.379
20
-146.275
11
172.579
21
-146.275
0
LINE
8
BLACK
6
CONTINUOUS
10
172.579
20
-145.4
11
172.579
21
-146.275
0
LINE
8
BLACK
6
CONTINUOUS
10
172.579
20
-145.4
11
169.349
21
-145.4
0
LINE
8
BLACK
6
CONTINUOUS
10
169.349
20
-138.75
11
169.349
21
-145.4
0
LINE
8
BLACK
6
CONTINUOUS
10
181.649
20
-138.75
11
169.349
21
-138.75
0
LINE
8
BLACK
6
CONTINUOUS
10
175.379
20
-75.975
11
175.379
21
-76.85
0
LINE
8
BLACK
6
CONTINUOUS
10
175.379
20
-75.975
11
172.579
21
-75.975
0
LINE
8
BLACK
6
CONTINUOUS
10
172.579
20
-75.975
11
172.579
21
-76.85
0
LINE
8
BLACK
6
CONTINUOUS
10
182.849
20
-78.675
11
181.649
21
-78.675
0
LINE
8
BLACK
6
CONTINUOUS
10
182.849
20
-81.675
11
181.649
21
-81.675
0
LINE
8
BLACK
6
CONTINUOUS
10
181.649
20
-76.85
11
181.649
21
-78.675
0
LINE
8
BLACK
6
CONTINUOUS
10
181.649
20
-81.675
11
181.649
21
-83.5
0
LINE
8
BLACK
6
CONTINUOUS
10
182.849
20
-78.675
11
182.849
21
-81.675
0
LINE
8
BLACK
6
CONTINUOUS
10
181.649
20
-76.85
11
175.379
21
-76.85
0
LINE
8
BLACK
6
CONTINUOUS
10
172.579
20
-76.85
11
169.349
21
-76.85
0
LINE
8
BLACK
6
CONTINUOUS
10
169.349
20
-76.85
11
169.349
21
-83.5
0
LINE
8
BLACK
6
CONTINUOUS
10
181.649
20
-83.5
11
169.349
21
-83.5
0
LINE
8
BLACK
6
CONTINUOUS
10
181.625
20
-85.075
11
167.625
21
-85.075
0
LINE
8
BLACK
6
CONTINUOUS
10
167.625
20
-85.075
11
167.625
21
-99.075
0
LINE
8
BLACK
6
CONTINUOUS
10
181.625
20
-85.075
11
181.625
21
-99.075
0
LINE
8
BLACK
6
CONTINUOUS
10
181.625
20
-99.075
11
167.625
21
-99.075
0
LINE
8
BLACK
6
CONTINUOUS
10
181.649
20
-100.65
11
181.649
21
-102.475
0
LINE
8
BLACK
6
CONTINUOUS
10
182.849
20
-102.475
11
181.649
21
-102.475
0
LINE
8
BLACK
6
CONTINUOUS
10
182.849
20
-102.475
11
182.849
21
-105.475
0
LINE
8
BLACK
6
CONTINUOUS
10
182.849
20
-105.475
11
181.649
21
-105.475
0
LINE
8
BLACK
6
CONTINUOUS
10
181.649
20
-105.475
11
181.649
21
-107.3
0
LINE
8
BLACK
6
CONTINUOUS
10
181.649
20
-107.3
11
175.379
21
-107.3
0
LINE
8
BLACK
6
CONTINUOUS
10
175.379
20
-107.3
11
175.379
21
-108.175
0
LINE
8
BLACK
6
CONTINUOUS
10
175.379
20
-108.175
11
172.579
21
-108.175
0
LINE
8
BLACK
6
CONTINUOUS
10
172.579
20
-107.3
11
172.579
21
-108.175
0
LINE
8
BLACK
6
CONTINUOUS
10
172.579
20
-107.3
11
169.349
21
-107.3
0
LINE
8
BLACK
6
CONTINUOUS
10
169.349
20
-100.65
11
169.349
21
-107.3
0
LINE
8
BLACK
6
CONTINUOUS
10
181.649
20
-100.65
11
169.349
21
-100.65
0
LINE
8
BLACK
6
CONTINUOUS
10
129.525
20
-132.7
11
129.525
21
-146.7
0
LINE
8
BLACK
6
CONTINUOUS
10
129.525
20
-146.7
11
143.525
21
-146.7
0
LINE
8
BLACK
6
CONTINUOUS
10
129.525
20
-132.7
11
143.525
21
-132.7
0
LINE
8
BLACK
6
CONTINUOUS
10
143.525
20
-132.7
11
143.525
21
-146.7
0
LINE
8
BLACK
6
CONTINUOUS
10
110.475
20
-132.7
11
110.475
21
-146.7
0
LINE
8
BLACK
6
CONTINUOUS
10
110.475
20
-146.7
11
124.475
21
-146.7
0
LINE
8
BLACK
6
CONTINUOUS
10
110.475
20
-132.7
11
124.475
21
-132.7
0
LINE
8
BLACK
6
CONTINUOUS
10
124.475
20
-132.7
11
124.475
21
-146.7
0
LINE
8
BLACK
6
CONTINUOUS
10
148.575
20
-132.7
11
148.575
21
-146.7
0
LINE
8
BLACK
6
CONTINUOUS
10
148.575
20
-146.7
11
162.575
21
-146.7
0
LINE
8
BLACK
6
CONTINUOUS
10
148.575
20
-132.7
11
162.575
21
-132.7
0
LINE
8
BLACK
6
CONTINUOUS
10
162.575
20
-132.7
11
162.575
21
-146.7
0
LINE
8
BLACK
6
CONTINUOUS
10
148.575
20
-113.65
11
148.575
21
-127.65
0
LINE
8
BLACK
6
CONTINUOUS
10
148.575
20
-127.65
11
162.575
21
-127.65
0
LINE
8
BLACK
6
CONTINUOUS
10
148.575
20
-113.65
11
162.575
21
-113.65
0
LINE
8
BLACK
6
CONTINUOUS
10
162.575
20
-113.65
11
162.575
21
-127.65
0
LINE
8
BLACK
6
CONTINUOUS
10
110.475
20
-75.55
11
110.475
21
-89.55
0
LINE
8
BLACK
6
CONTINUOUS
10
110.475
20
-89.55
11
124.475
21
-89.55
0
LINE
8
BLACK
6
CONTINUOUS
10
110.475
20
-75.55
11
124.475
21
-75.55
0
LINE
8
BLACK
6
CONTINUOUS
10
124.475
20
-75.55
11
124.475
21
-89.55
0
LINE
8
BLACK
6
CONTINUOUS
10
129.525
20
-113.65
11
129.525
21
-127.65
0
LINE
8
BLACK
6
CONTINUOUS
10
129.525
20
-127.65
11
143.525
21
-127.65
0
LINE
8
BLACK
6
CONTINUOUS
10
129.525
20
-113.65
11
143.525
21
-113.65
0
LINE
8
BLACK
6
CONTINUOUS
10
143.525
20
-113.65
11
143.525
21
-127.65
0
LINE
8
BLACK
6
CONTINUOUS
10
129.525
20
-75.55
11
129.525
21
-89.55
0
LINE
8
BLACK
6
CONTINUOUS
10
129.525
20
-89.55
11
143.525
21
-89.55
0
LINE
8
BLACK
6
CONTINUOUS
10
129.525
20
-75.55
11
143.525
21
-75.55
0
LINE
8
BLACK
6
CONTINUOUS
10
143.525
20
-75.55
11
143.525
21
-89.55
0
LINE
8
BLACK
6
CONTINUOUS
10
110.475
20
-94.6
11
110.475
21
-108.6
0
LINE
8
BLACK
6
CONTINUOUS
10
110.475
20
-108.6
11
124.475
21
-108.6
0
LINE
8
BLACK
6
CONTINUOUS
10
110.475
20
-94.6
11
124.475
21
-94.6
0
LINE
8
BLACK
6
CONTINUOUS
10
124.475
20
-94.6
11
124.475
21
-108.6
0
LINE
8
BLACK
6
CONTINUOUS
10
129.525
20
-56.5
11
129.525
21
-70.5
0
LINE
8
BLACK
6
CONTINUOUS
10
129.525
20
-70.5
11
143.525
21
-70.5
0
LINE
8
BLACK
6
CONTINUOUS
10
129.525
20
-56.5
11
143.525
21
-56.5
0
LINE
8
BLACK
6
CONTINUOUS
10
143.525
20
-56.5
11
143.525
21
-70.5
0
LINE
8
BLACK
6
CONTINUOUS
10
148.575
20
-56.5
11
148.575
21
-70.5
0
LINE
8
BLACK
6
CONTINUOUS
10
148.575
20
-70.5
11
162.575
21
-70.5
0
LINE
8
BLACK
6
CONTINUOUS
10
148.575
20
-56.5
11
162.575
21
-56.5
0
LINE
8
BLACK
6
CONTINUOUS
10
162.575
20
-56.5
11
162.575
21
-70.5
0
LINE
8
BLACK
6
CONTINUOUS
10
110.475
20
-113.65
11
110.475
21
-127.65
0
LINE
8
BLACK
6
CONTINUOUS
10
110.475
20
-127.65
11
124.475
21
-127.65
0
LINE
8
BLACK
6
CONTINUOUS
10
110.475
20
-113.65
11
124.475
21
-113.65
0
LINE
8
BLACK
6
CONTINUOUS
10
124.475
20
-113.65
11
124.475
21
-127.65
0
LINE
8
BLACK
6
CONTINUOUS
10
167.625
20
-56.5
11
167.625
21
-70.5
0
LINE
8
BLACK
6
CONTINUOUS
10
167.625
20
-70.5
11
181.625
21
-70.5
0
LINE
8
BLACK
6
CONTINUOUS
10
167.625
20
-56.5
11
181.625
21
-56.5
0
LINE
8
BLACK
6
CONTINUOUS
10
181.625
20
-56.5
11
181.625
21
-70.5
0
LINE
8
BLACK
6
CONTINUOUS
10
148.575
20
-75.55
11
148.575
21
-89.55
0
LINE
8
BLACK
6
CONTINUOUS
10
148.575
20
-89.55
11
162.575
21
-89.55
0
LINE
8
BLACK
6
CONTINUOUS
10
148.575
20
-75.55
11
162.575
21
-75.55
0
LINE
8
BLACK
6
CONTINUOUS
10
162.575
20
-75.55
11
162.575
21
-89.55
0
LINE
8
BLACK
6
CONTINUOUS
10
148.575
20
-94.6
11
148.575
21
-108.6
0
LINE
8
BLACK
6
CONTINUOUS
10
148.575
20
-108.6
11
162.575
21
-108.6
0
LINE
8
BLACK
6
CONTINUOUS
10
148.575
20
-94.6
11
162.575
21
-94.6
0
LINE
8
BLACK
6
CONTINUOUS
10
162.575
20
-94.6
11
162.575
21
-108.6
0
LINE
8
BLACK
6
CONTINUOUS
10
110.475
20
-56.5
11
110.475
21
-70.5
0
LINE
8
BLACK
6
CONTINUOUS
10
110.475
20
-70.5
11
124.475
21
-70.5
0
LINE
8
BLACK
6
CONTINUOUS
10
110.475
20
-56.5
11
124.475
21
-56.5
0
LINE
8
BLACK
6
CONTINUOUS
10
124.475
20
-56.5
11
124.475
21
-70.5
0
LINE
8
BLACK
6
CONTINUOUS
10
129.525
20
-94.6
11
129.525
21
-108.6
0
LINE
8
BLACK
6
CONTINUOUS
10
129.525
20
-108.6
11
143.525
21
-108.6
0
LINE
8
BLACK
6
CONTINUOUS
10
129.525
20
-94.6
11
143.525
21
-94.6
0
LINE
8
BLACK
6
CONTINUOUS
10
143.525
20
-94.6
11
143.525
21
-108.6
  0
ENDSEC
  0
EOF
